<svg width="984" height="1092" viewBox="0 0 984 1092" fill="none" xmlns="http://www.w3.org/2000/svg">
<g clip-path="url(#clip0_552_419)">
<path d="M210.468 481.483C208.056 481.483 206.094 483.445 206.094 485.858V520.86C206.094 523.273 208.056 525.235 210.468 525.235C212.881 525.235 214.843 523.273 214.843 520.86V485.858C214.843 483.445 212.881 481.483 210.468 481.483Z" fill="#3F3D56"/>
<path d="M708.05 92H314.551C269.928 92 233.754 128.18 233.754 172.81V868.268C233.754 912.898 269.928 949.078 314.551 949.078H708.05C752.673 949.078 788.847 912.898 788.847 868.268V172.81C788.847 128.18 752.673 92 708.05 92Z" fill="white"/>
<path d="M708.051 955H314.552C268.946 955 231.842 917.891 231.842 872.277V176.82C231.842 131.206 268.946 94.0959 314.552 94.0959H708.051C753.658 94.0959 790.762 131.206 790.762 176.82V872.277C790.762 917.891 753.658 955 708.051 955ZM314.552 97.9231C271.055 97.9231 235.668 133.316 235.668 176.82V872.277C235.668 915.781 271.055 951.173 314.552 951.173H708.051C751.548 951.173 786.935 915.781 786.935 872.277V176.82C786.935 133.316 751.548 97.9231 708.051 97.9231H314.552Z" fill="#3F3D56"/>
<path d="M736.555 261.46H578.389C571.681 261.46 566.223 256.001 566.223 249.291C566.223 242.582 571.681 237.123 578.389 237.123H736.555C743.263 237.123 748.721 242.582 748.721 249.291C748.721 256.001 743.263 261.46 736.555 261.46Z" fill="#E6E6E6"/>
<path d="M588.175 357.153H434.43C430.554 357.153 427.4 353.998 427.4 350.122C427.4 346.245 430.554 343.092 434.43 343.092H588.175C592.051 343.092 595.203 346.245 595.203 350.122C595.203 353.998 592.051 357.153 588.175 357.153V357.153Z" fill="#01226F"/>
<path d="M371.051 122.145H282.916C282.688 122.145 282.502 122.33 282.502 122.559V133.138C282.502 133.367 282.688 133.552 282.916 133.552H371.051C371.279 133.552 371.465 133.367 371.465 133.138V122.559C371.465 122.33 371.279 122.145 371.051 122.145Z" fill="#E6E6E6"/>
<path d="M666.531 133.552C671.57 133.552 675.655 129.466 675.655 124.426C675.655 119.386 671.57 115.3 666.531 115.3C661.491 115.3 657.406 119.386 657.406 124.426C657.406 129.466 661.491 133.552 666.531 133.552Z" fill="#E6E6E6"/>
<path d="M691.622 133.552C696.662 133.552 700.747 129.466 700.747 124.426C700.747 119.386 696.662 115.3 691.622 115.3C686.583 115.3 682.498 119.386 682.498 124.426C682.498 129.466 686.583 133.552 691.622 133.552Z" fill="#E6E6E6"/>
<path d="M716.714 133.552C721.754 133.552 725.839 129.466 725.839 124.426C725.839 119.386 721.754 115.3 716.714 115.3C711.675 115.3 707.59 119.386 707.59 124.426C707.59 129.466 711.675 133.552 716.714 133.552Z" fill="#E6E6E6"/>
<path d="M313.594 394.788C313.594 396.051 314.608 397.065 315.871 397.065H706.732C707.994 397.065 709.008 396.051 709.008 394.788C709.008 393.525 707.994 392.51 706.732 392.51H315.871C314.608 392.51 313.594 393.525 313.594 394.788Z" fill="#3F3D56"/>
<path d="M623.586 716.858C623.586 718.121 624.6 719.135 625.863 719.135H1016.72C1017.99 719.135 1019 718.121 1019 716.858C1019 715.595 1017.99 714.581 1016.72 714.581H625.863C624.6 714.581 623.586 715.595 623.586 716.858Z" fill="#3F3D56"/>
<path d="M669.251 573.766H434.688C430.812 573.766 427.658 570.612 427.658 566.735C427.658 562.859 430.812 559.706 434.688 559.706H669.251C673.127 559.706 676.279 562.859 676.279 566.735C676.279 570.612 673.127 573.766 669.251 573.766Z" fill="#01226F"/>
<path d="M363.544 583.089C373.054 583.089 380.763 575.378 380.763 565.867C380.763 556.355 373.054 548.645 363.544 548.645C354.034 548.645 346.324 556.355 346.324 565.867C346.324 575.378 354.034 583.089 363.544 583.089Z" fill="#01226F"/>
<path d="M361.629 594.57V590.743C375.871 590.743 387.458 579.154 387.458 564.91C387.458 550.666 375.871 539.077 361.629 539.077V535.249C377.981 535.249 391.285 548.555 391.285 564.91C391.285 581.265 377.981 594.57 361.629 594.57Z" fill="#3F3D56"/>
<path d="M156.538 496.411C163.562 489.262 172.944 487.092 177.492 491.563C182.04 496.035 180.032 505.454 173.005 512.605C170.237 515.5 166.816 517.689 163.028 518.991L132.885 548.907L119.15 534.46L150.325 506.502C151.56 502.69 153.691 499.23 156.538 496.411H156.538Z" fill="#FFB6B6"/>
<path d="M60.1348 471.718L91.7394 541.842L142.207 514.52L160.269 524.107C160.269 524.107 119.012 593.091 90.7642 585.238C62.516 577.386 12.3546 506.18 21.3924 484.204C30.4303 462.228 60.1348 471.718 60.1348 471.718Z" fill="#E6E6E6"/>
<path d="M-77 952.653C-77 953.535 -76.2918 954.243 -75.4099 954.243H899.046C899.928 954.243 900.636 953.535 900.636 952.653C900.636 951.771 899.928 951.062 899.046 951.062H-75.4099C-76.2918 951.062 -77 951.771 -77 952.653Z" fill="#3F3D56"/>
<path d="M214.716 609.823C262.608 609.823 301.432 571.811 301.432 524.92C301.432 478.029 262.608 440.017 214.716 440.017C166.824 440.017 128 478.029 128 524.92C128 571.811 166.824 609.823 214.716 609.823Z" fill="#01226F"/>
<path d="M46.2761 939.069L69.321 939.066L80.2835 850.164L46.2715 850.166L46.2761 939.069Z" fill="#FFB6B6"/>
<path d="M125.231 938.546C125.949 939.755 126.327 943.656 126.327 945.061C126.327 949.381 122.825 952.884 118.506 952.884H47.1384C44.1915 952.884 41.8025 950.495 41.8025 947.547V944.575C41.8025 944.575 38.2721 935.644 45.5407 924.635C45.5407 924.635 54.5746 933.255 68.0736 919.754L72.0543 912.541L100.869 933.619L116.841 935.585C120.335 936.015 123.433 935.518 125.231 938.546H125.231Z" fill="#2F2E41"/>
<path d="M63.7155 476.218L64.1816 445.13L45.0142 433.18L24.1719 458.679L63.7155 476.218Z" fill="#FFB6B6"/>
<path opacity="0.1" d="M63.715 476.218L64.9556 445.905L45.0137 433.18L51.789 470.693L63.715 476.218Z" fill="black"/>
<path d="M110.264 681.782L78.5089 897.906H38.6682L43.9658 774.537L46.754 709.669L38.6682 678.792C38.6682 678.792 34.9815 671.929 31.8757 663.609C28.3749 654.22 25.6099 642.965 29.7148 637.628C31.2251 635.66 35.1519 634.204 40.4882 633.119C43.7489 632.453 47.5441 631.934 51.6412 631.531C75.2018 629.2 108.715 630.656 108.715 630.656L109.567 658.775L110.039 674.477L110.264 681.782L110.264 681.782Z" fill="#2F2E41"/>
<path d="M5.68164 928.499L28.4817 931.849L52.2571 845.487L18.6065 840.541L5.68164 928.499Z" fill="#FFB6B6"/>
<path d="M83.8725 939.468C84.4066 940.768 84.2139 944.683 84.0095 946.073C83.3812 950.348 79.4073 953.304 75.1335 952.675L4.52528 942.293C1.60978 941.864 -0.406368 939.152 0.0223027 936.236L0.454485 933.296C0.454485 933.296 -1.73948 923.946 7.05285 914.112C7.05285 914.112 14.737 923.954 30.056 912.561L35.0433 906.004L60.4865 931.049L76.0024 935.318C79.397 936.252 82.5343 936.211 83.8723 939.468H83.8725L83.8725 939.468Z" fill="#2F2E41"/>
<path d="M110.764 645.739L106.409 683.254L82.656 762.31L43.5553 892.462L4.14258 886.669L39.515 701.612L36.0126 669.879C36.0126 669.879 34.872 666.725 33.5645 662.107C30.9693 652.972 27.7142 638.094 31.2953 630.506C31.7788 629.474 32.3858 628.579 33.1368 627.854C34.5453 626.488 37.408 625.658 41.2433 625.218C57.2744 623.406 90.2893 628.589 104.98 631.134L110.764 645.739V645.739Z" fill="#2F2E41"/>
<path d="M28.5539 452.102L67.2794 470.693C67.2794 470.693 108.328 592.311 108.328 598.509C108.328 604.706 119.946 608.579 112.975 615.551C106.005 622.522 125.95 628.427 115.203 633.995C104.456 639.564 37.415 670.025 29.9604 667.278C9.40015 659.702 30.8316 631.864 30.8316 631.864C30.8316 631.864 15.3872 619.424 17.7107 613.227C20.0343 607.03 3.76953 488.51 3.76953 488.51L28.5538 452.102H28.5539Z" fill="#E6E6E6"/>
<path d="M146.555 559.267C156.165 556.427 165.421 559.085 167.227 565.202C169.033 571.32 162.706 578.579 153.091 581.419C149.266 582.606 145.212 582.86 141.269 582.158L100.396 593.677L95.4004 574.378L136.225 565.072C139.155 562.339 142.697 560.349 146.555 559.267H146.555Z" fill="#FFB6B6"/>
<path d="M74.2589 490.871L67.8526 567.523L125.236 568.14L136.373 585.292C136.373 585.292 66.8209 625.57 45.9363 604.989C25.0518 584.408 15.7592 497.801 34.3274 482.976C52.8956 468.152 74.2589 490.871 74.2589 490.871Z" fill="#E6E6E6"/>
<path d="M62.9063 454.149C81.2278 454.149 96.0803 439.294 96.0803 420.97C96.0803 402.645 81.2278 387.791 62.9063 387.791C44.5849 387.791 29.7324 402.645 29.7324 420.97C29.7324 439.294 44.5849 454.149 62.9063 454.149Z" fill="#FFB6B6"/>
<path d="M45.0138 421.101C45.0138 421.101 50.238 412.479 53.1114 408.038C55.9847 403.596 55.9847 397.09 55.9847 397.09C55.9847 397.09 82.6283 396.543 91.5095 404.119C100.391 411.695 106.66 383.741 98.0398 374.075C98.0398 374.075 94.3828 378.255 95.1665 379.822L95.9501 381.39C95.9501 381.39 91.5095 363.624 78.7101 360.228C78.7101 360.228 71.5899 363.906 73.5828 365.986C75.5756 368.066 58.3356 353.436 53.1114 362.057C53.1114 362.057 40.312 361.796 41.8792 366.498L41.0956 369.372C41.0956 369.372 30.1247 365.976 29.3411 374.075C29.3411 374.075 33.2592 374.075 35.3489 376.165C37.4386 378.255 27.7738 384.264 27.7738 384.264C27.7738 384.264 16.5417 415.092 31.692 427.632C31.692 427.632 31.8226 412.61 37.8304 416.267C43.8383 419.925 45.0138 421.101 45.0138 421.101Z" fill="#2F2E41"/>
<path d="M76.5837 440.695L75.3926 443.83L84.326 444.091L84.9216 441.217L76.5837 440.695Z" fill="#2F2E41"/>
<path d="M85.5166 429.461C85.5166 429.461 72.1164 425.803 64.0763 436.776L62.2896 438.866C62.2896 438.866 45.316 419.794 46.805 412.74L43.2316 413.002L39.6582 431.289C39.6582 431.289 50.9739 450.884 66.7563 451.667C66.7563 451.667 81.9432 455.325 85.2188 449.055C88.4944 442.785 94.134 433.539 94.134 433.539L85.5166 429.461H85.5166ZM83.0792 446.965H74.2009C72.1164 446.965 66.7563 439.388 66.7563 439.388C69.7341 434.686 78.6676 434.425 78.6676 434.425H88.3689L89.0899 437.298L83.0792 446.965H83.0792Z" fill="#2F2E41"/>
<path d="M732.183 941.593L717.617 938.444L722.827 880.754L744.325 885.402L732.183 941.593Z" fill="#A0616A"/>
<path d="M682.35 930.479C681.731 931.145 680.959 933.559 680.767 934.447C680.178 937.178 681.913 939.87 684.643 940.46L729.752 950.208C731.614 950.61 733.451 949.426 733.853 947.563L734.259 945.685C734.259 945.685 737.71 940.522 734.619 932.571C734.619 932.571 727.732 936.785 721.043 926.408L719.512 921.305L698.421 930.692L688.057 929.753C685.79 929.548 683.9 928.811 682.35 930.479L682.35 930.479Z" fill="#2F2E41"/>
<path d="M706.13 937.18L693.979 928.553L721.464 877.567L739.399 890.299L706.13 937.18Z" fill="#A0616A"/>
<path d="M664.69 907.35C663.859 907.719 662.2 909.635 661.674 910.376C660.057 912.654 660.593 915.812 662.871 917.429L700.506 944.143C702.06 945.246 704.214 944.88 705.317 943.326L706.429 941.759C706.429 941.759 711.633 938.37 711.919 929.844C711.919 929.844 703.93 931.008 701.863 918.835L702.463 913.542L679.381 913.871L670.222 908.929C668.218 907.848 666.771 906.427 664.69 907.351L664.69 907.35V907.35Z" fill="#2F2E41"/>
<path d="M881.191 651.958C881.191 651.958 903.852 682.772 858.531 717.415L766 687.843L799.047 618.906L828.317 602.852L881.191 651.958Z" fill="#2F2E41"/>
<path d="M765.999 687.843L730.12 757.725L707.459 903.154L735.785 905.043L764.11 767.168L814.153 692.565L779.218 676.511" fill="#2F2E41"/>
<path d="M858.531 695.465V717.415L794.326 787.944C794.326 787.944 794.326 840.827 769.777 865.38L741.451 908.82L716.902 895.599L752.782 769.057L816.987 685.954L858.531 695.465Z" fill="#2F2E41"/>
<path d="M812.906 477.847L822.643 523.967L859.763 514.894C859.763 514.894 841.414 476.725 845.065 461.603L812.906 477.847Z" fill="#A0616A"/>
<path opacity="0.1" d="M812.906 477.847L822.643 523.967L859.763 514.894C859.763 514.894 841.414 476.725 845.065 461.603L812.906 477.847Z" fill="black"/>
<path d="M848.145 484.809L819.819 498.03C819.819 498.03 805.247 506.938 804.98 512.871C804.712 518.805 806.6 547.136 806.6 547.136C806.6 547.136 795.27 558.468 802.824 581.132L799.047 618.906L884.024 664.234L876.471 584.909L880.247 511.25L848.145 484.809Z" fill="#E6E6E6"/>
<path d="M873.571 699.745C870.254 707.356 863.64 711.813 858.797 709.701C853.955 707.59 852.719 699.709 856.038 692.096C857.322 689.037 859.32 686.33 861.864 684.201L876.324 652.132L891.226 659.239L875.389 690.099C875.562 693.414 874.939 696.721 873.571 699.745V699.745Z" fill="#A0616A"/>
<path d="M858.531 515.972C858.531 515.972 879.303 502.751 886.857 517.861C894.41 532.97 911.406 610.407 911.406 610.407L886.857 684.066L864.196 674.622L884.024 595.349L858.531 515.972Z" fill="#E6E6E6"/>
<path d="M752.068 687.856C746.181 693.709 738.39 695.416 734.666 691.668C730.942 687.921 732.696 680.139 738.585 674.285C740.906 671.914 743.76 670.133 746.91 669.092L772.165 644.606L783.401 656.704L757.311 679.558C756.251 682.703 754.453 685.548 752.068 687.856Z" fill="#A0616A"/>
<path d="M805.777 511.467C805.777 511.467 841.991 509.985 843.448 526.815C844.905 543.645 820.148 618.742 820.148 618.742L770.194 678.174L752.605 661.046L800.239 594.654L805.777 511.467Z" fill="#E6E6E6"/>
<path d="M910.344 710.919L678.774 673.563C674.948 672.945 672.336 669.329 672.954 665.502C673.571 661.674 677.186 659.064 681.013 659.681L912.583 697.038C916.409 697.655 919.019 701.27 918.402 705.097C917.785 708.924 914.171 711.536 910.344 710.919V710.919Z" fill="#01226F"/>
<path d="M609.796 671.656C619.306 671.656 627.015 663.945 627.015 654.433C627.015 644.922 619.306 637.211 609.796 637.211C600.286 637.211 592.576 644.922 592.576 654.433C592.576 663.945 600.286 671.656 609.796 671.656Z" fill="#01226F"/>
<path d="M603.336 682.466L603.945 678.688C618.006 680.956 631.29 671.361 633.558 657.298C635.825 643.235 626.231 629.949 612.171 627.68L612.78 623.902C628.924 626.506 639.939 641.761 637.335 657.907C634.731 674.054 619.48 685.07 603.336 682.466Z" fill="#3F3D56"/>
<path d="M816.619 487.65C832.37 487.65 845.138 474.879 845.138 459.126C845.138 443.372 832.37 430.602 816.619 430.602C800.868 430.602 788.1 443.372 788.1 459.126C788.1 474.879 800.868 487.65 816.619 487.65Z" fill="#A0616A"/>
<path d="M833.472 459.126C833.472 459.126 815.668 442.962 804.26 448.667C792.853 454.372 787.149 458.175 787.149 458.175C787.149 458.175 777.642 443.913 791.902 431.552C791.902 431.552 762.878 418.87 784.044 399.064C805.211 379.258 824.224 386.865 824.224 386.865C824.224 386.865 849.891 398.274 831.829 421.093C831.829 421.093 858.143 437.784 844.511 465.094C844.511 465.094 843.237 447.716 839.434 452.47C835.632 457.224 833.472 459.126 833.472 459.126V459.126Z" fill="#2F2E41"/>
<path d="M244.511 556.886C233.608 530.077 222.705 503.267 211.803 476.457C210.297 472.755 205.58 472.623 204.111 476.457C193.338 504.565 186.299 533.894 182.915 563.799C182.338 568.892 190.32 568.851 190.892 563.799C192.216 552.097 194.182 540.482 196.706 528.991C205.69 529.462 214.748 528.454 223.417 526.054C227.884 537.038 232.351 548.023 236.818 559.007C238.727 563.701 246.447 561.648 244.511 556.886H244.511ZM198.515 521.103C201.202 510.103 204.423 499.234 208.161 488.539L220.387 518.603C213.226 520.483 205.902 521.32 198.515 521.103Z" fill="white"/>
<path d="M259.884 563.592C264.312 563.592 267.901 560.002 267.901 555.573C267.901 551.145 264.312 547.555 259.884 547.555C255.457 547.555 251.867 551.145 251.867 555.573C251.867 560.002 255.457 563.592 259.884 563.592Z" fill="white"/>
<path d="M175.706 492.763C180.134 492.763 183.724 489.173 183.724 484.745C183.724 480.316 180.134 476.726 175.706 476.726C171.279 476.726 167.689 480.316 167.689 484.745C167.689 489.173 171.279 492.763 175.706 492.763Z" fill="white"/>
</g>
<defs>
<clipPath id="clip0_552_419">
<rect width="984" height="1092" fill="white"/>
</clipPath>
</defs>
</svg>
