<svg width="200" height="214" viewBox="0 0 200 214" fill="none" xmlns="http://www.w3.org/2000/svg">
<g clip-path="url(#clip0_360_400)">
<path d="M30.3478 123.726C18.4689 123.726 8.78669 122.627 8.4668 121.252L10.2369 141.981C10.2369 151.823 19.3007 159.853 30.3691 159.853C41.4482 159.853 50.5013 151.802 50.5013 141.981L52.2715 121.22C51.9942 122.627 42.3013 123.726 30.3478 123.726Z" fill="#DEC7B2"/>
<path d="M30.3476 123.726C18.2875 123.726 8.48797 122.606 8.44531 121.199V121.177C8.54128 119.78 18.3088 118.65 30.3476 118.65C42.3865 118.65 52.1327 119.77 52.25 121.177V121.199C52.2073 122.606 42.4078 123.726 30.3476 123.726Z" fill="#E8D4C1"/>
<path d="M30.3477 123.31C20.1643 123.31 11.911 122.35 11.8896 121.177V121.156C11.9856 119.983 20.2177 119.023 30.3477 119.023C40.5098 119.023 48.7419 119.962 48.8058 121.156V121.177C48.7845 122.35 40.5311 123.31 30.3477 123.31Z" fill="#BA9C7E"/>
<path d="M9.22363 130.145C10.6205 130.188 12.0174 130.721 13.2117 131.883C15.4616 134.058 16.8585 137.407 18.6713 139.955C19.3644 138.58 19.9509 137.183 20.484 135.733C21.1238 134.016 23.4378 132.406 25.2505 133.803C27.1806 135.295 28.6201 136.991 29.8784 139.102C30.9553 140.915 31.8297 143.069 33.5252 144.423C35.1567 145.735 36.9907 146.119 37.6519 143.783C38.249 141.747 38.0464 139.539 38.6862 137.503C39.2407 135.807 40.1044 134.016 41.8532 133.28C43.9219 132.384 45.9159 133.483 47.75 134.432C48.8483 134.986 49.9253 135.583 50.9809 136.202L50.6184 140.584C48.7417 139.411 46.4491 137.972 44.519 137.695C43.3034 137.513 43.3994 138.334 43.3034 139.486C43.2394 140.52 43.2394 141.555 43.1861 142.557C43.0688 144.647 42.7702 146.726 41.5333 148.454C38.8995 152.165 33.9411 151.983 30.4542 149.627C28.5774 148.369 27.2232 146.716 26.0289 144.807C25.6344 144.189 25.2718 143.549 24.8773 142.898C23.3844 146.364 21.0918 149.477 17.3277 148.177C14.9925 147.356 13.4783 144.807 12.0707 142.898C11.6335 142.301 10.8338 140.883 10.034 139.593L9.22363 130.145Z" fill="#EBDBCD"/>
<path d="M0.618498 52.879C1.07702 51.1089 3.16702 50.8423 4.40395 51.866C6.73921 53.8173 7.95482 56.5258 9.24507 59.2023C10.578 62.028 12.2521 64.5872 14.1715 67.0504C18.0956 72.0515 22.4462 76.7113 25.3359 82.4375C30.9128 93.538 32.235 106.632 28.4069 118.511C28.2896 118.874 29.0254 116.997 27.8311 120.303C26.7541 123.288 22.5102 121.678 22.5528 118.213C22.5955 114.822 21.6784 111.655 20.1642 108.626C17.1785 102.644 13.4464 97.0675 10.5353 91.0108C7.60293 84.9327 5.01176 78.6734 2.92176 72.2754C0.895742 66.0481 -1.02364 59.4369 0.618498 52.879Z" fill="#4C7378"/>
<path d="M27.9594 18.0209C29.4523 15.2911 33.8775 17.1465 32.9818 20.1322C30.412 28.9187 32.246 38.2277 33.8562 47.0142C35.4877 55.982 37.3644 64.9072 38.484 73.939C40.4567 90.0192 39.8169 108.072 29.6335 121.486C28.5352 122.937 26.2426 121.721 27.1383 120.015C28.1513 118.106 25.6028 105.588 24.4725 101.578C23.3209 97.4514 22.1799 93.3034 21.1456 89.1448C19.1302 81.03 17.4774 72.7234 17.0189 64.3527C16.1552 48.0592 20.1646 32.2883 27.9594 18.0209Z" fill="#57848A"/>
<path d="M32.8 107.379C33.9943 101.898 33.1199 96.1186 34.2928 90.659C35.4445 85.3167 37.0013 79.8998 39.4965 75.016C41.8637 70.3881 45.4786 67.0825 49.7226 64.2141C53.7106 61.5056 58.4344 58.8505 59.842 53.8921C60.6631 50.9597 65.6854 51.3969 65.3655 54.6492C64.7044 61.2817 61.9 67.1252 58.6477 72.862C55.1821 78.9614 52.1538 84.7835 50.437 91.6187C47.5259 103.338 44.9987 118.543 31.627 122.148C30.0062 122.553 30.2515 119.077 32.8 107.379Z" fill="#689399"/>
<path d="M174.515 9.55424L173.854 8.93577L180.187 2.12195L185.135 8.97842L184.378 9.51158L180.092 3.57215L174.515 9.55424Z" fill="#E8D4C1"/>
<path d="M152.09 185.882C150.278 186.362 148.305 185.125 147.431 182.949L142.664 170.836C141.608 168.17 142.685 165.259 144.914 164.694L147.868 163.916C150.096 163.318 152.453 165.334 152.869 168.16L154.682 181.051C155.001 183.333 153.903 185.402 152.09 185.882Z" fill="#7A5B3C"/>
<path d="M76.0399 185.882C77.8526 186.362 79.8253 185.125 80.6997 182.949L85.4662 170.836C86.5219 168.17 85.4449 165.259 83.2163 164.694L80.2625 163.916C78.0339 163.318 75.6773 165.334 75.2615 168.16L73.4487 181.051C73.0968 183.333 74.2058 185.402 76.0399 185.882Z" fill="#7A5B3C"/>
<path d="M163.415 197.718C161.047 198.337 158.488 196.737 157.379 193.911L151.184 178.172C149.83 174.728 151.205 170.943 154.116 170.186L157.966 169.173C160.855 168.415 163.927 171.007 164.46 174.675L166.795 191.416C167.232 194.434 165.782 197.1 163.415 197.718Z" fill="#A67C52"/>
<path d="M64.6834 197.718C67.0506 198.337 69.6098 196.737 70.7188 193.911L76.9142 178.172C78.2684 174.728 76.8928 170.943 73.9818 170.186L70.1323 169.173C67.2426 168.415 64.1716 171.007 63.6384 174.675L61.3032 191.416C60.898 194.434 62.3162 197.1 64.6834 197.718Z" fill="#A67C52"/>
<path d="M170.921 135.263H58.9253C52.2075 135.263 46.7266 129.782 46.7266 123.065V76.7115C46.7266 69.9936 52.2075 64.5127 58.9253 64.5127H170.9C177.618 64.5127 183.099 69.9936 183.099 76.7115V123.065C183.12 129.782 177.618 135.263 170.921 135.263Z" fill="#676BC4"/>
<path d="M175.091 112.423C173.022 112.444 171.305 114.033 171.124 116.091C170.367 123.982 168.138 141.939 163.276 150.885C159.927 157.027 150.107 157.603 147.494 157.624H82.2776C79.6651 157.582 69.8442 157.027 66.4959 150.885C61.6335 141.939 59.3835 124.003 58.6478 116.091C58.4452 114.022 56.7391 112.465 54.6811 112.423L33.9517 112.124C31.5844 112.103 29.6864 114.075 29.8463 116.464C30.5394 126.306 33.2373 150.501 43.7406 166.069C49.4561 174.504 58.3279 177.117 60.5565 177.65C61.8148 178.066 168.885 177.81 169.748 177.628C172.617 176.829 180.689 173.96 186.031 166.091C196.556 150.544 199.264 126.317 199.925 116.485C200.085 114.118 198.208 112.124 195.82 112.145L175.091 112.423Z" fill="#676BC4"/>
<path d="M82.2462 157.741H147.548C150.161 157.699 160.003 157.144 163.351 151.002C168.512 141.512 170.709 121.87 171.359 114.833C171.498 113.34 171.178 111.879 170.485 110.567L166.177 102.421C165.921 101.962 165.26 102.079 165.164 102.559C163.991 108.381 159.64 129.207 157.348 130.721C154.682 132.491 73.8863 130.955 70.7939 130.721C68.1601 130.54 65.409 109.117 64.6519 102.783C64.5879 102.261 63.8735 102.122 63.6175 102.602L59.4482 110.493C58.7124 111.868 58.4139 113.404 58.5525 114.939C59.171 121.913 61.3783 141.565 66.5393 150.992C69.8022 157.144 79.6338 157.699 82.2462 157.741Z" fill="#4A52BD"/>
<path d="M153.882 157.646H74.227C73.9924 157.646 73.7685 157.646 73.5659 157.624C65.5578 157.326 60.3755 149.637 63.3185 142.76L66.944 134.272C67.2639 133.536 67.9784 131.659 67.9784 131.659C71.0707 124.76 75.9865 123.033 82.8429 123.033H145.34C152.197 123.033 158.456 126.562 160.343 132C160.343 132 160.919 133.536 161.239 134.272L164.865 142.76C167.797 149.637 162.615 157.326 154.617 157.624C154.34 157.646 154.105 157.646 153.882 157.646Z" fill="#2F37A8"/>
<path d="M58.5842 114.875C58.4455 113.34 58.7654 111.783 59.4799 110.429L63.6492 102.559C63.8838 102.122 64.5236 102.218 64.6622 102.676C64.6622 102.676 64.5662 101.226 61.5699 101.024H49.819C47.7823 101.024 45.7776 101.621 44.0608 102.719L33.3016 109.693C31.0303 111.164 29.6974 113.756 29.836 116.464C29.6761 114.097 31.5528 112.103 33.9414 112.124L54.6707 112.423C56.6008 112.444 58.2216 113.841 58.5948 115.707L58.6161 115.728C58.6268 115.451 58.6055 115.152 58.5842 114.875Z" fill="#868AE0"/>
<path d="M171.338 114.875C171.476 113.34 171.039 111.804 170.303 110.429L166.134 102.581C165.9 102.143 165.26 102.239 165.121 102.698C165.121 102.698 165.217 101.248 168.213 101.045H179.954C181.99 101.045 184.016 101.642 185.691 102.741L196.471 109.736C198.764 111.228 200.075 113.82 199.937 116.507C200.097 114.14 198.199 112.124 195.831 112.167L175.07 112.465C173.119 112.487 171.604 113.862 171.242 115.75C171.263 115.771 171.306 115.153 171.338 114.875Z" fill="#868AE0"/>
<path d="M167.893 130.657C167.893 130.657 171.263 131.051 173.694 133.547C176.125 136.042 175.326 140.243 173.694 141.555C170.868 143.805 165.441 143.805 161.357 143.805C157.273 143.805 154.543 142.888 154.543 142.888L159.768 129.932C159.768 129.921 163.052 129.345 167.893 130.657Z" fill="#AB534D"/>
<path d="M119.588 169.919C117.573 173.587 115.579 177.234 113.553 180.902C112.198 183.355 114.054 186.682 116.421 187.62C119.268 188.772 121.785 187.204 123.139 184.751C125.154 181.083 127.148 177.437 129.174 173.768C130.529 171.316 128.673 167.989 126.306 167.05C123.47 165.91 120.942 167.466 119.588 169.919Z" fill="#FCB58A"/>
<path d="M138.42 53.892C138.42 53.892 133.973 39.6673 132.459 33.6852C130.145 24.4188 123.832 18.8419 114.918 18.8419C105.886 18.8419 99.5308 24.5041 97.0249 33.7278C94.4764 43.2181 91.1281 53.1349 91.1281 53.1349C90.7336 54.3932 91.3627 55.7474 92.5783 56.2273C95.4468 57.3789 101.45 59.3943 114.897 59.213C126.893 59.053 133.109 57.3576 136.223 57.0377C137.801 56.8884 138.836 55.3849 138.42 53.892Z" fill="#110580"/>
<path d="M120.047 49.4135H109.8V67.1464C109.8 68.4794 110.877 69.5563 112.21 69.5563H117.648C118.981 69.5563 120.058 68.4794 120.058 67.1464V49.4135H120.047Z" fill="#FCB58A"/>
<path d="M114.769 17.4663C118.303 17.4663 121.167 14.6019 121.167 11.0684C121.167 7.53487 118.303 4.67041 114.769 4.67041C111.236 4.67041 108.371 7.53487 108.371 11.0684C108.371 14.6019 111.236 17.4663 114.769 17.4663Z" fill="#110580"/>
<path d="M199.542 38.7929H157.752C157.497 38.7929 157.294 38.5903 157.294 38.3344V9.05312C157.294 8.79721 157.497 8.5946 157.752 8.5946H199.542C199.798 8.5946 200 8.79721 200 9.05312V38.3664C200 38.5903 199.798 38.7929 199.542 38.7929Z" fill="#EBDBCD"/>
<path d="M193.965 34.3676H163.319C163.116 34.3676 162.978 34.2077 162.978 34.0264V13.3824C162.978 13.1798 163.137 13.0411 163.319 13.0411H193.965C194.168 13.0411 194.306 13.2011 194.306 13.3824V34.0264C194.317 34.2077 194.157 34.3676 193.965 34.3676Z" fill="#FCFAF8"/>
<path d="M60.7803 123.267C60.7803 115.174 68.6711 109.554 76.9244 107.464C93.7617 103.178 123.32 108.776 123.32 108.776L107.699 118.703C107.699 118.703 122.03 122.691 125.613 123.449C129.196 124.206 152.474 130.284 152.857 130.881C153.252 131.457 144.284 143.335 144.284 143.335C144.284 143.335 100.64 143.837 87.2251 142.099C73.7894 140.328 60.7803 137.076 60.7803 123.267Z" fill="#FF8A91"/>
<path d="M105.737 118.821C112.828 120.473 123.374 123.523 128.119 125.016C132.981 126.53 134.837 128.002 134.837 128.002C134.837 128.002 126.008 135.754 122.105 151.098C119.908 159.725 115.707 171.263 114.971 173.8C114.854 174.195 114.95 174.6 115.227 174.899C116.08 175.816 118.053 177.81 120.153 178.961C122.723 180.38 127.426 181.947 127.906 181.254C127.906 181.254 148.432 161.164 156.441 149.627C164.449 138.089 171.828 128.737 168.661 120.708C166.069 114.129 160.333 110.247 150.789 108.232C136.202 105.182 119.226 106.377 119.226 106.377C119.226 106.377 118.245 108.904 114.385 113.35C111.196 117.072 105.577 118.799 105.737 118.821Z" fill="#FFADB2"/>
<path d="M99.6798 49.712C98.027 49.712 97.9844 44.9136 97.9844 44.3698C97.9844 43.8259 98.027 39.0275 99.6798 39.0275C101.333 39.0275 101.375 43.8259 101.375 44.3698C101.375 44.9136 101.333 49.712 99.6798 49.712ZM99.6798 39.9445C99.3813 40.2431 98.8801 41.8212 98.8801 44.3698C98.8801 46.8969 99.3599 48.4964 99.6798 48.795C99.9784 48.4964 100.48 46.9183 100.48 44.3698C100.458 41.8212 99.9784 40.2218 99.6798 39.9445Z" fill="white"/>
<path d="M129.847 49.712C128.194 49.712 128.151 44.9136 128.151 44.3698C128.151 43.8259 128.194 39.0275 129.847 39.0275C131.5 39.0275 131.542 43.8259 131.542 44.3698C131.542 44.9136 131.489 49.712 129.847 49.712ZM129.847 39.9445C129.548 40.2431 129.047 41.8212 129.047 44.3698C129.047 46.8969 129.527 48.4964 129.847 48.795C130.145 48.4964 130.647 46.9183 130.647 44.3698C130.625 41.8212 130.145 40.2218 129.847 39.9445Z" fill="white"/>
<path d="M114.929 53.2309C124.316 53.2309 131.926 45.621 131.926 36.2337C131.926 26.8464 124.316 19.2365 114.929 19.2365C105.542 19.2365 97.9316 26.8464 97.9316 36.2337C97.9316 45.621 105.542 53.2309 114.929 53.2309Z" fill="#FCB58A"/>
<path d="M97.5904 37.492C97.6117 37.7692 97.633 38.0465 97.6543 38.2917C97.6543 38.313 97.6543 38.3557 97.6757 38.3877C97.7183 38.6863 97.7396 38.9848 97.7929 39.2621V39.2834C97.8356 39.6033 97.9102 39.9019 97.9742 40.2004C99.1259 35.5193 103.338 32.0324 108.36 32.0324C108.979 32.0324 109.597 32.075 110.194 32.1923C110.632 32.2883 111.111 32.3523 111.57 32.3523C114.737 32.3523 117.349 29.9637 117.691 26.8927C117.691 26.8927 117.712 26.8927 117.712 26.8714C117.669 27.1913 117.616 27.5112 117.616 27.8524C117.616 31.4779 120.548 34.389 124.153 34.389H124.174C127.703 35.1034 130.529 37.7159 131.563 41.1281C131.766 40.3711 131.958 39.5926 132.065 38.8142C132.065 38.7929 132.065 38.7502 132.065 38.7182C132.107 38.3983 132.161 38.0571 132.182 37.7052C132.182 37.6093 132.203 37.5453 132.203 37.4493C132.225 37.0868 132.246 36.6922 132.246 36.3297C132.246 36.0098 132.246 35.6899 132.225 35.3913C132.225 35.2953 132.203 35.21 132.203 35.1141C132.182 34.8795 132.182 34.6769 132.161 34.4529C132.161 34.357 132.139 34.2503 132.118 34.1544C132.097 33.9518 132.075 33.7385 132.022 33.5359C132.001 33.4399 131.979 33.3333 131.979 33.2373C131.937 33.0347 131.915 32.8215 131.862 32.6189C131.841 32.5229 131.819 32.4376 131.798 32.3416C131.755 32.139 131.681 31.9044 131.638 31.7018C131.617 31.6378 131.595 31.5419 131.574 31.4672C131.51 31.2326 131.436 31.0087 131.372 30.7741C131.35 30.7101 131.329 30.6568 131.308 30.5928C131.212 30.3369 131.126 30.0917 131.03 29.8571C131.009 29.8358 131.009 29.7931 130.988 29.7611C130.87 29.4839 130.753 29.2066 130.625 28.94C129.132 25.7517 126.68 23.0966 123.651 21.3265C122.692 20.772 121.679 20.2921 120.623 19.9296C120.58 19.9083 120.559 19.9083 120.506 19.8869C120.207 19.7696 119.887 19.6843 119.589 19.5884C119.546 19.567 119.493 19.567 119.429 19.5457C118.736 19.3644 118.053 19.2258 117.339 19.1085C117.243 19.0872 117.157 19.0872 117.061 19.0872C116.784 19.0659 116.539 19.0232 116.262 18.9912C116.166 18.9912 116.059 18.9699 115.963 18.9699C115.622 18.9486 115.249 18.9272 114.886 18.9272C105.3 18.9272 97.5264 26.7008 97.5264 36.287C97.5264 36.6069 97.5264 36.9268 97.5477 37.2467C97.5903 37.3747 97.5904 37.4173 97.5904 37.492Z" fill="#110580"/>
<path d="M111.101 183.152C110.738 183.611 107.614 187.897 107.337 190.168C107.134 191.747 106.185 194.636 105.545 198.496C104.905 202.346 102.879 210.514 108.872 212.689C113.916 214.545 115.131 211.41 116.208 209.938C117.285 208.467 120.271 196.865 120.495 195.628C120.932 193.101 123.726 185.103 123.726 185.103C124.046 184.442 124.206 184.186 123.491 183.984C122.159 183.589 120.122 182.885 118.629 182.192C117.019 181.435 115.398 179.942 114.481 179.207C114.161 178.929 113.98 178.748 113.745 179.111C113.767 179.121 111.122 183.131 111.101 183.152Z" fill="#C7645D"/>
<path d="M87.6203 76.7754C82.342 81.4779 78.1513 87.3533 77.7355 94.615C77.3196 102.111 81.8408 107.848 88.3987 110.876C90.3501 111.794 92.7067 111.431 93.8796 109.426C94.8927 107.709 94.4021 104.862 92.4294 103.945C88.0788 101.941 85.0931 98.9976 85.7862 93.8899C86.426 89.1448 89.8489 85.4766 93.2612 82.4269C97.1319 79.0253 91.4484 73.3631 87.6203 76.7754Z" fill="#FCB58A"/>
<path d="M134.453 82.4163C136.223 84.7089 137.705 87.1614 138.995 89.7526C140.072 91.9492 141.49 94.551 141.224 97.0889C140.648 102.346 134.847 105.204 130.742 107.432C126.221 109.885 130.241 116.816 134.783 114.331C141.043 110.94 147.739 106.483 149.008 98.8697C149.648 94.9456 148.528 91.4161 146.918 87.8652C145.404 84.4956 143.634 81.286 141.363 78.3429C140.03 76.6474 137.918 75.7091 135.882 76.8927C134.197 77.927 133.12 80.6995 134.453 82.4163Z" fill="#F0A173"/>
<path d="M131.467 64.4594C127.106 62.1668 122.2 61.0151 120.046 60.6739C119.385 63.4997 117.914 65.0565 114.747 65.0565C111.516 65.0565 110.407 63.425 109.788 60.5353C109.127 60.5566 107.123 61.0151 106.664 61.0578C100.981 61.5589 97.0565 63.8835 94.1454 65.9202C90.1041 68.714 85.7961 74.1949 84.026 76.5408C83.5248 77.2019 83.5462 78.119 84.0687 78.7694C85.0284 79.9211 86.6598 81.7018 88.3126 82.8108C91.245 84.7622 96.1288 84.7622 96.1288 84.7622L96.8646 78.023C96.8646 78.023 95.6276 85.3593 95.3717 90.2218C95.0731 95.5214 95.3717 100.267 95.3717 100.267L132.459 101.024C132.459 101.024 133.813 95.7667 133.013 88.505C132.81 86.6283 130.763 78.5775 130.763 78.5775L132.48 83.9198C132.48 83.9198 135.071 84.0158 139.496 82.0644C140.85 81.4672 142.727 80.0277 143.836 79.1533C144.337 78.7588 144.433 78.0337 144.039 77.5218C142.087 74.7814 135.892 66.7733 131.467 64.4594Z" fill="white"/>
<path d="M114.929 53.1989C113.137 53.1989 111.421 52.9217 109.789 52.3992V55.5662C111.421 56.0673 113.18 56.0887 114.993 55.9287C117.403 55.6941 118.437 55.2356 120.058 54.5531V52.3992C118.448 52.9217 116.72 53.1989 114.929 53.1989Z" fill="#E3996D"/>
<path d="M179.91 4.80908C179.793 4.80908 179.654 4.76643 179.569 4.64913C179.409 4.46786 179.451 4.19061 179.633 4.05199L183.002 1.34352C183.184 1.2049 183.461 1.22623 183.6 1.4075C183.759 1.58878 183.717 1.86602 183.536 2.00464L180.166 4.71311C180.091 4.75576 180.006 4.80908 179.91 4.80908Z" fill="#D4BFA9"/>
<path d="M184.516 2.78448C185.014 2.43776 185.005 1.5652 184.497 0.835556C183.989 0.105917 183.173 -0.204503 182.676 0.14222C182.178 0.488942 182.186 1.36151 182.695 2.09115C183.203 2.82079 184.019 3.1312 184.516 2.78448Z" fill="#D4BFA9"/>
<path d="M114.704 116.773C120.622 118.149 126.604 119.226 132.501 120.697C135.434 121.433 138.345 122.254 141.192 123.267C141.853 123.502 142.525 123.747 143.164 124.003C143.484 124.142 143.826 124.259 144.146 124.398C144.38 124.494 144.967 124.632 145.159 124.835C145.436 125.197 144.604 125.986 144.401 126.232C143.9 126.829 143.42 127.405 142.93 128.002C135.636 136.81 128.961 146.14 123.501 156.217C120.473 161.815 117.861 167.616 115.728 173.598C115.429 174.419 116.762 174.792 117.061 173.96C120.964 162.903 126.647 152.559 133.28 142.952C136.628 138.11 140.211 133.429 143.964 128.897C144.423 128.322 144.903 127.778 145.361 127.223C145.798 126.722 146.278 126.21 146.481 125.571C146.662 124.973 146.598 124.334 146.14 123.896C145.681 123.438 144.924 123.257 144.348 123.022C141.48 121.849 138.526 120.911 135.54 120.09C128.801 118.234 121.891 117.04 115.077 115.462C114.203 115.259 113.83 116.571 114.704 116.773Z" fill="white"/>
<path d="M93.2178 84.5809C93.2178 84.5809 95.4464 82.2137 96.2461 80.5928C97.0459 78.94 97.9842 75.869 97.9842 75.869C97.9842 75.869 97.2911 80.3902 96.8859 82.3416C96.3101 85.0714 95.649 86.383 95.649 86.383L93.5163 86.2657C93.5163 86.2657 93.4204 85.8712 93.3777 85.4659C93.3031 85.0394 93.2178 84.5809 93.2178 84.5809Z" fill="#E0E0E0"/>
<path d="M134.453 85.4019C134.453 85.4019 132.523 82.8108 131.904 81.094C131.286 79.3772 130.71 76.2102 130.71 76.2102C130.71 76.2102 130.87 80.7741 131.051 82.7468C131.328 85.5192 131.83 86.8948 131.83 86.8948L133.962 87.0121C133.962 87.0121 134.101 86.6175 134.197 86.2337C134.314 85.8604 134.453 85.4019 134.453 85.4019Z" fill="#E0E0E0"/>
<path d="M136.405 115.558H91.6725C90.1796 115.558 88.8787 114.502 88.5801 113.009L83.3018 86.3403C82.9073 84.3889 84.4001 82.5762 86.3942 82.5762H143.432C145.501 82.5762 147.015 84.5275 146.482 86.5216L139.444 113.222C139.081 114.598 137.823 115.558 136.405 115.558Z" fill="#C5C6E3"/>
<path d="M119.503 100.011C119.321 102.399 117.274 104.351 114.939 104.351C112.604 104.351 110.556 102.421 110.354 100.043C110.151 97.6647 112.209 95.7027 114.917 95.7027C117.637 95.6814 119.684 97.6221 119.503 100.011Z" fill="#E8E9FF"/>
<path d="M172.158 20.9533C173.576 19.6204 176.263 19.0232 177.841 19.7803C179.419 20.5374 178.876 20.3775 179.419 20.5374C179.974 20.6974 180.976 20.4734 181.915 21.1985C182.992 22.0516 185.007 24.3655 183.909 27.3939C182.97 29.9637 179.963 32.1604 176.338 31.5419C172.712 30.9234 170.921 28.7694 170.462 26.9354C169.929 24.7814 170.782 22.2329 172.158 20.9533Z" fill="#FF5856"/>
<path d="M179.75 21.3905C179.75 21.3905 179.633 17.7863 181.904 16.9652C184.175 16.1442 187.843 15.0138 187.684 15.2484C187.524 15.451 186.628 19.3751 185.092 20.4095C182.778 21.9876 179.75 21.3905 179.75 21.3905Z" fill="#1F6771"/>
<path d="M177.362 21.8703C177.362 21.8703 177.703 20.1322 177.777 19.0765C177.916 16.9438 177.873 15.8882 177.873 15.8882L179.686 16.1868C179.686 16.1868 179.43 18.682 179.228 19.599C178.865 21.2305 178.311 22.1902 178.311 22.1902C178.311 22.1902 177.969 22.4674 177.671 22.3075C177.34 22.1262 177.362 21.8703 177.362 21.8703Z" fill="#6B4D3A"/>
<path d="M179.66 16.1743C179.71 15.9259 179.347 15.6441 178.851 15.5447C178.354 15.4453 177.911 15.5661 177.861 15.8144C177.812 16.0627 178.174 16.3446 178.671 16.444C179.167 16.5433 179.61 16.4226 179.66 16.1743Z" fill="#8A634B"/>
</g>
<defs>
<clipPath id="clip0_360_400">
<rect width="200" height="213.265" fill="white"/>
</clipPath>
</defs>
</svg>
