<svg width="869" height="613" viewBox="0 0 869 613" fill="none" xmlns="http://www.w3.org/2000/svg">
<g clip-path="url(#clip0_446_536)">
<path opacity="0.2" d="M122.664 33.8748C116.22 33.6961 109.615 33.8748 103.57 35.6764C87.1228 40.5845 79.3269 56.6443 81.8616 70.522C84.3963 84.3996 94.8228 96.4911 105.641 107.542C116.459 118.593 128.181 129.519 134.114 142.729C137.073 149.322 138.456 156.708 135.45 163.293C130.812 173.443 116.827 179.112 103.402 180.293C89.9774 181.473 76.4964 179.174 63.0235 178.406C57.3705 178.087 51.5575 178.048 46.2323 179.532C40.3874 181.147 35.5179 184.447 31.0403 187.888C13.5375 201.369 -0.471185 219.782 1.81561 239.096C4.37427 261.019 27.1943 278.345 52.1892 287.641C60.4648 290.747 69.2202 293.216 76.5044 297.612C95.6944 309.206 100.004 330.951 98.0931 350.14C96.1821 369.33 89.6735 388.543 93.2956 407.561C97.5574 429.686 116.419 449.676 141.862 459.01C164.53 467.328 192.899 466.776 213.025 455.042C222.836 449.311 230.256 441.351 236.708 433.119C246.289 420.962 254.205 407.649 260.256 393.513C263.063 386.92 265.701 379.829 272.25 375.247C276.248 372.428 281.429 370.852 286.554 369.625C302.002 365.928 318.274 364.919 333.865 361.626C349.457 358.333 365.105 352.191 373.581 341.217C385.574 325.686 379.977 305.789 380.033 287.524C380.129 245.852 411.305 208.553 422.811 167.929C426.569 154.658 427.968 139.972 419.572 128.129C413.871 120.092 404.252 114.29 394.146 109.81C371.909 99.9547 346.635 95.5669 321.776 91.2957C287.226 85.3626 245.272 84.5938 218.494 65.3965C192.835 47.0069 157.678 33.8748 122.664 33.8748Z" fill="#BD7400"/>
<g opacity="0.5">
<path d="M21.8607 271.301C20.1496 273.755 18.7423 277.32 20.9812 281.474C25.3789 289.629 36.2531 287.951 41.5384 295.756C42.9506 297.919 43.7377 300.411 43.8172 302.97C44.0171 307.389 42.6098 310.868 41.8822 314.759C40.9306 319.347 41.6722 324.115 43.9771 328.225C46.5716 332.516 50.4868 335.909 55.1712 337.925C59.2651 339.68 63.167 340.13 67.085 340.984C71.9454 342.067 76.6794 343.628 81.2136 345.644C83.3686 346.522 85.3956 347.67 87.2424 349.061C89.495 350.981 91.5393 353.12 93.3432 355.445L110.35 375.838C112.511 378.587 114.919 381.144 117.546 383.479C120.413 385.725 123.562 387.606 126.918 389.079C133.706 392.364 140.806 395.726 146.699 395.346C152.592 394.965 156.686 389.444 153.895 381.724C151.257 374.378 143.821 368.188 140.446 360.857C135.129 349.302 142.094 340.666 137.64 329.095C133.37 317.974 121.4 310.519 113.756 300.361C108.271 293.139 105.217 284.736 100.276 277.149C93.0793 266.277 82.365 257.959 72.2902 253.75C63.4299 250.092 53.7276 248.787 44.177 249.968C40.5309 250.357 36.9408 251.017 34.3501 253.137C31.5996 255.389 31.9514 259.598 30.1603 262.588C28.1054 266.028 24.1875 267.977 21.8607 271.301Z" fill="#BC6D1D"/>
<path d="M32.5352 255.661C32.5352 255.661 117.674 332.97 152.008 393.163" stroke="#BC6D1D" stroke-width="2" stroke-miterlimit="10"/>
<path d="M21.3086 281.948C21.3086 281.948 55.3307 275.526 78.8784 301.285" stroke="#BC6D1D" stroke-width="2" stroke-miterlimit="10"/>
<path d="M45.4883 330.493C45.4883 330.493 83.0686 304.966 96.0697 319.815" stroke="#BC6D1D" stroke-width="2" stroke-miterlimit="10"/>
<path d="M72.1302 253.564C72.1302 253.564 68.1723 273.103 82.4128 305.021" stroke="#BC6D1D" stroke-width="2" stroke-miterlimit="10"/>
<path d="M137.599 329.398C137.599 329.398 134.273 342.211 107.535 332.791" stroke="#BC6D1D" stroke-width="2" stroke-miterlimit="10"/>
<path d="M110.455 374.222C110.455 374.222 126.775 355.903 119.354 346.91" stroke="#BC6D1D" stroke-width="2" stroke-miterlimit="10"/>
</g>
<path d="M5.8612 181.629C1.86329 186.218 -1.87874 192.571 1.06371 198.838C6.72474 211.139 27.6817 205.12 35.1578 216.575C37.3966 220 37.7005 224.186 37.1808 227.921C36.1733 235.229 32.4472 241.434 29.8726 248.112C27.2979 254.791 25.9626 262.867 29.5927 269.919C33.0869 276.745 40.451 281.055 47.5833 282.771C54.7156 284.488 61.8638 284.099 68.9881 284.325C77.4517 284.647 85.8553 285.85 94.0549 287.912C97.6586 288.705 101.108 290.053 104.274 291.904C107.912 294.164 110.854 297.48 113.733 300.742L139.319 329.701C142.717 333.584 146.188 337.466 150.401 340.317C155.263 343.602 160.796 345.271 166.241 346.879C177.955 350.358 190.228 353.868 201.423 351.484C212.617 349.1 222.012 338.709 219.213 326.68C216.551 315.225 204.541 307.102 200.495 295.88C194.098 278.197 209.89 261.796 205.149 243.802C200.607 226.546 180.474 217.647 169.279 203.039C161.284 192.571 158.133 179.477 151.145 168.341C141.054 152.266 123.463 141.619 105.953 137.573C88.4419 133.527 70.8271 135.414 54.4037 139.46C47.4474 141.176 40.491 143.343 34.9739 147.629C29.113 152.188 28.4414 159.107 24.1716 164.606C19.2222 170.997 11.2504 175.416 5.8612 181.629Z" fill="#F2A71E"/>
<path d="M30.7676 152.429C30.7676 152.429 166.432 256.103 212.08 346.265" stroke="#535461" stroke-width="2" stroke-miterlimit="10"/>
<path d="M1.49609 199.49C1.49609 199.49 67.3575 178.794 103.475 214.758" stroke="#535461" stroke-width="2" stroke-miterlimit="10"/>
<path d="M31.7188 273.266C31.7188 273.266 110.166 219.681 129.995 240.579" stroke="#535461" stroke-width="2" stroke-miterlimit="10"/>
<path d="M105.753 137.27C105.753 137.27 92.2319 170.966 108.951 219.945" stroke="#535461" stroke-width="2" stroke-miterlimit="10"/>
<path d="M204.941 244.291C204.941 244.291 194.698 266.603 147.451 258.798" stroke="#535461" stroke-width="2" stroke-miterlimit="10"/>
<path d="M140.006 326.928C140.006 326.928 176.363 291.609 165.249 278.78" stroke="#535461" stroke-width="2" stroke-miterlimit="10"/>
<path opacity="0.1" d="M494.117 599.278C699.46 599.278 865.922 555.983 865.922 502.577C865.922 449.171 699.46 405.876 494.117 405.876C288.775 405.876 122.312 449.171 122.312 502.577C122.312 555.983 288.775 599.278 494.117 599.278Z" fill="#B37B22"/>
<path d="M783.709 0.31842C783.709 0.31842 755.06 28.1436 771.235 69.4348C787.411 110.726 743.506 179.392 743.506 179.392C743.506 179.392 743.978 179.322 744.849 179.174C803.69 169.079 832.931 103.721 800.212 55.1611C788.05 37.1132 778.064 15.9434 783.709 0.31842Z" fill="#F2A71E"/>
<path d="M783.709 0.31842C783.709 0.31842 767.533 34.4262 783.709 62.2513C799.884 90.0765 786.483 168.17 743.506 179.392" stroke="#535461" stroke-width="2" stroke-miterlimit="10"/>
<path d="M834.737 112.869C834.737 112.869 802.042 107.814 799.068 136.268C796.094 164.722 736.205 168.667 736.205 168.667L737.324 169.389C786.771 200.911 834.074 189.472 826.877 147.645C824.263 132.051 824.479 116.395 834.737 112.869Z" fill="#BC6D1D"/>
<path opacity="0.2" d="M839.532 115.348C839.532 115.348 806.837 110.292 803.863 138.746C800.889 167.2 741 171.145 741 171.145L742.119 171.868C791.565 203.389 838.869 191.95 831.672 150.123C829.058 134.529 829.274 118.873 839.532 115.348Z" fill="#EDD029"/>
<path d="M834.737 112.869C834.737 112.869 809.359 118.305 811.446 140.687C813.533 163.068 773.761 189.961 736.205 168.644" stroke="#535461" stroke-width="2" stroke-miterlimit="10"/>
<path d="M197.257 217.289C197.257 217.289 186.655 182.343 199.248 156.607C204.599 145.849 206.212 133.695 203.846 121.971C202.679 116.415 200.99 110.974 198.801 105.717" stroke="#535461" stroke-width="2" stroke-miterlimit="10"/>
<path d="M206.621 89.4475C206.621 93.7342 198.625 106.152 198.625 106.152C198.625 106.152 190.629 93.7265 190.629 89.4475C190.629 87.3878 191.471 85.4125 192.971 83.9561C194.47 82.4998 196.504 81.6816 198.625 81.6816C200.745 81.6816 202.779 82.4998 204.279 83.9561C205.778 85.4125 206.621 87.3878 206.621 89.4475Z" fill="#F2A71E"/>
<path d="M219.829 113.18C217.43 116.776 203.773 122.988 203.773 122.988C203.773 122.988 204.021 108.342 206.42 104.746C206.966 103.84 207.695 103.051 208.563 102.426C209.431 101.802 210.421 101.354 211.472 101.111C212.524 100.869 213.615 100.835 214.68 101.013C215.745 101.192 216.761 101.578 217.668 102.148C218.575 102.719 219.354 103.462 219.957 104.333C220.56 105.204 220.975 106.184 221.177 107.215C221.379 108.247 221.364 109.307 221.132 110.332C220.9 111.357 220.457 112.326 219.829 113.18V113.18Z" fill="#F2A71E"/>
<path d="M219.253 153.733C215.311 155.659 200.295 154.331 200.295 154.331C200.295 154.331 208.123 141.813 212.057 139.887C212.998 139.375 214.037 139.054 215.109 138.942C216.182 138.831 217.267 138.931 218.299 139.238C219.33 139.544 220.288 140.05 221.113 140.725C221.938 141.4 222.614 142.231 223.1 143.166C223.585 144.102 223.871 145.123 223.94 146.169C224.009 147.215 223.859 148.263 223.5 149.251C223.141 150.239 222.579 151.146 221.849 151.918C221.119 152.69 220.236 153.31 219.253 153.741V153.733Z" fill="#F2A71E"/>
<path d="M211.705 184.315C208.155 186.863 193.123 188.012 193.123 188.012C193.123 188.012 198.656 174.391 202.206 171.843C203.044 171.178 204.013 170.684 205.053 170.393C206.094 170.102 207.184 170.019 208.259 170.149C209.333 170.28 210.369 170.62 211.303 171.151C212.238 171.682 213.052 172.392 213.696 173.237C214.34 174.082 214.8 175.046 215.049 176.069C215.298 177.093 215.331 178.155 215.144 179.19C214.958 180.226 214.558 181.215 213.966 182.096C213.375 182.977 212.606 183.732 211.705 184.315V184.315Z" fill="#F2A71E"/>
<path d="M187.005 123.819C190.203 126.801 204.908 129.9 204.908 129.9C204.908 129.9 201.302 115.681 198.135 112.698C197.396 111.932 196.504 111.319 195.513 110.897C194.523 110.475 193.454 110.252 192.373 110.243C191.291 110.233 190.219 110.437 189.22 110.842C188.222 111.246 187.319 111.844 186.565 112.597C185.811 113.351 185.223 114.245 184.836 115.226C184.448 116.207 184.269 117.254 184.31 118.304C184.352 119.353 184.612 120.384 185.075 121.334C185.538 122.283 186.195 123.131 187.005 123.827V123.819Z" fill="#F2A71E"/>
<path d="M178.635 159.698C182.577 161.624 197.593 160.296 197.593 160.296C197.593 160.296 189.765 147.777 185.831 145.851C183.953 145.027 181.819 144.939 179.875 145.606C177.932 146.273 176.328 147.643 175.4 149.43C174.472 151.218 174.29 153.284 174.892 155.199C175.495 157.113 176.836 158.728 178.635 159.705V159.698Z" fill="#F2A71E"/>
<path d="M175.436 195.654C178.986 198.201 194.019 199.35 194.019 199.35C194.019 199.35 188.485 185.729 184.935 183.182C183.227 182.075 181.146 181.649 179.123 181.992C177.1 182.334 175.291 183.42 174.07 185.023C172.848 186.627 172.309 188.625 172.564 190.604C172.818 192.583 173.847 194.391 175.436 195.654V195.654Z" fill="#F2A71E"/>
<path d="M857.477 420.523H789.441C791.015 417.468 791.837 414.099 791.84 410.683V109.771C791.835 103.906 789.433 98.282 785.162 94.1361C780.89 89.9902 775.098 87.6613 769.06 87.6613H242.4C236.358 87.6613 230.564 89.9923 226.292 94.1416C222.02 98.2908 219.62 103.918 219.62 109.786V410.683C219.623 414.099 220.444 417.468 222.019 420.523H151.576C149.979 420.523 148.447 421.139 147.318 422.235C146.189 423.332 145.555 424.819 145.555 426.37V431.084C145.555 439.764 149.105 448.087 155.424 454.225C161.742 460.362 170.313 463.81 179.249 463.81H829.852C838.788 463.81 847.358 460.362 853.677 454.225C859.996 448.087 863.546 439.764 863.546 431.084V426.37C863.546 425.598 863.389 424.834 863.083 424.122C862.778 423.409 862.33 422.762 861.766 422.219C861.201 421.675 860.532 421.245 859.796 420.954C859.06 420.663 858.272 420.516 857.477 420.523ZM438.265 439.238L432.428 432.8H577.24L570.78 439.238H438.265Z" fill="url(#paint0_linear_446_536)"/>
<path d="M766.734 91.9092H244.672C234.401 91.9092 226.074 99.9965 226.074 109.973V411.188C226.074 421.164 234.401 429.251 244.672 429.251H766.734C777.006 429.251 785.333 421.164 785.333 411.188V109.973C785.333 99.9965 777.006 91.9092 766.734 91.9092Z" fill="#80848B"/>
<path d="M772.387 141.083H237.852V416.671H772.387V141.083Z" fill="#F1F1F4"/>
<path d="M505.12 121.637C507.721 121.637 509.829 119.589 509.829 117.063C509.829 114.537 507.721 112.489 505.12 112.489C502.519 112.489 500.41 114.537 500.41 117.063C500.41 119.589 502.519 121.637 505.12 121.637Z" fill="white"/>
<path d="M587.652 417.238L569.262 435.534H439.73L423.131 417.238H159.549C157.988 417.238 156.491 417.84 155.388 418.912C154.284 419.984 153.664 421.437 153.664 422.953V427.566C153.664 431.769 154.517 435.931 156.174 439.813C157.832 443.696 160.26 447.223 163.322 450.193C166.384 453.163 170.019 455.518 174.018 457.123C178.017 458.728 182.303 459.551 186.631 459.546H822.457C831.19 459.546 839.565 456.177 845.74 450.179C851.915 444.182 855.384 436.048 855.384 427.566V422.953C855.384 421.437 854.764 419.984 853.66 418.912C852.557 417.84 851.06 417.238 849.499 417.238H587.652Z" fill="#535461"/>
<path d="M416.637 162.082H270.498V269.049H416.637V162.082Z" fill="white"/>
<path opacity="0.2" d="M333.505 171.339H284.795V198.077H333.505V171.339Z" fill="#01226F"/>
<path d="M402.34 171.339H345.154V177.513H402.34V171.339Z" fill="#E6E8EC"/>
<path d="M385.397 181.621H345.154V187.795H385.397V181.621Z" fill="#E6E8EC"/>
<path d="M402.34 191.903H345.154V198.077H402.34V191.903Z" fill="#E6E8EC"/>
<path d="M402.341 202.193H284.795V208.366H402.341V202.193Z" fill="#E6E8EC"/>
<path d="M402.341 212.475H284.795V218.648H402.341V212.475Z" fill="#E6E8EC"/>
<path d="M402.341 222.764H284.795V228.938H402.341V222.764Z" fill="#E6E8EC"/>
<path d="M392.81 233.046H284.795V239.22H392.81V233.046Z" fill="#E6E8EC"/>
<path d="M402.341 243.328H284.795V249.502H402.341V243.328Z" fill="#E6E8EC"/>
<path d="M402.341 253.618H284.795V259.792H402.341V253.618Z" fill="#E6E8EC"/>
<path d="M577.6 162.082H431.461V269.049H577.6V162.082Z" fill="white"/>
<path opacity="0.2" d="M494.46 171.339H445.75V198.077H494.46V171.339Z" fill="#01226F"/>
<path d="M563.305 171.339H506.119V177.513H563.305V171.339Z" fill="#E6E8EC"/>
<path d="M546.362 181.621H506.119V187.795H546.362V181.621Z" fill="#E6E8EC"/>
<path d="M563.305 191.903H506.119V198.077H563.305V191.903Z" fill="#E6E8EC"/>
<path d="M563.296 202.193H445.75V208.366H563.296V202.193Z" fill="#E6E8EC"/>
<path d="M563.296 212.475H445.75V218.648H563.296V212.475Z" fill="#E6E8EC"/>
<path d="M563.296 222.764H445.75V228.938H563.296V222.764Z" fill="#E6E8EC"/>
<path d="M553.765 233.046H445.75V239.22H553.765V233.046Z" fill="#E6E8EC"/>
<path d="M563.296 243.328H445.75V249.502H563.296V243.328Z" fill="#E6E8EC"/>
<path d="M563.296 253.618H445.75V259.792H563.296V253.618Z" fill="#E6E8EC"/>
<path d="M738.557 162.082H592.418V269.049H738.557V162.082Z" fill="white"/>
<path opacity="0.2" d="M655.423 171.339H606.713V198.077H655.423V171.339Z" fill="#01226F"/>
<path d="M724.26 171.339H667.074V177.513H724.26V171.339Z" fill="#E6E8EC"/>
<path d="M707.317 181.621H667.074V187.795H707.317V181.621Z" fill="#E6E8EC"/>
<path d="M724.26 191.903H667.074V198.077H724.26V191.903Z" fill="#E6E8EC"/>
<path d="M724.259 202.193H606.713V208.366H724.259V202.193Z" fill="#E6E8EC"/>
<path d="M724.259 212.475H606.713V218.648H724.259V212.475Z" fill="#E6E8EC"/>
<path d="M724.259 222.764H606.713V228.938H724.259V222.764Z" fill="#E6E8EC"/>
<path d="M714.728 233.046H606.713V239.22H714.728V233.046Z" fill="#E6E8EC"/>
<path d="M724.259 243.328H606.713V249.502H724.259V243.328Z" fill="#E6E8EC"/>
<path d="M724.259 253.618H606.713V259.792H724.259V253.618Z" fill="#E6E8EC"/>
<path d="M416.637 282.414H270.498V389.381H416.637V282.414Z" fill="white"/>
<path opacity="0.2" d="M333.505 291.671H284.795V318.409H333.505V291.671Z" fill="#663399"/>
<path d="M402.34 291.671H345.154V297.845H402.34V291.671Z" fill="#E6E8EC"/>
<path d="M385.397 301.961H345.154V308.135H385.397V301.961Z" fill="#E6E8EC"/>
<path d="M402.34 312.243H345.154V318.417H402.34V312.243Z" fill="#E6E8EC"/>
<path d="M402.341 322.525H284.795V328.699H402.341V322.525Z" fill="#E6E8EC"/>
<path d="M402.341 332.815H284.795V338.989H402.341V332.815Z" fill="#E6E8EC"/>
<path d="M402.341 343.097H284.795V349.271H402.341V343.097Z" fill="#E6E8EC"/>
<path d="M392.81 353.387H284.795V359.56H392.81V353.387Z" fill="#E6E8EC"/>
<path d="M402.341 363.669H284.795V369.842H402.341V363.669Z" fill="#E6E8EC"/>
<path d="M402.341 373.951H284.795V380.124H402.341V373.951Z" fill="#E6E8EC"/>
<path d="M577.6 282.414H431.461V389.381H577.6V282.414Z" fill="white"/>
<path opacity="0.2" d="M494.46 291.671H445.75V318.409H494.46V291.671Z" fill="#01226F"/>
<path d="M563.305 291.671H506.119V297.845H563.305V291.671Z" fill="#E6E8EC"/>
<path d="M546.362 301.961H506.119V308.135H546.362V301.961Z" fill="#E6E8EC"/>
<path d="M563.305 312.243H506.119V318.417H563.305V312.243Z" fill="#E6E8EC"/>
<path d="M563.296 322.525H445.75V328.699H563.296V322.525Z" fill="#E6E8EC"/>
<path d="M563.296 332.815H445.75V338.989H563.296V332.815Z" fill="#E6E8EC"/>
<path d="M563.296 343.097H445.75V349.271H563.296V343.097Z" fill="#E6E8EC"/>
<path d="M553.765 353.387H445.75V359.56H553.765V353.387Z" fill="#E6E8EC"/>
<path d="M563.296 363.669H445.75V369.842H563.296V363.669Z" fill="#E6E8EC"/>
<path d="M563.296 373.951H445.75V380.124H563.296V373.951Z" fill="#E6E8EC"/>
<path opacity="0.1" d="M738.557 282.414H592.418V389.381H738.557V282.414Z" fill="black"/>
<path d="M353.47 198.077H127.988C125.273 198.072 122.584 198.586 120.074 199.592C117.564 200.597 115.283 202.073 113.361 203.935C111.439 205.798 109.914 208.01 108.873 210.445C107.832 212.881 107.296 215.491 107.295 218.128V521.572C107.298 524.207 107.836 526.816 108.877 529.249C109.918 531.682 111.443 533.892 113.364 535.752C115.285 537.613 117.564 539.088 120.072 540.093C122.58 541.097 125.267 541.612 127.98 541.608H353.462C356.175 541.612 358.862 541.097 361.37 540.093C363.878 539.088 366.157 537.613 368.078 535.752C369.999 533.892 371.524 531.682 372.565 529.249C373.606 526.816 374.144 524.207 374.147 521.572V218.128C374.146 215.493 373.61 212.883 372.57 210.449C371.53 208.014 370.007 205.803 368.086 203.941C366.166 202.079 363.887 200.602 361.379 199.596C358.871 198.59 356.183 198.074 353.47 198.077V198.077Z" fill="url(#paint1_linear_446_536)"/>
<path d="M354.99 202.193H126.47C117.638 202.193 110.479 209.146 110.479 217.724V522.986C110.479 531.564 117.638 538.517 126.47 538.517H354.99C363.822 538.517 370.982 531.564 370.982 522.986V217.724C370.982 209.146 363.822 202.193 354.99 202.193Z" fill="#80848B"/>
<path d="M357.74 234.009H123.711V506.708H357.74V234.009Z" fill="#F1F1F4"/>
<path d="M239.667 220.706C241.42 220.706 242.841 219.326 242.841 217.623C242.841 215.921 241.42 214.54 239.667 214.54C237.913 214.54 236.492 215.921 236.492 217.623C236.492 219.326 237.913 220.706 239.667 220.706Z" fill="white"/>
<path d="M239.666 531.318C244.93 531.318 249.197 527.174 249.197 522.062C249.197 516.949 244.93 512.805 239.666 512.805C234.402 512.805 230.135 516.949 230.135 522.062C230.135 527.174 234.402 531.318 239.666 531.318Z" fill="white"/>
<path d="M200.575 261.873H133.826V310.736H200.575V261.873Z" fill="white"/>
<path opacity="0.2" d="M162.61 266.106H140.357V278.322H162.61V266.106Z" fill="#663399"/>
<path d="M194.05 266.106H167.928V268.925H194.05V266.106Z" fill="#E6E8EC"/>
<path d="M186.31 270.804H167.928V273.623H186.31V270.804Z" fill="#E6E8EC"/>
<path d="M194.05 275.503H167.928V278.322H194.05V275.503Z" fill="#E6E8EC"/>
<path d="M194.049 280.201H140.357V283.02H194.049V280.201Z" fill="#E6E8EC"/>
<path d="M194.049 284.899H140.357V287.718H194.049V284.899Z" fill="#E6E8EC"/>
<path d="M194.049 289.598H140.357V292.417H194.049V289.598Z" fill="#E6E8EC"/>
<path d="M189.7 294.296H140.357V297.115H189.7V294.296Z" fill="#E6E8EC"/>
<path d="M194.049 298.994H140.357V301.813H194.049V298.994Z" fill="#E6E8EC"/>
<path d="M194.049 303.693H140.357V306.512H194.049V303.693Z" fill="#E6E8EC"/>
<path d="M274.104 261.873H207.355V310.736H274.104V261.873Z" fill="white"/>
<path opacity="0.2" d="M236.131 266.106H213.879V278.322H236.131V266.106Z" fill="#663399"/>
<path d="M267.579 266.106H241.457V268.925H267.579V266.106Z" fill="#E6E8EC"/>
<path d="M259.839 270.804H241.457V273.623H259.839V270.804Z" fill="#E6E8EC"/>
<path d="M267.579 275.503H241.457V278.322H267.579V275.503Z" fill="#E6E8EC"/>
<path d="M267.571 280.201H213.879V283.02H267.571V280.201Z" fill="#E6E8EC"/>
<path d="M267.571 284.899H213.879V287.718H267.571V284.899Z" fill="#E6E8EC"/>
<path d="M267.571 289.598H213.879V292.417H267.571V289.598Z" fill="#E6E8EC"/>
<path d="M263.221 294.296H213.879V297.115H263.221V294.296Z" fill="#E6E8EC"/>
<path d="M267.571 298.994H213.879V301.813H267.571V298.994Z" fill="#E6E8EC"/>
<path d="M267.571 303.693H213.879V306.512H267.571V303.693Z" fill="#E6E8EC"/>
<path d="M347.626 261.873H280.877V310.736H347.626V261.873Z" fill="white"/>
<path opacity="0.2" d="M309.662 266.106H287.41V278.322H309.662V266.106Z" fill="#663399"/>
<path d="M341.101 266.106H314.979V268.925H341.101V266.106Z" fill="#E6E8EC"/>
<path d="M333.361 270.804H314.979V273.623H333.361V270.804Z" fill="#E6E8EC"/>
<path d="M341.101 275.503H314.979V278.322H341.101V275.503Z" fill="#E6E8EC"/>
<path d="M341.102 280.201H287.41V283.02H341.102V280.201Z" fill="#E6E8EC"/>
<path d="M341.102 284.899H287.41V287.718H341.102V284.899Z" fill="#E6E8EC"/>
<path d="M341.102 289.598H287.41V292.417H341.102V289.598Z" fill="#E6E8EC"/>
<path d="M336.752 294.296H287.41V297.115H336.752V294.296Z" fill="#E6E8EC"/>
<path d="M341.102 298.994H287.41V301.813H341.102V298.994Z" fill="#E6E8EC"/>
<path d="M341.102 303.693H287.41V306.512H341.102V303.693Z" fill="#E6E8EC"/>
<path d="M200.575 316.84H133.826V365.703H200.575V316.84Z" fill="white"/>
<path opacity="0.2" d="M162.61 321.073H140.357V333.288H162.61V321.073Z" fill="#663399"/>
<path d="M194.05 321.073H167.928V323.892H194.05V321.073Z" fill="#E6E8EC"/>
<path d="M186.31 325.771H167.928V328.59H186.31V325.771Z" fill="#E6E8EC"/>
<path d="M194.05 330.469H167.928V333.288H194.05V330.469Z" fill="#E6E8EC"/>
<path d="M194.049 335.168H140.357V337.987H194.049V335.168Z" fill="#E6E8EC"/>
<path d="M194.049 339.866H140.357V342.685H194.049V339.866Z" fill="#E6E8EC"/>
<path d="M194.049 344.564H140.357V347.384H194.049V344.564Z" fill="#E6E8EC"/>
<path d="M189.7 349.263H140.357V352.082H189.7V349.263Z" fill="#E6E8EC"/>
<path d="M194.049 353.961H140.357V356.78H194.049V353.961Z" fill="#E6E8EC"/>
<path d="M194.049 358.66H140.357V361.479H194.049V358.66Z" fill="#E6E8EC"/>
<path d="M274.104 316.84H207.355V365.703H274.104V316.84Z" fill="white"/>
<path opacity="0.2" d="M236.131 321.073H213.879V333.288H236.131V321.073Z" fill="#663399"/>
<path d="M267.579 321.073H241.457V323.892H267.579V321.073Z" fill="#E6E8EC"/>
<path d="M259.839 325.771H241.457V328.59H259.839V325.771Z" fill="#E6E8EC"/>
<path d="M267.579 330.469H241.457V333.288H267.579V330.469Z" fill="#E6E8EC"/>
<path d="M267.571 335.168H213.879V337.987H267.571V335.168Z" fill="#E6E8EC"/>
<path d="M267.571 339.866H213.879V342.685H267.571V339.866Z" fill="#E6E8EC"/>
<path d="M267.571 344.564H213.879V347.384H267.571V344.564Z" fill="#E6E8EC"/>
<path d="M263.221 349.263H213.879V352.082H263.221V349.263Z" fill="#E6E8EC"/>
<path d="M267.571 353.961H213.879V356.78H267.571V353.961Z" fill="#E6E8EC"/>
<path d="M267.571 358.66H213.879V361.479H267.571V358.66Z" fill="#E6E8EC"/>
<path d="M347.626 316.84H280.877V365.703H347.626V316.84Z" fill="white"/>
<path opacity="0.2" d="M309.662 321.073H287.41V333.288H309.662V321.073Z" fill="#663399"/>
<path d="M341.101 321.073H314.979V323.892H341.101V321.073Z" fill="#E6E8EC"/>
<path d="M333.361 325.771H314.979V328.59H333.361V325.771Z" fill="#E6E8EC"/>
<path d="M341.101 330.469H314.979V333.288H341.101V330.469Z" fill="#E6E8EC"/>
<path d="M341.102 335.168H287.41V337.987H341.102V335.168Z" fill="#E6E8EC"/>
<path d="M341.102 339.866H287.41V342.685H341.102V339.866Z" fill="#E6E8EC"/>
<path d="M341.102 344.564H287.41V347.384H341.102V344.564Z" fill="#E6E8EC"/>
<path d="M336.752 349.263H287.41V352.082H336.752V349.263Z" fill="#E6E8EC"/>
<path d="M341.102 353.961H287.41V356.78H341.102V353.961Z" fill="#E6E8EC"/>
<path d="M341.102 358.66H287.41V361.479H341.102V358.66Z" fill="#E6E8EC"/>
<path d="M200.575 373.982H133.826V422.845H200.575V373.982Z" fill="white"/>
<path opacity="0.2" d="M162.61 378.214H140.357V390.43H162.61V378.214Z" fill="#663399"/>
<path d="M194.05 378.214H167.928V381.033H194.05V378.214Z" fill="#E6E8EC"/>
<path d="M186.31 382.912H167.928V385.731H186.31V382.912Z" fill="#E6E8EC"/>
<path d="M194.05 387.611H167.928V390.43H194.05V387.611Z" fill="#E6E8EC"/>
<path d="M194.049 392.309H140.357V395.128H194.049V392.309Z" fill="#E6E8EC"/>
<path d="M194.049 397.008H140.357V399.827H194.049V397.008Z" fill="#E6E8EC"/>
<path d="M194.049 401.706H140.357V404.525H194.049V401.706Z" fill="#E6E8EC"/>
<path d="M189.7 406.404H140.357V409.223H189.7V406.404Z" fill="#E6E8EC"/>
<path d="M194.049 411.103H140.357V413.922H194.049V411.103Z" fill="#E6E8EC"/>
<path d="M194.049 415.801H140.357V418.62H194.049V415.801Z" fill="#E6E8EC"/>
<path d="M274.104 373.982H207.355V422.845H274.104V373.982Z" fill="white"/>
<path opacity="0.2" d="M236.131 378.214H213.879V390.43H236.131V378.214Z" fill="#663399"/>
<path d="M267.579 378.214H241.457V381.033H267.579V378.214Z" fill="#E6E8EC"/>
<path d="M259.839 382.912H241.457V385.731H259.839V382.912Z" fill="#E6E8EC"/>
<path d="M267.579 387.611H241.457V390.43H267.579V387.611Z" fill="#E6E8EC"/>
<path d="M267.571 392.309H213.879V395.128H267.571V392.309Z" fill="#E6E8EC"/>
<path d="M267.571 397.008H213.879V399.827H267.571V397.008Z" fill="#E6E8EC"/>
<path d="M267.571 401.706H213.879V404.525H267.571V401.706Z" fill="#E6E8EC"/>
<path d="M263.221 406.404H213.879V409.223H263.221V406.404Z" fill="#E6E8EC"/>
<path d="M267.571 411.103H213.879V413.922H267.571V411.103Z" fill="#E6E8EC"/>
<path d="M267.571 415.801H213.879V418.62H267.571V415.801Z" fill="#E6E8EC"/>
<path d="M347.626 373.982H280.877V422.845H347.626V373.982Z" fill="white"/>
<path opacity="0.2" d="M309.662 378.214H287.41V390.43H309.662V378.214Z" fill="#663399"/>
<path d="M341.101 378.214H314.979V381.033H341.101V378.214Z" fill="#E6E8EC"/>
<path d="M333.361 382.912H314.979V385.731H333.361V382.912Z" fill="#E6E8EC"/>
<path d="M341.101 387.611H314.979V390.43H341.101V387.611Z" fill="#E6E8EC"/>
<path d="M341.102 392.309H287.41V395.128H341.102V392.309Z" fill="#E6E8EC"/>
<path d="M341.102 397.008H287.41V399.827H341.102V397.008Z" fill="#E6E8EC"/>
<path d="M341.102 401.706H287.41V404.525H341.102V401.706Z" fill="#E6E8EC"/>
<path d="M336.752 406.404H287.41V409.223H336.752V406.404Z" fill="#E6E8EC"/>
<path d="M341.102 411.103H287.41V413.922H341.102V411.103Z" fill="#E6E8EC"/>
<path d="M341.102 415.801H287.41V418.62H341.102V415.801Z" fill="#E6E8EC"/>
<path d="M200.575 428.949H133.826V477.812H200.575V428.949Z" fill="white"/>
<path opacity="0.2" d="M162.61 433.181H140.357V445.397H162.61V433.181Z" fill="#663399"/>
<path d="M194.05 433.181H167.928V436H194.05V433.181Z" fill="#E6E8EC"/>
<path d="M186.31 437.879H167.928V440.698H186.31V437.879Z" fill="#E6E8EC"/>
<path d="M194.05 442.578H167.928V445.397H194.05V442.578Z" fill="#E6E8EC"/>
<path d="M194.049 447.276H140.357V450.095H194.049V447.276Z" fill="#E6E8EC"/>
<path d="M194.049 451.974H140.357V454.793H194.049V451.974Z" fill="#E6E8EC"/>
<path d="M194.049 456.673H140.357V459.492H194.049V456.673Z" fill="#E6E8EC"/>
<path d="M189.7 461.371H140.357V464.19H189.7V461.371Z" fill="#E6E8EC"/>
<path d="M194.049 466.069H140.357V468.889H194.049V466.069Z" fill="#E6E8EC"/>
<path d="M194.049 470.768H140.357V473.587H194.049V470.768Z" fill="#E6E8EC"/>
<path d="M274.104 428.949H207.355V477.812H274.104V428.949Z" fill="white"/>
<path opacity="0.2" d="M236.131 433.181H213.879V445.397H236.131V433.181Z" fill="#663399"/>
<path d="M267.579 433.181H241.457V436H267.579V433.181Z" fill="#E6E8EC"/>
<path d="M259.839 437.879H241.457V440.698H259.839V437.879Z" fill="#E6E8EC"/>
<path d="M267.579 442.578H241.457V445.397H267.579V442.578Z" fill="#E6E8EC"/>
<path d="M267.571 447.276H213.879V450.095H267.571V447.276Z" fill="#E6E8EC"/>
<path d="M267.571 451.974H213.879V454.793H267.571V451.974Z" fill="#E6E8EC"/>
<path d="M267.571 456.673H213.879V459.492H267.571V456.673Z" fill="#E6E8EC"/>
<path d="M263.221 461.371H213.879V464.19H263.221V461.371Z" fill="#E6E8EC"/>
<path d="M267.571 466.069H213.879V468.889H267.571V466.069Z" fill="#E6E8EC"/>
<path d="M267.571 470.768H213.879V473.587H267.571V470.768Z" fill="#E6E8EC"/>
<path opacity="0.1" d="M347.626 428.949H280.877V477.812H347.626V428.949Z" fill="black"/>
<path d="M181.601 300.928H65.8216C64.318 300.925 62.8285 301.21 61.4381 301.766C60.0477 302.322 58.7837 303.138 57.7182 304.169C56.6528 305.199 55.8067 306.423 55.2284 307.771C54.6501 309.12 54.3508 310.565 54.3477 312.025V558.274C54.3508 559.734 54.6501 561.18 55.2284 562.528C55.8067 563.876 56.6528 565.1 57.7182 566.131C58.7837 567.161 60.0477 567.978 61.4381 568.534C62.8285 569.09 64.318 569.374 65.8216 569.371H181.601C183.105 569.374 184.594 569.09 185.984 568.534C187.375 567.978 188.639 567.161 189.704 566.131C190.77 565.1 191.616 563.876 192.194 562.528C192.772 561.18 193.072 559.734 193.075 558.274V312.033C193.073 310.572 192.774 309.126 192.196 307.777C191.619 306.428 190.773 305.203 189.707 304.171C188.642 303.14 187.377 302.323 185.986 301.766C184.595 301.21 183.105 300.925 181.601 300.928V300.928Z" fill="url(#paint2_linear_446_536)"/>
<path d="M183.223 302.994H64.2055C59.348 302.994 55.4102 306.818 55.4102 311.536V559.811C55.4102 564.529 59.348 568.354 64.2055 568.354H183.223C188.081 568.354 192.018 564.529 192.018 559.811V311.536C192.018 306.818 188.081 302.994 183.223 302.994Z" fill="#535461"/>
<path d="M181.952 327.674H65.4688V543.658H181.952V327.674Z" fill="#80848B"/>
<path d="M109.942 316.359C110.525 316.359 110.998 315.9 110.998 315.334C110.998 314.768 110.525 314.309 109.942 314.309C109.359 314.309 108.887 314.768 108.887 315.334C108.887 315.9 109.359 316.359 109.942 316.359Z" fill="white"/>
<path d="M137.744 314.301H116.044C115.602 314.301 115.244 314.649 115.244 315.077V315.582C115.244 316.011 115.602 316.359 116.044 316.359H137.744C138.186 316.359 138.544 316.011 138.544 315.582V315.077C138.544 314.649 138.186 314.301 137.744 314.301Z" fill="white"/>
<path d="M123.184 561.147C127.277 561.147 130.596 557.924 130.596 553.948C130.596 549.972 127.277 546.749 123.184 546.749C119.09 546.749 115.771 549.972 115.771 553.948C115.771 557.924 119.09 561.147 123.184 561.147Z" fill="white"/>
<path opacity="0.1" d="M163.426 340.604H83.9961V398.747H163.426V340.604Z" fill="black"/>
<path d="M163.426 406.016H83.9961V464.159H163.426V406.016Z" fill="white"/>
<path opacity="0.2" d="M118.242 411.048H91.7676V425.586H118.242V411.048Z" fill="#663399"/>
<path d="M155.654 411.048H124.574V414.403H155.654V411.048Z" fill="#E6E8EC"/>
<path d="M146.451 416.64H124.574V419.995H146.451V416.64Z" fill="#E6E8EC"/>
<path d="M155.654 422.223H124.574V425.578H155.654V422.223Z" fill="#E6E8EC"/>
<path d="M155.662 427.815H91.7676V431.17H155.662V427.815Z" fill="#E6E8EC"/>
<path d="M155.662 433.406H91.7676V436.761H155.662V433.406Z" fill="#E6E8EC"/>
<path d="M155.662 438.998H91.7676V442.353H155.662V438.998Z" fill="#E6E8EC"/>
<path d="M150.481 444.589H91.7676V447.944H150.481V444.589Z" fill="#E6E8EC"/>
<path d="M155.662 450.181H91.7676V453.535H155.662V450.181Z" fill="#E6E8EC"/>
<path d="M155.662 455.772H91.7676V459.127H155.662V455.772Z" fill="#E6E8EC"/>
<path d="M163.426 471.56H83.9961V529.703H163.426V471.56Z" fill="white"/>
<path opacity="0.2" d="M118.242 476.592H91.7676V491.13H118.242V476.592Z" fill="#663399"/>
<path d="M155.654 476.592H124.574V479.947H155.654V476.592Z" fill="#E6E8EC"/>
<path d="M146.451 482.184H124.574V485.539H146.451V482.184Z" fill="#E6E8EC"/>
<path d="M155.654 487.775H124.574V491.13H155.654V487.775Z" fill="#E6E8EC"/>
<path d="M155.662 493.367H91.7676V496.721H155.662V493.367Z" fill="#E6E8EC"/>
<path d="M155.662 498.958H91.7676V502.313H155.662V498.958Z" fill="#E6E8EC"/>
<path d="M155.662 504.549H91.7676V507.904H155.662V504.549Z" fill="#E6E8EC"/>
<path d="M150.481 510.141H91.7676V513.496H150.481V510.141Z" fill="#E6E8EC"/>
<path d="M155.662 515.725H91.7676V519.079H155.662V515.725Z" fill="#E6E8EC"/>
<path d="M155.662 521.316H91.7676V524.671H155.662V521.316Z" fill="#E6E8EC"/>
<path d="M434.701 499.028C429.327 492.699 422.819 485.422 423.73 476.996C424.466 470.17 422.699 463.864 423.051 457.022C423.546 447.299 421.524 439.681 414.311 433.445C410.098 429.803 403.053 426.937 400.958 427.667C396.8 429.112 392.267 428.56 387.989 429.531C384.743 430.308 382.576 431.403 381.241 432.824C378.546 435.154 378.498 438.462 379.729 441.995C378.654 443.904 378.005 446.011 377.825 448.179C377.644 450.348 377.936 452.529 378.682 454.58C379.427 456.632 380.609 458.508 382.151 460.086C383.692 461.664 385.559 462.909 387.629 463.74C384.631 464.951 382.032 467.755 381.033 473.439C380.322 477.345 379.251 481.182 377.834 484.902C377.199 485.195 376.548 485.454 375.883 485.678C376.027 485.733 376.179 485.772 376.331 485.826C376.019 485.942 375.7 486.059 375.388 486.168C375.963 486.385 376.557 486.551 377.163 486.665C374.981 492.164 372.05 497.354 368.447 502.095C368.447 502.095 359.396 504.037 355.878 500.643C355.878 500.643 356.454 501.296 357.229 502.274C353.783 500.884 348.138 498.624 343.309 496.76C339.806 495.409 338.903 496.76 338.951 498.64C338.09 498.737 337.258 499.001 336.504 499.416C335.469 498.771 334.384 498.205 333.258 497.723C331.243 497.242 324.71 493.84 318.17 505.489C314.364 512.269 304.577 524.632 297.101 533.788C282.508 540.304 263.518 548.543 256.466 550.632H251.957C251.365 549.693 250.949 549.079 250.949 549.079L250.597 549.304L250.445 549.079C250.445 549.079 241.562 555.051 232.543 555.098C231.259 555.077 229.983 554.916 228.737 554.616C224.587 553.599 221.668 553.148 219.581 553.187C217.111 553.148 215.712 553.715 214.84 554.787C214.726 554.928 214.622 555.076 214.528 555.23V555.23C214.431 555.388 214.343 555.551 214.264 555.719V555.719C214.184 555.89 214.112 556.068 214.04 556.255C214.013 556.418 214.023 556.585 214.072 556.744C214.12 556.903 214.205 557.049 214.32 557.171C214.44 557.339 214.571 557.5 214.712 557.653L214.96 557.917C216.746 559.532 218.681 560.985 220.741 562.258C221.484 562.747 222.268 563.244 223.092 563.757L224.651 564.72L226.042 565.566L226.602 565.9L227.225 566.273L228.337 566.933L229.001 567.321L230.248 568.043L231.255 568.626C233.894 570.179 236.533 571.608 238.899 572.905L240.562 573.813L240.722 573.899L241.786 574.473L243.633 575.468L244.904 576.143L245.496 576.462L246.136 576.795L246.263 576.865L247.367 577.448C247.594 577.484 247.827 577.473 248.049 577.414C248.271 577.355 248.478 577.25 248.654 577.106C248.974 575.786 249.758 572.959 250.589 572.742C251.421 572.524 255.051 566.343 256.082 562.227H265.893C267.822 562.069 269.737 561.787 271.626 561.38C269.091 563.135 266.581 564.238 264.63 563.764C260.504 562.77 256.594 565.209 256.202 567.647L256.154 567.795C256.154 567.841 256.154 567.896 256.154 567.942C256.154 567.989 256.154 568.059 256.154 568.121C256.154 568.183 256.154 568.222 256.154 568.269C256.154 568.315 256.154 568.385 256.154 568.447C256.154 568.509 256.154 568.548 256.154 568.595C256.154 568.641 256.154 568.719 256.154 568.773C256.154 568.828 256.154 568.867 256.154 568.913C256.154 568.96 256.154 569.045 256.202 569.107C256.25 569.169 256.202 569.193 256.202 569.232C256.232 569.316 256.267 569.399 256.306 569.48V569.542C256.361 569.644 256.422 569.743 256.49 569.837L256.57 569.938L256.73 570.132L256.842 570.241L257.026 570.412L257.162 570.521L257.378 570.676L257.538 570.777L257.801 570.924L257.977 571.018L258.305 571.165L258.473 571.235C258.649 571.305 258.833 571.375 259.033 571.437C259.233 571.499 259.72 571.639 260.144 571.74L260.568 571.841L261.184 571.981L261.511 572.051L262.855 572.315L263.51 572.431L264.046 572.524L265.277 572.734L267.676 573.114L269.795 573.425L272.554 573.806L273.161 573.883L274.153 574.015L275.576 574.202L276.552 574.326L279.07 574.637L279.87 574.73L281.469 574.916C283.556 575.157 285.579 575.39 287.434 575.592L289.585 575.825L290.672 575.941L291.136 575.988L292.439 576.128L293.167 576.205L294.054 576.299L295.31 576.423H295.446L296.245 576.5C296.345 576.51 296.446 576.5 296.542 576.469C296.638 576.439 296.726 576.39 296.801 576.325C296.876 576.26 296.937 576.181 296.979 576.092C297.021 576.003 297.043 575.907 297.045 575.809V575.809C297.045 575.809 297.045 575.755 297.045 575.732C297.121 575.621 297.163 575.492 297.165 575.359C297.185 574.197 297.335 573.041 297.613 571.911C297.669 571.717 297.732 571.515 297.796 571.321L297.876 571.095C297.964 570.855 298.052 570.614 298.156 570.365C298.227 570.19 298.289 570.011 298.34 569.83L298.388 569.659C298.388 569.565 298.436 569.465 298.46 569.364C299.476 566.009 298.252 559.757 297.9 557.303C297.79 556.512 297.605 555.732 297.349 554.973C297.412 554.979 297.477 554.979 297.541 554.973C298.062 554.785 298.552 554.523 298.996 554.197C306.408 551.626 312.669 548.691 314.644 545.747C317.856 544.916 321.271 545.262 324.239 546.718C328.077 548.574 357.125 557.777 370.654 562.033C373.053 564.067 374.988 565.255 376.035 565.139C376.035 565.139 393.25 567.841 400.175 562.561C400.79 562.972 401.174 563.197 401.174 563.197C401.174 563.197 411.233 558.344 412.744 552.038C413.232 549.995 413.672 546.975 414.119 543.635C416.455 541.352 417.768 538.265 417.773 535.046C418.085 524.446 422.315 512.339 425.449 501.552C429.255 501.839 430.727 501.148 434.245 499.471L434.093 499.276L434.701 499.028ZM377.035 514.901L375.116 514.272C375.766 513.429 376.326 512.523 376.787 511.57L377.035 514.901ZM366.209 519.359L377.866 526.154L377.97 527.536C377.828 528.588 377.86 529.655 378.066 530.697C372.933 526.263 366.92 520.881 366.217 519.359H366.209ZM361.451 509.465C360.18 508.953 359.124 508.495 358.405 508.114L361.107 508.277C361.267 508.66 361.385 509.058 361.459 509.465H361.451ZM330.267 520.532C330.267 520.532 332.282 516.167 336.808 523.444C337.512 524.578 338.807 526.372 340.518 528.608L327.357 526.892C328.724 524.967 329.706 522.809 330.251 520.532H330.267Z" fill="url(#paint3_linear_446_536)"/>
<path d="M359.219 502.989C359.219 502.989 349.991 499.214 342.715 496.388C335.439 493.561 339.805 502.989 339.805 502.989C339.805 502.989 351.942 506.289 351.942 506.763C351.942 507.236 362.137 507.702 362.137 507.702L359.219 502.989Z" fill="#F7C4A7"/>
<path opacity="0.05" d="M359.219 502.989C359.219 502.989 349.991 499.214 342.715 496.388C335.439 493.561 339.805 502.989 339.805 502.989C339.805 502.989 351.942 506.289 351.942 506.763C351.942 507.236 362.137 507.702 362.137 507.702L359.219 502.989Z" fill="black"/>
<path d="M398.519 465.743C398.519 465.743 382.015 457.255 379.097 473.758C377.28 483.804 373.138 493.318 366.983 501.583C366.983 501.583 358.244 503.47 354.846 500.169C354.846 500.169 363.097 509.597 359.211 510.545C359.211 510.545 367.951 516.672 371.837 514.785C375.723 512.898 378.633 500.169 380.088 496.869C381.544 493.568 386.885 464.796 398.519 465.743Z" fill="#575988"/>
<path opacity="0.1" d="M398.519 465.743C398.519 465.743 382.015 457.255 379.097 473.758C377.28 483.804 373.138 493.318 366.983 501.583C366.983 501.583 358.244 503.47 354.846 500.169C354.846 500.169 363.097 509.597 359.211 510.545C359.211 510.545 367.951 516.672 371.837 514.785C375.723 512.898 378.633 500.169 380.088 496.869C381.544 493.568 386.885 464.796 398.519 465.743Z" fill="black"/>
<path d="M389.316 460.082C389.316 460.082 399.511 471.397 399.999 480.825C400.487 490.253 411.649 470.923 412.624 470.449C413.6 469.976 402.909 453.955 401.934 448.775C400.958 443.595 389.316 460.082 389.316 460.082Z" fill="#F7C4A7"/>
<path d="M396.352 464.92L389.924 470.574L392.954 482.479L401.206 474.938L400.238 467.397L396.352 464.92Z" fill="#F7C4A7"/>
<path d="M262.127 548.73H250.965L255.331 559.097L266.013 556.27L262.127 548.73Z" fill="#F7C4A7"/>
<path opacity="0.1" d="M253.54 547.231C253.54 547.231 241.994 555.051 232.103 552.613C222.212 550.174 219.542 551.059 218.39 554.236C217.327 557.124 245.984 572.416 250.549 574.831C250.621 574.877 250.704 574.905 250.79 574.913C250.876 574.92 250.963 574.907 251.042 574.874C251.122 574.841 251.191 574.789 251.245 574.723C251.298 574.657 251.334 574.579 251.349 574.497C251.661 573.215 252.412 570.466 253.212 570.257C254.259 569.985 259.049 561.31 258.809 557.886C258.569 554.461 253.54 547.231 253.54 547.231Z" fill="black"/>
<path d="M253.059 547.231C253.059 547.231 241.513 555.051 231.623 552.613C221.732 550.174 219.061 551.059 217.91 554.236C216.846 557.124 245.503 572.416 250.069 574.831C250.141 574.877 250.224 574.905 250.31 574.913C250.396 574.92 250.482 574.907 250.562 574.874C250.641 574.841 250.711 574.789 250.764 574.723C250.818 574.657 250.854 574.579 250.868 574.497C251.18 573.215 251.932 570.466 252.731 570.257C253.779 569.985 258.568 561.31 258.329 557.886C258.089 554.461 253.059 547.231 253.059 547.231Z" fill="#F3B5B7"/>
<path d="M348.537 528.453L316.01 524.213C316.01 524.213 263.094 548.73 256.785 549.203L258.24 560.076H267.947C271.833 560.076 309.693 552.061 315.035 544.047C318.125 543.247 321.41 543.582 324.262 544.986C329.115 547.316 375.723 561.963 375.723 561.963L348.537 528.453Z" fill="#575988"/>
<path opacity="0.1" d="M348.537 528.453L316.01 524.213C316.01 524.213 263.094 548.73 256.785 549.203L258.24 560.076H267.947C271.833 560.076 309.693 552.061 315.035 544.047C318.125 543.247 321.41 543.582 324.262 544.986C329.115 547.316 375.723 561.963 375.723 561.963L348.537 528.453Z" fill="black"/>
<path d="M290.767 543.068L285.426 549.669L290.767 552.496L298.539 546.842L290.767 543.068Z" fill="#F7C4A7"/>
<path d="M383.486 535.52C383.486 535.52 366.023 520.998 364.8 518.357C363.576 515.717 334.943 497.809 333 497.335C331.057 496.861 324.749 493.561 318.44 504.876C312.131 516.191 288.855 543.534 288.855 543.534C288.855 543.534 296.14 553.436 298.562 552.962C300.985 552.488 328.147 530.332 330.114 519.483C330.114 519.483 332.057 515.243 336.423 522.31C340.788 529.377 368.949 563.329 374.291 562.856C374.291 562.856 395.168 566.156 399.533 558.142C403.899 550.127 383.486 535.52 383.486 535.52Z" fill="#575988"/>
<path d="M378.584 459.399H305.895V512.603H378.584V459.399Z" fill="url(#paint4_linear_446_536)"/>
<path d="M375.61 461.565H308.861V510.428H375.61V461.565Z" fill="white"/>
<path opacity="0.2" d="M337.647 465.798H315.395V478.013H337.647V465.798Z" fill="#663399"/>
<path d="M369.087 465.798H342.965V468.617H369.087V465.798Z" fill="#E6E8EC"/>
<path d="M361.347 470.496H342.965V473.315H361.347V470.496Z" fill="#E6E8EC"/>
<path d="M369.087 475.194H342.965V478.013H369.087V475.194Z" fill="#E6E8EC"/>
<path d="M369.086 479.893H315.395V482.712H369.086V479.893Z" fill="#E6E8EC"/>
<path d="M369.086 484.591H315.395V487.41H369.086V484.591Z" fill="#E6E8EC"/>
<path d="M369.086 489.289H315.395V492.109H369.086V489.289Z" fill="#E6E8EC"/>
<path d="M364.737 493.988H315.395V496.807H364.737V493.988Z" fill="#E6E8EC"/>
<path d="M369.086 498.686H315.395V501.505H369.086V498.686Z" fill="#E6E8EC"/>
<path d="M369.086 503.385H315.395V506.204H369.086V503.385Z" fill="#E6E8EC"/>
<path d="M393.442 466.45C393.442 466.45 387.373 469.044 386.886 479.885C386.398 490.726 375.691 509.116 375.691 509.116L376.659 530.806C376.659 530.806 388.309 542.121 389.284 549.196C390.26 556.27 398.519 560.984 398.519 560.984C398.519 560.984 408.226 556.27 409.714 550.112C411.201 543.954 412.112 528.896 414.567 523.234C417.022 517.573 415.535 482.215 415.535 482.215L408.25 469.953L404.364 465.712L394.17 477.027C394.17 477.027 388.589 469.743 393.442 466.45Z" fill="#F3B5B7"/>
<path opacity="0.1" d="M379.122 523.731C379.122 523.731 377.667 506.755 382.032 502.989L390.772 478.914C390.772 478.914 393.93 467.366 393.442 466.419C392.954 465.472 382.032 475.614 382.032 475.614L374.748 500.604L376.691 527.008L379.122 523.731Z" fill="black"/>
<path d="M378.633 523.731C378.633 523.731 377.178 506.755 381.544 502.989L390.283 478.914C390.283 478.914 393.682 467.126 393.194 466.186C392.706 465.246 381.544 475.614 381.544 475.614L374.26 500.604L376.203 527.008L378.633 523.731Z" fill="#575988"/>
<path d="M382.031 516.191C382.031 516.191 357.74 508.65 356.301 506.763C354.862 504.876 339.31 492.621 333.969 501.101C328.627 509.582 353.87 511.974 353.87 511.974L379.601 527.063L382.031 516.191Z" fill="#F7C4A7"/>
<path opacity="0.1" d="M291.815 549.623L284.618 548.365C284.618 548.365 272.849 563.003 266.724 561.52C260.599 560.037 254.954 566.444 261.431 568.509C267.284 570.365 292.542 572.967 297.372 573.448C297.471 573.462 297.571 573.454 297.667 573.427C297.762 573.399 297.851 573.353 297.927 573.29C298.002 573.226 298.063 573.148 298.105 573.061C298.148 572.973 298.17 572.877 298.171 572.781C298.194 570.961 298.557 569.162 299.243 567.469C300.538 564.362 299.243 557.746 298.883 555.23C298.683 553.746 298.203 552.312 297.468 550.997L291.815 549.623Z" fill="black"/>
<path d="M291.702 550.081L284.506 548.823C284.506 548.823 272.752 563.469 266.587 561.978C260.423 560.487 254.818 566.902 261.294 568.967C267.147 570.824 292.406 573.425 297.235 573.907C297.334 573.92 297.435 573.912 297.53 573.885C297.626 573.858 297.715 573.811 297.79 573.748C297.866 573.685 297.927 573.606 297.969 573.519C298.011 573.431 298.034 573.336 298.035 573.239C298.058 571.42 298.421 569.62 299.106 567.927C300.402 564.82 299.106 558.204 298.747 555.688C298.547 554.205 298.067 552.77 297.331 551.455L291.702 550.081Z" fill="#F3B5B7"/>
<path opacity="0.1" d="M392.954 465.51C401.534 465.51 408.49 458.755 408.49 450.421C408.49 442.088 401.534 435.332 392.954 435.332C384.374 435.332 377.418 442.088 377.418 450.421C377.418 458.755 384.374 465.51 392.954 465.51Z" fill="black"/>
<path d="M391.499 465.51C400.079 465.51 407.035 458.755 407.035 450.421C407.035 442.088 400.079 435.332 391.499 435.332C382.919 435.332 375.963 442.088 375.963 450.421C375.963 458.755 382.919 465.51 391.499 465.51Z" fill="#F7C4A7"/>
<path d="M406.786 465.27C406.786 465.27 425.232 471.397 425.232 484.133C425.232 496.869 415.037 517.138 414.55 533.64C414.062 550.143 387.364 547.782 387.364 547.782C387.364 547.782 383.478 492.147 387.364 487.899C391.25 483.651 408.729 467.157 406.786 465.27Z" fill="#575988"/>
<path opacity="0.1" d="M403.389 491.674C403.389 491.674 396.592 520.904 380.569 515.748C380.569 515.748 372.317 527.536 378.17 532.724C378.17 532.724 392.251 536.025 401.47 527.063C410.689 518.101 417.47 514.785 418.925 503.913C420.38 493.04 421.324 477.982 416.526 479.396C411.729 480.809 403.389 491.674 403.389 491.674Z" fill="black"/>
<path d="M403.875 491.2C403.875 491.2 397.079 520.431 381.055 515.274C381.055 515.274 372.804 527.063 378.656 532.25C378.656 532.25 392.737 535.551 401.956 526.589C411.175 517.627 417.948 514.327 419.435 503.486C420.922 492.644 421.834 477.555 417.036 478.969C412.239 480.382 403.875 491.2 403.875 491.2Z" fill="#575988"/>
<path d="M299.523 566.412C299.523 566.459 299.523 566.506 299.475 566.545C299.128 567.349 298.861 568.184 298.676 569.037C298.788 568.665 298.924 568.261 299.084 567.911C299.288 567.43 299.436 566.927 299.523 566.412V566.412Z" fill="#DDDBE2"/>
<path d="M261.688 567.593C259.689 566.956 258.849 565.908 258.817 564.805C258.017 566.358 258.513 568.067 261.336 568.967C267.189 570.824 292.455 573.425 297.277 573.907C297.376 573.92 297.478 573.912 297.574 573.884C297.67 573.857 297.759 573.809 297.835 573.745C297.91 573.681 297.971 573.602 298.013 573.513C298.055 573.425 298.076 573.328 298.076 573.231V573.231C298.08 573.059 298.017 572.892 297.9 572.763C297.783 572.634 297.621 572.551 297.445 572.532C292.128 571.973 267.46 569.418 261.688 567.593Z" fill="#DDDBE2"/>
<path d="M218.574 553.405C218.698 553.057 218.856 552.721 219.045 552.403C218.521 552.918 218.129 553.546 217.902 554.236C216.838 557.124 245.495 572.408 250.061 574.831C250.133 574.875 250.216 574.902 250.301 574.908C250.387 574.915 250.473 574.901 250.551 574.868C250.63 574.835 250.699 574.784 250.753 574.72C250.807 574.655 250.844 574.578 250.861 574.497V574.497C250.887 574.388 250.877 574.274 250.831 574.172C250.785 574.069 250.705 573.984 250.605 573.93C245.535 571.243 217.518 556.262 218.574 553.405Z" fill="#DDDBE2"/>
<path d="M253.363 569.426C253.107 569.496 252.851 569.822 252.619 570.288H252.699C252.907 570.233 253.275 569.83 253.723 569.201C253.622 569.301 253.499 569.378 253.363 569.426V569.426Z" fill="#DDDBE2"/>
<path opacity="0.1" d="M389.339 463.701C387.972 466.629 387.684 469.914 386.677 473.02C385.696 476.027 384.012 478.773 381.759 481.044C379.505 483.315 376.741 485.05 373.684 486.113C378.729 488.07 384.678 485.678 388.58 481.718C392.482 477.757 394.761 472.484 396.951 467.359C402.612 471.055 401.925 479.551 403.82 486.168C404.637 489.046 406.08 491.72 408.053 494.01C410.025 496.299 412.481 498.151 415.254 499.439C418.017 500.644 421.021 501.239 424.049 501.18C427.077 501.12 430.054 500.409 432.765 499.098C427.575 492.947 420.187 484.513 421.067 476.328C421.778 469.696 416.877 464.633 417.221 457.985C417.701 448.542 414.022 443.766 407.026 437.708C402.956 434.167 409.361 429.166 404.116 430.634C402.053 431.208 399.878 429.081 397.855 429.772C393.857 431.17 389.467 430.642 385.341 431.581C363.889 436.458 391.322 459.422 389.339 463.701Z" fill="black"/>
<path d="M389.828 463.227C388.46 466.155 388.173 469.44 387.165 472.546C386.184 475.553 384.501 478.299 382.247 480.57C379.993 482.842 377.23 484.576 374.172 485.639C379.217 487.596 385.166 485.205 389.068 481.244C392.97 477.283 395.249 472.01 397.44 466.885C403.101 470.581 402.413 479.077 404.308 485.694C405.125 488.572 406.569 491.246 408.541 493.536C410.514 495.825 412.969 497.677 415.742 498.966C418.505 500.171 421.509 500.765 424.537 500.706C427.565 500.647 430.542 499.936 433.253 498.624C428.064 492.473 421.163 485.422 422.059 477.268C422.77 470.636 421.707 463.825 422.059 457.178C422.539 447.734 417.781 438.64 410.817 432.583C406.747 429.042 400.422 428.591 398.367 429.298C394.369 430.696 389.98 430.168 385.854 431.107C364.377 435.992 391.827 458.948 389.828 463.227Z" fill="#B96B6B"/>
<path d="M130.995 606.803C158.98 598.439 175.499 599.13 175.499 599.13L173.205 586.495C173.921 586.029 174.572 585.472 175.14 584.841C175.14 584.841 172.269 569.503 175.14 565.667C178.01 561.831 185.91 526.977 185.91 526.977V515.119C200.302 510.242 217.134 482.005 217.134 482.005L238.314 534.976C238.314 534.976 259.487 575.763 262.358 577.153C264.653 578.263 265.796 587.388 266.172 591.015L265.996 591.069C266.084 591.947 266.124 592.49 266.124 592.49L266.292 592.382V592.49C266.647 592.25 267.021 592.037 267.411 591.854C263.277 596.466 257.089 603.099 251.939 607.478C249.101 609.894 254.194 611.757 256.577 611.719C257.932 611.676 259.285 611.862 260.575 612.27C272.64 616.316 292.478 601.545 292.478 601.545L287.513 588.095C288.808 587.994 289.608 587.947 289.608 587.947C289.608 587.947 273.456 532.872 265.916 527.637C263.533 525.95 261.383 523.971 259.519 521.751C255.933 517.518 254.126 512.126 254.458 506.654L257.105 461.464C261.358 460.859 264.101 460.354 264.101 460.354C264.101 460.354 265.092 448.006 265.06 438.532C265.06 433.6 264.852 429.275 264.101 427.582C263.213 425.578 262.933 421.571 262.918 417.548C262.918 412.112 263.381 407.018 263.381 407.018C263.381 407.018 269.122 399.694 277.022 382.943C280.5 375.574 281.404 369.741 281.324 365.563C281.378 363.617 281.184 361.671 280.748 359.77C280.524 358.83 280.11 357.943 279.529 357.16C278.949 356.377 278.213 355.715 277.366 355.212C272.824 352.509 262.486 345.838 259.439 339.377C255.569 331.176 249.98 330.011 249.756 329.965L249.413 328.52C251.556 326.799 253.121 324.495 253.906 321.904C255.074 318.409 255.314 314.681 256.305 311.132C256.785 309.424 257.448 307.77 257.904 306.061C258.359 304.342 258.577 302.571 258.552 300.796C258.638 298.21 258.09 295.641 256.953 293.302C255.098 289.598 251.404 286.685 247.198 286.204C244.879 285.94 242.312 286.328 240.409 285.016C239.098 284.107 238.41 282.562 237.211 281.482C234.932 279.385 231.286 279.494 228.32 280.473C224.325 281.803 220.903 284.391 218.597 287.827C217.213 289.893 216.246 292.261 214.471 294.04C212.976 295.523 211.017 296.47 209.37 297.791C208.15 298.715 207.159 299.891 206.467 301.235C205.776 302.578 205.401 304.055 205.372 305.556C205.372 305.556 205.372 305.634 205.372 305.673C205.372 305.867 205.372 306.061 205.372 306.255C205.452 309.253 207.603 312.235 210.625 312.841C211.416 312.982 212.226 313.003 213.024 312.903C212.342 315.349 212.176 317.904 212.536 320.414C212.895 322.924 213.773 325.338 215.116 327.51C216.46 329.683 218.241 331.57 220.353 333.058C222.465 334.546 224.865 335.604 227.408 336.17C227.36 336.418 227.304 336.667 227.248 336.946H227.416C227.07 338.154 226.637 339.338 226.121 340.487H225.889L226.473 339.478L218.237 338.926C215.839 338.751 213.435 339.188 211.265 340.192C208.426 341.528 205.324 344.075 204.94 348.89C204.22 357.914 186.63 371.504 186.63 371.504C180.529 380.917 140.686 382.656 140.686 382.656C140.686 382.656 140.862 382.874 140.941 382.99L140.142 382.842L137.127 382.307C137.127 382.307 127.796 355.468 118.825 360.345C109.854 365.222 134.257 391.719 134.257 391.719L141.309 392.177L142.021 392.224C141.762 393.961 141.391 395.681 140.91 397.372V397.372C140.814 397.714 140.742 397.932 140.726 397.986C140.726 397.986 159.276 395.905 175.036 396.239H176.459L177.466 396.192C178.266 404.603 190.611 421.695 190.611 421.695L198.231 423.248L198.807 423.365C196.352 428.297 193.233 432.891 189.532 437.025L187.021 450.623L187.221 450.577L187.021 451.672C187.452 451.57 187.85 451.367 188.181 451.081C183.263 463.755 175.108 483.481 169.439 490.361C160.827 500.822 161.899 517.542 161.899 517.542C161.899 517.542 153.287 561.466 153.647 569.48C153.688 573.348 152.611 577.151 150.536 580.453C148.847 582.337 147.363 584.385 146.107 586.565C139.646 597.375 129.236 596.661 129.236 596.661C120.264 602.268 130.995 606.803 130.995 606.803ZM186.43 394.181L187.357 393.823L187.573 393.738L188.461 393.365L188.612 393.295L189.412 392.938L189.588 392.861L190.436 392.449L190.635 392.348L191.435 391.936H191.499L192.299 391.486L192.49 391.377L193.29 390.927L193.418 390.849L194.114 390.438L194.274 390.344L195.017 389.886L195.185 389.777L195.873 389.335L195.937 389.296L196.64 388.822L196.8 388.714L197.472 388.248L197.576 388.178L198.167 387.758L198.295 387.665L198.911 387.207L199.039 387.114L199.599 386.687H199.647L200.214 386.244L200.334 386.151L200.87 385.724L200.918 385.685L201.398 385.289L201.478 385.219L201.949 384.823L202.021 384.761L202.453 384.38L202.869 384.015L202.925 383.961L203.725 383.184L204.892 383.091C205.883 384.341 206.275 386.555 206.315 389.094C206.203 395.61 204.172 403.655 204.172 403.655C203.999 407.648 203.284 411.601 202.045 415.413C201.17 415.366 200.311 415.164 199.511 414.815C199.511 414.815 199.463 415.063 199.391 415.483L198.703 415.312L195.209 414.465C195.209 414.465 192.307 400.114 186.43 394.181Z" fill="url(#paint5_linear_446_536)"/>
<path d="M283.763 579.855L290.423 597.88C290.423 597.88 272.185 611.47 260.335 608.659C258.55 608.228 256.732 607.942 254.898 607.805C252.443 607.626 248.222 605.894 250.828 603.681C259.24 596.536 270.45 583.264 270.45 583.264L283.763 579.855Z" fill="#4F4D59"/>
<path d="M173.037 578.155L176.188 595.511C176.188 595.511 160.068 594.828 132.739 602.998C132.739 602.998 122.224 598.571 130.987 593.127C130.987 593.127 141.15 593.811 147.459 583.257C153.768 572.703 157.622 574.07 157.622 574.07L173.037 578.155Z" fill="#4F4D59"/>
<path d="M256.433 452.231L253.346 505.039C253.016 510.667 254.938 516.202 258.712 520.485C260.417 522.452 262.361 524.212 264.501 525.727C271.857 530.829 287.624 584.6 287.624 584.6C287.624 584.6 269.754 585.617 264.852 589.027C264.852 589.027 263.805 575.413 260.998 574.054C258.192 572.695 237.523 532.895 237.523 532.895L216.838 481.159C216.838 481.159 200.366 508.728 186.349 513.488V525.059C186.349 525.059 178.642 559.089 175.835 562.832C173.028 566.576 175.835 581.548 175.835 581.548C175.835 581.548 167.775 591.419 149.209 580.865C149.209 580.865 155.166 574.396 154.806 566.568C154.446 558.74 162.882 515.872 162.882 515.872C162.882 515.872 161.834 499.564 170.238 489.328C178.642 479.093 192.626 439.984 192.626 439.984L202.269 419.831L256.433 452.231Z" fill="#787C9C"/>
<g opacity="0.1">
<path d="M284.292 584.616C284.292 584.616 268.524 530.845 261.168 525.743C258.907 524.137 256.862 522.261 255.083 520.159C251.484 515.933 249.674 510.536 250.022 505.062L253.109 452.254L201.432 421.315L202.135 419.847L256.259 452.246L253.172 505.054C252.825 510.528 254.634 515.926 258.234 520.151C260.013 522.253 262.057 524.129 264.319 525.735C271.675 530.837 287.442 584.608 287.442 584.608C287.442 584.608 269.572 585.625 264.67 589.035C264.67 589.035 264.63 588.506 264.543 587.644C271.435 585.353 284.292 584.616 284.292 584.616Z" fill="black"/>
<path d="M172.518 581.571C172.518 581.571 169.711 566.599 172.518 562.856C175.324 559.113 183.032 525.082 183.032 525.082V513.511C197.049 508.743 213.52 481.182 213.52 481.182L214.744 484.249C209.994 491.565 197.321 509.729 186.191 513.511V525.082C186.191 525.082 178.483 559.113 175.676 562.856C172.87 566.599 175.676 581.571 175.676 581.571C175.676 581.571 171.766 586.348 163.131 585.703C169.567 585.167 172.518 581.571 172.518 581.571Z" fill="black"/>
</g>
<path d="M135.897 393.016L142.781 393.459L146.411 393.692V385.149L141.614 384.31L138.663 383.79C138.663 383.79 129.556 357.588 120.793 362.348C112.029 367.109 135.897 393.016 135.897 393.016Z" fill="#714B4F"/>
<path d="M246.271 322.913C246.271 322.913 250.828 339.928 252.227 350.482C253.627 361.036 219.645 352.525 219.645 352.525C219.645 352.525 232.606 337.21 225.242 329.041L246.271 322.913Z" fill="#714B4F"/>
<path d="M209.482 393.699L208.778 400.168L219.637 399.485L230.495 390.298L241.353 360.686L248.374 350.148L253.627 343.679L251.524 335.851C251.524 335.851 250.564 336.628 248.941 337.87C243.608 341.839 231.087 350.078 221.94 347.803C221.516 347.7 221.1 347.573 220.692 347.422L207.027 370.223L209.482 393.699Z" fill="#E6E6F0"/>
<path opacity="0.1" d="M248.725 333.84C248.725 333.84 254.322 334.857 258.184 343.027C261.151 349.309 271.153 355.786 275.623 358.45C276.475 358.956 277.214 359.623 277.797 360.411C278.379 361.2 278.793 362.093 279.013 363.04C279.917 366.922 280.261 374.145 275.351 384.551C267.643 400.859 262.038 408.035 262.038 408.035C262.038 408.035 260.639 424.343 262.742 429.135C264.845 433.927 262.742 460.105 262.742 460.105C262.742 460.105 225.961 466.908 213.688 460.105C201.414 453.302 203.173 427.03 203.173 427.03C203.173 427.03 191.611 450.872 187.429 451.555L189.828 438.283C189.828 438.283 203.493 423.986 204.221 405.612C204.221 405.612 208.426 388.939 204.924 384.512C204.924 384.512 145.707 389.28 142.205 385.196C142.205 385.196 181.097 383.495 187.054 374.323C187.054 374.323 204.221 361.051 204.924 352.206C205.027 350.547 205.563 348.94 206.482 347.538C207.401 346.136 208.673 344.984 210.177 344.192C212.561 342.876 215.296 342.283 218.029 342.491L225.945 343.019C225.945 343.019 212.288 366.457 213.016 369.563C213.744 372.669 212.312 397.466 212.312 397.466C212.312 397.466 228.08 364.453 235.084 360.71C242.089 356.967 250.124 341.606 250.124 341.606L248.725 333.84Z" fill="black"/>
<path opacity="0.1" d="M209.482 393.699L208.778 400.168L219.637 399.485L230.495 390.298L241.353 360.686L248.374 350.148L253.627 343.679L251.524 335.851C251.524 335.851 250.564 336.628 248.941 337.87L249.421 340.557C249.421 340.557 241.361 355.926 234.357 359.669C227.353 363.412 211.585 396.425 211.585 396.425C211.585 396.425 212.984 371.574 212.289 368.522C211.809 366.441 217.95 354.971 221.94 347.803C221.516 347.7 221.1 347.573 220.692 347.422L207.027 370.223L209.482 393.699Z" fill="black"/>
<path opacity="0.1" d="M142.781 393.466L146.411 393.699V385.157L141.613 384.318C143.3 386.492 143.244 390.267 142.781 393.466Z" fill="black"/>
<path d="M248.725 332.784C248.725 332.784 254.322 333.801 258.184 341.971C261.151 348.253 271.153 354.73 275.623 357.394C276.475 357.9 277.214 358.567 277.797 359.355C278.379 360.144 278.793 361.037 279.013 361.983C279.917 365.866 280.261 373.089 275.351 383.495C267.643 399.803 262.038 406.979 262.038 406.979C262.038 406.979 260.639 423.287 262.742 428.079C264.845 432.87 262.742 459.049 262.742 459.049C262.742 459.049 225.961 465.852 213.688 459.049C201.414 452.246 203.173 426.036 203.173 426.036C203.173 426.036 191.611 449.854 187.429 450.53L189.828 437.258C189.828 437.258 203.493 422.961 204.221 404.587C204.221 404.587 208.426 387.914 204.924 383.487C204.924 383.487 191.259 397.784 175.843 397.466C160.428 397.147 142.205 399.166 142.205 399.166C142.205 399.166 145.707 388.294 142.205 384.194C142.205 384.194 181.097 382.493 187.054 373.322C187.054 373.322 204.221 360.05 204.924 351.204C205.022 349.539 205.557 347.926 206.478 346.517C207.399 345.109 208.675 343.953 210.185 343.159C212.569 341.843 215.304 341.25 218.037 341.458L225.953 341.986C225.953 341.986 212.288 365.455 213.016 368.514C213.744 371.574 212.312 396.417 212.312 396.417C212.312 396.417 228.08 363.405 235.084 359.661C242.089 355.918 250.148 340.55 250.148 340.55L248.749 332.784" fill="#67647E"/>
<path opacity="0.1" d="M256.434 368.514C256.434 368.514 248.022 396.083 243.121 399.485C238.22 402.886 208.435 420.243 199.672 416.158C199.672 416.158 197.569 426.37 200.719 428.747C200.719 428.747 233.39 427.504 233.654 427.388C233.654 427.388 255.027 424.662 258.529 414.457C262.031 404.253 266.237 386.889 266.237 386.889L256.434 368.514Z" fill="black"/>
<path d="M211.585 399.656C212.26 399.656 212.808 398.894 212.808 397.955C212.808 397.016 212.26 396.254 211.585 396.254C210.909 396.254 210.361 397.016 210.361 397.955C210.361 398.894 210.909 399.656 211.585 399.656Z" fill="#BA7855"/>
<path d="M208.083 411.568C208.758 411.568 209.306 410.807 209.306 409.868C209.306 408.929 208.758 408.167 208.083 408.167C207.407 408.167 206.859 408.929 206.859 409.868C206.859 410.807 207.407 411.568 208.083 411.568Z" fill="#BA7855"/>
<g opacity="0.1">
<path d="M260.288 458.7C260.288 458.7 262.39 432.498 260.288 427.729C258.185 422.961 259.584 406.629 259.584 406.629C259.584 406.629 265.181 399.485 272.897 383.145C277.806 372.739 277.455 365.517 276.559 361.634C276.337 360.687 275.922 359.793 275.339 359.005C274.755 358.216 274.014 357.55 273.161 357.044C268.691 354.381 258.688 347.904 255.73 341.621C253.555 337.016 250.829 334.679 248.854 333.521L248.718 332.745C248.718 332.745 254.315 333.762 258.177 341.932C261.143 348.214 271.146 354.691 275.608 357.355C276.461 357.86 277.202 358.527 277.785 359.315C278.369 360.104 278.784 360.998 279.006 361.945C279.909 365.827 280.253 373.05 275.344 383.456C267.636 399.764 262.031 406.94 262.031 406.94C262.031 406.94 260.631 423.248 262.734 428.04C264.837 432.832 262.734 459.01 262.734 459.01C262.734 459.01 236.452 463.872 220.908 461.27C236.612 463.08 260.288 458.7 260.288 458.7Z" fill="black"/>
<path d="M213.016 368.514C213.495 370.611 213.016 382.944 212.624 390.492C210.929 393.855 209.865 396.076 209.865 396.076C209.865 396.076 211.265 371.225 210.569 368.173C209.905 365.261 222.211 343.904 223.434 341.769L225.985 341.94C225.985 341.94 212.288 365.455 213.016 368.514Z" fill="black"/>
<path d="M173.389 397.101C188.805 397.442 202.469 383.122 202.469 383.122C202.883 383.678 203.184 384.305 203.357 384.97C199.359 388.628 188.165 397.691 175.843 397.396C160.428 397.054 142.205 399.097 142.205 399.097C142.205 399.097 142.277 398.871 142.389 398.483C152.688 397.464 163.037 397.002 173.389 397.101Z" fill="black"/>
<path d="M200.719 425.687C200.719 425.687 200.575 427.815 200.655 431.007C197.009 437.996 190.373 450.048 187.406 450.53L187.926 447.734C193.027 441.514 200.719 425.687 200.719 425.687Z" fill="black"/>
</g>
<path d="M204.772 339.804H121.016V401.108H204.772V339.804Z" fill="url(#paint6_linear_446_536)"/>
<path d="M202.606 341.38H123.176V399.524H202.606V341.38Z" fill="white"/>
<path opacity="0.2" d="M157.421 346.413H130.947V360.95H157.421V346.413Z" fill="#663399"/>
<path d="M194.834 346.413H163.754V349.768H194.834V346.413Z" fill="#E6E8EC"/>
<path d="M185.63 352.004H163.754V355.359H185.63V352.004Z" fill="#E6E8EC"/>
<path d="M194.834 357.596H163.754V360.95H194.834V357.596Z" fill="#E6E8EC"/>
<path d="M194.842 363.187H130.947V366.542H194.842V363.187Z" fill="#E6E8EC"/>
<path d="M194.842 368.779H130.947V372.133H194.842V368.779Z" fill="#E6E8EC"/>
<path d="M194.842 374.362H130.947V377.717H194.842V374.362Z" fill="#E6E8EC"/>
<path d="M189.66 379.954H130.947V383.308H189.66V379.954Z" fill="#E6E8EC"/>
<path d="M194.842 385.545H130.947V388.9H194.842V385.545Z" fill="#E6E8EC"/>
<path d="M194.842 391.137H130.947V394.491H194.842V391.137Z" fill="#E6E8EC"/>
<path d="M190.907 422.285L198.352 423.839L204.22 425.011L201.07 416.469L198.879 415.933L195.465 415.11C195.465 415.11 190.564 391.307 180.753 393.016C170.942 394.724 190.907 422.285 190.907 422.285Z" fill="#714B4F"/>
<path opacity="0.1" d="M198.353 423.808L204.222 425.011L201.071 416.469L198.88 415.933C198.39 418.529 198.213 421.172 198.353 423.808V423.808Z" fill="black"/>
<path d="M256.434 367.839C256.434 367.839 248.022 395.408 243.121 398.809C238.22 402.211 208.435 419.567 199.672 415.483C199.672 415.483 197.569 425.695 200.719 428.071C200.719 428.071 233.39 426.829 233.654 426.712C233.654 426.712 255.027 423.986 258.529 413.782C262.031 403.577 266.237 386.213 266.237 386.213L256.434 367.839Z" fill="#67647E"/>
<path opacity="0.1" d="M245.92 323.597C245.92 323.597 246.631 326.26 247.583 330.135C245.639 333.701 242.54 336.546 238.765 338.23C234.99 339.915 230.749 340.345 226.698 339.455C227.537 335.96 227.353 332.465 224.891 329.693L245.92 323.597Z" fill="black"/>
<path d="M231.207 339.253C241.655 339.253 250.125 331.026 250.125 320.879C250.125 310.731 241.655 302.504 231.207 302.504C220.759 302.504 212.289 310.731 212.289 320.879C212.289 331.026 220.759 339.253 231.207 339.253Z" fill="#714B4F"/>
<path opacity="0.1" d="M214.775 315.815C213.401 316.186 211.963 316.27 210.553 316.064C207.603 315.473 205.5 312.561 205.428 309.634C205.457 308.167 205.823 306.725 206.498 305.413C207.173 304.1 208.14 302.95 209.33 302.046C210.929 300.749 212.848 299.825 214.311 298.381C216.046 296.665 216.99 294.35 218.309 292.331C220.563 288.978 223.907 286.452 227.808 285.155C230.71 284.2 234.261 284.092 236.491 286.142C237.635 287.19 238.306 288.704 239.586 289.59C241.441 290.871 243.952 290.491 246.214 290.747C248.265 291.053 250.207 291.845 251.868 293.054C253.529 294.262 254.858 295.849 255.737 297.674C257.456 301.372 257.784 305.538 256.665 309.447C256.225 311.117 255.585 312.74 255.114 314.402C254.13 317.865 253.898 321.5 252.763 324.917C251.627 328.334 249.285 331.673 245.743 332.683C246.023 328.852 245.244 325.018 243.488 321.577C243.197 320.828 242.626 320.212 241.889 319.853C241.256 319.696 240.594 319.696 239.962 319.853C235.525 320.492 230.999 319.602 227.168 317.337C225.825 316.561 223.73 313.835 222.291 313.563C220.476 313.245 216.694 315.396 214.775 315.815Z" fill="black"/>
<path d="M214.775 315.132C213.401 315.502 211.963 315.587 210.553 315.38C207.603 314.79 205.5 311.878 205.428 308.95C205.457 307.483 205.823 306.041 206.498 304.729C207.173 303.417 208.14 302.267 209.33 301.363C210.929 300.066 212.848 299.142 214.311 297.697C216.046 295.981 216.99 293.667 218.309 291.648C220.563 288.294 223.907 285.769 227.808 284.472C230.71 283.517 234.261 283.408 236.491 285.458C237.635 286.507 238.306 288.021 239.586 288.906C241.441 290.188 243.952 289.807 246.214 290.064C248.265 290.37 250.207 291.162 251.868 292.37C253.529 293.578 254.858 295.165 255.737 296.991C257.456 300.689 257.784 304.855 256.665 308.764C256.225 310.433 255.585 312.056 255.114 313.718C254.13 317.182 253.898 320.816 252.763 324.233C251.627 327.65 249.285 330.99 245.743 331.999C246.023 328.169 245.244 324.335 243.488 320.894C243.197 320.144 242.626 319.529 241.889 319.17C241.256 319.013 240.594 319.013 239.962 319.17C235.525 319.809 230.999 318.919 227.168 316.654C225.825 315.877 223.73 313.151 222.291 312.88C220.476 312.561 216.694 314.72 214.775 315.132Z" fill="#503F43"/>
<path d="M68.9001 590.432C70.3656 589.272 71.4335 587.707 71.9625 585.944C72.3623 584.158 71.5787 582.022 69.8197 581.37C67.8527 580.64 65.7498 581.96 64.1586 583.303C62.5675 584.647 60.7364 586.169 58.6495 585.882C59.7221 584.937 60.5245 583.739 60.9785 582.404C61.4326 581.069 61.5227 579.642 61.2401 578.263C61.1499 577.692 60.9012 577.155 60.5205 576.71C59.4251 575.576 57.4501 576.065 56.1388 576.959C51.981 579.801 50.8216 585.284 50.7976 590.223C50.3819 588.444 50.7337 586.588 50.7177 584.787C50.7017 582.985 50.1899 580.904 48.6068 579.956C47.625 579.444 46.5225 579.189 45.4085 579.218C43.5374 579.148 41.4585 579.335 40.1792 580.663C38.58 582.309 39.0038 585.082 40.3871 586.876C41.7704 588.67 43.8653 589.827 45.8003 591.085C47.3511 591.98 48.6739 593.204 49.6702 594.665C49.7874 594.867 49.8838 595.081 49.9581 595.302H61.6559C64.2861 594.004 66.723 592.366 68.9001 590.432V590.432Z" fill="#663399"/>
<path d="M763.736 482.487C765.202 481.326 766.269 479.761 766.798 477.998C767.198 476.212 766.415 474.076 764.656 473.424C762.689 472.694 760.586 474.014 758.995 475.357C757.403 476.701 755.572 478.223 753.485 477.936C754.558 476.991 755.36 475.793 755.814 474.458C756.269 473.123 756.359 471.696 756.076 470.317C755.986 469.746 755.737 469.209 755.356 468.764C754.261 467.63 752.286 468.12 750.975 469.013C746.817 471.855 745.658 477.338 745.634 482.277C745.218 480.498 745.57 478.642 745.554 476.841C745.538 475.039 745.026 472.958 743.443 472.01C742.461 471.498 741.358 471.244 740.244 471.273C738.373 471.203 736.294 471.389 735.015 472.717C733.416 474.363 733.84 477.136 735.223 478.93C736.606 480.724 738.701 481.881 740.636 483.139C742.187 484.034 743.51 485.258 744.506 486.719C744.623 486.922 744.72 487.135 744.794 487.356H756.508C759.132 486.057 761.564 484.419 763.736 482.487V482.487Z" fill="#663399"/>
<path d="M867.664 249.044C866.009 244.338 863.618 238.374 861.731 236.968C861.616 236.878 861.49 236.802 861.355 236.743H861.124V230.926L856.662 231.617C855.953 229.516 855.418 227.364 855.063 225.18C855.492 225.598 856.04 225.883 856.636 225.999C857.232 226.115 857.851 226.057 858.413 225.832C858.341 225.715 858.277 225.591 858.213 225.467L858.413 225.381C857.71 224.178 857.339 222.82 857.334 221.436C857.369 220.173 857.576 218.92 857.949 217.709C858.749 215.03 860.1 212.529 860.852 209.834C861.331 208.1 861.558 206.31 861.523 204.515C861.548 201.472 860.836 198.466 859.444 195.739C859.093 194.952 858.543 194.263 857.845 193.736C857.217 193.397 856.572 193.091 855.91 192.819C854.801 192.094 853.846 191.168 853.096 190.093C849.926 186.344 845.683 183.593 840.902 182.188C839.656 181.736 838.305 181.631 837 181.885C834.002 182.661 832.914 186.273 830.484 188.167C828.341 189.837 825.398 190.008 822.704 190.567C820.009 191.126 817.299 192.237 815.46 194.256C814.192 195.663 813.501 197.473 813.517 199.342C813.443 200.216 813.601 201.093 813.976 201.89C814.352 202.686 814.931 203.376 815.659 203.893C816.49 204.422 817.43 204.765 818.412 204.9C819.395 205.034 820.397 204.955 821.345 204.67C820.604 207.156 820.399 209.763 820.745 212.329C821.091 214.895 821.979 217.364 823.354 219.581C824.728 221.798 826.56 223.714 828.734 225.211C830.907 226.708 833.376 227.752 835.985 228.278L836.505 229.187C838.111 232.092 839.331 235.185 840.135 238.389C836.025 240.649 831.539 242.769 828.829 242.971C828.719 244 828.521 245.019 828.237 246.015C827.603 248.515 826.386 250.84 824.679 252.811C820.993 256.833 804.417 287.245 804.417 287.245C804.417 287.245 803.898 288.456 803.042 290.522C792.752 291.749 775.952 293.519 771.267 292.611L752.876 275.619C752.876 275.619 746.928 280.03 747.447 285.388L744.129 282.329C744.129 282.329 726.634 295.298 754.26 303.794L796.294 308.531C792.296 320.265 788.554 333.925 789.713 341.357H790.057C790.86 341.357 791.662 341.297 792.456 341.179L792.384 342.499L788.338 412.904C788.338 412.904 787.418 425.873 799.852 431.682C799.852 431.682 815.044 475.055 809.063 479.978C809.063 479.978 809.775 480.343 810.974 480.848L798.476 491.604C798.476 491.604 789.265 493.84 784.204 493.39C783.314 493.271 782.411 493.475 781.666 493.962C780.922 494.449 780.388 495.185 780.166 496.03C780.166 496.123 780.166 496.217 780.118 496.31V496.426C780.118 496.519 780.118 496.613 780.118 496.714C780.118 496.815 780.118 496.784 780.118 496.822C780.118 496.861 780.118 496.985 780.118 497.071C780.118 497.156 780.118 497.141 780.118 497.172C780.118 497.203 780.118 497.366 780.174 497.459V497.568C780.201 497.671 780.235 497.775 780.278 497.879L780.318 497.972C780.358 498.073 780.406 498.174 780.462 498.275V498.345C780.518 498.445 780.582 498.539 780.646 498.64L780.702 498.725C780.776 498.829 780.859 498.932 780.95 499.036L781.022 499.113C781.118 499.222 781.222 499.323 781.326 499.424L781.373 499.463L781.717 499.75L781.789 499.804C781.917 499.905 782.061 499.999 782.205 500.092L782.301 500.154C782.453 500.247 782.613 500.34 782.781 500.426H782.853L783.372 500.674H783.444L784.052 500.907L784.18 500.954L784.844 501.164H784.956L785.683 501.35H785.739L786.539 501.505H786.699L787.562 501.629H787.73L788.706 501.723C790.601 501.862 793.151 501.917 796.102 501.901C796.102 501.901 796.102 501.971 796.102 502.01C796.102 502.049 796.102 502.173 796.102 502.258V502.359C796.102 502.453 796.102 502.554 796.158 502.647V502.756C796.184 502.859 796.219 502.963 796.262 503.066L796.302 503.159C796.342 503.26 796.39 503.361 796.446 503.462V503.532C796.502 503.633 796.566 503.726 796.629 503.827L796.685 503.913C796.76 504.016 796.843 504.12 796.933 504.223L797.005 504.301C797.101 504.41 797.205 504.511 797.309 504.612L797.357 504.65L797.701 504.938L797.773 504.992C797.901 505.093 798.045 505.186 798.189 505.279L798.293 505.342C798.444 505.435 798.604 505.528 798.772 505.613H798.844L799.364 505.862H799.436L800.044 506.095L800.172 506.141L800.835 506.351H800.947L801.675 506.537H801.731L802.53 506.693H802.69L803.554 506.817H803.722L804.697 506.91C816.691 507.803 854.879 505.124 854.879 505.124V505.023V504.891C855.255 503.159 857.094 493.095 850.569 485.655C850.761 485.461 850.953 485.251 851.129 485.034C851.129 485.034 846.068 476.538 848.826 473.851C851.585 471.164 835.017 424.662 835.017 424.662C835.017 424.662 826.27 411.25 831.331 396.044C836.393 380.839 830.867 364.298 830.867 364.298C830.867 364.298 842.941 360.811 843.189 346.374C843.189 345.939 843.189 345.489 843.189 345.03C843.454 345.067 843.721 345.083 843.989 345.077C844.159 345.089 844.33 345.089 844.5 345.077C844.5 345.077 842.198 337.032 844.964 331.215C847.731 325.398 853.711 330.765 859.237 307.071C863.234 289.924 866.753 270.198 868.392 260.6C869.104 256.747 868.855 252.784 867.664 249.044V249.044ZM762.591 299.344L758.394 295.461C759.785 296.02 761.328 296.571 763.055 297.099L778.887 298.886C771.818 299.522 765.254 299.864 762.591 299.352V299.344Z" fill="url(#paint7_linear_446_536)"/>
<path d="M802.668 297.068C802.668 297.068 770.101 301.464 763.312 300.175L745.218 283.478C745.218 283.478 728.027 296.222 755.172 304.562L805.834 310.27L802.668 297.068Z" fill="#FDC2CC"/>
<path opacity="0.05" d="M802.668 297.068C802.668 297.068 770.101 301.464 763.312 300.175L745.218 283.478C745.218 283.478 728.027 296.222 755.172 304.562L805.834 310.27L802.668 297.068Z" fill="black"/>
<path d="M814.429 475.435L798.597 489.057C798.597 489.057 789.554 491.254 784.573 490.812C779.591 490.369 777.336 498.282 789.098 499.16C800.86 500.037 838.4 497.405 838.4 497.405C838.4 497.405 842.022 483.349 831.164 475.435H814.429Z" fill="#47465A"/>
<path opacity="0.05" d="M814.429 475.435L798.597 489.057C798.597 489.057 789.554 491.254 784.573 490.812C779.591 490.369 777.336 498.282 789.098 499.16C800.86 500.037 838.4 497.405 838.4 497.405C838.4 497.405 842.022 483.349 831.164 475.435H814.429Z" fill="black"/>
<path opacity="0.3" d="M838.967 491.316C838.94 492.918 838.75 494.512 838.4 496.077C838.4 496.077 800.819 498.709 789.097 497.832C783.444 497.413 781.038 495.362 780.606 493.398C780.094 495.65 782.141 498.632 789.097 499.152C800.859 500.03 838.4 497.397 838.4 497.397C838.84 495.4 839.031 493.358 838.967 491.316V491.316Z" fill="white"/>
<path d="M832.971 226.337C832.971 226.337 842.926 239.958 839.303 249.184C835.681 258.41 858.277 239.515 858.277 239.515C858.277 239.515 851.041 227.214 854.655 214.036L832.971 226.337Z" fill="#FDC2CC"/>
<path d="M830.292 480.7L814.46 494.322C814.46 494.322 805.417 496.52 800.436 496.077C795.454 495.634 793.2 503.548 804.961 504.425C816.723 505.303 854.264 502.67 854.264 502.67C854.264 502.67 857.886 488.614 847.027 480.7H830.292Z" fill="#47465A"/>
<path d="M834.785 477.625C832.427 480.452 829.1 481.508 825.622 481.702C817.714 482.067 809.007 477.625 809.007 477.625C814.884 472.795 799.964 430.176 799.964 430.176C787.754 424.468 788.658 411.724 788.658 411.724L792.656 342.553L793.655 325.181L806.32 317.71L816.307 325.15L825.774 332.209C826.389 334.454 826.786 336.749 826.957 339.066C828.053 355.212 814.916 359.009 814.916 359.009C814.916 359.009 820.345 375.263 815.372 390.197C810.398 405.131 818.994 418.309 818.994 418.309C818.994 418.309 835.281 463.996 832.587 466.636C829.892 469.277 834.785 477.625 834.785 477.625Z" fill="#565171"/>
<path opacity="0.05" d="M834.785 477.625C832.427 480.452 829.1 481.508 825.622 481.702C817.714 482.067 809.007 477.625 809.007 477.625C814.884 472.795 799.964 430.176 799.964 430.176C787.754 424.468 788.658 411.724 788.658 411.724L792.656 342.553L793.655 325.181L806.32 317.71L816.307 325.15L825.774 332.209C826.389 334.454 826.786 336.749 826.957 339.066C828.053 355.212 814.916 359.009 814.916 359.009C814.916 359.009 820.345 375.263 815.372 390.197C810.398 405.131 818.994 418.309 818.994 418.309C818.994 418.309 835.281 463.996 832.587 466.636C829.892 469.277 834.785 477.625 834.785 477.625Z" fill="black"/>
<path d="M850.618 482.898C842.926 492.124 824.84 482.898 824.84 482.898C825.208 482.573 825.484 482.161 825.639 481.702C828.958 472.942 814.445 431.061 814.445 431.061C802.236 425.353 800.852 411.732 800.852 411.732L797.654 341.334L797.238 332.217L816.268 325.158L822.113 322.991L841.567 337.49C842.409 340.483 842.829 343.574 842.814 346.677C842.567 360.865 830.709 364.29 830.709 364.29C830.709 364.29 836.138 380.544 831.164 395.478C826.191 410.411 834.787 423.59 834.787 423.59C834.787 423.59 851.074 469.277 848.379 471.917C845.685 474.558 850.618 482.898 850.618 482.898Z" fill="#565171"/>
<path opacity="0.1" d="M842.813 346.669C838.903 346.125 830.987 341.551 826.917 339.066C825.366 338.119 824.375 337.513 824.375 337.513C824.375 337.513 820.305 326.532 809.446 334.88C805.916 337.665 801.929 339.855 797.653 341.357C796.017 341.919 794.33 342.33 792.615 342.584L793.615 325.212L806.28 317.741L816.267 325.181L822.112 323.014L841.566 337.513C842.405 340.496 842.825 343.576 842.813 346.669V346.669Z" fill="black"/>
<path d="M867.297 262.394C865.698 271.821 862.228 291.197 858.302 308.049C852.873 331.347 846.996 326.058 844.277 331.774C841.559 337.49 843.822 345.395 843.822 345.395C839.296 345.838 824.368 336.17 824.368 336.17C824.368 336.17 820.298 325.189 809.44 333.537C798.581 341.885 789.986 341.443 789.986 341.443C787.723 326.944 804.458 288.285 804.458 288.285C804.458 288.285 820.746 258.41 824.36 254.457C826.036 252.52 827.232 250.235 827.854 247.778C828.132 246.799 828.324 245.799 828.43 244.788C834.307 244.346 848.787 234.693 848.787 234.693L860.093 232.938V238.646C860.224 238.703 860.348 238.776 860.461 238.863C862.324 240.245 864.667 246.109 866.29 250.729C867.609 254.478 867.955 258.484 867.297 262.394V262.394Z" fill="#E3E4E3"/>
<path opacity="0.1" d="M858.277 244.354C858.277 244.354 846.515 235.128 828.877 265.003C811.238 294.878 807.168 290.04 807.168 290.04C807.168 290.04 810.79 303.242 808.975 305.859C808.975 305.859 821.185 304.982 825.71 305.859C830.236 306.737 858.277 272.489 858.277 272.489C858.277 272.489 872.782 253.137 858.277 244.354Z" fill="black"/>
<path opacity="0.1" d="M857.853 242.591C857.853 242.591 846.091 233.365 828.453 263.24C810.814 293.115 806.744 288.277 806.744 288.277C806.744 288.277 820.769 303.211 825.286 304.096C829.804 304.982 857.853 270.703 857.853 270.703C857.853 270.703 872.326 251.382 857.853 242.591Z" fill="black"/>
<path opacity="0.1" d="M808.584 303.002C808.768 299.748 807.505 294.024 806.777 291.058C809.528 290.708 811.263 290.475 811.263 290.475L814.461 303.677L808.584 303.002Z" fill="black"/>
<path opacity="0.1" d="M855.134 214.921L833.426 227.222C834.34 228.519 835.183 229.862 835.952 231.245C837.205 231.492 838.48 231.617 839.758 231.617C845.555 231.617 848.258 225.708 851.752 221.731C851.504 218.54 854.167 218.454 855.134 214.921Z" fill="black"/>
<path d="M839.312 230.732C849.805 230.732 858.31 222.471 858.31 212.28C858.31 202.09 849.805 193.829 839.312 193.829C828.82 193.829 820.314 202.09 820.314 212.28C820.314 222.471 828.82 230.732 839.312 230.732Z" fill="#FDC2CC"/>
<path d="M809.951 233.31H656.951V345.294H809.951V233.31Z" fill="url(#paint8_linear_446_536)"/>
<path d="M806.52 235.819H660.381V342.786H806.52V235.819Z" fill="white"/>
<path opacity="0.2" d="M723.388 245.076H674.678V271.814H723.388V245.076Z" fill="#01226F"/>
<path d="M792.225 245.076H735.039V251.25H792.225V245.076Z" fill="#E6E8EC"/>
<path d="M775.282 255.366H735.039V261.539H775.282V255.366Z" fill="#E6E8EC"/>
<path d="M792.225 265.648H735.039V271.821H792.225V265.648Z" fill="#E6E8EC"/>
<path d="M792.224 275.93H674.678V282.104H792.224V275.93Z" fill="#E6E8EC"/>
<path d="M792.224 286.219H674.678V292.393H792.224V286.219Z" fill="#E6E8EC"/>
<path d="M792.224 296.501H674.678V302.675H792.224V296.501Z" fill="#E6E8EC"/>
<path d="M782.693 306.791H674.678V312.965H782.693V306.791Z" fill="#E6E8EC"/>
<path d="M792.224 317.073H674.678V323.247H792.224V317.073Z" fill="#E6E8EC"/>
<path d="M792.224 327.355H674.678V333.529H792.224V327.355Z" fill="#E6E8EC"/>
<path opacity="0.1" d="M815.275 197.354C817.193 195.445 819.684 194.175 822.392 193.728C825.03 193.176 827.925 193.005 830.036 191.398C832.434 189.542 833.49 186.016 836.432 185.232C837.712 184.982 839.039 185.084 840.262 185.527C844.964 186.904 849.138 189.607 852.256 193.293C852.991 194.349 853.927 195.258 855.015 195.972C855.665 196.239 856.3 196.54 856.918 196.873C857.595 197.392 858.128 198.067 858.469 198.838C860.59 202.997 861.079 207.765 859.844 212.249C859.108 214.898 857.781 217.352 856.998 220.015C856.214 222.679 856.014 225.638 857.453 227.991C856.062 228.682 854.303 227.812 853.455 226.554C852.608 225.296 852.32 223.743 851.856 222.291C850.952 219.434 849.256 216.874 846.955 214.89C845.532 213.663 842.957 212.84 841.989 214.424C841.606 215.037 841.63 215.814 841.302 216.451C840.654 217.693 838.783 217.942 837.544 217.227C836.349 216.426 835.51 215.217 835.193 213.841C833.33 207.722 830.156 203.87 823.415 206.487C820.905 207.466 817.946 208.126 815.531 206.448C812.381 204.235 812.997 199.855 815.275 197.354Z" fill="black"/>
<path d="M815.275 196.912C817.193 195.002 819.684 193.733 822.392 193.285C825.03 192.734 827.925 192.563 830.036 190.955C832.434 189.099 833.49 185.574 836.432 184.789C837.712 184.539 839.039 184.642 840.262 185.084C844.964 186.462 849.138 189.165 852.256 192.85C852.991 193.906 853.927 194.816 855.015 195.529C855.665 195.797 856.3 196.098 856.918 196.43C857.595 196.949 858.128 197.625 858.469 198.395C860.59 202.555 861.079 207.322 859.844 211.807C859.108 214.455 857.781 216.909 856.998 219.573C856.214 222.236 856.014 225.195 857.453 227.548C856.062 228.239 854.303 227.37 853.455 226.111C852.608 224.853 852.32 223.3 851.856 221.848C850.952 218.991 849.256 216.431 846.955 214.447C845.532 213.22 842.957 212.397 841.989 213.981C841.606 214.595 841.63 215.371 841.302 216.008C840.654 217.251 838.783 217.499 837.544 216.785C836.349 215.984 835.51 214.775 835.193 213.399C833.33 207.279 830.156 203.427 823.415 206.044C820.905 207.023 817.946 207.683 815.531 206.006C812.381 203.792 812.997 199.42 815.275 196.912Z" fill="#B96B6B"/>
<path opacity="0.05" d="M860.484 238.863H851.289C851.289 238.863 833.194 247.646 832.747 247.211C832.443 246.916 829.644 247.421 827.869 247.786C828.147 246.807 828.339 245.807 828.445 244.796C834.322 244.354 848.802 234.701 848.802 234.701L860.108 232.945V238.653C860.242 238.708 860.368 238.778 860.484 238.863Z" fill="black"/>
<path opacity="0.3" d="M854.799 496.589C854.772 498.191 854.582 499.785 854.231 501.35C854.231 501.35 816.651 503.983 804.929 503.105C799.276 502.686 796.87 500.635 796.438 498.671C795.926 500.923 797.973 503.905 804.929 504.425C816.691 505.303 854.231 502.67 854.231 502.67C854.672 500.673 854.863 498.631 854.799 496.589V496.589Z" fill="white"/>
<g opacity="0.05">
<path d="M805.153 333.063C799.053 337.723 793.655 339.672 790.113 340.449C790.113 340.775 790.177 341.101 790.225 341.412C790.225 341.412 798.821 341.854 809.679 333.506C811.361 332.106 813.349 331.097 815.492 330.555C813.125 329.491 809.743 329.561 805.153 333.063Z" fill="#F2A71E"/>
<path d="M866.546 250.745C864.946 246.085 862.548 240.261 860.717 238.879C860.604 238.792 860.48 238.719 860.349 238.661C860.349 238.661 856.607 238.785 856.727 238.879C858.59 240.261 860.397 245.681 862.02 250.302C863.328 254.048 863.666 258.049 863.003 261.951C861.404 271.379 857.934 290.755 854.008 307.607C848.579 330.904 842.702 325.616 839.983 331.331C837.761 335.991 838.872 342.157 839.352 344.231C841.287 345.007 842.966 345.496 844.053 345.388C844.053 345.388 841.791 337.482 844.509 331.766C847.228 326.051 853.105 331.324 858.534 308.042C862.46 291.197 865.914 271.814 867.529 262.386C868.19 258.486 867.852 254.488 866.546 250.745Z" fill="#F2A71E"/>
</g>
<path d="M814.429 303.662L808.584 303.001L763.808 297.946C736.67 289.598 753.853 276.862 753.853 276.862L771.948 293.558C777.169 294.575 797.638 292.207 806.809 291.065C809.56 290.716 811.295 290.483 811.295 290.483L814.429 303.662Z" fill="#FDC2CC"/>
<path d="M858.277 243.476C858.277 243.476 846.515 234.25 828.877 264.125C811.238 294.001 807.168 289.163 807.168 289.163C807.168 289.163 810.79 302.365 808.975 304.982C808.975 304.982 821.185 304.104 825.71 304.982C830.236 305.859 858.277 271.588 858.277 271.588C858.277 271.588 872.782 252.259 858.277 243.476Z" fill="#B4A6AB"/>
</g>
<defs>
<linearGradient id="paint0_linear_446_536" x1="504.526" y1="463.81" x2="504.526" y2="87.6458" gradientUnits="userSpaceOnUse">
<stop stop-color="#808080" stop-opacity="0.25"/>
<stop offset="0.54" stop-color="#808080" stop-opacity="0.12"/>
<stop offset="1" stop-color="#808080" stop-opacity="0.1"/>
</linearGradient>
<linearGradient id="paint1_linear_446_536" x1="240.729" y1="541.6" x2="240.729" y2="198.077" gradientUnits="userSpaceOnUse">
<stop stop-color="#808080" stop-opacity="0.25"/>
<stop offset="0.54" stop-color="#808080" stop-opacity="0.12"/>
<stop offset="1" stop-color="#808080" stop-opacity="0.1"/>
</linearGradient>
<linearGradient id="paint2_linear_446_536" x1="123.711" y1="569.371" x2="123.711" y2="300.928" gradientUnits="userSpaceOnUse">
<stop stop-color="#808080" stop-opacity="0.25"/>
<stop offset="0.54" stop-color="#808080" stop-opacity="0.12"/>
<stop offset="1" stop-color="#808080" stop-opacity="0.1"/>
</linearGradient>
<linearGradient id="paint3_linear_446_536" x1="324.351" y1="577.557" x2="324.351" y2="427.551" gradientUnits="userSpaceOnUse">
<stop stop-color="#808080" stop-opacity="0.25"/>
<stop offset="0.54" stop-color="#808080" stop-opacity="0.12"/>
<stop offset="1" stop-color="#808080" stop-opacity="0.1"/>
</linearGradient>
<linearGradient id="paint4_linear_446_536" x1="305.895" y1="485.997" x2="378.584" y2="485.997" gradientUnits="userSpaceOnUse">
<stop stop-color="#808080" stop-opacity="0.25"/>
<stop offset="0.54" stop-color="#808080" stop-opacity="0.12"/>
<stop offset="1" stop-color="#808080" stop-opacity="0.1"/>
</linearGradient>
<linearGradient id="paint5_linear_446_536" x1="204.66" y1="613" x2="204.66" y2="279.867" gradientUnits="userSpaceOnUse">
<stop stop-color="#808080" stop-opacity="0.25"/>
<stop offset="0.54" stop-color="#808080" stop-opacity="0.12"/>
<stop offset="1" stop-color="#808080" stop-opacity="0.1"/>
</linearGradient>
<linearGradient id="paint6_linear_446_536" x1="162.89" y1="401.108" x2="162.89" y2="339.804" gradientUnits="userSpaceOnUse">
<stop stop-color="#808080" stop-opacity="0.25"/>
<stop offset="0.54" stop-color="#808080" stop-opacity="0.12"/>
<stop offset="1" stop-color="#808080" stop-opacity="0.1"/>
</linearGradient>
<linearGradient id="paint7_linear_446_536" x1="803.858" y1="507.469" x2="803.858" y2="181.745" gradientUnits="userSpaceOnUse">
<stop stop-color="#808080" stop-opacity="0.25"/>
<stop offset="0.54" stop-color="#808080" stop-opacity="0.12"/>
<stop offset="1" stop-color="#808080" stop-opacity="0.1"/>
</linearGradient>
<linearGradient id="paint8_linear_446_536" x1="733.455" y1="345.294" x2="733.455" y2="233.31" gradientUnits="userSpaceOnUse">
<stop stop-color="#808080" stop-opacity="0.25"/>
<stop offset="0.54" stop-color="#808080" stop-opacity="0.12"/>
<stop offset="1" stop-color="#808080" stop-opacity="0.1"/>
</linearGradient>
<clipPath id="clip0_446_536">
<rect width="869" height="613" fill="white"/>
</clipPath>
</defs>
</svg>
