<svg width="1090" height="734" viewBox="0 0 1090 734" fill="none" xmlns="http://www.w3.org/2000/svg">
<g clip-path="url(#clip0)">
<path d="M254 503.5L838.931 486.397C847.961 486.133 856.997 486.634 865.942 487.896L1059.66 515.22C1074.46 517.308 1082.75 533.415 1075.84 546.675V546.675C1073.07 551.986 1068.23 555.914 1062.46 557.526L999.265 575.178C988.065 578.306 978.202 585.023 971.189 594.298V594.298C952.133 619.501 959.162 655.667 986.271 671.897L1090 734H0L99.2092 715.064C113.25 712.384 126.582 706.819 138.361 698.72L156.186 686.466C186.569 665.578 197.893 626.091 183.198 592.275V592.275C173.061 568.949 152.065 552.128 127.089 547.325L63 535V535C44.7631 530.348 48.1331 503.5 66.9539 503.5H254Z" fill="#B2EBF2"/>
<path d="M890.621 77.0039C761.582 -22.4604 582.059 -26.5246 451.089 70.3869C381.854 121.618 328.179 199.997 337.945 319.337C341.397 361.55 351.003 396.18 365.018 424.529C421.782 539.452 654.93 535.027 667.878 535.01C676.267 535.002 684.655 535.189 693.044 535.573C722.427 536.921 751.656 540.617 780.45 546.623C821.504 555.18 873.768 559.479 920.464 543.273C928.398 540.532 936.108 537.18 943.523 533.247C969.185 519.61 997.911 506.577 1014.71 474.231C1027.33 449.955 1036.52 419.516 1040.95 381.602C1057.05 243.528 976.574 143.257 890.621 77.0039Z" fill="#E0F7FA"/>
<path d="M693.608 571.862C897.395 571.862 1062.6 556.354 1062.6 537.225C1062.6 518.095 897.395 502.588 693.608 502.588C489.821 502.588 324.62 518.095 324.62 537.225C324.62 556.354 489.821 571.862 693.608 571.862Z" fill="#4DD0E1"/>
<path opacity="0.1" d="M675.583 553.483C865.12 553.483 1018.77 546.204 1018.77 537.225C1018.77 528.246 865.12 520.967 675.583 520.967C486.046 520.967 332.396 528.246 332.396 537.225C332.396 546.204 486.046 553.483 675.583 553.483Z" fill="black"/>
<path d="M865.439 73.3418V112.201H814.849V535.988H920.429V128.332V112.201V46L865.439 73.3418Z" fill="#B2EBF2"/>
<path d="M586.825 334.359V278.5L522.304 267.639V334.359H498.109V536.721H610.287V334.359H586.825Z" fill="#B2EBF2"/>
<path d="M597.823 442.872H510.573V537.454H597.823V442.872Z" fill="#4FC3F7"/>
<path opacity="0.1" d="M524.503 442.872H510.573V537.454H524.503V442.872Z" fill="black"/>
<path d="M815 97.5L786 71L610 99.5V537L785.5 542.5L815 537V97.5Z" fill="#29B6F6"/>
<path d="M464.382 190.653V172.323H445.319V190.653H410.858V537.454H498.109V190.653H464.382Z" fill="#80DEEA"/>
<path opacity="0.1" d="M455.583 172.323H445.318V190.653H455.583V172.323Z" fill="black"/>
<path opacity="0.1" d="M421.123 190.653H410.858V537.454H421.123V190.653Z" fill="black"/>
<path opacity="0.1" d="M815 97.5L786 71.5V543L815 537V97.5Z" fill="black"/>
<path opacity="0.1" d="M498.109 190.653H471.714V254.441H498.109V190.653Z" fill="black"/>
<path d="M682.873 113.667H641.814V131.264H682.873V113.667Z" fill="#E0F7FA"/>
<path d="M770.124 294.767H729.065V312.363H770.124V294.767Z" fill="#E0F7FA"/>
<path d="M682.873 421.609H641.814V439.206H682.873V421.609Z" fill="#E0F7FA"/>
<path d="M475.38 269.838H434.321V287.435H475.38V269.838Z" fill="#E0F7FA"/>
<path d="M575.094 453.137H534.035V470.733H575.094V453.137Z" fill="#E0F7FA"/>
<path opacity="0.1" d="M589.758 349.756H519.371V379.084H589.758V349.756Z" fill="black"/>
<path opacity="0.1" d="M897.7 145.928H827.313V175.256H897.7V145.928Z" fill="black"/>
<path opacity="0.1" d="M897.7 208.25H827.313V237.578H897.7V208.25Z" fill="black"/>
<path opacity="0.1" d="M897.7 270.571H827.313V299.899H897.7V270.571Z" fill="black"/>
<path opacity="0.1" d="M897.7 332.893H827.313V362.22H897.7V332.893Z" fill="black"/>
<path opacity="0.1" d="M897.7 395.214H827.313V424.542H897.7V395.214Z" fill="black"/>
<path opacity="0.1" d="M897.7 457.536H827.313V486.863H897.7V457.536Z" fill="black"/>
<path d="M944.624 278.636V198.718H893.3V278.636H874.97V537.454H962.221V278.636H944.624Z" fill="#81D4FA"/>
<path opacity="0.1" d="M909.431 198.718H893.3V278.636H909.431V198.718Z" fill="black"/>
<path opacity="0.1" d="M891.101 278.636H874.971V537.454H891.101V278.636Z" fill="black"/>
<path opacity="0.1" d="M962.22 408.412H918.962V434.073H962.22V408.412Z" fill="black"/>
<path d="M961.488 370.286H920.429V387.882H961.488V370.286Z" fill="#FF6584"/>
<path d="M1090 388.05C1090 453.372 1051.17 476.179 1003.27 476.179C955.363 476.179 916.531 453.372 916.531 388.05C916.531 322.729 1003.27 239.63 1003.27 239.63C1003.27 239.63 1090 322.729 1090 388.05Z" fill="#00BCD4"/>
<path d="M1000.11 466.187L1000.99 411.519L1037.96 343.887L1001.13 402.943L1001.53 378.362L1027.01 329.431L1001.64 371.858L1002.36 327.648L1029.64 288.692L1002.47 320.696L1002.92 239.63L1000.1 346.946L1000.33 342.519L972.591 300.06L999.885 351.018L997.3 400.393L997.223 399.082L965.246 354.4L997.127 403.712L996.803 409.887L996.745 409.979L996.772 410.486L990.215 535.755H998.976L1000.03 471.051L1031.83 421.861L1000.11 466.187Z" fill="#3F3D56"/>
<path d="M454.328 388.757C454.328 454.079 415.495 476.886 367.593 476.886C319.691 476.886 280.858 454.079 280.858 388.757C280.858 323.436 367.593 240.337 367.593 240.337C367.593 240.337 454.328 323.436 454.328 388.757Z" fill="#4DD0E1"/>
<path d="M364.433 466.894L365.321 412.226L402.29 344.594L365.461 403.65L365.86 379.069L391.338 330.138L365.966 372.564V372.565L366.684 328.355L393.967 289.399L366.797 321.403L367.246 240.337L364.425 347.653L364.657 343.226L336.918 300.767L364.212 351.724L361.628 401.099L361.551 399.789L329.573 355.107L361.454 404.419L361.131 410.593L361.073 410.686L361.099 411.193L354.542 536.461H363.303L364.354 471.758L396.157 422.568L364.433 466.894Z" fill="#3F3D56"/>
<path d="M435.895 705H214.621C214.621 705 210.135 639.216 236.673 638.468C263.211 637.721 260.221 667.623 293.487 626.508C326.753 585.392 367.12 587.635 372.353 611.93C377.586 636.226 362.261 655.662 390.294 649.681C418.327 643.701 458.695 659.4 435.895 705Z" fill="#4DD0E1"/>
<path d="M465.926 706H190.755L190.691 705.068C190.533 702.749 187.023 648.052 204.745 628.536C206.504 626.475 208.674 624.804 211.117 623.632C213.56 622.459 216.221 621.812 218.93 621.73C230.482 621.401 237.742 625.729 243.597 629.202C254.634 635.749 261.925 640.075 288.434 607.31C317.152 571.816 348.137 564.179 365.95 568.425C377.459 571.17 385.391 578.925 387.713 589.703C389.911 599.909 389.211 609.499 388.648 617.205C388.046 625.449 387.571 631.962 390.957 634.913C393.783 637.375 399.425 637.599 408.712 635.617C427.6 631.588 453.955 635.036 467.183 652.128C474.301 661.323 479.907 678.038 466.202 705.447L465.926 706ZM192.633 704H464.688C474.9 683.281 475.219 665.777 465.602 653.352C453.467 637.672 428.007 633.546 409.129 637.573C399.04 639.726 393.028 639.371 389.643 636.421C385.503 632.813 386.01 625.861 386.653 617.059C387.207 609.481 387.895 600.05 385.758 590.124C383.605 580.129 376.216 572.929 365.486 570.371C348.242 566.257 318.122 573.797 289.989 608.568C262.393 642.675 254.08 637.746 242.577 630.922C236.65 627.406 229.919 623.419 218.987 623.729C216.548 623.807 214.153 624.395 211.955 625.455C209.757 626.514 207.806 628.022 206.226 629.881C190.298 647.421 192.242 696.606 192.633 704Z" fill="#00B8D4"/>
<path d="M520.001 704.747H125.261V706.747H520.001V704.747Z" fill="#00B8D4"/>
<path d="M201.121 36.2505C201.471 38.6822 201.485 41.1505 201.161 43.5858C201.095 44.1379 201.01 44.6802 200.912 45.2162L200.913 45.2203C199.752 50.982 197.435 56.4484 194.101 61.2886C193.883 61.6026 193.758 61.7661 193.758 61.7661L193.291 61.4095C189.589 58.4525 186.378 54.9278 183.778 50.9661C183.55 50.607 183.322 50.2437 183.105 49.8706C181.173 46.7165 179.87 43.2178 179.27 39.5681L179.262 39.5155C179.204 39.1269 179.154 38.737 179.116 38.3495C178.812 34.9393 179.105 31.5023 179.983 28.193C180.087 27.7802 180.196 27.3749 180.314 26.9725C181.645 22.5239 183.658 18.3087 186.281 14.4774C186.499 14.1634 186.624 14 186.624 14C186.624 14 186.791 14.1199 187.091 14.3564C190.689 17.2291 193.824 20.6384 196.385 24.4645C196.61 24.8075 196.832 25.1551 197.05 25.5114C198.549 27.9232 199.705 30.532 200.484 33.2626C200.617 33.7393 200.736 34.2265 200.838 34.7162C200.95 35.2208 201.043 35.7324 201.121 36.2505Z" fill="#B2EBF2"/>
<path d="M318.109 158.334C319.683 160.22 320.99 162.314 321.993 164.557C322.226 165.062 322.438 165.568 322.636 166.075L322.639 166.079C324.675 171.592 325.57 177.462 325.272 183.331C325.251 183.713 325.231 183.918 325.231 183.918L324.646 183.859C319.943 183.285 315.36 181.969 311.068 179.961C310.686 179.775 310.301 179.585 309.92 179.382C306.62 177.711 303.676 175.416 301.249 172.624L301.215 172.584C300.961 172.283 300.714 171.978 300.479 171.667C298.431 168.924 296.877 165.844 295.887 162.567C295.759 162.161 295.639 161.758 295.529 161.354C294.327 156.869 293.829 152.224 294.052 147.586C294.072 147.204 294.093 147 294.093 147C294.093 147 294.298 147.014 294.677 147.058C299.248 147.616 303.705 148.873 307.893 150.786C308.265 150.96 308.636 151.139 309.009 151.328C311.55 152.595 313.903 154.209 315.999 156.124C316.363 156.46 316.719 156.813 317.063 157.176C317.424 157.547 317.772 157.933 318.109 158.334Z" fill="#B2EBF2"/>
<path d="M52.4693 310.227L47.4508 393.871C47.4508 393.871 30.7221 440.711 52.4694 440.711C74.2167 440.711 60.8337 390.525 60.8337 390.525L80.9082 308.554L52.4693 310.227Z" fill="#FFB9B9"/>
<path d="M214.738 300.19L219.756 383.833C219.756 383.833 236.485 430.674 214.738 430.674C192.99 430.674 206.373 380.488 206.373 380.488L186.299 298.517L214.738 300.19Z" fill="#FFB9B9"/>
<path d="M114.366 654.838L117.711 696.66C117.711 696.66 104.328 730.117 126.076 733.463C126.293 733.497 126.509 733.528 126.722 733.559C129.418 733.929 132.164 733.657 134.735 732.764C137.306 731.871 139.63 730.382 141.515 728.419C143.401 726.457 144.796 724.076 145.586 721.471C146.375 718.866 146.538 716.112 146.06 713.432L142.805 694.987C142.805 694.987 144.477 661.53 134.44 654.838C124.403 648.147 114.366 654.838 114.366 654.838Z" fill="#2F2E41"/>
<path d="M146.15 618.035C146.15 618.035 142.804 628.072 144.477 638.11C146.15 648.147 147.823 676.586 147.823 676.586C147.823 676.586 147.823 706.697 159.533 706.697C163.715 706.697 167.257 703.07 170.083 698.406C173.007 693.46 174.896 687.971 175.636 682.273C176.376 676.575 175.952 670.786 174.389 665.257L167.897 641.455V623.054L146.15 618.035Z" fill="#2F2E41"/>
<path d="M84.254 311.9C84.254 311.9 47.4509 360.413 67.5253 432.347C87.5997 504.28 89.2726 524.354 89.2726 524.354L100.983 661.53C100.983 661.53 121.057 668.221 137.786 658.184L132.767 526.027V445.73L142.804 534.392V623.054C142.804 623.054 166.225 646.474 182.953 624.727L186.299 526.027C186.299 526.027 196.336 388.852 189.645 375.469C182.953 362.086 167.897 315.246 167.897 315.246L84.254 311.9Z" fill="#2F2E41"/>
<path d="M117.569 86.1842C117.569 86.1842 100.556 80.1082 89.6194 104.412C78.6827 128.716 61.6699 155.45 61.6699 155.45L71.3915 157.881C71.3915 157.881 73.8219 140.868 79.8979 138.438L77.4675 160.311C77.4675 160.311 150.379 185.83 183.19 157.881L181.975 149.374C181.975 149.374 186.835 150.59 186.835 157.881L190.481 154.235C190.481 154.235 186.835 146.944 175.899 137.222C168.72 130.842 166.253 118.702 165.406 111.112C164.77 104.775 162.235 98.7773 158.131 93.9061C150.863 85.4828 137.62 76.5301 117.569 86.1842Z" fill="#2F2E41"/>
<path d="M126.076 166.36C143.63 166.36 157.86 152.13 157.86 134.576C157.86 117.021 143.63 102.791 126.076 102.791C108.521 102.791 94.291 117.021 94.291 134.576C94.291 152.13 108.521 166.36 126.076 166.36Z" fill="#FFB9B9"/>
<path d="M117.711 154.65L107.674 194.799L137.786 281.788L161.206 189.78C161.206 189.78 139.458 174.724 144.477 154.65L117.711 154.65Z" fill="#FFB9B9"/>
<path d="M199.682 383.833C199.682 383.833 151.169 402.235 141.131 373.796C131.094 345.357 132.767 323.61 132.767 323.61C132.767 323.61 117.711 382.161 92.618 382.161C67.525 382.161 54.1421 373.796 54.1421 373.796C54.1421 373.796 72.5436 315.246 89.2723 305.209C89.2723 305.209 89.356 305.008 89.5066 304.64C90.4434 302.298 93.7556 293.013 91.4303 284.85C90.9584 283.17 90.2306 281.573 89.2723 280.116C82.5809 270.078 75.8893 266.732 77.5623 241.639L64.1792 194.799L110.334 184.16L134.44 260.041L156.388 185.749L196.336 191.453C196.336 191.453 199.682 251.677 182.953 273.424C180.323 276.85 178.328 280.72 177.064 284.85C174.154 294.084 174.84 303.803 176.412 311.565H176.429C177.479 316.857 179.106 322.018 181.28 326.956L199.682 383.833Z" fill="#CFCCE0"/>
<path d="M186.299 193.126L196.336 191.453C196.336 191.453 200.518 190.617 208.046 196.472C217.659 203.949 218.083 305.209 218.083 305.209L186.299 306.882V193.126Z" fill="#CFCCE0"/>
<path d="M72.5437 198.145L64.1794 194.799C64.1794 194.799 60.8336 193.126 59.1608 203.163C57.4879 213.2 49.1235 316.918 49.1235 316.918L84.2538 315.246V239.966L72.5437 198.145Z" fill="#CFCCE0"/>
<path d="M89.3119 139.203C89.3119 139.203 99.0335 125.836 107.54 123.406C116.046 120.975 117.261 108.823 117.261 108.823C117.261 108.823 139.135 133.127 152.502 134.342C165.869 135.557 153.717 105.178 153.717 105.178L129.413 99.1016L106.325 101.532L88.0967 113.684L89.3119 139.203Z" fill="#2F2E41"/>
<path d="M135.276 304.372C140.82 304.372 145.314 299.878 145.314 294.335C145.314 288.791 140.82 284.297 135.276 284.297C129.733 284.297 125.239 288.791 125.239 294.335C125.239 299.878 129.733 304.372 135.276 304.372Z" fill="#2F2E41"/>
<path d="M259.604 600C266.783 600 272.604 594.18 272.604 587C272.604 579.82 266.783 574 259.604 574C252.424 574 246.604 579.82 246.604 587C246.604 594.18 252.424 600 259.604 600Z" fill="#4DD0E1"/>
<path d="M255.604 594C252.835 594 250.128 593.179 247.826 591.641C245.523 590.102 243.729 587.916 242.669 585.358C241.61 582.799 241.332 579.984 241.873 577.269C242.413 574.553 243.746 572.058 245.704 570.101C247.662 568.143 250.157 566.809 252.872 566.269C255.588 565.729 258.403 566.006 260.961 567.066C263.519 568.125 265.706 569.92 267.244 572.222C268.782 574.524 269.604 577.231 269.604 580C269.599 583.712 268.123 587.27 265.498 589.895C262.874 592.52 259.315 593.996 255.604 594V594ZM255.604 568C253.23 568 250.91 568.704 248.937 570.022C246.963 571.341 245.425 573.215 244.517 575.408C243.609 577.601 243.371 580.013 243.834 582.341C244.297 584.669 245.44 586.807 247.118 588.485C248.796 590.164 250.935 591.306 253.262 591.769C255.59 592.232 258.003 591.995 260.196 591.087C262.388 590.178 264.263 588.64 265.581 586.667C266.9 584.694 267.604 582.373 267.604 580C267.6 576.818 266.335 573.768 264.085 571.519C261.835 569.269 258.785 568.004 255.604 568Z" fill="#00B8D4"/>
</g>
<defs>
<clipPath id="clip0">
<rect width="1090" height="734" fill="white"/>
</clipPath>
</defs>
</svg>
