<svg width="211" height="94" viewBox="0 0 211 94" fill="none" xmlns="http://www.w3.org/2000/svg">
<path d="M178.06 28.4366L178.248 27.6867H178.997V28.4366L180.122 29.3739L179.372 29.5614L178.81 30.1238L178.623 28.624L178.06 28.4366Z" fill="#F3B33E"/>
<path d="M174.873 21.875L178.248 27.6867M178.248 27.6867L178.06 28.4366L178.623 28.624L178.81 30.1238L179.372 29.5614L180.122 29.3739L178.997 28.4366V27.6867H178.248Z" stroke="white" stroke-linecap="round"/>
<path d="M177.872 21.1237L180.872 27.4978L191.745 22.0611L187.434 14.9371L190.246 12.125L180.872 14.9371L173.748 22.0611L177.872 21.1237Z" fill="white" stroke="white" stroke-linecap="round"/>
<path d="M197.745 50.3694C195.093 54.1188 181.06 67.6169 174.498 73.4285C180.685 67.8043 188.184 55.6186 188.184 49.6195C188.746 35.4197 173.374 36.6838 164 37.2462C168.499 34.2467 174.124 33.8717 181.435 33.8717C187.284 35.6715 193.996 35.9964 196.62 35.9339C201.495 35.7464 204.281 30.6542 205.994 26.3728C207.869 21.686 206.931 16.0618 206.931 11C212.031 17.1491 207.738 33.9457 206.931 35.559C204.494 40.4333 198.939 48.6821 197.745 50.3694Z" fill="white" stroke="white" stroke-linecap="round"/>
<path d="M205.244 45.9731C201.044 56.9215 174.998 75.6564 162.5 83.6552C169.499 80.6556 184.434 74.1316 188.184 72.0319C192.871 69.4073 200.37 61.7209 201.307 60.596C205.695 64.158 206.181 68.4699 205.806 71.0945C205.431 73.7191 201.119 79.5308 199.057 81.593C201.907 80.2432 205.619 77.0312 207.119 75.5939C208.306 73.7191 210.643 68.9198 210.493 64.7204C210.343 60.521 206.931 55.2218 205.244 53.0971V45.9731Z" fill="white" stroke="white" stroke-linecap="round"/>
<circle cx="186.497" cy="25.0616" r="5.99914" fill="white"/>
<path d="M25.7 55.6C25.54 56.0267 25.38 56.52 25.22 57.08C25.06 57.64 24.9 58.24 24.74 58.88C24.6067 59.3867 24.4333 60.12 24.22 61.08C24.0067 62.0133 23.8333 62.9867 23.7 64C22.34 63.9467 20.82 63.92 19.14 63.92C17.4867 63.8933 15.9933 63.88 14.66 63.88C13.94 63.88 13.02 63.88 11.9 63.88C10.8067 63.88 9.59333 63.8933 8.26 63.92C6.95333 63.92 5.63333 63.9333 4.3 63.96C2.99333 63.96 1.75333 63.9733 0.58 64L0.74 63.2C1.64667 63.1467 2.35333 63.04 2.86 62.88C3.36667 62.72 3.76667 62.4 4.06 61.92C4.35333 61.44 4.62 60.72 4.86 59.76L10.14 39.92C10.4067 38.9333 10.5133 38.2133 10.46 37.76C10.4067 37.28 10.1667 36.96 9.74 36.8C9.34 36.6133 8.68667 36.5067 7.78 36.48L7.98 35.68C8.75333 35.7067 9.82 35.7333 11.18 35.76C12.5667 35.7867 14.02 35.8 15.54 35.8C16.8733 35.8 18.14 35.7867 19.34 35.76C20.54 35.7333 21.6067 35.7067 22.54 35.68L22.34 36.48C21.4333 36.5067 20.7267 36.6133 20.22 36.8C19.7133 36.96 19.3133 37.28 19.02 37.76C18.7533 38.2133 18.4867 38.9333 18.22 39.92L12.94 59.76C12.7 60.72 12.5933 61.44 12.62 61.92C12.6467 62.4 12.86 62.72 13.26 62.88C13.6867 63.0133 14.34 63.08 15.22 63.08H15.94C16.8467 63.08 17.8333 62.84 18.9 62.36C19.9933 61.88 21.06 61.0933 22.1 60C23.1667 58.9067 24.0733 57.44 24.82 55.6H25.7ZM33.6675 55.6C34.5208 55.2 35.3608 54.72 36.1875 54.16C37.0142 53.6 37.7742 52.9867 38.4675 52.32C39.5342 51.28 40.4008 50.0933 41.0675 48.76C41.7608 47.4267 42.1075 45.9867 42.1075 44.44C42.1075 44.0667 42.0542 43.8133 41.9475 43.68C41.8408 43.52 41.6808 43.44 41.4675 43.44C40.9342 43.44 40.3475 43.7467 39.7075 44.36C39.0942 44.9467 38.4808 45.7467 37.8675 46.76C37.2542 47.7467 36.6942 48.8667 36.1875 50.12C35.7075 51.3733 35.3075 52.6667 34.9875 54C34.6942 55.3067 34.5475 56.5733 34.5475 57.8C34.5475 59.3467 34.8542 60.3867 35.4675 60.92C36.0808 61.4267 36.8808 61.68 37.8675 61.68C38.4008 61.68 39.2008 61.48 40.2675 61.08C41.3342 60.68 42.4008 59.9467 43.4675 58.88L44.1075 59.2C43.5208 60.08 42.7475 60.9333 41.7875 61.76C40.8275 62.5867 39.6942 63.2667 38.3875 63.8C37.0808 64.3067 35.6142 64.56 33.9875 64.56C32.7342 64.56 31.5742 64.3467 30.5075 63.92C29.4675 63.4933 28.6275 62.8667 27.9875 62.04C27.3742 61.1867 27.0675 60.1467 27.0675 58.92C27.0675 57.3467 27.3075 55.7867 27.7875 54.24C28.2942 52.6933 29.0008 51.2267 29.9075 49.84C30.8142 48.4533 31.8942 47.2267 33.1475 46.16C34.4275 45.0667 35.8408 44.2133 37.3875 43.6C38.9342 42.9867 40.5875 42.68 42.3475 42.68C43.7608 42.68 44.9342 42.9733 45.8675 43.56C46.8275 44.12 47.3075 45 47.3075 46.2C47.3075 47.2133 47.0408 48.1733 46.5075 49.08C45.9742 49.96 45.2408 50.7733 44.3075 51.52C43.3742 52.24 42.3208 52.8933 41.1475 53.48C39.9742 54.0667 38.7342 54.5733 37.4275 55C36.1475 55.4267 34.8808 55.76 33.6275 56L33.6675 55.6ZM65.5513 52.16C64.2446 51.5467 63.1513 50.7067 62.2713 49.64C61.3913 48.5467 60.9513 47.32 60.9513 45.96C60.9513 44.9467 61.2179 44.1467 61.7513 43.56C62.3113 42.9733 63.0846 42.68 64.0713 42.68C65.1379 42.68 65.9113 43.0267 66.3913 43.72C66.8713 44.4133 67.1113 45.3733 67.1113 46.6C67.1113 48.0667 66.9379 49.6267 66.5913 51.28C66.2713 52.9333 65.7646 54.5467 65.0713 56.12C64.4046 57.6933 63.5379 59.12 62.4713 60.4C61.4313 61.6533 60.1913 62.6667 58.7513 63.44C57.3379 64.1867 55.7113 64.56 53.8713 64.56C52.2179 64.56 50.9246 64.32 49.9913 63.84C49.0846 63.3333 48.4446 62.7067 48.0713 61.96C47.6979 61.1867 47.5113 60.4 47.5113 59.6C47.5113 57.8667 48.0179 56.16 49.0313 54.48C50.0446 52.7733 51.4313 51.08 53.1913 49.4C54.9779 47.72 56.9779 46.0533 59.1913 44.4C58.3646 44.4267 57.6579 44.64 57.0713 45.04C56.5113 45.4133 56.0046 45.84 55.5513 46.32C55.0979 46.8 54.6446 47.2267 54.1913 47.6C53.7646 47.9467 53.2713 48.12 52.7113 48.12C52.2846 48.12 51.9113 48.0267 51.5913 47.84C51.2979 47.6267 50.9646 47.52 50.5913 47.52C50.2446 47.52 49.9779 47.64 49.7913 47.88C49.6046 48.12 49.4313 48.5067 49.2713 49.04L48.9913 49.88H48.2313L49.1113 46.96C49.5913 45.2533 50.1646 44.1067 50.8313 43.52C51.4979 42.9333 52.1779 42.64 52.8713 42.64C53.3779 42.64 53.8179 42.7333 54.1913 42.92C54.5646 43.1067 54.9779 43.3067 55.4313 43.52C55.8846 43.7067 56.4979 43.8 57.2713 43.8C57.5379 43.8 57.8979 43.7733 58.3513 43.72C58.8046 43.64 59.3113 43.4667 59.8713 43.2L60.2713 42.44L61.1113 42.84C60.2313 44.28 59.4179 45.7867 58.6713 47.36C57.9513 48.9067 57.3246 50.4533 56.7913 52C56.2579 53.52 55.8446 54.9467 55.5513 56.28C55.2579 57.6133 55.1113 58.76 55.1113 59.72C55.1113 60.6267 55.2446 61.3067 55.5113 61.76C55.7779 62.2133 56.2579 62.44 56.9513 62.44C57.7779 62.44 58.5646 62.2533 59.3113 61.88C60.0579 61.5067 60.7513 60.9867 61.3913 60.32C62.0313 59.6533 62.6179 58.8933 63.1513 58.04C63.6846 57.16 64.1513 56.2267 64.5513 55.24C64.9513 54.2267 65.2846 53.2 65.5513 52.16ZM74.2534 55.6C75.1068 55.2 75.9468 54.72 76.7734 54.16C77.6001 53.6 78.3601 52.9867 79.0534 52.32C80.1201 51.28 80.9868 50.0933 81.6534 48.76C82.3468 47.4267 82.6934 45.9867 82.6934 44.44C82.6934 44.0667 82.6401 43.8133 82.5334 43.68C82.4268 43.52 82.2668 43.44 82.0534 43.44C81.5201 43.44 80.9334 43.7467 80.2934 44.36C79.6801 44.9467 79.0668 45.7467 78.4534 46.76C77.8401 47.7467 77.2801 48.8667 76.7734 50.12C76.2934 51.3733 75.8934 52.6667 75.5734 54C75.2801 55.3067 75.1334 56.5733 75.1334 57.8C75.1334 59.3467 75.4401 60.3867 76.0534 60.92C76.6668 61.4267 77.4668 61.68 78.4534 61.68C78.9868 61.68 79.7868 61.48 80.8534 61.08C81.9201 60.68 82.9868 59.9467 84.0534 58.88L84.6934 59.2C84.1068 60.08 83.3334 60.9333 82.3734 61.76C81.4134 62.5867 80.2801 63.2667 78.9734 63.8C77.6668 64.3067 76.2001 64.56 74.5734 64.56C73.3201 64.56 72.1601 64.3467 71.0934 63.92C70.0534 63.4933 69.2134 62.8667 68.5734 62.04C67.9601 61.1867 67.6534 60.1467 67.6534 58.92C67.6534 57.3467 67.8934 55.7867 68.3734 54.24C68.8801 52.6933 69.5868 51.2267 70.4934 49.84C71.4001 48.4533 72.4801 47.2267 73.7334 46.16C75.0134 45.0667 76.4268 44.2133 77.9734 43.6C79.5201 42.9867 81.1734 42.68 82.9334 42.68C84.3468 42.68 85.5201 42.9733 86.4534 43.56C87.4134 44.12 87.8934 45 87.8934 46.2C87.8934 47.2133 87.6268 48.1733 87.0934 49.08C86.5601 49.96 85.8268 50.7733 84.8934 51.52C83.9601 52.24 82.9068 52.8933 81.7334 53.48C80.5601 54.0667 79.3201 54.5733 78.0134 55C76.7334 55.4267 75.4668 55.76 74.2134 56L74.2534 55.6ZM94.3772 60.6C94.1905 61.24 94.1905 61.68 94.3772 61.92C94.5639 62.16 94.7772 62.28 95.0172 62.28C95.1505 62.28 95.4172 62.16 95.8172 61.92C96.2172 61.6533 96.6305 60.9333 97.0572 59.76L97.8972 57.52H98.6572L97.6572 60.44C97.2572 61.5867 96.7239 62.4533 96.0572 63.04C95.4172 63.6267 94.7372 64.0267 94.0172 64.24C93.2972 64.4533 92.6172 64.56 91.9772 64.56C91.1239 64.56 90.3772 64.4133 89.7372 64.12C89.1239 63.8267 88.6439 63.4 88.2972 62.84C87.9505 62.2533 87.7639 61.5333 87.7372 60.68C87.7105 59.8267 87.8705 58.8267 88.2172 57.68L94.3372 37.32C94.6039 36.4133 94.5772 35.7467 94.2572 35.32C93.9372 34.8933 93.1239 34.68 91.8172 34.68L92.0972 33.84C94.2839 33.8133 96.2172 33.6667 97.8972 33.4C99.6039 33.1067 101.244 32.7067 102.817 32.2L94.3772 60.6ZM135.923 43.52C136.403 41.7333 136.683 40.3733 136.763 39.44C136.869 38.48 136.683 37.7867 136.203 37.36C135.749 36.9333 134.909 36.64 133.683 36.48L133.923 35.68C134.456 35.7067 135.136 35.7333 135.963 35.76C136.816 35.7867 137.616 35.8 138.363 35.8C138.976 35.8 139.576 35.7867 140.163 35.76C140.776 35.7333 141.296 35.7067 141.723 35.68L141.483 36.48C140.629 36.64 139.949 36.92 139.443 37.32C138.936 37.72 138.496 38.3467 138.123 39.2C137.776 40.0267 137.403 41.2 137.003 42.72L134.523 52.36C133.563 56.04 132.256 58.8667 130.603 60.84C129.643 61.96 128.443 62.8667 127.003 63.56C125.589 64.2267 124.056 64.56 122.403 64.56C119.976 64.56 118.043 64.2 116.603 63.48C115.163 62.76 114.136 61.8533 113.523 60.76C112.989 59.7467 112.709 58.5867 112.683 57.28C112.683 55.9467 112.936 54.3467 113.443 52.48L116.763 39.92C117.029 38.9333 117.136 38.2133 117.083 37.76C117.029 37.28 116.789 36.96 116.363 36.8C115.963 36.6133 115.309 36.5067 114.403 36.48L114.643 35.68C115.416 35.7067 116.483 35.7333 117.843 35.76C119.229 35.7867 120.683 35.8 122.203 35.8C123.536 35.8 124.803 35.7867 126.003 35.76C127.203 35.7333 128.269 35.7067 129.203 35.68L128.963 36.48C128.056 36.5067 127.349 36.6133 126.843 36.8C126.336 36.96 125.936 37.28 125.643 37.76C125.376 38.2133 125.109 38.9333 124.843 39.92L121.323 53.16C120.843 55 120.536 56.56 120.403 57.84C120.269 59.0933 120.296 60.12 120.483 60.92C120.696 61.6933 121.029 62.2667 121.483 62.64C121.936 62.9867 122.496 63.16 123.163 63.16C125.163 63.16 126.829 62.72 128.163 61.84C129.496 60.9333 130.589 59.6933 131.443 58.12C132.296 56.5467 132.976 54.7733 133.483 52.8L135.923 43.52ZM152.769 45.36C152.342 45.36 151.889 45.6 151.409 46.08C150.955 46.56 150.502 47.2267 150.049 48.08C149.595 48.9333 149.169 49.9067 148.769 51C148.369 52.0933 148.022 53.2533 147.729 54.48L148.489 50.56C149.129 48.72 149.809 47.2267 150.529 46.08C151.249 44.9067 152.035 44.0533 152.889 43.52C153.742 42.96 154.675 42.68 155.689 42.68C157.555 42.68 158.929 43.2533 159.809 44.4C160.715 45.52 161.169 47.12 161.169 49.2C161.169 50.4533 160.995 51.7867 160.649 53.2C160.302 54.5867 159.795 55.96 159.129 57.32C158.462 58.6533 157.635 59.8667 156.649 60.96C155.662 62.0533 154.529 62.9333 153.249 63.6C151.995 64.24 150.595 64.56 149.049 64.56C148.142 64.56 147.315 64.4533 146.569 64.24C145.822 64.0267 145.235 63.7733 144.809 63.48L145.089 62.96C145.302 63.04 145.515 63.1067 145.729 63.16C145.942 63.2133 146.182 63.24 146.449 63.24C147.169 63.24 147.875 62.9467 148.569 62.36C149.289 61.7733 149.955 60.9867 150.569 60C151.182 58.9867 151.729 57.8533 152.209 56.6C152.689 55.3467 153.062 54.0267 153.329 52.64C153.595 51.2533 153.729 49.9067 153.729 48.6C153.729 47.1867 153.635 46.2933 153.449 45.92C153.289 45.5467 153.062 45.36 152.769 45.36ZM145.449 37.92C146.862 37.7867 148.169 37.6 149.369 37.36C150.595 37.0933 151.782 36.7733 152.929 36.4L144.409 66.68C143.982 68.2267 144.022 69.2267 144.529 69.68C145.035 70.1333 145.995 70.3733 147.409 70.4L147.169 71.24C146.475 71.2133 145.489 71.1733 144.209 71.12C142.955 71.0933 141.622 71.08 140.209 71.08C138.982 71.08 137.755 71.0933 136.529 71.12C135.302 71.1733 134.382 71.2133 133.769 71.24L134.009 70.4C134.969 70.4 135.662 70.2133 136.089 69.84C136.515 69.4933 136.862 68.8533 137.129 67.92L145.449 37.92ZM138.089 50.16C139.022 49.12 139.889 48.08 140.689 47.04C141.515 45.9733 142.315 44.7333 143.089 43.32C143.862 41.88 144.649 40.08 145.449 37.92L145.569 38.56C145.035 40.4267 144.409 42.08 143.689 43.52C142.969 44.9333 142.169 46.2133 141.289 47.36C140.435 48.48 139.515 49.5867 138.529 50.68L138.089 50.16Z" fill="white"/>
<path d="M100.167 67.98C100.155 70.9255 102.533 73.3229 105.479 73.3348C108.424 73.3466 110.822 70.9685 110.834 68.023C110.845 65.0775 108.467 62.6801 105.522 62.6682C102.576 62.6563 100.179 65.0345 100.167 67.98ZM2.09451 68.997C16.161 67.6653 38.2113 66.0672 58.6356 65.6012C68.8488 65.3682 78.6395 65.4187 86.8151 65.9246C95.0343 66.4332 101.486 67.3963 105.112 68.9231L105.888 67.0798C101.914 65.4066 95.1496 64.4365 86.9386 63.9284C78.6839 63.4176 68.8309 63.3681 58.59 63.6017C38.1059 64.0691 16.0062 65.671 1.90601 67.0059L2.09451 68.997Z" fill="#F3B33E"/>
</svg>
