<svg width="171" height="76" viewBox="0 0 171 76" fill="none" xmlns="http://www.w3.org/2000/svg">
<path d="M137.56 19.4366L137.748 18.6867H138.497V19.4366L139.622 20.3739L138.872 20.5614L138.31 21.1238L138.123 19.624L137.56 19.4366Z" fill="#F3B33E"/>
<path d="M134.373 12.875L137.748 18.6867M137.748 18.6867L137.56 19.4366L138.123 19.624L138.31 21.1238L138.872 20.5614L139.622 20.3739L138.497 19.4366V18.6867H137.748Z" stroke="#FCF4E7" stroke-linecap="round"/>
<path d="M137.372 12.1237L140.372 18.4978L151.245 13.0611L146.934 5.9371L149.746 3.125L140.372 5.9371L133.248 13.0611L137.372 12.1237Z" fill="#FCF4E7" stroke="#FCF4E7" stroke-linecap="round"/>
<path d="M157.245 41.3694C154.593 45.1188 140.56 58.6169 133.998 64.4285C140.185 58.8043 147.684 46.6186 147.684 40.6195C148.246 26.4197 132.874 27.6838 123.5 28.2462C127.999 25.2467 133.624 24.8717 140.935 24.8717C146.784 26.6715 153.496 26.9964 156.12 26.9339C160.995 26.7464 163.781 21.6542 165.494 17.3728C167.369 12.686 166.431 7.06177 166.431 2C171.531 8.14912 167.238 24.9457 166.431 26.559C163.994 31.4333 158.439 39.6821 157.245 41.3694Z" fill="#FCF4E7" stroke="#FCF4E7" stroke-linecap="round"/>
<path d="M164.744 36.9731C160.544 47.9215 134.498 66.6564 122 74.6552C128.999 71.6556 143.934 65.1316 147.684 63.0319C152.371 60.4073 159.87 52.7209 160.807 51.596C165.195 55.158 165.681 59.4699 165.306 62.0945C164.931 64.7191 160.619 70.5308 158.557 72.593C161.407 71.2432 165.119 68.0312 166.619 66.5939C167.806 64.7191 170.143 59.9198 169.993 55.7204C169.843 51.521 166.431 46.2218 164.744 44.0971V36.9731Z" fill="#FCF4E7" stroke="#FCF4E7" stroke-linecap="round"/>
<circle cx="145.997" cy="16.0616" r="5.99914" fill="#FCF4E7"/>
<path d="M19.4 42.7C19.28 43.02 19.16 43.39 19.04 43.81C18.92 44.23 18.8 44.68 18.68 45.16C18.58 45.54 18.45 46.09 18.29 46.81C18.13 47.51 18 48.24 17.9 49C16.88 48.96 15.74 48.94 14.48 48.94C13.24 48.92 12.12 48.91 11.12 48.91C10.58 48.91 9.89 48.91 9.05 48.91C8.23 48.91 7.32 48.92 6.32 48.94C5.34 48.94 4.35 48.95 3.35 48.97C2.37 48.97 1.44 48.98 0.56 49L0.68 48.4C1.36 48.36 1.89 48.28 2.27 48.16C2.65 48.04 2.95 47.8 3.17 47.44C3.39 47.08 3.59 46.54 3.77 45.82L7.73 30.94C7.93 30.2 8.01 29.66 7.97 29.32C7.93 28.96 7.75 28.72 7.43 28.6C7.13 28.46 6.64 28.38 5.96 28.36L6.11 27.76C6.69 27.78 7.49 27.8 8.51 27.82C9.55 27.84 10.64 27.85 11.78 27.85C12.78 27.85 13.73 27.84 14.63 27.82C15.53 27.8 16.33 27.78 17.03 27.76L16.88 28.36C16.2 28.38 15.67 28.46 15.29 28.6C14.91 28.72 14.61 28.96 14.39 29.32C14.19 29.66 13.99 30.2 13.79 30.94L9.83 45.82C9.65 46.54 9.57 47.08 9.59 47.44C9.61 47.8 9.77 48.04 10.07 48.16C10.39 48.26 10.88 48.31 11.54 48.31H12.08C12.76 48.31 13.5 48.13 14.3 47.77C15.12 47.41 15.92 46.82 16.7 46C17.5 45.18 18.18 44.08 18.74 42.7H19.4ZM25.3756 42.7C26.0156 42.4 26.6456 42.04 27.2656 41.62C27.8856 41.2 28.4556 40.74 28.9756 40.24C29.7756 39.46 30.4256 38.57 30.9256 37.57C31.4456 36.57 31.7056 35.49 31.7056 34.33C31.7056 34.05 31.6656 33.86 31.5856 33.76C31.5056 33.64 31.3856 33.58 31.2256 33.58C30.8256 33.58 30.3856 33.81 29.9056 34.27C29.4456 34.71 28.9856 35.31 28.5256 36.07C28.0656 36.81 27.6456 37.65 27.2656 38.59C26.9056 39.53 26.6056 40.5 26.3656 41.5C26.1456 42.48 26.0356 43.43 26.0356 44.35C26.0356 45.51 26.2656 46.29 26.7256 46.69C27.1856 47.07 27.7856 47.26 28.5256 47.26C28.9256 47.26 29.5256 47.11 30.3256 46.81C31.1256 46.51 31.9256 45.96 32.7256 45.16L33.2056 45.4C32.7656 46.06 32.1856 46.7 31.4656 47.32C30.7456 47.94 29.8956 48.45 28.9156 48.85C27.9356 49.23 26.8356 49.42 25.6156 49.42C24.6756 49.42 23.8056 49.26 23.0056 48.94C22.2256 48.62 21.5956 48.15 21.1156 47.53C20.6556 46.89 20.4256 46.11 20.4256 45.19C20.4256 44.01 20.6056 42.84 20.9656 41.68C21.3456 40.52 21.8756 39.42 22.5556 38.38C23.2356 37.34 24.0456 36.42 24.9856 35.62C25.9456 34.8 27.0056 34.16 28.1656 33.7C29.3256 33.24 30.5656 33.01 31.8856 33.01C32.9456 33.01 33.8256 33.23 34.5256 33.67C35.2456 34.09 35.6056 34.75 35.6056 35.65C35.6056 36.41 35.4056 37.13 35.0056 37.81C34.6056 38.47 34.0556 39.08 33.3556 39.64C32.6556 40.18 31.8656 40.67 30.9856 41.11C30.1056 41.55 29.1756 41.93 28.1956 42.25C27.2356 42.57 26.2856 42.82 25.3456 43L25.3756 42.7ZM49.2884 40.12C48.3084 39.66 47.4884 39.03 46.8284 38.23C46.1684 37.41 45.8384 36.49 45.8384 35.47C45.8384 34.71 46.0384 34.11 46.4384 33.67C46.8584 33.23 47.4384 33.01 48.1784 33.01C48.9784 33.01 49.5584 33.27 49.9184 33.79C50.2784 34.31 50.4584 35.03 50.4584 35.95C50.4584 37.05 50.3284 38.22 50.0684 39.46C49.8284 40.7 49.4484 41.91 48.9284 43.09C48.4284 44.27 47.7784 45.34 46.9784 46.3C46.1984 47.24 45.2684 48 44.1884 48.58C43.1284 49.14 41.9084 49.42 40.5284 49.42C39.2884 49.42 38.3184 49.24 37.6184 48.88C36.9384 48.5 36.4584 48.03 36.1784 47.47C35.8984 46.89 35.7584 46.3 35.7584 45.7C35.7584 44.4 36.1384 43.12 36.8984 41.86C37.6584 40.58 38.6984 39.31 40.0184 38.05C41.3584 36.79 42.8584 35.54 44.5184 34.3C43.8984 34.32 43.3684 34.48 42.9284 34.78C42.5084 35.06 42.1284 35.38 41.7884 35.74C41.4484 36.1 41.1084 36.42 40.7684 36.7C40.4484 36.96 40.0784 37.09 39.6584 37.09C39.3384 37.09 39.0584 37.02 38.8184 36.88C38.5984 36.72 38.3484 36.64 38.0684 36.64C37.8084 36.64 37.6084 36.73 37.4684 36.91C37.3284 37.09 37.1984 37.38 37.0784 37.78L36.8684 38.41H36.2984L36.9584 36.22C37.3184 34.94 37.7484 34.08 38.2484 33.64C38.7484 33.2 39.2584 32.98 39.7784 32.98C40.1584 32.98 40.4884 33.05 40.7684 33.19C41.0484 33.33 41.3584 33.48 41.6984 33.64C42.0384 33.78 42.4984 33.85 43.0784 33.85C43.2784 33.85 43.5484 33.83 43.8884 33.79C44.2284 33.73 44.6084 33.6 45.0284 33.4L45.3284 32.83L45.9584 33.13C45.2984 34.21 44.6884 35.34 44.1284 36.52C43.5884 37.68 43.1184 38.84 42.7184 40C42.3184 41.14 42.0084 42.21 41.7884 43.21C41.5684 44.21 41.4584 45.07 41.4584 45.79C41.4584 46.47 41.5584 46.98 41.7584 47.32C41.9584 47.66 42.3184 47.83 42.8384 47.83C43.4584 47.83 44.0484 47.69 44.6084 47.41C45.1684 47.13 45.6884 46.74 46.1684 46.24C46.6484 45.74 47.0884 45.17 47.4884 44.53C47.8884 43.87 48.2384 43.17 48.5384 42.43C48.8384 41.67 49.0884 40.9 49.2884 40.12ZM55.8151 42.7C56.4551 42.4 57.0851 42.04 57.7051 41.62C58.3251 41.2 58.8951 40.74 59.4151 40.24C60.2151 39.46 60.8651 38.57 61.3651 37.57C61.8851 36.57 62.1451 35.49 62.1451 34.33C62.1451 34.05 62.1051 33.86 62.0251 33.76C61.9451 33.64 61.8251 33.58 61.6651 33.58C61.2651 33.58 60.8251 33.81 60.3451 34.27C59.8851 34.71 59.4251 35.31 58.9651 36.07C58.5051 36.81 58.0851 37.65 57.7051 38.59C57.3451 39.53 57.0451 40.5 56.8051 41.5C56.5851 42.48 56.4751 43.43 56.4751 44.35C56.4751 45.51 56.7051 46.29 57.1651 46.69C57.6251 47.07 58.2251 47.26 58.9651 47.26C59.3651 47.26 59.9651 47.11 60.7651 46.81C61.5651 46.51 62.3651 45.96 63.1651 45.16L63.6451 45.4C63.2051 46.06 62.6251 46.7 61.9051 47.32C61.1851 47.94 60.3351 48.45 59.3551 48.85C58.3751 49.23 57.2751 49.42 56.0551 49.42C55.1151 49.42 54.2451 49.26 53.4451 48.94C52.6651 48.62 52.0351 48.15 51.5551 47.53C51.0951 46.89 50.8651 46.11 50.8651 45.19C50.8651 44.01 51.0451 42.84 51.4051 41.68C51.7851 40.52 52.3151 39.42 52.9951 38.38C53.6751 37.34 54.4851 36.42 55.4251 35.62C56.3851 34.8 57.4451 34.16 58.6051 33.7C59.7651 33.24 61.0051 33.01 62.3251 33.01C63.3851 33.01 64.2651 33.23 64.9651 33.67C65.6851 34.09 66.0451 34.75 66.0451 35.65C66.0451 36.41 65.8451 37.13 65.4451 37.81C65.0451 38.47 64.4951 39.08 63.7951 39.64C63.0951 40.18 62.3051 40.67 61.4251 41.11C60.5451 41.55 59.6151 41.93 58.6351 42.25C57.6751 42.57 56.7251 42.82 55.7851 43L55.8151 42.7ZM70.9079 46.45C70.7679 46.93 70.7679 47.26 70.9079 47.44C71.0479 47.62 71.2079 47.71 71.3879 47.71C71.4879 47.71 71.6879 47.62 71.9879 47.44C72.2879 47.24 72.5979 46.7 72.9179 45.82L73.5479 44.14H74.1179L73.3679 46.33C73.0679 47.19 72.6679 47.84 72.1679 48.28C71.6879 48.72 71.1779 49.02 70.6379 49.18C70.0979 49.34 69.5879 49.42 69.1079 49.42C68.4679 49.42 67.9079 49.31 67.4279 49.09C66.9679 48.87 66.6079 48.55 66.3479 48.13C66.0879 47.69 65.9479 47.15 65.9279 46.51C65.9079 45.87 66.0279 45.12 66.2879 44.26L70.8779 28.99C71.0779 28.31 71.0579 27.81 70.8179 27.49C70.5779 27.17 69.9679 27.01 68.9879 27.01L69.1979 26.38C70.8379 26.36 72.2879 26.25 73.5479 26.05C74.8279 25.83 76.0579 25.53 77.2379 25.15L70.9079 46.45ZM102.067 33.64C102.427 32.3 102.637 31.28 102.697 30.58C102.777 29.86 102.637 29.34 102.277 29.02C101.937 28.7 101.307 28.48 100.387 28.36L100.567 27.76C100.967 27.78 101.477 27.8 102.097 27.82C102.737 27.84 103.337 27.85 103.897 27.85C104.357 27.85 104.807 27.84 105.247 27.82C105.707 27.8 106.097 27.78 106.417 27.76L106.237 28.36C105.597 28.48 105.087 28.69 104.707 28.99C104.327 29.29 103.997 29.76 103.717 30.4C103.457 31.02 103.177 31.9 102.877 33.04L101.017 40.27C100.297 43.03 99.3171 45.15 98.0771 46.63C97.3571 47.47 96.4571 48.15 95.3771 48.67C94.3171 49.17 93.1671 49.42 91.9271 49.42C90.1071 49.42 88.6571 49.15 87.5771 48.61C86.4971 48.07 85.7271 47.39 85.2671 46.57C84.8671 45.81 84.6571 44.94 84.6371 43.96C84.6371 42.96 84.8271 41.76 85.2071 40.36L87.6971 30.94C87.8971 30.2 87.9771 29.66 87.9371 29.32C87.8971 28.96 87.7171 28.72 87.3971 28.6C87.0971 28.46 86.6071 28.38 85.9271 28.36L86.1071 27.76C86.6871 27.78 87.4871 27.8 88.5071 27.82C89.5471 27.84 90.6371 27.85 91.7771 27.85C92.7771 27.85 93.7271 27.84 94.6271 27.82C95.5271 27.8 96.3271 27.78 97.0271 27.76L96.8471 28.36C96.1671 28.38 95.6371 28.46 95.2571 28.6C94.8771 28.72 94.5771 28.96 94.3571 29.32C94.1571 29.66 93.9571 30.2 93.7571 30.94L91.1171 40.87C90.7571 42.25 90.5271 43.42 90.4271 44.38C90.3271 45.32 90.3471 46.09 90.4871 46.69C90.6471 47.27 90.8971 47.7 91.2371 47.98C91.5771 48.24 91.9971 48.37 92.4971 48.37C93.9971 48.37 95.2471 48.04 96.2471 47.38C97.2471 46.7 98.0671 45.77 98.7071 44.59C99.3471 43.41 99.8571 42.08 100.237 40.6L102.067 33.64ZM114.702 35.02C114.382 35.02 114.042 35.2 113.682 35.56C113.342 35.92 113.002 36.42 112.662 37.06C112.322 37.7 112.002 38.43 111.702 39.25C111.402 40.07 111.142 40.94 110.922 41.86L111.492 38.92C111.972 37.54 112.482 36.42 113.022 35.56C113.562 34.68 114.152 34.04 114.792 33.64C115.432 33.22 116.132 33.01 116.892 33.01C118.292 33.01 119.322 33.44 119.982 34.3C120.662 35.14 121.002 36.34 121.002 37.9C121.002 38.84 120.872 39.84 120.612 40.9C120.352 41.94 119.972 42.97 119.472 43.99C118.972 44.99 118.352 45.9 117.612 46.72C116.872 47.54 116.022 48.2 115.062 48.7C114.122 49.18 113.072 49.42 111.912 49.42C111.232 49.42 110.612 49.34 110.052 49.18C109.492 49.02 109.052 48.83 108.732 48.61L108.942 48.22C109.102 48.28 109.262 48.33 109.422 48.37C109.582 48.41 109.762 48.43 109.962 48.43C110.502 48.43 111.032 48.21 111.552 47.77C112.092 47.33 112.592 46.74 113.052 46C113.512 45.24 113.922 44.39 114.282 43.45C114.642 42.51 114.922 41.52 115.122 40.48C115.322 39.44 115.422 38.43 115.422 37.45C115.422 36.39 115.352 35.72 115.212 35.44C115.092 35.16 114.922 35.02 114.702 35.02ZM109.212 29.44C110.272 29.34 111.252 29.2 112.152 29.02C113.072 28.82 113.962 28.58 114.822 28.3L108.432 51.01C108.112 52.17 108.142 52.92 108.522 53.26C108.902 53.6 109.622 53.78 110.682 53.8L110.502 54.43C109.982 54.41 109.242 54.38 108.282 54.34C107.342 54.32 106.342 54.31 105.282 54.31C104.362 54.31 103.442 54.32 102.522 54.34C101.602 54.38 100.912 54.41 100.452 54.43L100.632 53.8C101.352 53.8 101.872 53.66 102.192 53.38C102.512 53.12 102.772 52.64 102.972 51.94L109.212 29.44ZM103.692 38.62C104.392 37.84 105.042 37.06 105.642 36.28C106.262 35.48 106.862 34.55 107.442 33.49C108.022 32.41 108.612 31.06 109.212 29.44L109.302 29.92C108.902 31.32 108.432 32.56 107.892 33.64C107.352 34.7 106.752 35.66 106.092 36.52C105.452 37.36 104.762 38.19 104.022 39.01L103.692 38.62Z" fill="#FCF4E7"/>
<path d="M100.167 58.98C100.155 61.9255 102.533 64.3229 105.479 64.3348C108.424 64.3466 110.822 61.9685 110.834 59.023C110.845 56.0775 108.467 53.6801 105.522 53.6682C102.576 53.6563 100.179 56.0345 100.167 58.98ZM2.09451 59.997C16.161 58.6653 38.2113 57.0672 58.6356 56.6012C68.8488 56.3682 78.6395 56.4187 86.8151 56.9246C95.0343 57.4332 101.486 58.3963 105.112 59.9231L105.888 58.0798C101.914 56.4066 95.1496 55.4365 86.9386 54.9284C78.6839 54.4176 68.8309 54.3681 58.59 54.6017C38.1059 55.0691 16.0062 56.671 1.90601 58.0059L2.09451 59.997Z" fill="#F3B33E"/>
</svg>
