<svg width="908" height="513" viewBox="0 0 908 513" fill="none" xmlns="http://www.w3.org/2000/svg">
<path d="M175.24 443.82L161.732 325.785C156.412 279.315 186.645 241.64 229.307 241.64H300.64" stroke="#01226F" stroke-width="2" stroke-linecap="round" stroke-linejoin="round"/>
<path d="M345.352 239.566L354.21 225.899L351.879 207.55C351.253 206.252 350.611 204.9 349.952 203.504C301.583 211.39 295.698 233.597 306.56 257.381C226.324 274.547 191.391 409.488 212.262 473.513C218.208 491.71 222.98 509.908 240.646 510.114" stroke="#01226F" stroke-width="2" stroke-linecap="round" stroke-linejoin="round"/>
<path d="M370.581 288.62C370.581 288.505 370.581 288.39 370.581 288.275C373.205 288.554 375.752 288.572 378.21 286.243C384.3 280.462 386.459 278.727 386.459 278.727C386.459 278.727 387.012 279.455 387.992 280.686C389.194 278.26 390.445 275.743 391.724 273.195C365.432 250.885 345.353 239.566 345.353 239.566L343.869 238.401L334.214 251.303C334.214 251.303 349.926 263.168 370.581 288.62Z" fill="#F3B33E"/>
<path d="M497.669 498.055C497.669 498.055 455.594 374.076 460.947 335.655C463.865 314.698 459.286 290.932 452.964 272.57L440.912 273.426L426.484 310.803C427.426 311.058 428.367 311.27 429.308 311.41C429.308 311.41 428.754 315.334 427.392 324.354C426.479 330.366 428.046 331.027 429.286 335.2C430.886 338.009 432.115 341.163 430.764 346.04C430.321 347.635 429.269 362.66 426.889 383.041C431.317 393.353 435.547 404.235 439.511 415.797C465.022 490.358 462.37 498.492 462.37 498.492L497.669 498.055Z" fill="#F3B33E"/>
<path d="M640.152 509.137C637.124 487.3 615.527 370.09 491.971 267.281C489.203 248.913 482.2 220.003 446.209 206.489" stroke="#01226F" stroke-width="2" stroke-linecap="round" stroke-linejoin="round"/>
<path d="M470.968 329.127C470.968 329.127 469.639 368.725 477.55 397.192" stroke="#01226F" stroke-width="2" stroke-linecap="round" stroke-linejoin="round"/>
<path d="M490.333 266.826C490.726 269.41 491.031 271.788 491.324 273.874C494.723 298.028 487.449 314.066 482.638 325.185C495.554 315.176 504.262 296.142 508.658 281.626C503.349 276.968 496.102 271.533 490.333 266.826Z" fill="#01226F"/>
<path d="M307.838 256.307C298.803 258.327 283.955 263.259 273.254 271.369C280.728 275.833 317.743 300.121 347.992 314.691C348.23 314.539 349.891 311.506 350.722 310.323C333.98 295.778 316.37 275.044 307.838 256.307Z" fill="#01226F"/>
<path d="M332.201 159.696C332.201 159.696 311.656 165.799 319.972 185.021C325.752 198.366 336.724 193.622 343.268 189.577" stroke="#01226F" stroke-width="2" stroke-linecap="round" stroke-linejoin="round"/>
<path d="M337.683 163.349L344.138 160.977C348.395 163.798 362.457 182.941 366.992 192.428C366.992 192.428 387.636 177.755 419.862 168.371C419.862 168.371 437.406 163.98 445.035 164.331C442.821 144.921 438.292 120.124 430.32 97.9529C418.461 64.9973 381.768 77.784 376.442 79.7554C319.214 101.089 337.628 163.209 337.628 163.209L337.683 163.349Z" stroke="#01226F" stroke-width="2" stroke-linecap="round" stroke-linejoin="round"/>
<path d="M402.091 244.691C395.204 244.691 388.654 243.435 383.5 241.203C366.781 233.967 363.227 229.302 357.226 218.299C351.224 207.295 332.418 165.289 332.418 165.289L344.138 160.977C348.395 163.797 362.457 182.941 366.991 192.428C366.991 192.428 387.636 177.755 419.862 168.371C419.862 168.371 437.578 163.931 445.157 164.331C445.157 164.331 448.777 184.069 446.607 203.419" stroke="#01226F" stroke-width="2" stroke-linecap="round" stroke-linejoin="round"/>
<path d="M333.858 170.779C333.858 170.779 323.272 157.331 315.627 141.262C308.43 126.158 311.414 107.445 323.344 96.5269C333.332 87.3614 342.837 89.7877 342.837 89.7877C342.837 89.7877 325.642 70.5954 339.2 45.768C341.573 41.4239 344.731 37.6564 348.48 34.6963C352.229 31.7362 356.49 29.6458 361.001 28.5532C383.257 23.2092 394.772 41.807 394.772 41.807C394.772 41.807 407.561 -12.2941 462.485 2.59141C468.021 4.09574 475.346 10.5134 479.204 15.1234C502.578 43.0808 458.543 95.8536 431.754 106.42C402.34 118.018 383.423 117.381 371.863 111.958C380.173 114.73 380.478 166.09 333.858 170.779Z" fill="#01226F"/>
<path d="M418.743 154.056L429.118 184.3L418.455 184.239" stroke="#01226F" stroke-width="2" stroke-linecap="round" stroke-linejoin="round"/>
<path d="M413.047 210.51C415.943 210.51 418.29 207.938 418.29 204.766C418.29 201.593 415.943 199.021 413.047 199.021C410.152 199.021 407.805 201.593 407.805 204.766C407.805 207.938 410.152 210.51 413.047 210.51Z" fill="#01226F"/>
<path d="M431.017 156.556C432.625 156.116 433.424 153.548 432.801 150.822C432.179 148.095 430.371 146.241 428.764 146.682C427.156 147.122 426.357 149.69 426.979 152.417C427.602 155.143 429.41 156.997 431.017 156.556Z" fill="#01226F"/>
<path d="M402.864 163.699C404.472 163.258 405.27 160.691 404.648 157.964C404.026 155.237 402.218 153.384 400.61 153.824C399.002 154.265 398.204 156.833 398.826 159.559C399.448 162.286 401.256 164.139 402.864 163.699Z" fill="#01226F"/>
<path d="M383.362 139.491C384.36 137.025 385.943 134.897 387.947 133.329C389.951 131.762 392.303 130.813 394.756 130.581" stroke="#01226F" stroke-width="2" stroke-linecap="round" stroke-linejoin="round"/>
<path d="M421.373 122.738C421.373 122.738 428.924 118.231 432.595 124.909" stroke="#01226F" stroke-width="2" stroke-linecap="round" stroke-linejoin="round"/>
<path d="M748.938 341.459H533.692C532.321 341.46 530.99 341.967 529.915 342.9C528.84 343.832 528.083 345.135 527.768 346.597L497.84 485.395H419.818C419.818 485.395 415.494 509.865 440.706 509.865H715.517C716.888 509.864 718.218 509.356 719.293 508.424C720.368 507.492 721.125 506.189 721.44 504.727L754.873 349.666C755.085 348.686 755.091 347.665 754.891 346.682C754.691 345.698 754.291 344.777 753.72 343.988C753.149 343.198 752.422 342.56 751.594 342.122C750.766 341.684 749.858 341.458 748.938 341.459Z" fill="#01226F"/>
<path d="M663.547 125.115H661.853C660.324 125.115 659.085 126.473 659.085 128.148V132.934C659.085 134.609 660.324 135.967 661.853 135.967H663.547C665.076 135.967 666.315 134.609 666.315 132.934V128.148C666.315 126.473 665.076 125.115 663.547 125.115Z" fill="#F3B33E"/>
<path d="M653.538 125.115H609.359C607.83 125.115 606.591 126.473 606.591 128.148V132.934C606.591 134.609 607.83 135.967 609.359 135.967H653.538C655.066 135.967 656.306 134.609 656.306 132.934V128.148C656.306 126.473 655.066 125.115 653.538 125.115Z" fill="#01226F"/>
<path d="M658.039 175.522H609.359C607.83 175.522 606.591 176.88 606.591 178.555V183.341C606.591 185.016 607.83 186.374 609.359 186.374H658.039C659.567 186.374 660.807 185.016 660.807 183.341V178.555C660.807 176.88 659.567 175.522 658.039 175.522Z" fill="#01226F"/>
<path d="M701.619 158.738H623.066C621.537 158.738 620.298 160.096 620.298 161.771V166.557C620.298 168.232 621.537 169.59 623.066 169.59H701.619C703.148 169.59 704.387 168.232 704.387 166.557V161.771C704.387 160.096 703.148 158.738 701.619 158.738Z" fill="#F3B33E"/>
<path d="M751.744 158.738H711.862C710.333 158.738 709.094 160.096 709.094 161.771V166.557C709.094 168.232 710.333 169.59 711.862 169.59H751.744C753.273 169.59 754.513 168.232 754.513 166.557V161.771C754.513 160.096 753.273 158.738 751.744 158.738Z" fill="#F3B33E"/>
<path d="M767.118 141.96H765.424C763.896 141.96 762.656 143.318 762.656 144.993V149.779C762.656 151.454 763.896 152.812 765.424 152.812H767.118C768.647 152.812 769.886 151.454 769.886 149.779V144.993C769.886 143.318 768.647 141.96 767.118 141.96Z" fill="#01226F"/>
<path d="M690.774 141.929H609.359C607.83 141.929 606.591 143.287 606.591 144.962V149.748C606.591 151.423 607.83 152.781 609.359 152.781H690.774C692.303 152.781 693.542 151.423 693.542 149.748V144.962C693.542 143.287 692.303 141.929 690.774 141.929Z" fill="#01226F"/>
<path d="M716.451 125.115H672.272C670.743 125.115 669.504 126.473 669.504 128.148V132.934C669.504 134.609 670.743 135.967 672.272 135.967H716.451C717.979 135.967 719.219 134.609 719.219 132.934V128.148C719.219 126.473 717.979 125.115 716.451 125.115Z" fill="#01226F"/>
<path d="M756 141.893H700.201C698.672 141.893 697.433 143.251 697.433 144.926V149.779C697.433 151.454 698.672 152.812 700.201 152.812H756C757.529 152.812 758.768 151.454 758.768 149.779V144.926C758.768 143.251 757.529 141.893 756 141.893Z" fill="#F3B33E"/>
<path d="M653.538 233.918H609.359C607.83 233.918 606.591 235.276 606.591 236.951V241.737C606.591 243.412 607.83 244.77 609.359 244.77H653.538C655.066 244.77 656.306 243.412 656.306 241.737V236.951C656.306 235.276 655.066 233.918 653.538 233.918Z" fill="#01226F"/>
<path d="M658.039 284.325H609.359C607.83 284.325 606.591 285.683 606.591 287.358V292.144C606.591 293.819 607.83 295.176 609.359 295.176H658.039C659.567 295.176 660.807 293.819 660.807 292.144V287.358C660.807 285.683 659.567 284.325 658.039 284.325Z" fill="#01226F"/>
<path d="M701.619 267.547H623.066C621.537 267.547 620.298 268.905 620.298 270.58V275.366C620.298 277.041 621.537 278.399 623.066 278.399H701.619C703.148 278.399 704.387 277.041 704.387 275.366V270.58C704.387 268.905 703.148 267.547 701.619 267.547Z" fill="#F3B33E"/>
<path d="M751.744 267.547H711.862C710.333 267.547 709.094 268.905 709.094 270.58V275.366C709.094 277.041 710.333 278.399 711.862 278.399H751.744C753.273 278.399 754.513 277.041 754.513 275.366V270.58C754.513 268.905 753.273 267.547 751.744 267.547Z" fill="#F3B33E"/>
<path d="M767.118 250.763H765.424C763.896 250.763 762.656 252.121 762.656 253.796V258.582C762.656 260.257 763.896 261.614 765.424 261.614H767.118C768.647 261.614 769.886 260.257 769.886 258.582V253.796C769.886 252.121 768.647 250.763 767.118 250.763Z" fill="#01226F"/>
<path d="M779.763 233.918H778.069C776.54 233.918 775.301 235.276 775.301 236.951V241.737C775.301 243.412 776.54 244.77 778.069 244.77H779.763C781.292 244.77 782.531 243.412 782.531 241.737V236.951C782.531 235.276 781.292 233.918 779.763 233.918Z" fill="#01226F"/>
<path d="M690.774 250.732H609.359C607.83 250.732 606.591 252.09 606.591 253.765V258.551C606.591 260.226 607.83 261.584 609.359 261.584H690.774C692.303 261.584 693.542 260.226 693.542 258.551V253.765C693.542 252.09 692.303 250.732 690.774 250.732Z" fill="#01226F"/>
<path d="M716.451 233.918H661.853C660.324 233.918 659.085 235.276 659.085 236.951V241.737C659.085 243.412 660.324 244.77 661.853 244.77H716.451C717.98 244.77 719.219 243.412 719.219 241.737V236.951C719.219 235.276 717.98 233.918 716.451 233.918Z" fill="#F3B33E"/>
<path d="M769.998 233.918H725.819C724.29 233.918 723.051 235.276 723.051 236.951V241.737C723.051 243.412 724.29 244.77 725.819 244.77H769.998C771.526 244.77 772.766 243.412 772.766 241.737V236.951C772.766 235.276 771.526 233.918 769.998 233.918Z" fill="#F3B33E"/>
<path d="M663.547 217.655H661.853C660.324 217.655 659.085 219.013 659.085 220.688V225.474C659.085 227.149 660.324 228.507 661.853 228.507H663.547C665.076 228.507 666.315 227.149 666.315 225.474V220.688C666.315 219.013 665.076 217.655 663.547 217.655Z" fill="#F3B33E"/>
<path d="M653.538 217.655H609.359C607.83 217.655 606.591 219.013 606.591 220.688V225.474C606.591 227.149 607.83 228.507 609.359 228.507H653.538C655.066 228.507 656.306 227.149 656.306 225.474V220.688C656.306 219.013 655.066 217.655 653.538 217.655Z" fill="#01226F"/>
<path d="M716.451 217.655H672.272C670.743 217.655 669.504 219.013 669.504 220.688V225.474C669.504 227.149 670.743 228.507 672.272 228.507H716.451C717.979 228.507 719.219 227.149 719.219 225.474V220.688C719.219 219.013 717.979 217.655 716.451 217.655Z" fill="#01226F"/>
<path d="M756 250.702H700.201C698.672 250.702 697.433 252.06 697.433 253.735V258.588C697.433 260.263 698.672 261.621 700.201 261.621H756C757.529 261.621 758.768 260.263 758.768 258.588V253.735C758.768 252.06 757.529 250.702 756 250.702Z" fill="#F3B33E"/>
<path d="M821.095 446.101C822.303 445.638 823.561 445.351 824.837 445.246C826.865 445.086 828.901 445.397 830.812 446.159C832.722 446.921 834.464 448.117 835.924 449.668C837.383 451.219 838.527 453.09 839.281 455.16C840.034 457.229 840.38 459.449 840.295 461.675C840.211 463.901 839.698 466.082 838.791 468.076C837.884 470.069 836.602 471.83 835.03 473.244C833.458 474.657 831.632 475.69 829.67 476.276C827.708 476.862 825.656 476.987 823.647 476.643" stroke="#01226F" stroke-width="2" stroke-linecap="round" stroke-linejoin="round"/>
<path d="M786.316 448.163L765.683 420.564" stroke="#01226F" stroke-width="2" stroke-linecap="round" stroke-linejoin="round"/>
<path d="M762.655 439.61V491.661C762.655 496.488 764.405 501.116 767.52 504.529C770.634 507.941 774.859 509.859 779.264 509.859H807.277C811.682 509.859 815.906 507.941 819.021 504.529C822.136 501.116 823.885 496.488 823.885 491.661V439.61H762.655ZM787.424 477.722C787.595 477.83 787.736 477.986 787.833 478.173C787.931 478.361 787.98 478.574 787.978 478.79C787.978 479.111 787.861 479.42 787.653 479.647C787.446 479.875 787.164 480.003 786.871 480.003C786.677 480.006 786.486 479.954 786.317 479.851L775.245 472.572C775.054 472.474 774.893 472.319 774.781 472.124C774.668 471.93 774.608 471.704 774.608 471.474C774.608 471.244 774.668 471.018 774.781 470.824C774.893 470.629 775.054 470.474 775.245 470.376L786.317 463.097C786.486 462.995 786.677 462.942 786.871 462.946C787.164 462.946 787.446 463.073 787.653 463.301C787.861 463.528 787.978 463.837 787.978 464.159C787.98 464.375 787.931 464.587 787.833 464.775C787.736 464.963 787.595 465.118 787.424 465.226L777.896 471.486L787.424 477.722ZM801.265 459.779L792.351 484.194C792.295 484.318 792.22 484.431 792.13 484.528C792.027 484.643 791.903 484.735 791.768 484.797C791.632 484.86 791.486 484.892 791.338 484.892C791.045 484.892 790.763 484.764 790.555 484.536C790.348 484.309 790.231 484 790.231 483.679C790.229 483.501 790.263 483.325 790.331 483.163L799.244 458.748C799.304 458.616 799.384 458.497 799.482 458.396C799.583 458.281 799.704 458.191 799.838 458.13C799.973 458.07 800.117 458.04 800.262 458.044C800.556 458.044 800.838 458.172 801.045 458.4C801.253 458.627 801.37 458.936 801.37 459.258C801.372 459.446 801.336 459.632 801.265 459.803V459.779ZM816.351 472.542L805.278 479.821C805.109 479.923 804.918 479.976 804.725 479.972C804.431 479.972 804.149 479.845 803.942 479.617C803.734 479.39 803.617 479.081 803.617 478.759C803.615 478.543 803.665 478.331 803.762 478.143C803.859 477.955 804 477.8 804.171 477.692L813.71 471.468L804.182 465.208C804.012 465.1 803.87 464.944 803.773 464.757C803.676 464.569 803.626 464.356 803.629 464.141C803.628 463.98 803.657 463.822 803.713 463.674C803.769 463.526 803.852 463.392 803.955 463.279C804.059 463.165 804.182 463.074 804.318 463.013C804.454 462.952 804.6 462.92 804.747 462.921C804.94 462.918 805.131 462.97 805.3 463.073L816.373 470.352C816.563 470.45 816.724 470.605 816.836 470.8C816.949 470.994 817.009 471.22 817.009 471.45C817.009 471.68 816.949 471.906 816.836 472.1C816.724 472.295 816.563 472.45 816.373 472.548L816.351 472.542Z" fill="#01226F"/>
<path d="M135.085 476.788C133.195 476.941 131.296 476.684 129.496 476.032C127.696 475.381 126.031 474.347 124.596 472.99C123.161 471.634 121.984 469.981 121.132 468.126C120.28 466.27 119.77 464.25 119.631 462.179C119.492 460.107 119.726 458.027 120.321 456.055C120.916 454.083 121.859 452.259 123.097 450.686C124.335 449.114 125.844 447.824 127.537 446.891C129.23 445.957 131.074 445.398 132.965 445.246C133.837 445.174 134.714 445.19 135.583 445.294" stroke="#01226F" stroke-width="2" stroke-linecap="round" stroke-linejoin="round"/>
<path d="M133.209 439.61V491.661C133.209 496.488 134.959 501.116 138.074 504.529C141.188 507.941 145.413 509.859 149.818 509.859H177.836C182.241 509.859 186.465 507.941 189.58 504.529C192.695 501.116 194.445 496.488 194.445 491.661V439.61H133.209ZM157.983 477.722C158.154 477.83 158.295 477.986 158.393 478.173C158.49 478.361 158.54 478.574 158.537 478.79C158.537 479.111 158.42 479.42 158.213 479.647C158.005 479.875 157.723 480.003 157.43 480.003C157.236 480.006 157.045 479.954 156.876 479.851L145.804 472.572C145.614 472.474 145.453 472.319 145.34 472.124C145.227 471.93 145.168 471.704 145.168 471.474C145.168 471.244 145.227 471.018 145.34 470.824C145.453 470.629 145.614 470.474 145.804 470.376L156.876 463.097C157.045 462.995 157.236 462.942 157.43 462.946C157.723 462.946 158.005 463.073 158.213 463.301C158.42 463.528 158.537 463.837 158.537 464.159C158.54 464.375 158.49 464.587 158.393 464.775C158.295 464.963 158.154 465.118 157.983 465.226L148.456 471.486L157.983 477.722ZM181.335 472.566L170.263 479.845C170.093 479.948 169.902 480 169.709 479.997C169.562 480 169.417 479.97 169.282 479.908C169.146 479.847 169.024 479.755 168.923 479.639C168.817 479.527 168.734 479.393 168.678 479.245C168.622 479.097 168.594 478.938 168.596 478.777C168.594 478.562 168.643 478.349 168.741 478.161C168.838 477.974 168.979 477.818 169.15 477.71L178.678 471.456L169.15 465.196C168.979 465.088 168.838 464.932 168.741 464.745C168.643 464.557 168.594 464.344 168.596 464.128C168.596 463.807 168.713 463.498 168.921 463.271C169.128 463.043 169.41 462.915 169.703 462.915C169.897 462.912 170.088 462.964 170.257 463.067L181.329 470.346C181.52 470.444 181.681 470.599 181.793 470.794C181.906 470.988 181.966 471.214 181.966 471.444C181.966 471.674 181.906 471.9 181.793 472.094C181.681 472.289 181.52 472.444 181.329 472.542L181.335 472.566Z" fill="#01226F"/>
<path d="M235.921 418.634L228.354 403.585" stroke="#01226F" stroke-width="2" stroke-linecap="round" stroke-linejoin="round"/>
<path d="M219.12 420.242H261.068" stroke="#01226F" stroke-width="2" stroke-linecap="round" stroke-linejoin="round"/>
<path d="M255.259 469.253C254.726 468.665 254.024 468.297 253.271 468.212C252.519 468.128 251.763 468.333 251.133 468.791C250.503 469.249 250.037 469.933 249.816 470.725C249.594 471.518 249.631 472.37 249.919 473.136C250.207 473.902 250.729 474.535 251.396 474.927C252.063 475.318 252.833 475.444 253.575 475.283C254.316 475.122 254.984 474.684 255.464 474.043C255.944 473.402 256.206 472.599 256.206 471.77C256.212 471.302 256.131 470.838 255.968 470.405C255.806 469.972 255.564 469.58 255.259 469.253Z" fill="#01226F"/>
<path d="M252.957 463.94C253.71 463.946 254.441 463.665 255.026 463.146C255.611 462.627 256.013 461.901 256.164 461.093C256.315 460.285 256.205 459.444 255.853 458.715C255.501 457.986 254.929 457.413 254.235 457.095C253.54 456.776 252.767 456.732 252.046 456.969C251.325 457.207 250.701 457.711 250.282 458.396C249.862 459.081 249.673 459.904 249.746 460.725C249.819 461.546 250.15 462.313 250.682 462.897C250.977 463.231 251.331 463.495 251.722 463.674C252.113 463.854 252.533 463.944 252.957 463.94Z" fill="#01226F"/>
<path d="M255.259 485.686C255.796 485.103 256.132 484.333 256.209 483.509C256.286 482.685 256.1 481.857 255.682 481.166C255.264 480.476 254.64 479.966 253.918 479.723C253.195 479.48 252.417 479.519 251.718 479.834C251.019 480.149 250.441 480.72 250.083 481.45C249.725 482.18 249.609 483.023 249.755 483.836C249.901 484.649 250.3 485.381 250.884 485.907C251.468 486.434 252.2 486.722 252.956 486.723C253.384 486.731 253.809 486.643 254.205 486.465C254.602 486.287 254.96 486.021 255.259 485.686Z" fill="#01226F"/>
<path d="M265.191 431.221L257.834 420.733H222.352L214.995 431.221C214.29 432.188 213.9 433.386 213.888 434.624V498.473C213.916 499.495 214.183 500.492 214.664 501.368C215.145 502.244 215.823 502.97 216.634 503.477C218.909 505.03 221.81 507.432 222.015 509.731H258.172C258.371 507.432 261.272 505.03 263.547 503.477C264.356 502.967 265.032 502.238 265.51 501.359C265.988 500.481 266.252 499.483 266.277 498.46V434.624C266.268 433.389 265.887 432.192 265.191 431.221ZM249.79 443.468L253.665 436.383C253.718 436.27 253.798 436.175 253.895 436.106C253.992 436.037 254.103 435.996 254.219 435.988C254.34 435.991 254.458 436.029 254.561 436.098C254.664 436.168 254.749 436.266 254.806 436.383L258.681 443.468C258.737 443.577 258.766 443.7 258.764 443.825C258.766 443.918 258.75 444.01 258.717 444.096C258.685 444.181 258.637 444.259 258.576 444.323C258.516 444.391 258.445 444.444 258.366 444.481C258.287 444.517 258.202 444.536 258.116 444.535C258.003 444.532 257.893 444.496 257.796 444.433C257.699 444.369 257.619 444.279 257.563 444.171L254.241 438.105L250.919 444.171C250.863 444.278 250.782 444.368 250.685 444.432C250.589 444.496 250.478 444.531 250.366 444.535C250.28 444.536 250.195 444.517 250.116 444.481C250.037 444.444 249.965 444.391 249.906 444.323C249.844 444.259 249.795 444.182 249.762 444.096C249.729 444.011 249.712 443.919 249.712 443.825C249.708 443.701 249.735 443.577 249.79 443.468ZM250.044 446.137C250.155 446.047 250.289 446 250.426 446.003C250.512 446.002 250.597 446.021 250.676 446.057C250.755 446.094 250.827 446.148 250.886 446.215C250.947 446.281 250.996 446.359 251.028 446.446C251.06 446.532 251.076 446.625 251.074 446.719C251.078 446.806 251.064 446.892 251.035 446.973C251.005 447.053 250.96 447.126 250.903 447.186L250.659 447.447C250.352 447.773 250.109 448.165 249.946 448.598C249.782 449.031 249.701 449.496 249.707 449.964C249.689 450.401 249.755 450.836 249.9 451.243C250.046 451.65 250.269 452.018 250.554 452.324C250.71 452.464 250.906 452.539 251.107 452.536C251.225 452.533 251.339 452.49 251.433 452.411C251.527 452.333 251.595 452.223 251.628 452.099L252.951 447.72C253.07 447.303 253.269 446.919 253.532 446.592C253.71 446.392 253.924 446.235 254.161 446.13C254.397 446.026 254.651 445.976 254.905 445.985C255.168 445.984 255.428 446.042 255.67 446.154C255.911 446.267 256.13 446.432 256.311 446.64C256.709 447.078 257.02 447.602 257.225 448.178C257.43 448.754 257.524 449.371 257.502 449.988C257.505 450.719 257.36 451.441 257.078 452.103C256.795 452.765 256.382 453.35 255.869 453.816C255.816 453.865 255.755 453.902 255.69 453.925C255.624 453.948 255.555 453.956 255.487 453.949C255.401 453.95 255.317 453.932 255.238 453.897C255.159 453.862 255.087 453.809 255.027 453.743C254.967 453.677 254.919 453.599 254.887 453.512C254.854 453.426 254.838 453.333 254.839 453.24C254.834 453.152 254.847 453.064 254.877 452.982C254.907 452.901 254.952 452.827 255.01 452.767L255.254 452.506C255.56 452.179 255.802 451.787 255.965 451.354C256.128 450.921 256.208 450.457 256.201 449.988C256.22 449.552 256.155 449.117 256.01 448.71C255.865 448.303 255.643 447.935 255.359 447.629C255.203 447.49 255.007 447.415 254.806 447.416C254.688 447.419 254.574 447.463 254.48 447.541C254.386 447.62 254.318 447.729 254.285 447.853L252.956 452.233C252.845 452.647 252.657 453.031 252.403 453.361C252.225 453.561 252.011 453.718 251.775 453.822C251.538 453.927 251.285 453.976 251.03 453.968C250.767 453.969 250.507 453.911 250.265 453.798C250.024 453.686 249.805 453.52 249.624 453.312C249.226 452.874 248.915 452.35 248.71 451.774C248.505 451.198 248.411 450.582 248.433 449.964C248.427 449.235 248.568 448.514 248.847 447.852C249.125 447.19 249.534 446.604 250.044 446.137ZM249.74 456.855C250.484 456.037 251.465 455.526 252.514 455.411C253.563 455.296 254.616 455.583 255.494 456.224C256.371 456.864 257.019 457.819 257.326 458.924C257.633 460.029 257.581 461.217 257.179 462.284C256.776 463.352 256.048 464.234 255.118 464.779C254.189 465.325 253.115 465.5 252.081 465.275C251.047 465.051 250.116 464.44 249.446 463.547C248.777 462.654 248.411 461.535 248.411 460.379C248.401 459.723 248.514 459.072 248.742 458.466C248.971 457.86 249.31 457.312 249.74 456.855ZM248.6 487.942C248.511 487.842 248.451 487.715 248.427 487.578C248.404 487.441 248.417 487.299 248.466 487.17C248.515 487.042 248.597 486.931 248.702 486.853C248.808 486.774 248.932 486.731 249.059 486.729H249.773C249.018 485.919 248.544 484.847 248.431 483.697C248.318 482.546 248.573 481.388 249.154 480.42C249.734 479.453 250.603 478.737 251.612 478.394C252.621 478.051 253.707 478.103 254.685 478.541C255.663 478.979 256.471 479.776 256.972 480.795C257.473 481.814 257.636 482.992 257.431 484.127C257.227 485.263 256.669 486.285 255.853 487.02C255.037 487.755 254.013 488.156 252.956 488.155H249.081C248.992 488.159 248.902 488.142 248.819 488.106C248.736 488.069 248.661 488.013 248.6 487.942ZM258.725 490.642L254.85 497.727C254.793 497.843 254.708 497.942 254.605 498.011C254.502 498.08 254.384 498.118 254.263 498.121C254.148 498.113 254.036 498.073 253.939 498.004C253.842 497.934 253.763 497.839 253.709 497.727L249.834 490.642C249.778 490.533 249.749 490.409 249.751 490.284C249.751 490.191 249.767 490.099 249.801 490.013C249.834 489.927 249.883 489.85 249.945 489.786C250.003 489.717 250.075 489.663 250.154 489.626C250.233 489.59 250.318 489.572 250.404 489.574C250.517 489.578 250.627 489.614 250.724 489.677C250.821 489.741 250.902 489.831 250.958 489.938L254.28 496.004L257.601 489.938C257.657 489.83 257.738 489.74 257.835 489.677C257.932 489.613 258.042 489.578 258.155 489.574C258.326 489.576 258.49 489.651 258.611 489.784C258.733 489.916 258.801 490.096 258.803 490.284C258.807 490.408 258.78 490.532 258.725 490.642ZM261.233 476.551C261.173 476.618 261.102 476.67 261.023 476.706C260.944 476.741 260.859 476.759 260.774 476.757H252.956C251.905 476.756 250.887 476.355 250.075 475.624C249.263 474.892 248.708 473.875 248.503 472.745C248.299 471.616 248.458 470.443 248.954 469.428C249.45 468.412 250.252 467.616 251.223 467.176C252.194 466.735 253.274 466.677 254.28 467.011C255.286 467.345 256.155 468.051 256.74 469.008C257.324 469.966 257.588 471.115 257.485 472.262C257.383 473.408 256.921 474.48 256.179 475.295L256.145 475.331H260.774C260.859 475.331 260.944 475.349 261.023 475.386C261.102 475.422 261.174 475.476 261.233 475.544C261.295 475.609 261.344 475.687 261.378 475.773C261.411 475.86 261.428 475.953 261.427 476.047C261.427 476.141 261.41 476.234 261.376 476.32C261.343 476.407 261.294 476.485 261.233 476.551Z" fill="#01226F"/>
<path d="M402.481 250.647C402.708 242.804 402.598 230.46 400.056 225.068C396.021 216.509 399.785 207.374 408.04 216.721C412.745 222.047 415.054 229.114 416.172 234.203" stroke="#01226F" stroke-width="2" stroke-linecap="round" stroke-linejoin="round"/>
<path d="M472.183 238.061C480.154 238.061 486.616 230.981 486.616 222.247C486.616 213.514 480.154 206.434 472.183 206.434C464.212 206.434 457.75 213.514 457.75 222.247C457.75 230.981 464.212 238.061 472.183 238.061Z" stroke="#01226F" stroke-width="2" stroke-linecap="round" stroke-linejoin="round"/>
<path d="M378.698 511.678C420.884 508.227 429.277 351.401 430.739 346.045C433.667 335.466 424.472 332.985 425.678 324.608C426.885 316.231 425.95 312.477 425.95 312.477C406.147 308.946 386.914 281.662 386.914 281.662C386.914 281.662 384.921 283.257 379.247 288.571C373.572 293.885 367.239 285.72 360.761 293.86C356.487 299.289 309.917 384.951 309.917 384.951" stroke="#01226F" stroke-width="2" stroke-linecap="round" stroke-linejoin="round"/>
<path d="M427.39 324.359C428.763 315.339 429.305 311.415 429.305 311.415C408.218 307.86 386.472 278.726 386.472 278.726C386.472 278.726 384.324 280.461 378.223 286.242C375.765 288.571 373.24 288.553 370.594 288.274C368.728 313.574 410.15 336.097 429.77 337.158C428.519 331.08 426.355 331.208 427.39 324.359Z" fill="#01226F"/>
<path d="M282.502 370.581C282.502 370.581 307.47 346.973 321.964 361.846" stroke="#01226F" stroke-width="2" stroke-linecap="round" stroke-linejoin="round"/>
<path d="M378.256 300.709L420.087 327.356L441.025 273.115C461.227 273.152 461.138 261.129 456.908 260.717C452.679 260.304 432.366 263.428 432.366 263.428C432.366 263.428 433.025 261.809 449.529 258.375C466.032 254.942 462.932 244.867 459.383 244.594C455.834 244.321 429.609 251.521 429.609 251.521L452.142 242.707C460.164 239.917 460.446 231.401 456.255 230.2C453.487 229.405 438.728 234.294 427.046 238.771C427.046 238.771 441.086 230.885 447.746 226.117C454.406 221.35 449.75 215.132 445.858 215.52C441.966 215.908 414.928 235.719 409.779 240.627C404.63 245.534 378.256 300.709 378.256 300.709Z" stroke="#01226F" stroke-width="2" stroke-linecap="round" stroke-linejoin="round"/>
<path d="M351.02 445.64C351.781 445.443 352.554 445.311 353.334 445.245C355.449 445.077 357.572 445.421 359.552 446.253C361.533 447.086 363.321 448.387 364.79 450.062C366.259 451.738 367.373 453.748 368.053 455.949C368.733 458.151 368.961 460.489 368.722 462.798C368.484 465.107 367.783 467.33 366.671 469.308C365.559 471.287 364.063 472.973 362.289 474.246C360.515 475.519 358.506 476.348 356.406 476.674C354.306 477 352.167 476.815 350.14 476.133" stroke="#01226F" stroke-width="2" stroke-linecap="round" stroke-linejoin="round"/>
<path d="M291.151 439.61V491.661C291.151 496.488 292.901 501.116 296.016 504.529C299.131 507.941 303.355 509.859 307.76 509.859H335.773C340.178 509.859 344.402 507.941 347.517 504.529C350.632 501.116 352.382 496.488 352.382 491.661V439.61H291.151ZM315.92 477.722C316.091 477.83 316.232 477.986 316.329 478.173C316.427 478.361 316.477 478.574 316.474 478.79C316.474 479.111 316.357 479.42 316.15 479.647C315.942 479.875 315.66 480.003 315.367 480.003C315.173 480.006 314.982 479.954 314.813 479.851L303.741 472.572C303.55 472.474 303.39 472.319 303.277 472.124C303.164 471.93 303.104 471.704 303.104 471.474C303.104 471.244 303.164 471.018 303.277 470.824C303.39 470.629 303.55 470.474 303.741 470.376L314.813 463.097C314.982 462.995 315.173 462.942 315.367 462.946C315.513 462.945 315.657 462.977 315.792 463.038C315.927 463.1 316.05 463.19 316.153 463.303C316.259 463.414 316.342 463.548 316.399 463.697C316.455 463.845 316.482 464.004 316.479 464.165C316.482 464.381 316.432 464.593 316.335 464.781C316.238 464.969 316.096 465.125 315.926 465.232L306.398 471.492L315.92 477.722ZM329.761 459.779L320.847 484.194C320.789 484.318 320.712 484.431 320.62 484.528C320.517 484.643 320.394 484.735 320.258 484.797C320.122 484.86 319.976 484.892 319.829 484.892C319.535 484.892 319.253 484.764 319.046 484.536C318.838 484.309 318.722 484 318.722 483.679C318.721 483.502 318.753 483.326 318.816 483.163L327.729 458.748C327.791 458.618 327.871 458.499 327.967 458.396C328.068 458.282 328.19 458.192 328.324 458.132C328.458 458.071 328.602 458.042 328.748 458.044C329.041 458.044 329.323 458.172 329.53 458.4C329.738 458.627 329.855 458.936 329.855 459.258C329.859 459.444 329.829 459.63 329.766 459.803L329.761 459.779ZM344.847 472.542L333.774 479.821C333.605 479.923 333.414 479.976 333.221 479.972C332.927 479.972 332.646 479.845 332.438 479.617C332.23 479.39 332.114 479.081 332.114 478.759C332.111 478.543 332.161 478.331 332.258 478.143C332.355 477.955 332.497 477.8 332.667 477.692L342.189 471.438L332.667 465.178C332.497 465.07 332.355 464.914 332.258 464.726C332.161 464.539 332.111 464.326 332.114 464.11C332.111 463.95 332.138 463.79 332.194 463.642C332.25 463.494 332.334 463.36 332.44 463.249C332.543 463.135 332.666 463.045 332.801 462.984C332.936 462.922 333.08 462.891 333.226 462.891C333.42 462.888 333.611 462.94 333.78 463.043L344.852 470.322C345.043 470.42 345.203 470.575 345.316 470.769C345.429 470.964 345.489 471.189 345.489 471.42C345.489 471.65 345.429 471.875 345.316 472.07C345.203 472.264 345.043 472.42 344.852 472.517L344.847 472.542Z" fill="#01226F"/>
<path d="M1 511.381H906.985" stroke="#01226F" stroke-width="2" stroke-linecap="round" stroke-linejoin="round"/>
<path d="M471.979 252.959L468.912 201.017L407.81 205.354L409.886 240.5C415.317 235.41 441.995 215.891 445.843 215.508C449.691 215.126 454.391 221.344 447.731 226.105C441.071 230.867 427.031 238.759 427.031 238.759C438.713 234.282 453.489 229.393 456.24 230.188C460.436 231.401 460.149 239.893 452.127 242.695L429.594 251.509C429.594 251.509 455.819 244.309 459.368 244.582C462.917 244.855 466.011 254.93 449.514 258.363C433.016 261.797 432.351 263.416 432.351 263.416C432.351 263.416 452.669 260.286 456.893 260.705C461.117 261.123 461.212 273.14 441.01 273.103L440.894 273.401L456.462 272.297C458.64 272.145 460.769 271.524 462.728 270.469C464.687 269.415 466.437 267.948 467.879 266.152C469.32 264.356 470.424 262.266 471.127 260.003C471.831 257.739 472.121 255.345 471.979 252.959Z" fill="#01226F"/>
</svg>
