<svg width="35" height="35" viewBox="0 0 35 35" fill="none" xmlns="http://www.w3.org/2000/svg">
<path d="M27.0304 23.6799H14.4804C13.3383 23.6718 12.2321 23.2799 11.3397 22.567C10.4474 21.8542 9.82065 20.862 9.56039 19.7499L7.56039 11.6199C7.37639 10.865 7.36696 10.0781 7.53281 9.31903C7.69867 8.55994 8.03545 7.84867 8.51754 7.23931C8.99962 6.62995 9.61432 6.13856 10.3149 5.80249C11.0154 5.46643 11.7834 5.29455 12.5604 5.29993H29.0604C29.8374 5.29455 30.6053 5.46643 31.3059 5.80249C32.0065 6.13856 32.6212 6.62995 33.1033 7.23931C33.5853 7.84867 33.9221 8.55994 34.088 9.31903C34.2538 10.0781 34.2444 10.865 34.0604 11.6199L32.0604 19.7699C31.7903 20.8959 31.1452 21.8964 30.231 22.607C29.3169 23.3176 28.1881 23.696 27.0304 23.6799ZM12.5004 7.79993C12.1051 7.80113 11.7153 7.89176 11.36 8.06502C11.0047 8.23827 10.6932 8.48967 10.4489 8.80038C10.2046 9.11109 10.0337 9.47305 9.9491 9.85916C9.8645 10.2453 9.86836 10.6455 9.96039 11.0299L11.9604 19.1799C12.0958 19.7511 12.4206 20.2596 12.8818 20.6227C13.3429 20.9858 13.9134 21.1822 14.5004 21.1799H27.0304C27.6174 21.1822 28.1879 20.9858 28.649 20.6227C29.1102 20.2596 29.4349 19.7511 29.5704 19.1799L31.5704 11.0299C31.6644 10.6454 31.6698 10.2444 31.586 9.8575C31.5022 9.47057 31.3315 9.10777 31.0867 8.79657C30.842 8.48536 30.5297 8.23391 30.1734 8.06124C29.8172 7.88857 29.4263 7.79921 29.0304 7.79993H12.5004Z" fill="#01226F"/>
<path d="M9.02 13.75C8.73442 13.7467 8.4586 13.6456 8.23846 13.4637C8.01831 13.2817 7.8671 13.0299 7.81 12.75L6.02 4.98003C5.85471 4.27222 5.45409 3.64145 4.88368 3.19094C4.31327 2.74043 3.60685 2.49684 2.88 2.50003H1.25C0.918479 2.50003 0.600537 2.36834 0.366117 2.13392C0.131696 1.8995 0 1.58156 0 1.25003C0 0.918514 0.131696 0.600572 0.366117 0.366151C0.600537 0.131731 0.918479 3.48671e-05 1.25 3.48671e-05H2.88C4.1718 -0.00447784 5.42696 0.429178 6.44046 1.23017C7.45396 2.03116 8.1659 3.15215 8.46 4.41003L10.24 12.18C10.2785 12.3396 10.285 12.5053 10.259 12.6674C10.233 12.8295 10.175 12.9849 10.0885 13.1244C10.002 13.2639 9.88862 13.3849 9.75498 13.4803C9.62134 13.5757 9.47009 13.6436 9.31 13.68C9.21604 13.7134 9.11884 13.7369 9.02 13.75ZM14.67 34.5C13.8789 34.5 13.1055 34.2654 12.4477 33.8259C11.7899 33.3864 11.2772 32.7617 10.9745 32.0308C10.6717 31.2999 10.5925 30.4956 10.7469 29.7197C10.9012 28.9437 11.2822 28.231 11.8416 27.6716C12.401 27.1122 13.1137 26.7312 13.8896 26.5769C14.6656 26.4226 15.4698 26.5018 16.2007 26.8045C16.9316 27.1073 17.5564 27.62 17.9959 28.2778C18.4354 28.9356 18.67 29.7089 18.67 30.5C18.67 31.5609 18.2486 32.5783 17.4984 33.3285C16.7483 34.0786 15.7309 34.5 14.67 34.5ZM14.67 28.96C14.3694 28.96 14.0755 29.0492 13.8255 29.2162C13.5756 29.3832 13.3807 29.6206 13.2657 29.8984C13.1507 30.1761 13.1206 30.4817 13.1792 30.7766C13.2379 31.0714 13.3826 31.3423 13.5952 31.5548C13.8078 31.7674 14.0786 31.9122 14.3735 31.9708C14.6683 32.0295 14.9739 31.9994 15.2517 31.8843C15.5294 31.7693 15.7668 31.5745 15.9338 31.3245C16.1009 31.0745 16.19 30.7807 16.19 30.48C16.19 30.0769 16.0299 29.6903 15.7448 29.4052C15.4597 29.1202 15.0731 28.96 14.67 28.96ZM28.49 34.5C27.6989 34.5 26.9255 34.2654 26.2677 33.8259C25.6099 33.3864 25.0972 32.7617 24.7945 32.0308C24.4917 31.2999 24.4125 30.4956 24.5669 29.7197C24.7212 28.9437 25.1022 28.231 25.6616 27.6716C26.221 27.1122 26.9337 26.7312 27.7096 26.5769C28.4856 26.4226 29.2898 26.5018 30.0207 26.8045C30.7516 27.1073 31.3764 27.62 31.8159 28.2778C32.2554 28.9356 32.49 29.7089 32.49 30.5C32.49 31.5609 32.0686 32.5783 31.3184 33.3285C30.5683 34.0786 29.5509 34.5 28.49 34.5ZM28.49 28.96C28.1898 28.962 27.8969 29.0528 27.6483 29.221C27.3996 29.3893 27.2064 29.6273 27.0929 29.9053C26.9793 30.1832 26.9507 30.4885 27.0104 30.7827C27.0702 31.0768 27.2158 31.3467 27.4287 31.5583C27.6417 31.7699 27.9125 31.9137 28.2071 31.9715C28.5017 32.0294 28.8068 31.9987 29.084 31.8834C29.3611 31.768 29.5979 31.5732 29.7645 31.3235C29.9311 31.0737 30.02 30.7802 30.02 30.48C30.02 30.2796 29.9804 30.0811 29.9033 29.896C29.8263 29.711 29.7135 29.543 29.5713 29.4017C29.4291 29.2604 29.2603 29.1487 29.0747 29.0729C28.8892 28.9971 28.6904 28.9587 28.49 28.96Z" fill="#01226F"/>
<path d="M28.4895 28.9599H11.8295C10.7978 28.9599 9.80832 28.5501 9.07881 27.8206C8.34929 27.0911 7.93945 26.1016 7.93945 25.0699C7.93945 24.0382 8.34929 23.0488 9.07881 22.3193C9.80832 21.5898 10.7978 21.1799 11.8295 21.1799H14.4795C14.811 21.1799 15.1289 21.3116 15.3633 21.546C15.5978 21.7805 15.7295 22.0984 15.7295 22.4299C15.7295 22.7615 15.5978 23.0794 15.3633 23.3138C15.1289 23.5482 14.811 23.6799 14.4795 23.6799H11.8295C11.4608 23.6799 11.1073 23.8264 10.8466 24.0871C10.5859 24.3477 10.4395 24.7013 10.4395 25.0699C10.4395 25.4386 10.5859 25.7921 10.8466 26.0528C11.1073 26.3135 11.4608 26.4599 11.8295 26.4599H28.4895C28.821 26.4599 29.1389 26.5916 29.3733 26.826C29.6078 27.0605 29.7395 27.3784 29.7395 27.7099C29.7395 28.0415 29.6078 28.3594 29.3733 28.5938C29.1389 28.8282 28.821 28.9599 28.4895 28.9599Z" fill="#01226F"/>
</svg>
