<svg width="600" height="399" viewBox="0 0 600 399" fill="none" xmlns="http://www.w3.org/2000/svg">
<path d="M495.352 106.17L557.956 92.8369L570.125 161.43L507.521 174.763L495.352 106.17Z" fill="#E6E3E1"/>
<path d="M551.626 115.322L507.267 125.786" stroke="#01226F" stroke-width="2" stroke-linecap="round" stroke-linejoin="round"/>
<path d="M553.215 124.423L510.406 134.525" stroke="#01226F" stroke-width="2" stroke-linecap="round" stroke-linejoin="round"/>
<path d="M555.99 133.752L523.189 141.49" stroke="#01226F" stroke-width="2" stroke-linecap="round" stroke-linejoin="round"/>
<path d="M540.872 125.794L599.309 153.781L573.766 217.809L515.329 189.822L540.872 125.794Z" fill="#E6E3E1"/>
<path d="M576.887 170.55L549.32 158.126" stroke="#01226F" stroke-width="2" stroke-linecap="round" stroke-linejoin="round"/>
<path d="M571.312 181.471L558.404 175.656" stroke="#01226F" stroke-width="2" stroke-linecap="round" stroke-linejoin="round"/>
<path d="M565.362 134.051L566.037 137.858L541.624 127.9L522.621 171.545L519.141 172.291L540.118 123.693L565.362 134.051Z" fill="white"/>
<path d="M193.255 0H-119.999V196.456C-119.999 205.44 -116.742 214.056 -110.944 220.409C-105.147 226.761 -97.2831 230.33 -89.0837 230.33H162.339C170.539 230.33 178.402 226.761 184.2 220.409C189.998 214.056 193.255 205.44 193.255 196.456V0Z" fill="#01226F"/>
<path d="M21.1405 147.923C21.1405 147.923 32.805 151.213 35.3809 139.37C35.3809 139.37 26.3409 135.02 21.1405 147.923Z" fill="white"/>
<path d="M48.0134 117.34C46.6874 118.209 45.2711 118.901 43.7948 119.401C44.5287 120.503 45.0509 121.756 45.3299 123.085C45.609 124.414 45.6389 125.791 45.4181 127.133C45.2204 128.596 44.7166 129.989 43.9459 131.203C43.1753 132.417 42.1587 133.419 40.9759 134.131C41.5445 138.018 42.5652 143.62 43.756 145.596C44.3392 146.56 44.0135 148.013 43.0269 148.833C42.0403 149.654 40.7718 149.536 40.1885 148.573C38.468 145.713 37.3016 138.646 36.7864 134.897C36.7086 134.897 36.6357 134.897 36.5628 134.865C32.4657 134.003 29.7974 129.152 30.5945 124.023C30.843 122.446 31.4275 120.956 32.3004 119.673C27.6742 118.412 23.5775 115.464 20.6846 111.312C14.3955 102.116 16.4319 89.9103 25.2386 84.0473C34.0452 78.1843 46.2784 80.8842 52.5675 90.0754C58.8566 99.2667 56.8152 111.472 48.0134 117.34Z" fill="white"/>
<path d="M92.1156 206.995L136.713 197.495L150.107 167.647L142.55 125.067L79.9456 138.401L92.1156 206.995Z" fill="#E6E3E1"/>
<path d="M132.8 144.259L96.2171 151.379" stroke="white" stroke-width="2" stroke-linecap="round" stroke-linejoin="round"/>
<path d="M133.941 151.304L97.3587 158.424" stroke="white" stroke-width="2" stroke-linecap="round" stroke-linejoin="round"/>
<path d="M134.986 158.695L113.227 162.929" stroke="white" stroke-width="2" stroke-linecap="round" stroke-linejoin="round"/>
<path d="M135.589 196.382L130.467 171.146L148.498 167.141" stroke="white" stroke-width="2" stroke-linecap="round" stroke-linejoin="round"/>
<path d="M193.255 37.2764H204.37C204.37 37.2764 216.904 175.007 300.893 158.067C384.882 141.128 561.133 109.518 567.315 240.49C573.497 371.463 478.694 300.34 478.694 300.34" stroke="#5D21D1" stroke-width="2" stroke-linecap="round" stroke-linejoin="round"/>
<path d="M195.447 32.6489H203.515C204.726 32.6489 205.707 33.7242 205.707 35.0506V39.6569C205.707 40.9833 204.726 42.0585 203.515 42.0585H195.447C194.237 42.0585 193.255 40.9833 193.255 39.6569V35.0506C193.255 33.7242 194.237 32.6489 195.447 32.6489Z" fill="#E6E3E1"/>
<path d="M470.956 298.743C466.83 295.015 465.43 271.712 482.786 281.968C500.141 292.225 487.32 307.077 478.805 303.237C470.29 299.398 470.956 298.743 470.956 298.743Z" fill="#E6E3E1"/>
<path d="M421.489 142.15C421.489 142.15 627.075 243.861 528.156 373.439" stroke="#5D21D1" stroke-width="2" stroke-linecap="round" stroke-linejoin="round"/>
<path d="M526.187 377.369C521.691 380.564 500.992 375.1 515.096 359.998C529.2 344.896 538.323 362.73 532.442 370.494C526.561 378.258 526.187 377.369 526.187 377.369Z" fill="#E6E3E1"/>
<path d="M402.608 136.314H422.19C425.747 136.314 428.63 139.473 428.63 143.37C428.63 147.267 425.747 150.426 422.19 150.426H402.608C399.052 150.426 396.169 147.267 396.169 143.37C396.169 139.473 399.052 136.314 402.608 136.314Z" fill="#E6E3E1"/>
<path d="M-65.257 258.561L-45.5489 251.803C-35.5123 248.361 -24.8293 254.485 -21.6879 265.482L-2.2065 333.678C0.934929 344.675 -4.65472 356.38 -14.6913 359.822L-34.3995 366.58C-44.4361 370.022 -55.1189 363.898 -58.2604 352.901L-77.7418 284.705C-80.8832 273.708 -75.2936 262.003 -65.257 258.561Z" fill="white" stroke="#01226F" stroke-width="2" stroke-linecap="round" stroke-linejoin="round"/>
<path d="M252.693 209.915L381.321 232.692L356.79 399.001L228.162 376.223L252.693 209.915Z" fill="#01226F"/>
<path d="M301.543 194.153L412.794 242.021L361.237 385.869L249.986 338.001L301.543 194.153Z" fill="white" stroke="#01226F" stroke-width="2" stroke-linecap="round" stroke-linejoin="round"/>
<path d="M397.641 261.414L418.209 270.264" stroke="#01226F" stroke-width="2" stroke-linecap="round" stroke-linejoin="round"/>
<path d="M389.087 285.286L409.65 294.137" stroke="#01226F" stroke-width="2" stroke-linecap="round" stroke-linejoin="round"/>
<path d="M380.527 309.165L401.096 318.01" stroke="#01226F" stroke-width="2" stroke-linecap="round" stroke-linejoin="round"/>
<path d="M371.974 333.037L392.537 341.888" stroke="#01226F" stroke-width="2" stroke-linecap="round" stroke-linejoin="round"/>
<path d="M363.415 356.91L383.979 365.761" stroke="#01226F" stroke-width="2" stroke-linecap="round" stroke-linejoin="round"/>
<path d="M374.886 271.803L335.489 254.853" stroke="#E6E3E1" stroke-width="2" stroke-linecap="round" stroke-linejoin="round"/>
<path d="M356.394 272.58L316.997 255.63" stroke="#E6E3E1" stroke-width="2" stroke-linecap="round" stroke-linejoin="round"/>
<path d="M372.013 279.306L363.993 275.855" stroke="#E6E3E1" stroke-width="2" stroke-linecap="round" stroke-linejoin="round"/>
<path d="M362.321 306.342L348.659 300.463" stroke="#E6E3E1" stroke-width="2" stroke-linecap="round" stroke-linejoin="round"/>
<path d="M365.414 297.72L341.064 287.246" stroke="#E6E3E1" stroke-width="2" stroke-linecap="round" stroke-linejoin="round"/>
<path d="M368.879 288.039L355.222 282.166" stroke="#E6E3E1" stroke-width="2" stroke-linecap="round" stroke-linejoin="round"/>
<path d="M349.185 279.567L326.468 269.795" stroke="#E6E3E1" stroke-width="2" stroke-linecap="round" stroke-linejoin="round"/>
<path d="M297.187 241.779L299.714 251.961L299.481 348.437L294.377 348.421L294.611 251.95L297.187 241.779Z" fill="#E6E3E1"/>
<path d="M299.489 345.072L290.26 345.045L290.702 321.689" stroke="#5D21D1" stroke-width="2" stroke-linecap="round" stroke-linejoin="round"/>
<path d="M295.55 257.138L298.349 257.12C299.546 257.113 300.522 258.17 300.529 259.481L300.652 282.848C300.659 284.16 299.694 285.229 298.497 285.237L295.697 285.254C294.5 285.262 293.524 284.205 293.517 282.893L293.394 259.526C293.388 258.215 294.352 257.145 295.55 257.138Z" fill="#5D21D1"/>
<path d="M296.803 311.976L297.114 324.447" stroke="#5D21D1" stroke-width="2" stroke-linecap="round" stroke-linejoin="round"/>
<path d="M322.386 219.595L323.654 230.059L311.674 325.635L306.619 324.873L318.595 229.297L322.386 219.595Z" fill="#E6E3E1"/>
<path d="M372.167 74.2018L337.72 69.1793L335.323 88.9161L369.77 93.9386C372.053 94.2715 374.364 93.597 376.193 92.0634C378.023 90.5298 379.221 88.2627 379.525 85.7609L379.629 84.9058C379.933 82.404 379.317 79.8725 377.917 77.8681C376.518 75.8636 374.448 74.5505 372.165 74.2176L372.167 74.2018Z" fill="white" stroke="#01226F" stroke-width="2" stroke-linecap="round" stroke-linejoin="round"/>
<path d="M298.902 120.557C273.791 120.557 253.435 98.2531 253.435 70.7399C253.435 43.2267 273.791 20.9229 298.902 20.9229C324.013 20.9229 344.369 43.2267 344.369 70.7399C344.369 98.2531 324.013 120.557 298.902 120.557Z" fill="white" stroke="#01226F" stroke-width="2" stroke-linecap="round" stroke-linejoin="round"/>
<path d="M298.902 105.966C281.146 105.966 266.751 90.1945 266.751 70.7397C266.751 51.2849 281.146 35.5137 298.902 35.5137C316.658 35.5137 331.052 51.2849 331.052 70.7397C331.052 90.1945 316.658 105.966 298.902 105.966Z" fill="#E6E3E1"/>
<path d="M50.3682 319.195L50.4807 265.491C50.4903 260.917 53.8817 257.217 58.0556 257.226L182.671 257.487C186.845 257.496 190.221 261.21 190.211 265.783L190.099 319.487C190.089 324.061 186.698 327.761 182.524 327.752L57.9085 327.491C53.7345 327.483 50.3586 323.768 50.3682 319.195Z" fill="#E6E3E1"/>
<path d="M55.4004 316.06V304.254H57.6896C58.0535 304.249 58.4006 304.085 58.6548 303.8C58.909 303.514 59.0495 303.13 59.0456 302.731L59.0844 280.898C59.0877 280.701 59.0554 280.505 58.9895 280.321C58.9235 280.138 58.8253 279.97 58.7003 279.828C58.5753 279.686 58.4259 279.573 58.2608 279.494C58.0958 279.415 57.9182 279.373 57.7382 279.37H55.4539V267.564C55.4344 265.943 56.003 264.381 57.0347 263.219C58.0664 262.058 59.4766 261.393 60.9556 261.371L180.001 261.637C180.737 261.645 181.464 261.813 182.14 262.131C182.817 262.448 183.429 262.91 183.942 263.488C184.455 264.066 184.858 264.75 185.128 265.5C185.399 266.249 185.531 267.051 185.518 267.857L185.43 316.353C185.44 317.156 185.306 317.953 185.035 318.698C184.764 319.444 184.362 320.124 183.851 320.699C183.34 321.274 182.73 321.733 182.057 322.05C181.384 322.367 180.661 322.536 179.928 322.546L60.8828 322.285C59.4025 322.256 57.9934 321.584 56.9654 320.416C55.9373 319.249 55.3744 317.682 55.4004 316.06V316.06Z" stroke="white" stroke-width="2" stroke-linecap="round" stroke-linejoin="round"/>
</svg>
