<svg width="1396" height="610" viewBox="0 0 1396 610" fill="none" xmlns="http://www.w3.org/2000/svg">
<path d="M-8 590L8 584L63 451H69L126 587L136 590V593H112C105.067 593 99.4 591.467 95 588.4C90.6 585.2 87.3333 581.067 85.2 576L75 552H27.2L14 584L29 590V593H-8V590ZM29.2 547H73L51 494.4L29.2 547ZM139.938 590L151.938 587V499L139.938 496V493H157.938C165.804 493 172.004 495.533 176.538 500.6C178.271 502.6 179.738 505.067 180.938 508C182.804 504.533 185.004 501.533 187.538 499C193.538 493 201.004 490 209.938 490C217.404 490 224.071 491.6 229.938 494.8C235.938 497.867 240.604 501.933 243.938 507C247.271 512.067 248.938 517.4 248.938 523V587L260.938 590V593H234.938C222.938 593 216.938 587 216.938 575V523C216.938 514.6 215.404 508.2 212.338 503.8C209.404 499.267 205.938 497 201.938 497C196.871 497 192.338 499.667 188.338 505C186.604 507.267 185.138 509.933 183.938 513V587L195.938 590V593H139.938V590ZM272.945 590L284.945 587V499L272.945 496V493H298.945C310.945 493 316.945 499 316.945 511V587L328.945 590V593H272.945V590ZM298.945 481C294.945 481 291.612 479.667 288.945 477C286.279 474.333 284.945 471 284.945 467C284.945 463 286.279 459.667 288.945 457C291.612 454.333 294.945 453 298.945 453C302.945 453 306.279 454.333 308.945 457C311.612 459.667 312.945 463 312.945 467C312.945 471 311.612 474.333 308.945 477C306.279 479.667 302.945 481 298.945 481ZM340.914 590L352.914 587V499L340.914 496V493H358.914C366.781 493 372.981 495.533 377.514 500.6C379.247 502.6 380.714 505.067 381.914 508C383.914 504.267 386.047 501.267 388.314 499C394.314 493 401.181 490 408.914 490C416.647 490 423.447 491.733 429.314 495.2C435.181 498.533 439.714 503.133 442.914 509C444.914 505.133 447.047 502 449.314 499.6C455.447 493.2 462.314 490 469.914 490C476.981 490 483.314 491.467 488.914 494.4C494.647 497.333 499.047 501.333 502.114 506.4C505.314 511.467 506.914 517 506.914 523V587L518.914 590V593H492.914C480.914 593 474.914 587 474.914 575V523C474.914 514.333 473.581 507.867 470.914 503.6C468.247 499.2 465.247 497 461.914 497C458.047 497 454.114 499.667 450.114 505C448.514 507.533 447.114 510.2 445.914 513V587L457.914 590V593H401.914V590L413.914 587V523C413.914 514.333 412.581 507.867 409.914 503.6C407.247 499.2 404.247 497 400.914 497C397.047 497 393.114 499.667 389.114 505C387.514 507.533 386.114 510.2 384.914 513V587L396.914 590V593H340.914V590ZM569.953 596C558.086 596 548.953 593.467 542.553 588.4C536.153 583.333 532.953 576.867 532.953 569C532.953 563.8 534.086 558.667 536.353 553.6C537.286 551.2 538.486 549 539.953 547C545.42 545.667 551.353 544.467 557.753 543.4C572.153 541 584.886 539.533 595.953 539V533C595.953 518.2 594.153 508 590.553 502.4C586.953 496.8 581.42 494 573.953 494C571.153 494 568.753 494.333 566.753 495L563.953 496V526L561.353 526.6C559.22 526.867 557.42 527 555.953 527C551.42 527 547.753 525.667 544.953 523C542.286 520.2 540.953 516.533 540.953 512C540.953 505.867 544.02 500.667 550.153 496.4C556.42 492.133 565.686 490 577.953 490C588.353 490 597.286 491.867 604.753 495.6C612.353 499.2 618.086 504.267 621.953 510.8C625.953 517.2 627.953 524.6 627.953 533V587L639.953 590V593H621.953C613.953 593 607.753 590.533 603.353 585.6C601.486 583.6 600.02 581.067 598.953 578C597.086 581.333 594.886 584.333 592.353 587C586.353 593 578.886 596 569.953 596ZM577.953 589C582.886 589 587.353 586.333 591.353 581C592.82 579 594.353 576.333 595.953 573V544C589.82 544 583.953 544.333 578.353 545C574.22 545.533 571.42 545.867 569.953 546C569.286 547.467 568.62 549.467 567.953 552C566.62 557.067 565.953 562.067 565.953 567C565.953 574.467 567.086 580 569.353 583.6C571.62 587.2 574.486 589 577.953 589ZM704.047 596C695.247 596 687.58 594.4 681.047 591.2C674.647 588 669.714 583.6 666.247 578C662.78 572.4 661.047 566.067 661.047 559V498H647.047V493H661.047V483C661.047 471 667.047 465 679.047 465H693.047V493H721.047V498H693.047V559C693.047 571.267 694.314 579.667 696.847 584.2C699.38 588.733 703.114 591 708.047 591C712.847 591 717.047 588.667 720.647 584C724.247 579.333 726.047 573 726.047 565H731.047C731.047 574.867 728.58 582.533 723.647 588C718.714 593.333 712.18 596 704.047 596ZM742.086 590L754.086 587V499L742.086 496V493H768.086C780.086 493 786.086 499 786.086 511V587L798.086 590V593H742.086V590ZM768.086 481C764.086 481 760.753 479.667 758.086 477C755.419 474.333 754.086 471 754.086 467C754.086 463 755.419 459.667 758.086 457C760.753 454.333 764.086 453 768.086 453C772.086 453 775.419 454.333 778.086 457C780.753 459.667 782.086 463 782.086 467C782.086 471 780.753 474.333 778.086 477C775.419 479.667 772.086 481 768.086 481ZM863.055 596C846.521 596 833.521 591.333 824.055 582C814.721 572.533 810.055 559.533 810.055 543C810.055 526.467 814.721 513.533 824.055 504.2C833.521 494.733 846.521 490 863.055 490C879.588 490 892.521 494.733 901.855 504.2C911.321 513.533 916.055 526.467 916.055 543C916.055 559.533 911.321 572.533 901.855 582C892.521 591.333 879.588 596 863.055 596ZM863.055 592C868.388 592 872.855 588.267 876.455 580.8C880.188 573.333 882.055 560.733 882.055 543C882.055 525.267 880.188 512.667 876.455 505.2C872.855 497.733 868.388 494 863.055 494C857.721 494 853.188 497.733 849.455 505.2C845.855 512.667 844.055 525.267 844.055 543C844.055 560.733 845.855 573.333 849.455 580.8C853.188 588.267 857.721 592 863.055 592ZM932.125 590L944.125 587V499L932.125 496V493H950.125C957.992 493 964.192 495.533 968.725 500.6C970.458 502.6 971.925 505.067 973.125 508C974.992 504.533 977.192 501.533 979.725 499C985.725 493 993.192 490 1002.13 490C1009.59 490 1016.26 491.6 1022.13 494.8C1028.13 497.867 1032.79 501.933 1036.13 507C1039.46 512.067 1041.13 517.4 1041.13 523V587L1053.13 590V593H1027.13C1015.13 593 1009.13 587 1009.13 575V523C1009.13 514.6 1007.59 508.2 1004.53 503.8C1001.59 499.267 998.125 497 994.125 497C989.058 497 984.525 499.667 980.525 505C978.792 507.267 977.325 509.933 976.125 513V587L988.125 590V593H932.125V590Z" fill="white" fill-opacity="0.09"/>
<path d="M482.2 130.4L485.4 129.2L496.4 102.6H497.6L509 129.8L511 130.4V131H506.2C504.813 131 503.68 130.693 502.8 130.08C501.92 129.44 501.267 128.613 500.84 127.6L498.8 122.8H489.24L486.6 129.2L489.6 130.4V131H482.2V130.4ZM489.64 121.8H498.4L494 111.28L489.64 121.8ZM511.788 130.4L514.188 129.8V112.2L511.788 111.6V111H515.388C516.961 111 518.201 111.507 519.108 112.52C519.454 112.92 519.748 113.413 519.988 114C520.361 113.307 520.801 112.707 521.308 112.2C522.508 111 524.001 110.4 525.788 110.4C527.281 110.4 528.614 110.72 529.788 111.36C530.988 111.973 531.921 112.787 532.588 113.8C533.254 114.813 533.588 115.88 533.588 117V129.8L535.988 130.4V131H530.788C528.388 131 527.188 129.8 527.188 127.4V117C527.188 115.32 526.881 114.04 526.268 113.16C525.681 112.253 524.988 111.8 524.188 111.8C523.174 111.8 522.268 112.333 521.468 113.4C521.121 113.853 520.828 114.387 520.588 115V129.8L522.988 130.4V131H511.788V130.4ZM538.389 130.4L540.789 129.8V112.2L538.389 111.6V111H543.589C545.989 111 547.189 112.2 547.189 114.6V129.8L549.589 130.4V131H538.389V130.4ZM543.589 108.6C542.789 108.6 542.122 108.333 541.589 107.8C541.056 107.267 540.789 106.6 540.789 105.8C540.789 105 541.056 104.333 541.589 103.8C542.122 103.267 542.789 103 543.589 103C544.389 103 545.056 103.267 545.589 103.8C546.122 104.333 546.389 105 546.389 105.8C546.389 106.6 546.122 107.267 545.589 107.8C545.056 108.333 544.389 108.6 543.589 108.6ZM551.983 130.4L554.383 129.8V112.2L551.983 111.6V111H555.583C557.156 111 558.396 111.507 559.303 112.52C559.649 112.92 559.943 113.413 560.183 114C560.583 113.253 561.009 112.653 561.463 112.2C562.663 111 564.036 110.4 565.583 110.4C567.129 110.4 568.489 110.747 569.663 111.44C570.836 112.107 571.743 113.027 572.383 114.2C572.783 113.427 573.209 112.8 573.663 112.32C574.889 111.04 576.263 110.4 577.783 110.4C579.196 110.4 580.463 110.693 581.583 111.28C582.729 111.867 583.609 112.667 584.223 113.68C584.863 114.693 585.183 115.8 585.183 117V129.8L587.583 130.4V131H582.383C579.983 131 578.783 129.8 578.783 127.4V117C578.783 115.267 578.516 113.973 577.983 113.12C577.449 112.24 576.849 111.8 576.183 111.8C575.409 111.8 574.623 112.333 573.823 113.4C573.503 113.907 573.223 114.44 572.983 115V129.8L575.383 130.4V131H564.183V130.4L566.583 129.8V117C566.583 115.267 566.316 113.973 565.783 113.12C565.249 112.24 564.649 111.8 563.983 111.8C563.209 111.8 562.423 112.333 561.623 113.4C561.303 113.907 561.023 114.44 560.783 115V129.8L563.183 130.4V131H551.983V130.4ZM597.791 131.6C595.417 131.6 593.591 131.093 592.311 130.08C591.031 129.067 590.391 127.773 590.391 126.2C590.391 125.16 590.617 124.133 591.071 123.12C591.257 122.64 591.497 122.2 591.791 121.8C592.884 121.533 594.071 121.293 595.351 121.08C598.231 120.6 600.777 120.307 602.991 120.2V119C602.991 116.04 602.631 114 601.911 112.88C601.191 111.76 600.084 111.2 598.591 111.2C598.031 111.2 597.551 111.267 597.151 111.4L596.591 111.6V117.6L596.071 117.72C595.644 117.773 595.284 117.8 594.991 117.8C594.084 117.8 593.351 117.533 592.791 117C592.257 116.44 591.991 115.707 591.991 114.8C591.991 113.573 592.604 112.533 593.831 111.68C595.084 110.827 596.937 110.4 599.391 110.4C601.471 110.4 603.257 110.773 604.751 111.52C606.271 112.24 607.417 113.253 608.191 114.56C608.991 115.84 609.391 117.32 609.391 119V129.8L611.791 130.4V131H608.191C606.591 131 605.351 130.507 604.471 129.52C604.097 129.12 603.804 128.613 603.591 128C603.217 128.667 602.777 129.267 602.271 129.8C601.071 131 599.577 131.6 597.791 131.6ZM599.391 130.2C600.377 130.2 601.271 129.667 602.071 128.6C602.364 128.2 602.671 127.667 602.991 127V121.2C601.764 121.2 600.591 121.267 599.471 121.4C598.644 121.507 598.084 121.573 597.791 121.6C597.657 121.893 597.524 122.293 597.391 122.8C597.124 123.813 596.991 124.813 596.991 125.8C596.991 127.293 597.217 128.4 597.671 129.12C598.124 129.84 598.697 130.2 599.391 130.2ZM624.609 131.6C622.849 131.6 621.316 131.28 620.009 130.64C618.729 130 617.743 129.12 617.049 128C616.356 126.88 616.009 125.613 616.009 124.2V112H613.209V111H616.009V109C616.009 106.6 617.209 105.4 619.609 105.4H622.409V111H628.009V112H622.409V124.2C622.409 126.653 622.663 128.333 623.169 129.24C623.676 130.147 624.423 130.6 625.409 130.6C626.369 130.6 627.209 130.133 627.929 129.2C628.649 128.267 629.009 127 629.009 125.4H630.009C630.009 127.373 629.516 128.907 628.529 130C627.543 131.067 626.236 131.6 624.609 131.6ZM632.217 130.4L634.617 129.8V112.2L632.217 111.6V111H637.417C639.817 111 641.017 112.2 641.017 114.6V129.8L643.417 130.4V131H632.217V130.4ZM637.417 108.6C636.617 108.6 635.951 108.333 635.417 107.8C634.884 107.267 634.617 106.6 634.617 105.8C634.617 105 634.884 104.333 635.417 103.8C635.951 103.267 636.617 103 637.417 103C638.217 103 638.884 103.267 639.417 103.8C639.951 104.333 640.217 105 640.217 105.8C640.217 106.6 639.951 107.267 639.417 107.8C638.884 108.333 638.217 108.6 637.417 108.6ZM656.411 131.6C653.104 131.6 650.504 130.667 648.611 128.8C646.744 126.907 645.811 124.307 645.811 121C645.811 117.693 646.744 115.107 648.611 113.24C650.504 111.347 653.104 110.4 656.411 110.4C659.718 110.4 662.304 111.347 664.171 113.24C666.064 115.107 667.011 117.693 667.011 121C667.011 124.307 666.064 126.907 664.171 128.8C662.304 130.667 659.718 131.6 656.411 131.6ZM656.411 130.8C657.478 130.8 658.371 130.053 659.091 128.56C659.838 127.067 660.211 124.547 660.211 121C660.211 117.453 659.838 114.933 659.091 113.44C658.371 111.947 657.478 111.2 656.411 111.2C655.344 111.2 654.438 111.947 653.691 113.44C652.971 114.933 652.611 117.453 652.611 121C652.611 124.547 652.971 127.067 653.691 128.56C654.438 130.053 655.344 130.8 656.411 130.8ZM670.225 130.4L672.625 129.8V112.2L670.225 111.6V111H673.825C675.398 111 676.638 111.507 677.545 112.52C677.892 112.92 678.185 113.413 678.425 114C678.798 113.307 679.238 112.707 679.745 112.2C680.945 111 682.438 110.4 684.225 110.4C685.718 110.4 687.052 110.72 688.225 111.36C689.425 111.973 690.358 112.787 691.025 113.8C691.692 114.813 692.025 115.88 692.025 117V129.8L694.425 130.4V131H689.225C686.825 131 685.625 129.8 685.625 127.4V117C685.625 115.32 685.318 114.04 684.705 113.16C684.118 112.253 683.425 111.8 682.625 111.8C681.612 111.8 680.705 112.333 679.905 113.4C679.558 113.853 679.265 114.387 679.025 115V129.8L681.425 130.4V131H670.225V130.4Z" fill="white" fill-opacity="0.09"/>
<path d="M1 82.5L7 81V17L1 15.5V14H29C40.0667 14 48 15.8333 52.8 19.5C57.6 23.1 60 28.4333 60 35.5C60 42.5667 57.6 47.9333 52.8 51.6C48 55.2 40.0667 57 29 57H23.5V81L29.5 82.5V84H1V82.5ZM29 54.5C33.2 54.5 36.5667 52.9 39.1 49.7C41.7 46.5 43 41.7667 43 35.5C43 29.3 41.7 24.6 39.1 21.4C36.5667 18.1333 33.2 16.5 29 16.5H23.5V54.5H29ZM67.4805 82.5L73.4805 81V37L67.4805 35.5V34H76.4805C80.4138 34 83.5138 35.2667 85.7805 37.8C86.6471 38.8 87.3805 40.0333 87.9805 41.5C88.9805 40.0333 90.2138 38.7 91.6805 37.5C95.0138 34.8333 98.7471 33.5 102.88 33.5C106.414 33.5 109.047 34.3333 110.78 36C112.58 37.6 113.48 39.9333 113.48 43C113.48 45.2667 112.78 47.1 111.38 48.5C110.047 49.8333 108.247 50.5 105.98 50.5C105.047 50.5 104.114 50.4333 103.18 50.3L101.98 50V36C98.5805 36 95.4805 37.3333 92.6805 40C91.3471 41.3333 90.2805 42.6667 89.4805 44V81L95.4805 82.5V84H67.4805V82.5ZM144.469 85.5C136.202 85.5 129.702 83.1667 124.969 78.5C120.302 73.7667 117.969 67.2667 117.969 59C117.969 50.7333 120.302 44.2667 124.969 39.6C129.702 34.8667 136.202 32.5 144.469 32.5C152.735 32.5 159.202 34.8667 163.869 39.6C168.602 44.2667 170.969 50.7333 170.969 59C170.969 67.2667 168.602 73.7667 163.869 78.5C159.202 83.1667 152.735 85.5 144.469 85.5ZM144.469 83.5C147.135 83.5 149.369 81.6333 151.169 77.9C153.035 74.1667 153.969 67.8667 153.969 59C153.969 50.1333 153.035 43.8333 151.169 40.1C149.369 36.3667 147.135 34.5 144.469 34.5C141.802 34.5 139.535 36.3667 137.669 40.1C135.869 43.8333 134.969 50.1333 134.969 59C134.969 67.8667 135.869 74.1667 137.669 77.9C139.535 81.6333 141.802 83.5 144.469 83.5ZM202.504 105.5C196.571 105.5 191.737 104.967 188.004 103.9C184.271 102.833 181.571 101.467 179.904 99.8C178.304 98.1333 177.504 96.3667 177.504 94.5C177.504 92.2333 178.171 90.4 179.504 89C180.904 87.6667 182.737 87 185.004 87C185.537 87 186.504 87.1 187.904 87.3L189.004 87.5V101.5C189.804 101.767 191.071 102.1 192.804 102.5C195.871 103.167 198.771 103.5 201.504 103.5C209.637 103.5 215.571 102.333 219.304 100C223.104 97.7333 225.004 94.9 225.004 91.5C225.004 87.1667 221.004 85 213.004 85H194.004C189.004 85 185.171 83.9667 182.504 81.9C179.837 79.8333 178.504 77.2 178.504 74C178.504 70.8 180.071 67.9667 183.204 65.5C184.471 64.5667 186.071 63.7333 188.004 63C185.537 61.4667 183.737 59.6667 182.604 57.6C181.537 55.4667 181.004 52.9333 181.004 50C181.004 45.0667 182.871 41.1 186.604 38.1C190.337 35.0333 195.804 33.5 203.004 33.5C206.137 33.5 209.004 33.8333 211.604 34.5C214.271 35.1 216.404 35.9333 218.004 37C218.537 35.8667 219.237 34.8667 220.104 34C222.104 32 224.571 31 227.504 31C229.771 31 231.671 31.8 233.204 33.4C234.737 34.9333 235.504 36.9667 235.504 39.5C235.504 41.4333 234.971 43 233.904 44.2C232.904 45.4 231.604 46 230.004 46C229.271 46 228.437 45.9333 227.504 45.8L226.504 45.5V33.5C224.771 33.5 223.137 34.3333 221.604 36C221.004 36.6 220.471 37.4333 220.004 38.5C223.337 41.4333 225.004 45.2667 225.004 50C225.004 54.9333 223.137 58.9333 219.404 62C215.671 65 210.204 66.5 203.004 66.5C198.204 66.5 193.871 65.6667 190.004 64L188.004 65C187.337 65.4 186.837 65.8 186.504 66.2C186.171 66.5333 186.004 66.9667 186.004 67.5C186.004 68.6333 186.571 69.5 187.704 70.1C188.904 70.7 191.004 71 194.004 71H213.004C218.004 71 221.904 72.4667 224.704 75.4C227.571 78.2667 229.004 82.3 229.004 87.5C229.004 92.8333 226.771 97.1667 222.304 100.5C217.904 103.833 211.304 105.5 202.504 105.5ZM203.004 64.5C205.204 64.5 206.904 63.4333 208.104 61.3C209.371 59.1667 210.004 55.4 210.004 50C210.004 44.6 209.371 40.8333 208.104 38.7C206.904 36.5667 205.204 35.5 203.004 35.5C200.804 35.5 199.071 36.5667 197.804 38.7C196.604 40.8333 196.004 44.6 196.004 50C196.004 55.4 196.604 59.1667 197.804 61.3C199.071 63.4333 200.804 64.5 203.004 64.5ZM239.551 82.5L245.551 81V37L239.551 35.5V34H248.551C252.484 34 255.584 35.2667 257.851 37.8C258.717 38.8 259.451 40.0333 260.051 41.5C261.051 40.0333 262.284 38.7 263.751 37.5C267.084 34.8333 270.817 33.5 274.951 33.5C278.484 33.5 281.117 34.3333 282.851 36C284.651 37.6 285.551 39.9333 285.551 43C285.551 45.2667 284.851 47.1 283.451 48.5C282.117 49.8333 280.317 50.5 278.051 50.5C277.117 50.5 276.184 50.4333 275.251 50.3L274.051 50V36C270.651 36 267.551 37.3333 264.751 40C263.417 41.3333 262.351 42.6667 261.551 44V81L267.551 82.5V84H239.551V82.5ZM307.586 85.5C301.653 85.5 297.086 84.2333 293.886 81.7C290.686 79.1667 289.086 75.9333 289.086 72C289.086 69.4 289.653 66.8333 290.786 64.3C291.253 63.1 291.853 62 292.586 61C295.319 60.3333 298.286 59.7333 301.486 59.2C308.686 58 315.053 57.2667 320.586 57V54C320.586 46.6 319.686 41.5 317.886 38.7C316.086 35.9 313.319 34.5 309.586 34.5C308.186 34.5 306.986 34.6667 305.986 35L304.586 35.5V50.5L303.286 50.8C302.219 50.9333 301.319 51 300.586 51C298.319 51 296.486 50.3333 295.086 49C293.753 47.6 293.086 45.7667 293.086 43.5C293.086 40.4333 294.619 37.8333 297.686 35.7C300.819 33.5667 305.453 32.5 311.586 32.5C316.786 32.5 321.253 33.4333 324.986 35.3C328.786 37.1 331.653 39.6333 333.586 42.9C335.586 46.1 336.586 49.8 336.586 54V81L342.586 82.5V84H333.586C329.586 84 326.486 82.7667 324.286 80.3C323.353 79.3 322.619 78.0333 322.086 76.5C321.153 78.1667 320.053 79.6667 318.786 81C315.786 84 312.053 85.5 307.586 85.5ZM311.586 82C314.053 82 316.286 80.6667 318.286 78C319.019 77 319.786 75.6667 320.586 74V59.5C317.519 59.5 314.586 59.6667 311.786 60C309.719 60.2667 308.319 60.4333 307.586 60.5C307.253 61.2333 306.919 62.2333 306.586 63.5C305.919 66.0333 305.586 68.5333 305.586 71C305.586 74.7333 306.153 77.5 307.286 79.3C308.419 81.1 309.853 82 311.586 82ZM348.633 82.5L354.633 81V37L348.633 35.5V34H357.633C361.566 34 364.666 35.2667 366.933 37.8C367.799 38.8 368.533 40.0333 369.133 41.5C370.133 39.6333 371.199 38.1333 372.333 37C375.333 34 378.766 32.5 382.633 32.5C386.499 32.5 389.899 33.3667 392.833 35.1C395.766 36.7667 398.033 39.0667 399.633 42C400.633 40.0667 401.699 38.5 402.833 37.3C405.899 34.1 409.333 32.5 413.133 32.5C416.666 32.5 419.833 33.2333 422.633 34.7C425.499 36.1667 427.699 38.1667 429.233 40.7C430.833 43.2333 431.633 46 431.633 49V81L437.633 82.5V84H424.633C418.633 84 415.633 81 415.633 75V49C415.633 44.6667 414.966 41.4333 413.633 39.3C412.299 37.1 410.799 36 409.133 36C407.199 36 405.233 37.3333 403.233 40C402.433 41.2667 401.733 42.6 401.133 44V81L407.133 82.5V84H379.133V82.5L385.133 81V49C385.133 44.6667 384.466 41.4333 383.133 39.3C381.799 37.1 380.299 36 378.633 36C376.699 36 374.733 37.3333 372.733 40C371.933 41.2667 371.233 42.6 370.633 44V81L376.633 82.5V84H348.633V82.5ZM443.652 82.5L449.652 81V37L443.652 35.5V34H452.652C456.586 34 459.686 35.2667 461.952 37.8C462.819 38.8 463.552 40.0333 464.152 41.5C465.152 39.6333 466.219 38.1333 467.352 37C470.352 34 473.786 32.5 477.652 32.5C481.519 32.5 484.919 33.3667 487.852 35.1C490.786 36.7667 493.052 39.0667 494.652 42C495.652 40.0667 496.719 38.5 497.852 37.3C500.919 34.1 504.352 32.5 508.152 32.5C511.686 32.5 514.852 33.2333 517.652 34.7C520.519 36.1667 522.719 38.1667 524.252 40.7C525.852 43.2333 526.652 46 526.652 49V81L532.652 82.5V84H519.652C513.652 84 510.652 81 510.652 75V49C510.652 44.6667 509.986 41.4333 508.652 39.3C507.319 37.1 505.819 36 504.152 36C502.219 36 500.252 37.3333 498.252 40C497.452 41.2667 496.752 42.6 496.152 44V81L502.152 82.5V84H474.152V82.5L480.152 81V49C480.152 44.6667 479.486 41.4333 478.152 39.3C476.819 37.1 475.319 36 473.652 36C471.719 36 469.752 37.3333 467.752 40C466.952 41.2667 466.252 42.6 465.652 44V81L471.652 82.5V84H443.652V82.5ZM538.672 82.5L544.672 81V37L538.672 35.5V34H551.672C557.672 34 560.672 37 560.672 43V81L566.672 82.5V84H538.672V82.5ZM551.672 28C549.672 28 548.005 27.3333 546.672 26C545.339 24.6667 544.672 23 544.672 21C544.672 19 545.339 17.3333 546.672 16C548.005 14.6667 549.672 14 551.672 14C553.672 14 555.339 14.6667 556.672 16C558.005 17.3333 558.672 19 558.672 21C558.672 23 558.005 24.6667 556.672 26C555.339 27.3333 553.672 28 551.672 28ZM572.656 82.5L578.656 81V37L572.656 35.5V34H581.656C585.59 34 588.69 35.2667 590.956 37.8C591.823 38.8 592.556 40.0333 593.156 41.5C594.09 39.7667 595.19 38.2667 596.456 37C599.456 34 603.19 32.5 607.656 32.5C611.39 32.5 614.723 33.3 617.656 34.9C620.656 36.4333 622.99 38.4667 624.656 41C626.323 43.5333 627.156 46.2 627.156 49V81L633.156 82.5V84H620.156C614.156 84 611.156 81 611.156 75V49C611.156 44.8 610.39 41.6 608.856 39.4C607.39 37.1333 605.656 36 603.656 36C601.123 36 598.856 37.3333 596.856 40C595.99 41.1333 595.256 42.4667 594.656 44V81L600.656 82.5V84H572.656V82.5ZM662.66 105.5C656.727 105.5 651.893 104.967 648.16 103.9C644.427 102.833 641.727 101.467 640.06 99.8C638.46 98.1333 637.66 96.3667 637.66 94.5C637.66 92.2333 638.327 90.4 639.66 89C641.06 87.6667 642.893 87 645.16 87C645.693 87 646.66 87.1 648.06 87.3L649.16 87.5V101.5C649.96 101.767 651.227 102.1 652.96 102.5C656.027 103.167 658.927 103.5 661.66 103.5C669.793 103.5 675.727 102.333 679.46 100C683.26 97.7333 685.16 94.9 685.16 91.5C685.16 87.1667 681.16 85 673.16 85H654.16C649.16 85 645.327 83.9667 642.66 81.9C639.993 79.8333 638.66 77.2 638.66 74C638.66 70.8 640.227 67.9667 643.36 65.5C644.627 64.5667 646.227 63.7333 648.16 63C645.693 61.4667 643.893 59.6667 642.76 57.6C641.693 55.4667 641.16 52.9333 641.16 50C641.16 45.0667 643.027 41.1 646.76 38.1C650.493 35.0333 655.96 33.5 663.16 33.5C666.293 33.5 669.16 33.8333 671.76 34.5C674.427 35.1 676.56 35.9333 678.16 37C678.693 35.8667 679.393 34.8667 680.26 34C682.26 32 684.727 31 687.66 31C689.927 31 691.827 31.8 693.36 33.4C694.893 34.9333 695.66 36.9667 695.66 39.5C695.66 41.4333 695.127 43 694.06 44.2C693.06 45.4 691.76 46 690.16 46C689.427 46 688.593 45.9333 687.66 45.8L686.66 45.5V33.5C684.927 33.5 683.293 34.3333 681.76 36C681.16 36.6 680.627 37.4333 680.16 38.5C683.493 41.4333 685.16 45.2667 685.16 50C685.16 54.9333 683.293 58.9333 679.56 62C675.827 65 670.36 66.5 663.16 66.5C658.36 66.5 654.027 65.6667 650.16 64L648.16 65C647.493 65.4 646.993 65.8 646.66 66.2C646.327 66.5333 646.16 66.9667 646.16 67.5C646.16 68.6333 646.727 69.5 647.86 70.1C649.06 70.7 651.16 71 654.16 71H673.16C678.16 71 682.06 72.4667 684.86 75.4C687.727 78.2667 689.16 82.3 689.16 87.5C689.16 92.8333 686.927 97.1667 682.46 100.5C678.06 103.833 671.46 105.5 662.66 105.5ZM663.16 64.5C665.36 64.5 667.06 63.4333 668.26 61.3C669.527 59.1667 670.16 55.4 670.16 50C670.16 44.6 669.527 40.8333 668.26 38.7C667.06 36.5667 665.36 35.5 663.16 35.5C660.96 35.5 659.227 36.5667 657.96 38.7C656.76 40.8333 656.16 44.6 656.16 50C656.16 55.4 656.76 59.1667 657.96 61.3C659.227 63.4333 660.96 64.5 663.16 64.5Z" fill="white" fill-opacity="0.09"/>
<path d="M590 413.1L593.6 412.2V373.8L590 372.9V372H605.3C612.46 372 617.94 373.84 621.74 377.52C625.58 381.2 627.5 386.36 627.5 393C627.5 399.64 625.58 404.8 621.74 408.48C617.94 412.16 612.46 414 605.3 414H590V413.1ZM605.3 412.5C609.02 412.5 611.9 411 613.94 408C615.98 404.96 617 399.96 617 393C617 386.04 615.98 381.06 613.94 378.06C611.9 375.02 609.02 373.5 605.3 373.5H603.5V412.5H605.3ZM643.991 414.9C640.431 414.9 637.691 414.14 635.771 412.62C633.851 411.1 632.891 409.16 632.891 406.8C632.891 405.24 633.231 403.7 633.911 402.18C634.191 401.46 634.551 400.8 634.991 400.2C636.631 399.8 638.411 399.44 640.331 399.12C644.651 398.4 648.471 397.96 651.791 397.8V396C651.791 391.56 651.251 388.5 650.171 386.82C649.091 385.14 647.431 384.3 645.191 384.3C644.351 384.3 643.631 384.4 643.031 384.6L642.191 384.9V393.9L641.411 394.08C640.771 394.16 640.231 394.2 639.791 394.2C638.431 394.2 637.331 393.8 636.491 393C635.691 392.16 635.291 391.06 635.291 389.7C635.291 387.86 636.211 386.3 638.051 385.02C639.931 383.74 642.711 383.1 646.391 383.1C649.511 383.1 652.191 383.66 654.431 384.78C656.711 385.86 658.431 387.38 659.591 389.34C660.791 391.26 661.391 393.48 661.391 396V412.2L664.991 413.1V414H659.591C657.191 414 655.331 413.26 654.011 411.78C653.451 411.18 653.011 410.42 652.691 409.5C652.131 410.5 651.471 411.4 650.711 412.2C648.911 414 646.671 414.9 643.991 414.9ZM646.391 412.8C647.871 412.8 649.211 412 650.411 410.4C650.851 409.8 651.311 409 651.791 408V399.3C649.951 399.3 648.191 399.4 646.511 399.6C645.271 399.76 644.431 399.86 643.991 399.9C643.791 400.34 643.591 400.94 643.391 401.7C642.991 403.22 642.791 404.72 642.791 406.2C642.791 408.44 643.131 410.1 643.811 411.18C644.491 412.26 645.351 412.8 646.391 412.8ZM684.219 414.9C681.579 414.9 679.279 414.42 677.319 413.46C675.399 412.5 673.919 411.18 672.879 409.5C671.839 407.82 671.319 405.92 671.319 403.8V385.5H667.119V384H671.319V381C671.319 377.4 673.119 375.6 676.719 375.6H680.919V384H689.319V385.5H680.919V403.8C680.919 407.48 681.299 410 682.059 411.36C682.819 412.72 683.939 413.4 685.419 413.4C686.859 413.4 688.119 412.7 689.199 411.3C690.279 409.9 690.819 408 690.819 405.6H692.319C692.319 408.56 691.579 410.86 690.099 412.5C688.619 414.1 686.659 414.9 684.219 414.9ZM706.745 414.9C703.185 414.9 700.445 414.14 698.525 412.62C696.605 411.1 695.645 409.16 695.645 406.8C695.645 405.24 695.985 403.7 696.665 402.18C696.945 401.46 697.305 400.8 697.745 400.2C699.385 399.8 701.165 399.44 703.085 399.12C707.405 398.4 711.225 397.96 714.545 397.8V396C714.545 391.56 714.005 388.5 712.925 386.82C711.845 385.14 710.185 384.3 707.945 384.3C707.105 384.3 706.385 384.4 705.785 384.6L704.945 384.9V393.9L704.165 394.08C703.525 394.16 702.985 394.2 702.545 394.2C701.185 394.2 700.085 393.8 699.245 393C698.445 392.16 698.045 391.06 698.045 389.7C698.045 387.86 698.965 386.3 700.805 385.02C702.685 383.74 705.465 383.1 709.145 383.1C712.265 383.1 714.945 383.66 717.185 384.78C719.465 385.86 721.185 387.38 722.345 389.34C723.545 391.26 724.145 393.48 724.145 396V412.2L727.745 413.1V414H722.345C719.945 414 718.085 413.26 716.765 411.78C716.205 411.18 715.765 410.42 715.445 409.5C714.885 410.5 714.225 411.4 713.465 412.2C711.665 414 709.425 414.9 706.745 414.9ZM709.145 412.8C710.625 412.8 711.965 412 713.165 410.4C713.605 409.8 714.065 409 714.545 408V399.3C712.705 399.3 710.945 399.4 709.265 399.6C708.025 399.76 707.185 399.86 706.745 399.9C706.545 400.34 706.345 400.94 706.145 401.7C705.745 403.22 705.545 404.72 705.545 406.2C705.545 408.44 705.885 410.1 706.565 411.18C707.245 412.26 708.105 412.8 709.145 412.8ZM763.489 414.9C760.649 414.9 757.989 414.26 755.509 412.98C754.389 412.42 753.449 411.76 752.689 411C752.129 411.92 751.429 412.74 750.589 413.46C749.869 413.98 749.469 414.26 749.389 414.3H747.889V402.9H750.289C750.889 404.86 751.729 406.62 752.809 408.18C755.249 411.66 758.409 413.4 762.289 413.4C764.569 413.4 766.389 412.72 767.749 411.36C769.109 410 769.789 408.18 769.789 405.9C769.789 404.58 769.389 403.4 768.589 402.36C767.829 401.32 766.869 400.4 765.709 399.6C764.549 398.8 762.929 397.8 760.849 396.6C758.209 395.12 756.069 393.78 754.429 392.58C752.789 391.38 751.389 389.88 750.229 388.08C749.069 386.24 748.489 384.08 748.489 381.6C748.489 379.64 749.029 377.88 750.109 376.32C751.229 374.72 752.889 373.46 755.089 372.54C757.289 371.58 759.989 371.1 763.189 371.1C765.509 371.1 767.829 371.76 770.149 373.08C771.029 373.56 771.909 374.2 772.789 375C773.469 373.96 774.169 373.14 774.889 372.54C775.609 372.02 776.009 371.74 776.089 371.7H777.589V383.1H775.189C774.669 381.18 773.889 379.44 772.849 377.88C771.889 376.36 770.689 375.1 769.249 374.1C767.849 373.1 766.229 372.6 764.389 372.6C762.829 372.6 761.489 373.22 760.369 374.46C759.249 375.7 758.689 377.28 758.689 379.2C758.689 380.68 759.109 382.02 759.949 383.22C760.829 384.38 761.889 385.4 763.129 386.28C764.409 387.16 766.129 388.22 768.289 389.46C770.809 390.9 772.849 392.18 774.409 393.3C775.969 394.42 777.289 395.82 778.369 397.5C779.449 399.14 779.989 401.04 779.989 403.2C779.989 405.36 779.369 407.34 778.129 409.14C776.889 410.9 775.029 412.3 772.549 413.34C770.069 414.38 767.049 414.9 763.489 414.9ZM800.073 414.9C794.953 414.9 790.973 413.5 788.133 410.7C785.293 407.86 783.873 403.96 783.873 399C783.873 394.04 785.293 390.16 788.133 387.36C790.973 384.52 794.953 383.1 800.073 383.1C803.753 383.1 806.513 383.74 808.353 385.02C810.233 386.3 811.173 387.86 811.173 389.7C811.173 391.06 810.753 392.16 809.913 393C809.113 393.8 808.033 394.2 806.673 394.2C806.113 394.2 805.553 394.16 804.993 394.08L804.273 393.9V384.9L803.433 384.6C802.833 384.4 802.113 384.3 801.273 384.3C798.993 384.3 797.213 385.38 795.933 387.54C794.693 389.7 794.073 393.52 794.073 399C794.073 404.32 794.693 408.06 795.933 410.22C797.213 412.34 798.993 413.4 801.273 413.4C802.833 413.4 804.273 413.04 805.593 412.32C806.953 411.56 808.013 410.58 808.773 409.38C809.573 408.14 809.973 406.88 809.973 405.6H811.473C811.473 407.2 810.993 408.72 810.033 410.16C809.073 411.6 807.733 412.76 806.013 413.64C804.293 414.48 802.313 414.9 800.073 414.9ZM815.689 413.1L819.289 412.2V385.8L815.689 384.9V384H823.489C827.089 384 828.889 385.8 828.889 389.4V412.2L832.489 413.1V414H815.689V413.1ZM823.489 380.4C822.289 380.4 821.289 380 820.489 379.2C819.689 378.4 819.289 377.4 819.289 376.2C819.289 375 819.689 374 820.489 373.2C821.289 372.4 822.289 372 823.489 372C824.689 372 825.689 372.4 826.489 373.2C827.289 374 827.689 375 827.689 376.2C827.689 377.4 827.289 378.4 826.489 379.2C825.689 380 824.689 380.4 823.489 380.4ZM852.28 414.9C847.16 414.9 843.18 413.5 840.34 410.7C837.5 407.86 836.08 403.96 836.08 399C836.08 395.76 836.7 392.94 837.94 390.54C839.18 388.14 840.9 386.3 843.1 385.02C845.34 383.74 847.9 383.1 850.78 383.1C853.66 383.1 856.18 383.64 858.34 384.72C860.54 385.8 862.22 387.26 863.38 389.1C864.58 390.9 865.18 392.9 865.18 395.1C865.18 396.1 865.08 396.96 864.88 397.68L864.58 398.7C862.86 399.06 861 399.36 859 399.6C854.8 400.2 850.56 400.5 846.28 400.5C846.28 405.14 846.92 408.46 848.2 410.46C849.48 412.42 851.24 413.4 853.48 413.4C855.04 413.4 856.48 413.04 857.8 412.32C859.16 411.56 860.22 410.58 860.98 409.38C861.78 408.14 862.18 406.88 862.18 405.6H863.68C863.68 407.2 863.2 408.72 862.24 410.16C861.28 411.6 859.94 412.76 858.22 413.64C856.5 414.48 854.52 414.9 852.28 414.9ZM846.28 399C848.84 399 850.92 398.9 852.52 398.7C853.2 398.66 853.92 398.56 854.68 398.4C854.72 398.2 854.82 397.76 854.98 397.08C855.18 396.08 855.28 395.02 855.28 393.9C855.28 390.58 854.84 388.16 853.96 386.64C853.08 385.08 852.02 384.3 850.78 384.3C847.78 384.3 846.28 389.2 846.28 399ZM869.654 413.1L873.254 412.2V385.8L869.654 384.9V384H875.054C877.414 384 879.274 384.76 880.634 386.28C881.154 386.88 881.594 387.62 881.954 388.5C882.514 387.46 883.174 386.56 883.934 385.8C885.734 384 887.974 383.1 890.654 383.1C892.894 383.1 894.894 383.58 896.654 384.54C898.454 385.46 899.854 386.68 900.854 388.2C901.854 389.72 902.354 391.32 902.354 393V412.2L905.954 413.1V414H898.154C894.554 414 892.754 412.2 892.754 408.6V393C892.754 390.48 892.294 388.56 891.374 387.24C890.494 385.88 889.454 385.2 888.254 385.2C886.734 385.2 885.374 386 884.174 387.6C883.654 388.28 883.214 389.08 882.854 390V412.2L886.454 413.1V414H869.654V413.1ZM925.756 414.9C920.636 414.9 916.656 413.5 913.816 410.7C910.976 407.86 909.556 403.96 909.556 399C909.556 394.04 910.976 390.16 913.816 387.36C916.656 384.52 920.636 383.1 925.756 383.1C929.436 383.1 932.196 383.74 934.036 385.02C935.916 386.3 936.856 387.86 936.856 389.7C936.856 391.06 936.436 392.16 935.596 393C934.796 393.8 933.716 394.2 932.356 394.2C931.796 394.2 931.236 394.16 930.676 394.08L929.956 393.9V384.9L929.116 384.6C928.516 384.4 927.796 384.3 926.956 384.3C924.676 384.3 922.896 385.38 921.616 387.54C920.376 389.7 919.756 393.52 919.756 399C919.756 404.32 920.376 408.06 921.616 410.22C922.896 412.34 924.676 413.4 926.956 413.4C928.516 413.4 929.956 413.04 931.276 412.32C932.636 411.56 933.696 410.58 934.456 409.38C935.256 408.14 935.656 406.88 935.656 405.6H937.156C937.156 407.2 936.676 408.72 935.716 410.16C934.756 411.6 933.416 412.76 931.696 413.64C929.976 414.48 927.996 414.9 925.756 414.9ZM957.573 414.9C952.453 414.9 948.473 413.5 945.633 410.7C942.793 407.86 941.373 403.96 941.373 399C941.373 395.76 941.993 392.94 943.233 390.54C944.473 388.14 946.193 386.3 948.393 385.02C950.633 383.74 953.193 383.1 956.073 383.1C958.953 383.1 961.473 383.64 963.633 384.72C965.833 385.8 967.513 387.26 968.673 389.1C969.873 390.9 970.473 392.9 970.473 395.1C970.473 396.1 970.373 396.96 970.173 397.68L969.873 398.7C968.153 399.06 966.293 399.36 964.293 399.6C960.093 400.2 955.853 400.5 951.573 400.5C951.573 405.14 952.213 408.46 953.493 410.46C954.773 412.42 956.533 413.4 958.773 413.4C960.333 413.4 961.773 413.04 963.093 412.32C964.453 411.56 965.513 410.58 966.273 409.38C967.073 408.14 967.473 406.88 967.473 405.6H968.973C968.973 407.2 968.493 408.72 967.533 410.16C966.573 411.6 965.233 412.76 963.513 413.64C961.793 414.48 959.813 414.9 957.573 414.9ZM951.573 399C954.133 399 956.213 398.9 957.813 398.7C958.493 398.66 959.213 398.56 959.973 398.4C960.013 398.2 960.113 397.76 960.273 397.08C960.473 396.08 960.573 395.02 960.573 393.9C960.573 390.58 960.133 388.16 959.253 386.64C958.373 385.08 957.313 384.3 956.073 384.3C953.073 384.3 951.573 389.2 951.573 399Z" fill="white" fill-opacity="0.09"/>
<path d="M780 300.5L786 299V235L780 233.5V232H807C817.133 232 824.567 233.633 829.3 236.9C834.1 240.1 836.5 244.3 836.5 249.5C836.5 253.1 835.467 256 833.4 258.2C831.333 260.4 828.7 262.033 825.5 263.1C822.1 264.3 818.433 264.933 814.5 265V265.5C819.367 265.7 823.6 266.433 827.2 267.7C830.867 268.9 833.9 270.767 836.3 273.3C838.767 275.833 840 279.067 840 283C840 288.933 837.567 293.6 832.7 297C827.833 300.333 819.933 302 809 302H780V300.5ZM807 264C809.2 264 811.233 263.4 813.1 262.2C815.033 260.933 816.567 259.2 817.7 257C818.9 254.733 819.5 252.233 819.5 249.5C819.5 246.567 818.9 243.967 817.7 241.7C816.567 239.433 815.033 237.667 813.1 236.4C811.233 235.133 809.2 234.5 807 234.5H802.5V264H807ZM809 299.5C813.133 299.5 816.5 298.033 819.1 295.1C821.7 292.167 823 288.133 823 283C823 277.867 821.7 273.833 819.1 270.9C816.5 267.967 813.133 266.5 809 266.5H802.5V299.5H809ZM870.969 303.5C867.235 303.5 863.869 302.733 860.869 301.2C857.935 299.6 855.635 297.533 853.969 295C852.302 292.467 851.469 289.8 851.469 287V255L845.469 253.5V252H858.469C864.469 252 867.469 255 867.469 261V287C867.469 291.2 868.202 294.433 869.669 296.7C871.202 298.9 872.969 300 874.969 300C877.435 300 879.669 298.667 881.669 296C882.402 295 883.169 293.667 883.969 292V255L877.969 253.5V252H905.969V253.5L899.969 255V302.5H898.969C894.102 302.5 890.402 301.167 887.869 298.5C886.735 297.3 885.935 295.967 885.469 294.5C884.535 296.167 883.435 297.667 882.169 299C879.169 302 875.435 303.5 870.969 303.5ZM935.508 303.5C931.374 303.5 927.674 302.6 924.408 300.8C922.808 299.933 921.508 299 920.508 298C919.441 299.467 918.274 300.6 917.008 301.4C916.408 301.8 915.741 302.167 915.008 302.5H912.508V285.5H916.508C917.374 288.3 918.641 290.9 920.308 293.3C923.841 298.433 928.241 301 933.508 301C936.308 301 938.408 300.333 939.808 299C941.274 297.6 942.008 295.6 942.008 293C942.008 290.8 941.008 288.967 939.008 287.5C937.074 285.967 934.008 284.1 929.808 281.9C926.208 280.1 923.274 278.5 921.008 277.1C918.808 275.633 916.908 273.833 915.308 271.7C913.774 269.5 913.008 266.933 913.008 264C913.008 260 914.708 256.767 918.108 254.3C921.574 251.767 926.874 250.5 934.008 250.5C937.541 250.5 940.808 251.433 943.808 253.3C945.274 254.167 946.541 255.067 947.608 256C948.474 254.8 949.641 253.667 951.108 252.6C952.241 251.933 952.908 251.567 953.108 251.5H955.608V268.5H951.608C950.608 265.633 949.374 263.067 947.908 260.8C944.574 255.6 940.608 253 936.008 253C934.208 253 932.674 253.667 931.408 255C930.141 256.333 929.508 258 929.508 260C929.508 262.533 930.574 264.667 932.708 266.4C934.841 268.067 938.074 270 942.408 272.2C945.941 274 948.741 275.6 950.808 277C952.941 278.333 954.741 280 956.208 282C957.741 284 958.508 286.333 958.508 289C958.508 298.667 950.841 303.5 935.508 303.5ZM966.012 300.5L972.012 299V255L966.012 253.5V252H979.012C985.012 252 988.012 255 988.012 261V299L994.012 300.5V302H966.012V300.5ZM979.012 246C977.012 246 975.345 245.333 974.012 244C972.678 242.667 972.012 241 972.012 239C972.012 237 972.678 235.333 974.012 234C975.345 232.667 977.012 232 979.012 232C981.012 232 982.678 232.667 984.012 234C985.345 235.333 986.012 237 986.012 239C986.012 241 985.345 242.667 984.012 244C982.678 245.333 981.012 246 979.012 246ZM999.996 300.5L1006 299V255L999.996 253.5V252H1009C1012.93 252 1016.03 253.267 1018.3 255.8C1019.16 256.8 1019.9 258.033 1020.5 259.5C1021.43 257.767 1022.53 256.267 1023.8 255C1026.8 252 1030.53 250.5 1035 250.5C1038.73 250.5 1042.06 251.3 1045 252.9C1048 254.433 1050.33 256.467 1052 259C1053.66 261.533 1054.5 264.2 1054.5 267V299L1060.5 300.5V302H1047.5C1041.5 302 1038.5 299 1038.5 293V267C1038.5 262.8 1037.73 259.6 1036.2 257.4C1034.73 255.133 1033 254 1031 254C1028.46 254 1026.2 255.333 1024.2 258C1023.33 259.133 1022.6 260.467 1022 262V299L1028 300.5V302H999.996V300.5ZM1093.5 303.5C1084.97 303.5 1078.33 301.167 1073.6 296.5C1068.87 291.767 1066.5 285.267 1066.5 277C1066.5 271.6 1067.53 266.9 1069.6 262.9C1071.67 258.9 1074.53 255.833 1078.2 253.7C1081.93 251.567 1086.2 250.5 1091 250.5C1095.8 250.5 1100 251.4 1103.6 253.2C1107.27 255 1110.07 257.433 1112 260.5C1114 263.5 1115 266.833 1115 270.5C1115 272.167 1114.83 273.6 1114.5 274.8L1114 276.5C1111.13 277.1 1108.03 277.6 1104.7 278C1097.7 279 1090.63 279.5 1083.5 279.5C1083.5 287.233 1084.57 292.767 1086.7 296.1C1088.83 299.367 1091.77 301 1095.5 301C1098.1 301 1100.5 300.4 1102.7 299.2C1104.97 297.933 1106.73 296.3 1108 294.3C1109.33 292.233 1110 290.133 1110 288H1112.5C1112.5 290.667 1111.7 293.2 1110.1 295.6C1108.5 298 1106.27 299.933 1103.4 301.4C1100.53 302.8 1097.23 303.5 1093.5 303.5ZM1083.5 277C1087.77 277 1091.23 276.833 1093.9 276.5C1095.03 276.433 1096.23 276.267 1097.5 276C1097.57 275.667 1097.73 274.933 1098 273.8C1098.33 272.133 1098.5 270.367 1098.5 268.5C1098.5 262.967 1097.77 258.933 1096.3 256.4C1094.83 253.8 1093.07 252.5 1091 252.5C1086 252.5 1083.5 260.667 1083.5 277ZM1145.96 303.5C1141.82 303.5 1138.12 302.6 1134.86 300.8C1133.26 299.933 1131.96 299 1130.96 298C1129.89 299.467 1128.72 300.6 1127.46 301.4C1126.86 301.8 1126.19 302.167 1125.46 302.5H1122.96V285.5H1126.96C1127.82 288.3 1129.09 290.9 1130.76 293.3C1134.29 298.433 1138.69 301 1143.96 301C1146.76 301 1148.86 300.333 1150.26 299C1151.72 297.6 1152.46 295.6 1152.46 293C1152.46 290.8 1151.46 288.967 1149.46 287.5C1147.52 285.967 1144.46 284.1 1140.26 281.9C1136.66 280.1 1133.72 278.5 1131.46 277.1C1129.26 275.633 1127.36 273.833 1125.76 271.7C1124.22 269.5 1123.46 266.933 1123.46 264C1123.46 260 1125.16 256.767 1128.56 254.3C1132.02 251.767 1137.32 250.5 1144.46 250.5C1147.99 250.5 1151.26 251.433 1154.26 253.3C1155.72 254.167 1156.99 255.067 1158.06 256C1158.92 254.8 1160.09 253.667 1161.56 252.6C1162.69 251.933 1163.36 251.567 1163.56 251.5H1166.06V268.5H1162.06C1161.06 265.633 1159.82 263.067 1158.36 260.8C1155.02 255.6 1151.06 253 1146.46 253C1144.66 253 1143.12 253.667 1141.86 255C1140.59 256.333 1139.96 258 1139.96 260C1139.96 262.533 1141.02 264.667 1143.16 266.4C1145.29 268.067 1148.52 270 1152.86 272.2C1156.39 274 1159.19 275.6 1161.26 277C1163.39 278.333 1165.19 280 1166.66 282C1168.19 284 1168.96 286.333 1168.96 289C1168.96 298.667 1161.29 303.5 1145.96 303.5ZM1199.96 303.5C1195.83 303.5 1192.13 302.6 1188.86 300.8C1187.26 299.933 1185.96 299 1184.96 298C1183.89 299.467 1182.73 300.6 1181.46 301.4C1180.86 301.8 1180.19 302.167 1179.46 302.5H1176.96V285.5H1180.96C1181.83 288.3 1183.09 290.9 1184.76 293.3C1188.29 298.433 1192.69 301 1197.96 301C1200.76 301 1202.86 300.333 1204.26 299C1205.73 297.6 1206.46 295.6 1206.46 293C1206.46 290.8 1205.46 288.967 1203.46 287.5C1201.53 285.967 1198.46 284.1 1194.26 281.9C1190.66 280.1 1187.73 278.5 1185.46 277.1C1183.26 275.633 1181.36 273.833 1179.76 271.7C1178.23 269.5 1177.46 266.933 1177.46 264C1177.46 260 1179.16 256.767 1182.56 254.3C1186.03 251.767 1191.33 250.5 1198.46 250.5C1201.99 250.5 1205.26 251.433 1208.26 253.3C1209.73 254.167 1210.99 255.067 1212.06 256C1212.93 254.8 1214.09 253.667 1215.56 252.6C1216.69 251.933 1217.36 251.567 1217.56 251.5H1220.06V268.5H1216.06C1215.06 265.633 1213.83 263.067 1212.36 260.8C1209.03 255.6 1205.06 253 1200.46 253C1198.66 253 1197.13 253.667 1195.86 255C1194.59 256.333 1193.96 258 1193.96 260C1193.96 262.533 1195.03 264.667 1197.16 266.4C1199.29 268.067 1202.53 270 1206.86 272.2C1210.39 274 1213.19 275.6 1215.26 277C1217.39 278.333 1219.19 280 1220.66 282C1222.19 284 1222.96 286.333 1222.96 289C1222.96 298.667 1215.29 303.5 1199.96 303.5Z" fill="white" fill-opacity="0.09"/>
<path d="M759.4 128.8L765.8 126.4L787.8 73.2H790.2L813 127.6L817 128.8V130H807.4C804.627 130 802.36 129.387 800.6 128.16C798.84 126.88 797.533 125.227 796.68 123.2L792.6 113.6H773.48L768.2 126.4L774.2 128.8V130H759.4V128.8ZM774.28 111.6H791.8L783 90.56L774.28 111.6ZM818.575 128.8L823.375 127.6V92.4L818.575 91.2V90H825.775C828.922 90 831.402 91.0133 833.215 93.04C833.908 93.84 834.495 94.8267 834.975 96C835.775 94.8267 836.762 93.76 837.935 92.8C840.602 90.6667 843.588 89.6 846.895 89.6C849.722 89.6 851.828 90.2667 853.215 91.6C854.655 92.88 855.375 94.7467 855.375 97.2C855.375 99.0133 854.815 100.48 853.695 101.6C852.628 102.667 851.188 103.2 849.375 103.2C848.628 103.2 847.882 103.147 847.135 103.04L846.175 102.8V91.6C843.455 91.6 840.975 92.6667 838.735 94.8C837.668 95.8667 836.815 96.9333 836.175 98V127.6L840.975 128.8V130H818.575V128.8ZM880.547 131.2C877.027 131.2 873.96 130.56 871.347 129.28C868.787 128 866.814 126.24 865.427 124C864.04 121.76 863.347 119.227 863.347 116.4V92H857.747V90H863.347V86C863.347 81.2 865.747 78.8 870.547 78.8H876.147V90H887.347V92H876.147V116.4C876.147 121.307 876.654 124.667 877.667 126.48C878.68 128.293 880.174 129.2 882.147 129.2C884.067 129.2 885.747 128.267 887.187 126.4C888.627 124.533 889.347 122 889.347 118.8H891.347C891.347 122.747 890.36 125.813 888.387 128C886.414 130.133 883.8 131.2 880.547 131.2ZM914.563 131.2C911.256 131.2 908.296 130.48 905.683 129.04C904.403 128.347 903.363 127.6 902.562 126.8C901.709 127.973 900.776 128.88 899.763 129.52C899.283 129.84 898.749 130.133 898.163 130.4H896.163V116.8H899.363C900.056 119.04 901.069 121.12 902.403 123.04C905.229 127.147 908.749 129.2 912.963 129.2C915.203 129.2 916.883 128.667 918.003 127.6C919.176 126.48 919.763 124.88 919.763 122.8C919.763 121.04 918.963 119.573 917.363 118.4C915.816 117.173 913.363 115.68 910.003 113.92C907.123 112.48 904.776 111.2 902.963 110.08C901.203 108.907 899.683 107.467 898.403 105.76C897.176 104 896.563 101.947 896.563 99.6C896.563 96.4 897.923 93.8133 900.643 91.84C903.416 89.8133 907.656 88.8 913.363 88.8C916.189 88.8 918.803 89.5467 921.203 91.04C922.376 91.7333 923.389 92.4533 924.243 93.2C924.936 92.24 925.869 91.3333 927.043 90.48C927.949 89.9467 928.483 89.6533 928.643 89.6H930.643V103.2H927.443C926.643 100.907 925.656 98.8533 924.483 97.04C921.816 92.88 918.643 90.8 914.963 90.8C913.523 90.8 912.296 91.3333 911.283 92.4C910.269 93.4667 909.763 94.8 909.763 96.4C909.763 98.4267 910.616 100.133 912.323 101.52C914.029 102.853 916.616 104.4 920.083 106.16C922.909 107.6 925.149 108.88 926.803 110C928.509 111.067 929.949 112.4 931.123 114C932.349 115.6 932.962 117.467 932.962 119.6C932.962 127.333 926.829 131.2 914.563 131.2Z" fill="white" fill-opacity="0.09"/>
<path d="M50 193.8L54.8 192.6V141.4L50 140.2V139H72.8V140.2L68 141.4V193H85.2C85.2 189.64 86.0533 186.52 87.76 183.64C88.5067 182.413 89.3867 181.4 90.4 180.6H92.8V195H50V193.8ZM98.0281 193.8L102.828 192.6V157.4L98.0281 156.2V155H108.428C113.228 155 115.628 157.4 115.628 162.2V192.6L120.428 193.8V195H98.0281V193.8ZM108.428 150.2C106.828 150.2 105.495 149.667 104.428 148.6C103.361 147.533 102.828 146.2 102.828 144.6C102.828 143 103.361 141.667 104.428 140.6C105.495 139.533 106.828 139 108.428 139C110.028 139 111.361 139.533 112.428 140.6C113.495 141.667 114.028 143 114.028 144.6C114.028 146.2 113.495 147.533 112.428 148.6C111.361 149.667 110.028 150.2 108.428 150.2ZM124.816 193.8L129.616 192.6V158.6H124.016V156.6H129.616V152.6C129.616 149.773 130.282 147.24 131.616 145C133.002 142.76 134.949 141 137.456 139.72C140.016 138.44 143.002 137.8 146.416 137.8C149.189 137.8 151.562 138.227 153.536 139.08C155.562 139.88 157.082 140.973 158.096 142.36C159.109 143.693 159.616 145.107 159.616 146.6C159.616 148.413 159.056 149.88 157.936 151C156.869 152.067 155.429 152.6 153.616 152.6C152.869 152.6 152.122 152.547 151.376 152.44L150.416 152.2V139.8L149.696 139.64C149.482 139.587 149.242 139.533 148.976 139.48C148.709 139.427 148.389 139.4 148.016 139.4C146.202 139.4 144.816 140.36 143.856 142.28C142.896 144.147 142.416 147.587 142.416 152.6V156.6H155.216V158.6H142.416V192.6L147.216 193.8V195H124.816V193.8ZM179.238 196.2C172.411 196.2 167.104 194.333 163.318 190.6C159.531 186.813 157.638 181.613 157.638 175C157.638 170.68 158.464 166.92 160.118 163.72C161.771 160.52 164.064 158.067 166.998 156.36C169.984 154.653 173.398 153.8 177.238 153.8C181.078 153.8 184.438 154.52 187.318 155.96C190.251 157.4 192.491 159.347 194.038 161.8C195.638 164.2 196.438 166.867 196.438 169.8C196.438 171.133 196.304 172.28 196.038 173.24L195.638 174.6C193.344 175.08 190.864 175.48 188.198 175.8C182.598 176.6 176.944 177 171.238 177C171.238 183.187 172.091 187.613 173.798 190.28C175.504 192.893 177.851 194.2 180.838 194.2C182.918 194.2 184.838 193.72 186.598 192.76C188.411 191.747 189.824 190.44 190.838 188.84C191.904 187.187 192.438 185.507 192.438 183.8H194.438C194.438 185.933 193.798 187.96 192.518 189.88C191.238 191.8 189.451 193.347 187.158 194.52C184.864 195.64 182.224 196.2 179.238 196.2ZM171.238 175C174.651 175 177.424 174.867 179.558 174.6C180.464 174.547 181.424 174.413 182.438 174.2C182.491 173.933 182.624 173.347 182.838 172.44C183.104 171.107 183.238 169.693 183.238 168.2C183.238 163.773 182.651 160.547 181.478 158.52C180.304 156.44 178.891 155.4 177.238 155.4C173.238 155.4 171.238 161.933 171.238 175ZM221.203 196.2C217.896 196.2 214.936 195.48 212.323 194.04C211.043 193.347 210.003 192.6 209.203 191.8C208.35 192.973 207.416 193.88 206.403 194.52C205.923 194.84 205.39 195.133 204.803 195.4H202.803V181.8H206.003C206.696 184.04 207.71 186.12 209.043 188.04C211.87 192.147 215.39 194.2 219.603 194.2C221.843 194.2 223.523 193.667 224.643 192.6C225.816 191.48 226.403 189.88 226.403 187.8C226.403 186.04 225.603 184.573 224.003 183.4C222.456 182.173 220.003 180.68 216.643 178.92C213.763 177.48 211.416 176.2 209.603 175.08C207.843 173.907 206.323 172.467 205.043 170.76C203.816 169 203.203 166.947 203.203 164.6C203.203 161.4 204.563 158.813 207.283 156.84C210.056 154.813 214.296 153.8 220.003 153.8C222.83 153.8 225.443 154.547 227.843 156.04C229.016 156.733 230.03 157.453 230.883 158.2C231.576 157.24 232.51 156.333 233.683 155.48C234.59 154.947 235.123 154.653 235.283 154.6H237.283V168.2H234.083C233.283 165.907 232.296 163.853 231.123 162.04C228.456 157.88 225.283 155.8 221.603 155.8C220.163 155.8 218.936 156.333 217.923 157.4C216.91 158.467 216.403 159.8 216.403 161.4C216.403 163.427 217.256 165.133 218.963 166.52C220.67 167.853 223.256 169.4 226.723 171.16C229.55 172.6 231.79 173.88 233.443 175C235.15 176.067 236.59 177.4 237.763 179C238.99 180.6 239.603 182.467 239.603 184.6C239.603 192.333 233.47 196.2 221.203 196.2ZM266.406 196.2C262.886 196.2 259.82 195.56 257.206 194.28C254.646 193 252.673 191.24 251.286 189C249.9 186.76 249.206 184.227 249.206 181.4V157H243.606V155H249.206V151C249.206 146.2 251.606 143.8 256.406 143.8H262.006V155H273.206V157H262.006V181.4C262.006 186.307 262.513 189.667 263.526 191.48C264.54 193.293 266.033 194.2 268.006 194.2C269.926 194.2 271.606 193.267 273.046 191.4C274.486 189.533 275.206 187 275.206 183.8H277.206C277.206 187.747 276.22 190.813 274.246 193C272.273 195.133 269.66 196.2 266.406 196.2ZM288.859 212.2C286.459 212.2 284.593 211.56 283.259 210.28C281.926 209 281.259 207.24 281.259 205C281.259 202.973 281.793 201.4 282.859 200.28C283.979 199.16 285.446 198.6 287.259 198.6C287.686 198.6 288.113 198.627 288.539 198.68C288.966 198.787 289.259 198.84 289.419 198.84L290.459 199V209.8C292.006 209.533 293.366 208.68 294.539 207.24C295.713 205.8 297.019 203.32 298.459 199.8L300.059 195.8L279.259 157.4L275.259 156.2V155H285.259C288.033 155 290.219 155.587 291.819 156.76C293.473 157.88 294.886 159.56 296.059 161.8L306.059 180.28L314.459 158.6L308.459 156.2V155H323.259V156.2L316.859 158.6L300.859 199.8C299.153 204.173 297.339 207.32 295.419 209.24C293.499 211.213 291.313 212.2 288.859 212.2ZM323.263 193.8L328.063 192.6V141.4L323.263 140.2V139H333.663C338.463 139 340.863 141.4 340.863 146.2V192.6L345.663 193.8V195H323.263V193.8ZM372.05 196.2C365.223 196.2 359.917 194.333 356.13 190.6C352.343 186.813 350.45 181.613 350.45 175C350.45 170.68 351.277 166.92 352.93 163.72C354.583 160.52 356.877 158.067 359.81 156.36C362.797 154.653 366.21 153.8 370.05 153.8C373.89 153.8 377.25 154.52 380.13 155.96C383.063 157.4 385.303 159.347 386.85 161.8C388.45 164.2 389.25 166.867 389.25 169.8C389.25 171.133 389.117 172.28 388.85 173.24L388.45 174.6C386.157 175.08 383.677 175.48 381.01 175.8C375.41 176.6 369.757 177 364.05 177C364.05 183.187 364.903 187.613 366.61 190.28C368.317 192.893 370.663 194.2 373.65 194.2C375.73 194.2 377.65 193.72 379.41 192.76C381.223 191.747 382.637 190.44 383.65 188.84C384.717 187.187 385.25 185.507 385.25 183.8H387.25C387.25 185.933 386.61 187.96 385.33 189.88C384.05 191.8 382.263 193.347 379.97 194.52C377.677 195.64 375.037 196.2 372.05 196.2ZM364.05 175C367.463 175 370.237 174.867 372.37 174.6C373.277 174.547 374.237 174.413 375.25 174.2C375.303 173.933 375.437 173.347 375.65 172.44C375.917 171.107 376.05 169.693 376.05 168.2C376.05 163.773 375.463 160.547 374.29 158.52C373.117 156.44 371.703 155.4 370.05 155.4C366.05 155.4 364.05 161.933 364.05 175Z" fill="white" fill-opacity="0.09"/>
</svg>
