<svg width="180" height="256" viewBox="0 0 180 256" fill="none" xmlns="http://www.w3.org/2000/svg">
<path d="M105.803 88.5852C101.629 86.0961 96.8461 85.2374 94.7483 84.9222C94.0852 87.6504 92.6939 89.1722 89.6287 89.1722C86.5091 89.1722 85.433 87.607 84.8461 84.8026C84.2156 84.8244 82.2809 85.2157 81.8461 85.3135C76.183 86.4113 73.8896 87.8787 71.0309 89.9983C66.6613 93.27 62.3896 100.053 61.4657 101.585C61.3461 101.781 61.3461 102.02 61.4657 102.216C61.9765 102.998 63.3896 105.02 65.4222 106.335C68.2483 108.216 71.6178 109.237 71.6178 109.237C71.6178 109.237 72.9874 106.748 73.3787 105.792C73.9113 104.542 75.3352 100.346 75.3352 100.346C75.3352 100.346 74.0417 103.15 73.9439 106.053C73.8678 108.716 74.77 111.716 74.7048 113.477C74.5091 117.498 73.3135 120.966 72.9004 122.531C72.8026 122.9 73.02 123.292 73.4113 123.357C75.5852 123.846 82.0743 125.313 88.6613 125.281C97.2265 125.281 103.107 124.357 105.183 124.031C105.574 123.955 105.813 123.596 105.716 123.205C105.379 121.835 104.792 119.498 104.205 114.27C103.737 110.172 104.227 109.39 104.205 106.509C104.205 104.39 103.324 100.14 103.324 100.14L104.15 108.237C104.15 108.237 107.15 108.379 111.444 106.509C112.933 105.846 114.813 104.161 115.596 103.411C115.813 103.194 115.89 102.846 115.737 102.585C114.661 100.368 109.911 91.02 105.803 88.5852Z" fill="white"/>
<path d="M157.716 108.955L150.107 108.933C147.521 108.911 145.401 107.324 145.368 105.422V104.759C145.347 102.857 147.423 101.313 149.977 101.346L157.586 101.368C160.173 101.39 162.292 102.977 162.325 104.879V105.542C162.347 107.444 160.281 108.977 157.716 108.955Z" fill="#FCB58A"/>
<path d="M25.6615 108.52L18.0528 108.498C15.4658 108.476 13.3463 106.89 13.3136 104.987V104.324C13.2919 102.422 15.368 100.879 17.9223 100.911L25.531 100.933C28.118 100.955 30.2376 102.542 30.2702 104.444V105.107C30.3028 107.009 28.2267 108.542 25.6615 108.52Z" fill="#FCB58A"/>
<path d="M66.9327 221.585C66.6392 225.465 66.3457 229.346 66.0305 233.226C65.8349 235.813 68.8566 237.889 71.3783 237.77C74.4001 237.628 76.0414 235.302 76.237 232.694C76.5305 228.813 76.824 224.933 77.1392 221.052C77.3349 218.465 74.3131 216.389 71.7914 216.509C68.7588 216.65 67.1501 218.965 66.9327 221.585Z" fill="#FCB58A"/>
<path d="M104.096 222.802C104.705 226.629 105.313 230.487 105.922 234.324C106.335 236.889 109.748 238.205 112.172 237.498C115.074 236.639 116.129 234.031 115.715 231.444C115.107 227.618 114.498 223.759 113.889 219.922C113.476 217.357 110.063 216.042 107.639 216.748C104.737 217.607 103.683 220.216 104.096 222.802Z" fill="#FCB58A"/>
<path d="M25.8573 217.02C16.4116 217.02 8.72682 216.139 8.45508 215.063L9.84638 231.531C9.84638 239.335 17.042 245.737 25.8573 245.737C34.6725 245.737 41.8681 239.346 41.8681 231.531L43.2594 215.031C43.0638 216.139 35.3573 217.02 25.8573 217.02Z" fill="#DEC7B2"/>
<path d="M25.8582 217.02C16.2713 217.02 8.47779 216.118 8.45605 215.02V214.998C8.53214 213.9 16.293 212.998 25.8582 212.998C35.4234 212.998 43.1843 213.9 43.2604 214.998V215.02C43.2061 216.118 35.4452 217.02 25.8582 217.02Z" fill="#E8D4C1"/>
<path d="M25.8584 216.672C17.7823 216.672 11.2171 215.911 11.1953 214.966V214.944C11.2714 214.02 17.804 213.259 25.8584 213.259C33.9344 213.259 40.4779 214.02 40.5214 214.944V214.966C40.4997 215.922 33.9344 216.672 25.8584 216.672Z" fill="#BA9C7E"/>
<path d="M9.04297 222.118C10.1625 222.139 11.2604 222.585 12.2169 223.509C13.9995 225.237 15.1191 227.9 16.5647 229.922C17.0973 228.824 17.5864 227.705 17.9995 226.552C18.5104 225.183 20.3473 223.922 21.7821 225.02C23.3147 226.215 24.4669 227.552 25.4669 229.216C26.3256 230.65 27.0321 232.368 28.3691 233.433C29.6625 234.487 31.1299 234.77 31.6625 232.922C32.1299 231.292 31.956 229.552 32.4886 227.922C32.9234 226.552 33.6082 225.161 34.9995 224.552C36.6299 223.846 38.2169 224.726 39.6843 225.455C40.5647 225.889 41.4125 226.357 42.2495 226.868L41.956 230.335C40.4669 229.411 38.6408 228.259 37.0973 228.042C36.1191 227.9 36.1951 228.552 36.1191 229.455C36.0756 230.259 36.0756 231.085 36.0212 231.9C35.9234 233.563 35.6843 235.216 34.706 236.585C32.6082 239.542 28.6734 239.389 25.9234 237.509C24.4343 236.509 23.3582 235.194 22.4125 233.683C22.0973 233.194 21.8038 232.683 21.4886 232.172C20.293 234.933 18.4886 237.422 15.4886 236.368C13.6299 235.705 12.4125 233.683 11.3147 232.172C10.9778 231.705 10.3364 230.563 9.70601 229.542L9.04297 222.118Z" fill="#EBDBCD"/>
<path d="M2.23842 160.715C2.60799 159.302 4.26016 159.085 5.23842 159.911C7.09712 161.476 8.06451 163.618 9.09712 165.748C10.1732 167.998 11.4884 170.042 13.021 171.976C16.1406 175.955 19.608 179.639 21.8797 184.205C26.2928 193.042 27.3689 203.433 24.3254 212.879C24.2276 213.172 24.8145 211.683 23.858 214.292C22.9993 216.661 19.6406 215.389 19.6623 212.629C19.6841 209.922 18.9776 207.411 17.7819 205.02C15.4123 200.259 12.4341 195.824 10.1189 191.042C7.77103 186.205 5.72755 181.226 4.06451 176.129C2.45582 171.161 0.923207 165.911 2.23842 160.715Z" fill="#4C7378"/>
<path d="M23.9556 133.02C25.1512 130.846 28.6404 132.313 27.9556 134.705C25.9012 141.683 27.3686 149.074 28.6404 156.063C29.9339 163.194 31.4447 170.27 32.3252 177.466C33.8904 190.226 33.3795 204.574 25.2926 215.27C24.4121 216.422 22.586 215.466 23.3143 214.096C24.1186 212.585 22.0969 202.629 21.1947 199.455C20.2926 196.161 19.3686 192.889 18.5643 189.574C16.9556 183.107 15.6404 176.52 15.2926 169.857C14.5643 156.889 17.7599 144.346 23.9556 133.02Z" fill="#57848A"/>
<path d="M27.8139 204.009C28.7704 199.661 28.0531 195.052 28.9878 190.737C29.89 186.487 31.14 182.194 33.1074 178.313C34.9878 174.628 37.8683 172.02 41.2378 169.726C44.4118 167.574 48.1726 165.455 49.2922 161.531C49.9552 159.183 53.9335 159.531 53.6835 162.118C53.1509 167.389 50.9226 172.031 48.3357 176.585C45.5748 181.422 43.1618 186.052 41.8248 191.498C39.5096 200.824 37.5096 212.9 26.89 215.759C25.5857 216.096 25.7596 213.313 27.8139 204.009Z" fill="#689399"/>
<path d="M25.5427 109.563C33.2819 113.52 41.108 115.791 49.8688 115.617C58.0645 115.444 66.0536 113.248 70.6623 105.9C73.7167 101.02 65.9993 96.5305 62.9558 101.389C59.8362 106.367 53.608 106.737 48.2927 106.683C41.7058 106.639 35.8688 104.824 30.0645 101.846C24.9558 99.2479 20.4123 106.954 25.5427 109.563Z" fill="#FCB58A"/>
<path d="M144.608 101.857C138.771 104.835 132.967 106.64 126.38 106.694C120.771 106.737 115.695 106.107 112.521 100.987C109.499 96.1069 101.782 100.596 104.814 105.498C106.793 108.694 109.477 111.498 112.847 113.183C116.63 115.085 120.608 115.531 124.782 115.629C133.543 115.803 141.38 113.531 149.108 109.574C154.227 106.955 149.706 99.2482 144.608 101.857Z" fill="#FCB58A"/>
<path d="M171.651 138.194L168.597 154.813L155.249 143.781L171.651 138.194Z" fill="#D4BFA9"/>
<path d="M51.2915 18.3241C56.238 18.3241 60.248 14.3141 60.248 9.36753C60.248 4.42098 56.238 0.411011 51.2915 0.411011C46.3449 0.411011 42.335 4.42098 42.335 9.36753C42.335 14.3141 46.3449 18.3241 51.2915 18.3241Z" fill="#EBDBCD"/>
<path d="M59.8023 27.346C59.7263 27.346 59.661 27.3025 59.6067 27.2264C59.5632 27.1286 59.6067 27.009 59.7045 26.9547L60.6284 26.5416L60.2154 25.6177C60.1719 25.5199 60.2154 25.4003 60.3132 25.346C60.411 25.3025 60.5306 25.346 60.585 25.4438L61.1502 26.759L59.835 27.3242C59.8567 27.346 59.8241 27.346 59.8023 27.346Z" fill="#110580"/>
<path d="M40.7701 35.672C40.694 35.672 40.6288 35.6285 40.5745 35.5524C40.531 35.4546 40.5745 35.335 40.6723 35.2807L43.0636 34.2263C43.1614 34.1828 43.281 34.2263 43.3353 34.3242C43.3788 34.422 43.3353 34.5415 43.2375 34.5959L40.8462 35.6502C40.8136 35.672 40.7919 35.672 40.7701 35.672ZM45.531 33.5959C45.4549 33.5959 45.3897 33.5524 45.3353 33.4763C45.2919 33.3785 45.3353 33.2589 45.4332 33.2046L47.8245 32.1502C47.9223 32.1068 48.0419 32.1502 48.0962 32.2481C48.1397 32.3459 48.0962 32.4655 47.9984 32.5198L45.6071 33.5742C45.5745 33.5959 45.5527 33.5959 45.531 33.5959ZM50.2919 31.5198C50.2158 31.5198 50.1506 31.4763 50.0962 31.4002C50.0527 31.3024 50.0962 31.1828 50.194 31.1285L52.5853 30.0742C52.6832 30.0307 52.8027 30.0742 52.8571 30.172C52.9114 30.2698 52.8571 30.3894 52.7593 30.4437L50.3679 31.4981C50.3353 31.5198 50.3136 31.5198 50.2919 31.5198ZM55.0419 29.422C54.9658 29.422 54.9006 29.3785 54.8462 29.3024C54.8027 29.2046 54.8462 29.085 54.944 29.0307L57.3353 27.9763C57.4332 27.9328 57.5527 27.9763 57.6071 28.0742C57.6506 28.172 57.6071 28.2915 57.5093 28.3459L55.1179 29.4002C55.0962 29.422 55.0745 29.422 55.0419 29.422Z" fill="#110580"/>
<path d="M37.1602 37.2806L36.595 35.9654C36.5515 35.8675 36.595 35.748 36.6928 35.6936C36.7906 35.6501 36.9102 35.6936 36.9645 35.7914L37.3776 36.7153L38.3015 36.3023C38.3993 36.2588 38.5189 36.3023 38.5732 36.4001C38.6167 36.498 38.5732 36.6175 38.4754 36.6719L37.1602 37.2806Z" fill="#110580"/>
<path d="M35.8134 33.8895C35.7373 33.8895 35.6721 33.846 35.6177 33.77L34.6395 31.5526C34.596 31.4547 34.6395 31.3352 34.7373 31.2808C34.8351 31.2373 34.9547 31.2808 35.009 31.3786L35.9873 33.596C36.0308 33.6939 35.9873 33.8134 35.8895 33.8678C35.8677 33.8678 35.8351 33.8895 35.8134 33.8895ZM33.8677 29.4439C33.7917 29.4439 33.7264 29.4004 33.6721 29.3243L32.6938 27.1069C32.6503 27.0091 32.6938 26.8895 32.7917 26.8352C32.8895 26.7917 33.009 26.8352 33.0634 26.933L34.0417 29.1504C34.0851 29.2482 34.0416 29.3678 33.9438 29.4221C33.933 29.4439 33.8895 29.4439 33.8677 29.4439ZM31.933 25.0308C31.8569 25.0308 31.7916 24.9873 31.7373 24.9113L30.759 22.6939C30.7156 22.596 30.759 22.4765 30.8569 22.4221C30.9547 22.3786 31.0743 22.4221 31.1286 22.52L32.1069 24.7373C32.1503 24.8352 32.1069 24.9547 32.009 25.0091C31.9873 25.0308 31.9547 25.0308 31.933 25.0308Z" fill="#110580"/>
<path d="M30.0089 20.6179C29.9328 20.6179 29.8676 20.5744 29.8133 20.4984L29.248 19.1831L30.5633 18.6179C30.6611 18.5744 30.7807 18.6179 30.835 18.7158C30.8785 18.8136 30.835 18.9331 30.7372 18.9875L29.8133 19.4005L30.2263 20.3244C30.2698 20.4223 30.2263 20.5418 30.1285 20.5962C30.0524 20.6179 30.0307 20.6179 30.0089 20.6179Z" fill="#110580"/>
<path d="M33.0084 17.9762C32.9323 17.9762 32.8671 17.9327 32.8128 17.8566C32.7693 17.7588 32.8128 17.6392 32.9106 17.5849L35.3019 16.5305C35.3997 16.487 35.5193 16.5305 35.5736 16.6284C35.628 16.7262 35.5736 16.8457 35.4758 16.9001L33.0845 17.9544C33.0845 17.9544 33.0301 17.9762 33.0084 17.9762ZM37.7693 15.8784C37.6932 15.8784 37.628 15.8349 37.5736 15.7588C37.5301 15.661 37.5736 15.5414 37.6714 15.487L40.0628 14.4327C40.1606 14.3892 40.2801 14.4327 40.3345 14.5305C40.378 14.6284 40.3345 14.7479 40.2367 14.8023L37.8454 15.8566C37.8454 15.8784 37.791 15.8784 37.7693 15.8784ZM42.5301 13.8023C42.4541 13.8023 42.3888 13.7588 42.3345 13.6827C42.291 13.5849 42.3345 13.4653 42.4323 13.411L44.8236 12.3566C44.9214 12.3131 45.041 12.3566 45.0954 12.4544C45.1388 12.5523 45.0954 12.6718 44.9975 12.7262L42.6062 13.7805C42.5954 13.8023 42.5736 13.8023 42.5301 13.8023ZM47.3128 11.7262C47.2367 11.7262 47.1714 11.6827 47.1171 11.6066C47.0736 11.5088 47.1171 11.3892 47.2149 11.3349L49.6062 10.2805C49.7041 10.237 49.8236 10.2805 49.878 10.3784C49.9214 10.4762 49.878 10.5957 49.7801 10.6501L47.3888 11.7044C47.3562 11.7044 47.3345 11.7262 47.3128 11.7262Z" fill="#110580"/>
<path d="M53.6823 10.2698C53.6062 10.2698 53.541 10.2263 53.4867 10.1502L53.0736 9.22633L52.1497 9.63937C52.0519 9.68285 51.9323 9.63937 51.878 9.54155C51.8236 9.44372 51.878 9.32416 51.9758 9.26981L53.291 8.70459L53.8562 10.0198C53.8997 10.1176 53.8562 10.2372 53.7584 10.2915C53.7258 10.2698 53.7041 10.2698 53.6823 10.2698Z" fill="#110580"/>
<path d="M59.4655 23.5414C59.3894 23.5414 59.3242 23.4979 59.2698 23.4218L58.2916 21.2044C58.2481 21.1066 58.2916 20.987 58.3894 20.9327C58.4872 20.8892 58.6068 20.9327 58.6611 21.0305L59.6394 23.2479C59.6829 23.3457 59.6394 23.4653 59.5416 23.5196C59.5307 23.5196 59.4872 23.5414 59.4655 23.5414ZM57.5307 19.1066C57.4546 19.1066 57.3894 19.0631 57.335 18.987L56.3568 16.7696C56.3133 16.6718 56.3568 16.5522 56.4546 16.4979C56.5524 16.4544 56.672 16.4979 56.7263 16.5957L57.7046 18.8131C57.7481 18.9109 57.7046 19.0305 57.6068 19.0849C57.585 19.1066 57.5633 19.1066 57.5307 19.1066ZM55.6068 14.6827C55.5307 14.6827 55.4655 14.6392 55.4111 14.5631L54.4329 12.3457C54.3894 12.2479 54.4329 12.1283 54.5307 12.074C54.6285 12.0305 54.7481 12.074 54.8024 12.1718L55.7807 14.3892C55.8242 14.487 55.7807 14.6066 55.6829 14.6609C55.6503 14.6827 55.6285 14.6827 55.6068 14.6827Z" fill="#110580"/>
<path d="M159.183 159.813L158.085 159.4C157.987 159.378 157.965 159.28 157.987 159.182C158.009 159.084 158.107 159.041 158.205 159.084L158.987 159.378L159.281 158.595C159.302 158.497 159.4 158.476 159.498 158.497C159.596 158.519 159.618 158.617 159.596 158.715L159.183 159.813Z" fill="#110580"/>
<path d="M156.399 158.769C156.377 158.769 156.356 158.769 156.356 158.769L154.649 158.139C154.551 158.117 154.53 158.019 154.551 157.922C154.573 157.824 154.671 157.78 154.769 157.824L156.475 158.454C156.573 158.476 156.595 158.574 156.573 158.672C156.54 158.737 156.464 158.769 156.399 158.769ZM152.975 157.498C152.953 157.498 152.932 157.498 152.932 157.498L151.225 156.867C151.127 156.846 151.106 156.748 151.127 156.65C151.149 156.552 151.247 156.53 151.345 156.552L153.051 157.182C153.149 157.204 153.171 157.302 153.149 157.4C153.095 157.443 153.051 157.498 152.975 157.498ZM149.54 156.226C149.519 156.226 149.497 156.226 149.497 156.226L147.79 155.596C147.693 155.574 147.671 155.476 147.693 155.378C147.714 155.28 147.812 155.237 147.91 155.28L149.617 155.911C149.714 155.932 149.736 156.03 149.714 156.128C149.682 156.182 149.606 156.226 149.54 156.226ZM146.095 154.932C146.073 154.932 146.051 154.932 146.051 154.932L144.345 154.302C144.247 154.28 144.225 154.182 144.247 154.085C144.269 153.987 144.367 153.943 144.464 153.987L146.171 154.617C146.269 154.639 146.29 154.737 146.269 154.835C146.247 154.889 146.171 154.932 146.095 154.932Z" fill="#110580"/>
<path d="M142.682 153.661C142.661 153.661 142.639 153.661 142.639 153.661L141.541 153.248L141.954 152.15C141.976 152.052 142.074 152.009 142.171 152.052C142.269 152.074 142.291 152.172 142.269 152.269L141.976 153.052L142.758 153.345C142.856 153.367 142.878 153.465 142.856 153.563C142.802 153.617 142.758 153.661 142.682 153.661Z" fill="#110580"/>
<path d="M142.726 150.639C142.704 150.639 142.683 150.639 142.683 150.639C142.585 150.617 142.563 150.519 142.585 150.422L143.215 148.715C143.237 148.617 143.335 148.574 143.433 148.617C143.53 148.639 143.552 148.737 143.53 148.835L142.9 150.541C142.846 150.585 142.78 150.639 142.726 150.639ZM143.998 147.226C143.976 147.226 143.954 147.226 143.954 147.226C143.857 147.204 143.835 147.106 143.857 147.009L144.487 145.302C144.509 145.204 144.607 145.161 144.704 145.204C144.802 145.226 144.824 145.324 144.802 145.422L144.172 147.128C144.139 147.172 144.074 147.226 143.998 147.226ZM145.27 143.78C145.248 143.78 145.226 143.78 145.226 143.78C145.128 143.759 145.107 143.661 145.128 143.563L145.759 141.856C145.781 141.759 145.878 141.715 145.976 141.759C146.074 141.78 146.096 141.878 146.074 141.976L145.444 143.682C145.411 143.737 145.335 143.78 145.27 143.78ZM146.563 140.345C146.541 140.345 146.52 140.345 146.52 140.345C146.422 140.324 146.4 140.226 146.422 140.128L147.052 138.422C147.074 138.324 147.172 138.28 147.27 138.324C147.367 138.345 147.389 138.443 147.367 138.541L146.737 140.248C146.683 140.313 146.628 140.345 146.563 140.345Z" fill="#110580"/>
<path d="M147.835 136.922C147.813 136.922 147.791 136.922 147.791 136.922C147.693 136.9 147.672 136.802 147.693 136.704L148.106 135.606L149.204 136.019C149.302 136.041 149.324 136.139 149.302 136.237C149.28 136.335 149.182 136.356 149.085 136.335L148.302 136.041L148.008 136.824C147.976 136.878 147.9 136.922 147.835 136.922Z" fill="#110580"/>
<path d="M162.867 141.444C162.845 141.444 162.823 141.444 162.823 141.444L161.117 140.813C161.019 140.791 160.997 140.694 161.019 140.596C161.041 140.498 161.139 140.454 161.236 140.498L162.943 141.128C163.041 141.15 163.063 141.248 163.041 141.346C163.008 141.389 162.932 141.444 162.867 141.444ZM159.421 140.172C159.4 140.172 159.378 140.172 159.378 140.172L157.671 139.541C157.573 139.52 157.552 139.422 157.573 139.324C157.595 139.226 157.693 139.204 157.791 139.226L159.497 139.857C159.595 139.878 159.617 139.976 159.595 140.074C159.563 140.117 159.497 140.172 159.421 140.172ZM156.008 138.878C155.986 138.878 155.965 138.878 155.965 138.878L154.258 138.248C154.16 138.226 154.139 138.128 154.16 138.03C154.182 137.933 154.28 137.889 154.378 137.933L156.084 138.563C156.182 138.585 156.204 138.683 156.182 138.78C156.128 138.824 156.073 138.878 156.008 138.878ZM152.563 137.607C152.541 137.607 152.519 137.607 152.519 137.607L150.813 136.976C150.715 136.954 150.693 136.857 150.715 136.759C150.736 136.661 150.834 136.617 150.932 136.661L152.639 137.291C152.736 137.313 152.758 137.411 152.736 137.509C152.715 137.563 152.639 137.607 152.563 137.607Z" fill="#110580"/>
<path d="M165.183 143.367C165.161 143.367 165.14 143.367 165.14 143.367C165.042 143.346 165.02 143.248 165.042 143.15L165.335 142.367L164.553 142.074C164.455 142.052 164.433 141.954 164.455 141.856C164.477 141.759 164.575 141.715 164.672 141.759L165.77 142.172L165.357 143.269C165.303 143.346 165.259 143.367 165.183 143.367Z" fill="#110580"/>
<path d="M160.051 157.107C160.03 157.107 160.008 157.107 160.008 157.107C159.91 157.085 159.888 156.987 159.91 156.889L160.54 155.183C160.562 155.085 160.66 155.041 160.758 155.085C160.856 155.107 160.877 155.204 160.856 155.302L160.225 157.009C160.204 157.052 160.127 157.107 160.051 157.107ZM161.323 153.661C161.301 153.661 161.28 153.661 161.28 153.661C161.182 153.639 161.16 153.541 161.182 153.444L161.812 151.737C161.834 151.639 161.932 151.596 162.03 151.639C162.127 151.661 162.149 151.759 162.127 151.857L161.497 153.563C161.475 153.639 161.399 153.661 161.323 153.661ZM162.617 150.248C162.595 150.248 162.573 150.248 162.573 150.248C162.475 150.226 162.454 150.128 162.475 150.031L163.106 148.324C163.127 148.226 163.225 148.183 163.323 148.226C163.421 148.248 163.443 148.346 163.421 148.444L162.79 150.15C162.736 150.204 162.693 150.248 162.617 150.248ZM163.888 146.802C163.867 146.802 163.845 146.802 163.845 146.802C163.747 146.781 163.725 146.683 163.747 146.585L164.377 144.878C164.399 144.781 164.497 144.737 164.595 144.781C164.693 144.802 164.714 144.9 164.693 144.998L164.062 146.704C164.03 146.759 163.964 146.802 163.888 146.802Z" fill="#110580"/>
<path d="M112.519 78.3568C112.519 78.3568 108.204 64.6176 106.759 58.8133C104.509 49.8568 98.4107 44.4655 89.802 44.4655C81.0629 44.4655 74.9107 49.9546 72.4977 58.8676C70.0303 68.0415 66.7912 77.6394 66.7912 77.6394C66.3999 78.8568 67.0086 80.1502 68.1825 80.6394C70.9651 81.7372 76.7694 83.6937 89.7803 83.5415C101.4 83.4002 107.4 81.7589 110.422 81.4437C111.932 81.2589 112.911 79.7915 112.519 78.3568Z" fill="#110580"/>
<path d="M94.7492 74.009H84.8145V90.9221C84.8145 92.3351 85.9666 93.4873 87.3797 93.4873H92.184C93.5971 93.4873 94.7492 92.3351 94.7492 90.9221V74.009Z" fill="#FCB58A"/>
<path d="M89.6517 43.1395C93.0735 43.1395 95.8474 40.3656 95.8474 36.9438C95.8474 33.5221 93.0735 30.7482 89.6517 30.7482C86.2299 30.7482 83.4561 33.5221 83.4561 36.9438C83.4561 40.3656 86.2299 43.1395 89.6517 43.1395Z" fill="#110580"/>
<path d="M75.0527 76.0088C73.444 76.0088 73.3896 70.5958 73.3896 69.9762C73.3896 69.3566 73.4331 63.9436 75.0527 63.9436C76.6614 63.9436 76.7157 69.3566 76.7157 69.9762C76.694 70.5958 76.6396 76.0088 75.0527 76.0088ZM75.0527 64.8784C74.7592 65.2697 74.2918 66.9979 74.2918 69.9545C74.2918 72.911 74.7592 74.6393 75.0527 75.0306C75.3462 74.6393 75.8136 72.911 75.8136 69.9545C75.8136 67.0088 75.3462 65.3023 75.0527 64.8784Z" fill="white"/>
<path d="M104.215 76.0088C102.606 76.0088 102.552 70.5958 102.552 69.9762C102.552 69.3566 102.595 63.9436 104.215 63.9436C105.823 63.9436 105.878 69.3566 105.878 69.9762C105.856 70.5958 105.802 76.0088 104.215 76.0088ZM104.215 64.8784C103.921 65.2697 103.454 66.9979 103.454 69.9545C103.454 72.911 103.921 74.6393 104.215 75.0306C104.508 74.6393 104.976 72.911 104.976 69.9545C104.976 67.0088 104.508 65.3023 104.215 64.8784Z" fill="white"/>
<path d="M89.7911 77.6936C98.8618 77.6936 106.215 70.3404 106.215 61.2697C106.215 52.1991 98.8618 44.8458 89.7911 44.8458C80.7204 44.8458 73.3672 52.1991 73.3672 61.2697C73.3672 70.3404 80.7204 77.6936 89.7911 77.6936Z" fill="#FCB58A"/>
<path d="M73.032 62.4657C73.0538 62.7374 73.0755 62.9983 73.1081 63.2483C73.1081 63.27 73.1081 63.3243 73.1081 63.3461C73.1298 63.6396 73.1842 63.9113 73.2277 64.2048V64.2265C73.2711 64.52 73.3472 64.8135 73.4016 65.1287C74.4994 60.5852 78.5755 57.2483 83.4559 57.2483C84.0646 57.2483 84.6516 57.2917 85.2385 57.3896C85.6733 57.4874 86.119 57.5309 86.5755 57.5309C89.6298 57.5309 92.1624 55.2157 92.4777 52.2374C92.4777 52.2374 92.4994 52.2374 92.4994 52.2156C92.4559 52.5309 92.4233 52.8461 92.4233 53.1722C92.4233 56.6613 95.2494 59.4874 98.7385 59.4874H98.7603C102.173 60.1722 104.912 62.7048 105.912 65.9983C106.13 65.27 106.282 64.5091 106.402 63.7483C106.402 63.7265 106.402 63.7048 106.402 63.6504C106.445 63.3352 106.478 63.02 106.499 62.6722C106.499 62.5961 106.521 62.4983 106.521 62.433C106.543 62.0635 106.565 61.7048 106.565 61.3352C106.565 61.02 106.565 60.7265 106.543 60.433C106.543 60.3352 106.521 60.2591 106.521 60.1613C106.499 59.9439 106.499 59.7265 106.478 59.5309C106.478 59.433 106.456 59.3352 106.434 59.2374C106.412 59.0417 106.391 58.8243 106.358 58.6287C106.336 58.5309 106.336 58.433 106.315 58.3352C106.271 58.1396 106.239 57.9222 106.195 57.7265C106.173 57.6287 106.152 57.5526 106.152 57.4548C106.108 57.2374 106.054 57.0417 105.978 56.8243C105.956 56.7483 105.934 56.683 105.902 56.607C105.825 56.3896 105.76 56.1722 105.684 55.9439C105.662 55.9004 105.641 55.8243 105.641 55.77C105.565 55.5309 105.467 55.2809 105.369 55.0635C105.347 55.0417 105.347 54.9874 105.325 54.9657C105.228 54.6939 105.108 54.433 104.989 54.1613C103.554 51.0852 101.184 48.4983 98.2494 46.7917C97.3255 46.2591 96.3472 45.7917 95.3255 45.4548C95.3038 45.4548 95.2494 45.433 95.2277 45.433C94.9342 45.3352 94.6407 45.2374 94.3255 45.1613C94.282 45.1396 94.2277 45.1396 94.1842 45.1178C93.5211 44.9439 92.8472 44.8026 92.1625 44.7048C92.0646 44.683 91.9885 44.683 91.8907 44.683C91.619 44.6613 91.3798 44.6396 91.1081 44.607C91.0103 44.607 90.9125 44.5852 90.8146 44.5852C90.4777 44.5635 90.1298 44.5635 89.7603 44.5635C80.4885 44.5635 72.9668 52.0852 72.9668 61.357C72.9668 61.6722 72.9668 61.9657 72.9885 62.2809C73.032 62.3678 73.032 62.4222 73.032 62.4657Z" fill="#110580"/>
<path d="M89.7915 77.6936C88.0632 77.6936 86.4002 77.4219 84.835 76.9327V80.0088C86.4002 80.498 88.1067 80.5197 89.8676 80.3458C92.1828 80.1284 93.1828 79.6827 94.748 79.0088V76.9327C93.1937 77.4219 91.5306 77.6936 89.7915 77.6936Z" fill="#E3996D"/>
<path d="M75.6944 123.922C75.6944 123.922 83.7923 125.292 89.4553 125.292C95.4553 125.292 102.879 124.433 102.879 124.433C102.879 124.433 103.542 128.705 103.803 129.629C104.075 130.552 98.901 132.411 89.6727 132.215C77.5966 131.998 74.7162 130.259 74.7162 129.77C74.6944 129.433 75.6944 123.922 75.6944 123.922Z" fill="#FCB58A"/>
<path d="M106.76 132.433C114.249 147.324 117.771 156.661 119.771 176.628C121.455 193.422 119.336 215.846 118.988 228.661C118.988 229.052 118.89 229.443 118.673 229.78C118.064 230.759 114.162 231.563 113.086 231.639C107.673 232.009 102.64 231.226 102.151 229.324C99.3685 218.052 97.1946 206.161 95.662 194.378C94.3903 184.617 92.8794 173.737 92.0207 165.704C91.9446 165.041 90.9664 165.02 90.9011 165.704C90.7598 167.041 90.5859 174.541 90.3903 176.759C89.8577 183.052 88.8033 189.259 87.7816 195.498C86.1729 205.411 82.3359 219.389 79.4338 228.813C79.2381 229.443 78.5751 230.324 77.8468 230.443C76.5533 230.639 73.4555 230.911 71.8142 230.78C69.4011 230.585 64.3251 229.878 64.0533 228.683C60.3903 213.433 60.2707 184.02 65.5642 153.443C66.8359 146.172 69.7598 138.041 72.4446 133.161C72.4446 133.161 81.1077 134.867 89.0642 134.846C98.6511 134.802 106.76 132.433 106.76 132.433Z" fill="#FFADB2"/>
<path d="M40.0083 42.02L29.2475 38.5526C28.617 38.3352 28.2475 37.6504 28.4431 36.9873L30.7149 29.9547C30.9323 29.3243 31.617 28.9547 32.2801 29.1504L43.0409 32.6178C43.6714 32.8352 44.0409 33.52 43.8453 34.183L41.5736 41.2156C41.3562 41.8678 40.6496 42.2374 40.0083 42.02Z" fill="#AAACE3"/>
<path d="M45.0201 36.1396C44.5853 36.1396 44.194 36.4331 44.0636 36.8461L43.6723 38.02L43.281 39.1939C43.1614 39.607 43.281 40.0744 43.6506 40.3135L46.5527 42.5092C47.118 42.9439 47.944 42.6831 48.1397 41.9983L48.9006 39.6831L49.6614 37.3679C49.8788 36.6831 49.368 35.9983 48.6614 36.0309L45.0201 36.1396Z" fill="#AAACE3"/>
<path d="M74.6949 129.802C74.6949 129.802 73.7384 130.02 73.1841 130.998C72.6297 131.976 72.4775 133.15 72.4775 133.15C72.4775 133.15 78.7493 135.009 90.608 135.324C102.097 135.618 106.76 132.444 106.76 132.444C106.76 132.444 106.347 131.15 105.369 130.585C104.391 130.02 103.76 129.628 103.76 129.628C103.76 129.628 100.173 132.824 89.2167 132.041C78.2819 131.237 74.6949 129.802 74.6949 129.802Z" fill="#FFADB2"/>
<path d="M24.7849 59.2361L21.0342 59.5098L22.6914 82.22L26.4421 81.9463L24.7849 59.2361Z" fill="#DADAED"/>
<path d="M22.5292 62.4587L21.2393 62.5529L21.259 62.8239L22.549 62.7297L22.5292 62.4587Z" fill="#989BD7"/>
<path d="M22.7265 65.0021L21.4365 65.0962L21.4563 65.3672L22.7463 65.2731L22.7265 65.0021Z" fill="#989BD7"/>
<path d="M22.9218 67.5347L21.6318 67.6288L21.6516 67.8998L22.9416 67.8057L22.9218 67.5347Z" fill="#989BD7"/>
<path d="M23.0849 70.0785L21.7949 70.1726L21.8147 70.4436L23.1047 70.3495L23.0849 70.0785Z" fill="#989BD7"/>
<path d="M23.2802 72.6434L21.9902 72.7375L22.01 73.0086L23.3 72.9144L23.2802 72.6434Z" fill="#989BD7"/>
<path d="M23.454 75.1756L22.1641 75.2698L22.1838 75.5408L23.4738 75.4466L23.454 75.1756Z" fill="#989BD7"/>
<path d="M23.6503 77.719L22.3604 77.8131L22.3801 78.0841L23.6701 77.99L23.6503 77.719Z" fill="#989BD7"/>
<path d="M20.9559 67.0547L18.5791 67.4707L21.7179 85.4041L24.0948 84.9881L20.9559 67.0547Z" fill="#FFADB2"/>
<path d="M20.9567 67.0524L18.5654 67.4655L18.9567 64.0524L19.4459 63.9546L20.9567 67.0524Z" fill="#EBDBCD"/>
<path d="M19.0984 65.6176L19.4462 65.4002L19.7071 65.422L20.0767 65.2481L19.4462 63.9546L18.9571 64.0524L18.7832 65.422L19.0984 65.6176Z" fill="#FF7A82"/>
<path d="M26.5006 81.65C26.0876 81.5739 25.8158 81.1826 25.8702 80.7696L27.718 68.7913C27.7398 68.6935 27.7615 68.5957 27.7941 68.4978L28.8702 65.4761C29.0115 65.1391 29.3811 64.9109 29.7506 64.987L29.9245 65.0087C30.2941 65.0848 30.555 65.4217 30.555 65.7913L30.3158 68.987C30.3158 69.0848 30.2941 69.1826 30.2724 69.3022L27.4137 81.063C27.305 81.4761 26.9137 81.7478 26.5006 81.65Z" fill="#2B31BA"/>
<path d="M40.523 89.8455H24.9795V95.0411H40.523V89.8455Z" fill="#F8D7BC"/>
<path d="M41.1858 89.4869V89.8782H24.9576V95.0739H41.1858V95.4652H7.82715V89.4869H41.1858Z" fill="#FF7A82"/>
<path d="M20.0996 104.367H43.067V95.9761H20.0996C18.9475 95.9761 18.0453 96.9 18.0453 98.0304V102.302C18.0236 103.443 18.9583 104.367 20.0996 104.367Z" fill="#F8ECE2"/>
<path d="M6.51206 95.4653H44.099C44.2403 95.4653 44.3708 95.5849 44.3708 95.7371C44.3708 95.8784 44.2512 96.0088 44.099 96.0088H39.4903H22.2512C19.936 96.0088 18.0555 97.8892 18.0555 100.204C18.0555 102.52 19.936 104.4 22.2512 104.4H43.5338H44.099C44.2403 104.4 44.3708 104.52 44.3708 104.672C44.3708 104.813 44.2512 104.944 44.099 104.944H6.51206C4.19684 104.944 2.31641 103.063 2.31641 100.748V99.6936C2.31641 97.3458 4.18597 95.4653 6.51206 95.4653Z" fill="#2B31BA"/>
<path d="M43.0669 97.3458H21.2734V97.6393H43.0669V97.3458Z" fill="#EBD0BE"/>
<path d="M43.0667 100.78H19.708V101.074H43.0667V100.78Z" fill="#EBD0BE"/>
<path d="M43.0664 102.585H22.5664V102.878H43.0664V102.585Z" fill="#EBD0BE"/>
<path d="M43.088 99.172H20.4141V99.4655H43.088V99.172Z" fill="#EBD0BE"/>
<path d="M25.2497 89.2589H10.9453V86.2589H25.2497C25.6627 86.2589 25.9779 86.5741 25.9779 86.9872V88.498C25.9779 88.922 25.6627 89.2589 25.2497 89.2589Z" fill="#F8E7D8"/>
<path d="M34.1306 86.0415H10.3371C10.2936 86.0415 10.2393 86.085 10.2393 86.1393C10.2393 86.1828 10.2827 86.2372 10.3371 86.2372H24.4458C25.2719 86.2372 25.9349 86.9219 25.9349 87.7263C25.9349 88.5524 25.2501 89.2154 24.4458 89.2154H10.3371C10.2936 89.2154 10.2393 89.2589 10.2393 89.3132C10.2393 89.3567 10.2827 89.4111 10.3371 89.4111H34.1306C34.9566 89.4111 35.6197 88.7263 35.6197 87.9219V87.4872C35.6414 86.7046 34.9675 86.0415 34.1306 86.0415Z" fill="#FF5856"/>
<path d="M19.2941 73.4761H29.7397C30.0115 73.4761 30.2289 73.7152 30.1745 73.9869L28.6637 86.0413H20.2941L18.8267 73.9869C18.805 73.7152 19.0223 73.4761 19.2941 73.4761Z" fill="#AAACE3"/>
<path d="M29.9349 64.9325L29.761 64.9108C29.3697 64.8347 29.0001 65.0304 28.8588 65.3999L27.761 68.476C27.7393 68.5195 27.7393 68.5521 27.7393 68.5956C28.0762 68.889 28.5219 69.1064 29.0327 69.1825C29.5001 69.2586 29.9349 69.226 30.3045 69.1064C30.3045 69.063 30.3262 69.0304 30.3262 68.9869L30.5653 65.7369C30.598 65.3456 30.3262 65.0304 29.9349 64.9325Z" fill="#D7D7E6"/>
<path d="M29.9891 60.2914C30.0869 60.0957 30.3804 60.0957 30.4782 60.2914C30.6521 60.6283 30.8695 61.0523 31.0434 61.3457C31.3369 61.8566 31.4782 63.0523 31.3369 63.6175C31.163 64.3023 30.6739 65.0088 30.5326 65.2262C30.5108 65.2696 30.4565 65.3023 30.413 65.324C30.2717 65.3675 30 65.4218 29.6304 65.3457C29.1195 65.2262 29.0652 64.8783 29.0652 64.8783C29.0652 64.8783 28.7717 63.7588 28.826 63.074C28.8695 62.3892 29.2391 61.5088 29.413 61.3675C29.4674 61.2479 29.7608 60.7153 29.9891 60.2914Z" fill="#C7645D"/>
<path d="M70.4218 234.813C73.8349 234.857 76.0631 233.792 76.0631 233.792C76.0631 233.792 77.4544 236.748 77.7262 238.281C77.9979 239.813 78.8023 245.02 77.6066 245.987C76.3131 247.063 76.5523 246.77 74.9001 247.476C72.5849 248.455 71.5849 247.987 68.4327 249.596C67.2588 250.205 62.1827 254.911 57.0631 255.357C52.7479 255.726 51.5958 253.65 51.0849 252.498C50.574 251.346 51.4979 249.129 54.5523 246.857C58.2588 244.096 61.9762 240.15 62.7262 239.15C65.0197 236.074 66.0414 233.248 66.0414 233.248C66.0414 233.248 66.911 234.737 70.4218 234.813Z" fill="#C7645D"/>
<path d="M111.347 235.15C107.934 235.194 105.879 234.074 105.879 234.074C105.879 234.074 104.347 236.324 103.803 239.194C103.531 240.726 102.977 245.346 104.173 246.346C105.466 247.422 105.227 247.129 106.879 247.835C109.194 248.813 110.194 248.346 113.347 249.955C114.521 250.563 119.575 255.324 124.716 255.716C127.836 255.955 130.184 254.009 130.694 252.857C131.205 251.705 131.26 249.368 127.401 246.803C123.542 244.237 119.01 240.161 118.423 239.042C117.521 237.335 115.716 233.552 115.716 233.552C115.716 233.552 114.858 235.074 111.347 235.15Z" fill="#C7645D"/>
<path d="M155.661 67.4652C153.216 68.1283 150.705 66.6826 150.053 64.2696L148.879 59.9761C148.216 57.5304 149.661 55.0196 152.075 54.3674C154.52 53.7044 157.031 55.15 157.683 57.5631L158.857 61.8565C159.52 64.2696 158.107 66.7913 155.661 67.4652Z" fill="#AAACE3"/>
<path d="M156.368 70.1066C152.368 71.2044 148.238 68.8349 147.14 64.8349L146.999 64.3023C146.879 63.8349 147.14 63.3457 147.607 63.2262C148.075 63.1066 148.564 63.3675 148.683 63.8349L148.825 64.3675C149.651 67.4218 152.825 69.2479 155.901 68.3892C158.955 67.5631 160.781 64.3892 159.923 61.3131L159.781 60.7805C159.662 60.3131 159.923 59.824 160.39 59.7044C160.857 59.5849 161.346 59.8457 161.466 60.3131L161.607 60.8457C162.738 64.8783 160.379 69.0088 156.368 70.1066Z" fill="#AAACE3"/>
<path d="M161.618 71.2479C162.053 71.1284 162.205 70.6175 161.912 70.2697C160.477 68.6392 158.173 67.8566 155.955 68.4653C153.705 69.074 152.151 70.911 151.738 73.0523C151.662 73.4871 152.053 73.8566 152.499 73.7588L161.618 71.2479Z" fill="#AAACE3"/>
<path d="M133.477 93.0198C134.357 91.1611 136.77 89.5741 138.596 89.7263C140.422 89.8676 139.846 89.9219 140.422 89.8676C141.009 89.8241 141.911 89.2045 143.129 89.5741C144.498 89.9872 147.379 91.498 147.422 94.8676C147.466 97.748 145.368 101.041 141.564 101.802C137.759 102.563 135.194 101.139 134.042 99.5089C132.748 97.6285 132.629 94.8024 133.477 93.0198Z" fill="#FF5856"/>
<path d="M139.411 92.1178C139.411 92.1178 139.117 87.8026 140.878 85.9656C142.835 83.9439 145.389 82.0417 145.194 83.2808C145.15 83.5743 145.563 87.7482 144.389 89.3135C142.607 91.7048 139.411 92.1178 139.411 92.1178Z" fill="#4C7378"/>
<path d="M138.944 91.944C138.944 91.944 138.607 90.0853 138.281 89.0418C137.596 86.8896 137.161 85.8679 137.161 85.8679L139.063 85.4548C139.063 85.4548 139.77 87.9874 139.889 88.9657C140.129 90.694 139.987 91.8461 139.987 91.8461C139.987 91.8461 139.748 92.2374 139.4 92.1831C139.02 92.194 138.944 91.944 138.944 91.944Z" fill="#6B4D3A"/>
<path d="M138.2 86.1338C138.733 86.0411 139.128 85.7599 139.084 85.5055C139.04 85.2512 138.572 85.1202 138.04 85.2128C137.508 85.3055 137.112 85.5868 137.156 85.8411C137.201 86.0954 137.668 86.2264 138.2 86.1338Z" fill="#8A634B"/>
<path d="M174.966 104.879H130.553C130.162 104.879 129.847 104.563 129.847 104.172V102.411C129.847 102.02 130.162 101.705 130.553 101.705H174.945C175.336 101.705 175.651 102.02 175.651 102.411V104.172C175.651 104.563 175.336 104.879 174.966 104.879Z" fill="#C5C6E3"/>
<path d="M152.422 101.194H142.705V97.7808H152.422C152.694 97.7808 152.89 97.9982 152.89 98.2482V100.716C152.912 100.976 152.683 101.194 152.422 101.194Z" fill="#F8D0B3"/>
<path d="M169.912 97.2484H150.63H142.173H141.902C141.76 97.2484 141.63 97.368 141.63 97.5202C141.63 97.6615 141.749 97.7919 141.902 97.7919H142.706H151.934C152.467 97.7919 152.891 98.2267 152.891 98.7484V100.259C152.891 100.792 152.456 101.216 151.934 101.216H149.836H141.978C141.836 101.216 141.706 101.335 141.706 101.488C141.706 101.629 141.826 101.759 141.978 101.759H142.173H150.695H169.923C170.456 101.759 170.88 101.325 170.88 100.803V98.2375C170.869 97.6615 170.456 97.2484 169.912 97.2484Z" fill="#FF7A82"/>
<path d="M157.151 96.9983H141.455V93.7048H157.151C157.618 93.7048 157.977 94.0744 157.977 94.5309V96.1614C157.977 96.6288 157.618 96.9983 157.151 96.9983Z" fill="#F8E7D8"/>
<path d="M166.966 93.4657H140.782C140.706 93.4657 140.662 93.5092 140.662 93.5853C140.662 93.6613 140.706 93.7048 140.782 93.7048H156.303C157.206 93.7048 157.966 94.4331 157.966 95.3679C157.966 96.27 157.238 97.0309 156.303 97.0309H140.782C140.706 97.0309 140.662 97.0744 140.662 97.1505C140.662 97.2266 140.706 97.27 140.782 97.27H166.945C167.847 97.27 168.608 96.5418 168.608 95.607V95.1179C168.597 94.194 167.869 93.4657 166.966 93.4657Z" fill="#4E53BA"/>
<path d="M153.39 96.02H141.434V95.8787H153.39C153.434 95.8787 153.466 95.9004 153.466 95.9548C153.488 95.9982 153.444 96.02 153.39 96.02Z" fill="#DEBCA7"/>
<path d="M156.151 94.944H141.455V94.8027H156.151C156.194 94.8027 156.227 94.8245 156.227 94.8788C156.227 94.9006 156.205 94.944 156.151 94.944Z" fill="#DEBCA7"/>
<path d="M134.574 45.0305C135.067 44.0691 133.437 42.2476 130.932 40.9621C128.427 39.6765 125.996 39.4138 125.503 40.3751C125.009 41.3365 126.64 43.158 129.145 44.4435C131.65 45.729 134.08 45.9918 134.574 45.0305Z" fill="#D4BFA9"/>
<path d="M126.399 38.7916C127.323 37.1068 128.106 35.3786 128.475 33.4981C129.28 29.4438 128.182 24.7373 130.769 21.5416C132.628 19.2264 135.943 18.5199 138.867 18.9329C142.454 19.4438 145.867 21.5416 147.508 24.7699C149.139 27.9873 148.725 32.2916 146.139 34.8025C143.965 36.9221 140.726 37.6068 138.454 39.6068C137.182 40.7264 136.28 42.2155 135.334 43.6286L135.019 44.0634C128.084 43.3134 126.399 38.7916 126.399 38.7916Z" fill="#EBDBCD"/>
<path d="M138.651 32.5197C138.357 31.4437 137.433 31.498 136.596 31.8567C136.401 31.2697 136.085 30.5197 135.477 30.2697C134.792 29.998 134.009 30.4654 133.477 30.8784C132.303 31.7806 131.401 33.0958 130.868 34.4654C130.335 35.835 130.064 37.2915 129.574 38.6828C129.379 39.248 130.281 39.4871 130.477 38.9219C131.085 37.161 131.335 35.2371 132.303 33.6284C132.835 32.7263 133.618 31.6719 134.618 31.2589C134.933 31.1176 135.151 31.085 135.379 31.4002C135.553 31.6393 135.672 31.9328 135.748 32.2045C135.748 32.2263 135.77 32.248 135.77 32.2806C135.651 32.3567 135.553 32.4219 135.455 32.498C134.498 33.2045 133.238 34.4763 133.259 35.7697C133.259 36.3567 133.629 36.8458 134.238 36.8893C134.901 36.9328 135.553 36.4219 135.966 35.9328C136.748 35.0306 136.988 33.8567 136.824 32.7154C137.042 32.5958 137.238 32.5197 137.433 32.498C138.02 32.4545 137.748 33.4002 137.672 33.7154C137.379 34.7697 136.77 35.6937 136.183 36.5958C135.748 37.2806 135.357 38.0089 134.814 38.6176C134.227 39.3023 133.444 39.7697 132.716 40.248C132.205 40.5632 132.672 41.3676 133.183 41.0523C134.064 40.4871 134.966 39.9328 135.629 39.1284C136.335 38.2697 136.922 37.3023 137.488 36.3458C138.096 35.335 138.998 33.7697 138.651 32.5197ZM135.868 34.1067C135.748 34.5958 135.531 35.0632 135.183 35.4219C134.988 35.6393 134.085 36.3784 134.161 35.6937C134.205 35.2806 134.531 34.835 134.77 34.498C135.085 34.0632 135.498 33.6719 135.944 33.3241C135.944 33.5741 135.944 33.8458 135.868 34.1067Z" fill="#BFA990"/>
<path d="M129.14 44.4547C126.868 43.3025 125.336 41.6938 125.401 40.6938L124.249 44.7482C123.857 45.5308 125.172 46.9982 127.205 48.0417C129.227 49.096 131.205 49.3134 131.596 48.5308C131.618 48.4873 131.618 48.4547 131.64 48.4112L134.346 45.3134C133.607 45.9438 131.412 45.6286 129.14 44.4547Z" fill="#BFA990"/>
<path d="M103.921 13.3455C103.899 13.3455 103.878 13.3455 103.845 13.3238C103.747 13.2803 103.704 13.1499 103.747 13.052C103.921 12.6607 104.117 12.2912 104.378 11.9542C104.454 11.8564 104.573 11.8347 104.671 11.9107C104.769 11.9868 104.791 12.1064 104.715 12.2042C104.476 12.5194 104.28 12.8673 104.128 13.226C104.095 13.2912 104.019 13.3455 103.921 13.3455Z" fill="#110580"/>
<path d="M136.9 25.9109C136.878 25.9109 136.856 25.9109 136.824 25.8892L136.53 25.7914C135.867 25.5522 135.193 25.2805 134.454 24.987C134.356 24.9435 134.313 24.8131 134.334 24.7153C134.378 24.6174 134.508 24.574 134.606 24.5957C135.313 24.8892 135.997 25.1609 136.66 25.4001L136.954 25.4979C137.052 25.5414 137.128 25.6718 137.073 25.7696C137.063 25.8566 136.997 25.9109 136.9 25.9109ZM132.258 23.9544C132.237 23.9544 132.182 23.9544 132.16 23.9327C131.356 23.5196 130.65 23.074 129.965 22.6174C129.867 22.5414 129.845 22.4218 129.921 22.324C129.997 22.2261 130.117 22.2044 130.215 22.2805C130.878 22.7479 131.552 23.1609 132.367 23.5522C132.465 23.5957 132.508 23.7261 132.465 23.824C132.41 23.9109 132.334 23.9544 132.258 23.9544ZM128.16 21.0522C128.117 21.0522 128.063 21.0305 128.019 20.9761C127.41 20.3674 126.867 19.6827 126.41 18.9761C126.334 18.8783 126.389 18.7587 126.487 18.6827C126.584 18.6066 126.704 18.6609 126.78 18.7587C127.215 19.4435 127.737 20.074 128.345 20.6827C128.421 20.7587 128.421 20.9001 128.345 20.9761C128.258 21.0305 128.204 21.0522 128.16 21.0522ZM125.454 16.8348C125.378 16.8348 125.28 16.7914 125.258 16.6935C124.965 15.8892 124.747 15.0631 124.628 14.2044C124.606 14.0848 124.704 13.987 124.802 13.9653C124.921 13.9435 125.019 14.0414 125.041 14.1392C125.16 14.9435 125.356 15.7479 125.65 16.5305C125.693 16.6283 125.628 16.7479 125.53 16.8022C125.497 16.8348 125.476 16.8348 125.454 16.8348ZM126.813 14.1718C126.345 14.1718 125.889 14.1501 125.421 14.074C125.302 14.0522 125.226 13.9544 125.247 13.8348C125.269 13.7153 125.367 13.6392 125.487 13.6609C125.921 13.737 126.389 13.7587 126.824 13.7587C127.215 13.7587 127.584 13.737 127.943 13.6827C128.063 13.6609 128.16 13.7587 128.182 13.8566C128.204 13.9544 128.106 14.074 128.008 14.0957C127.595 14.1501 127.204 14.1718 126.813 14.1718ZM123.008 13.4435C122.987 13.4435 122.965 13.4435 122.932 13.4435C122.226 13.2044 121.519 12.8783 120.584 12.4653C120.487 12.4218 120.443 12.2914 120.487 12.1935C120.53 12.0957 120.66 12.0522 120.758 12.0957C121.66 12.5087 122.367 12.824 123.074 13.074C123.171 13.1174 123.247 13.2153 123.193 13.3457C123.182 13.3892 123.084 13.4435 123.008 13.4435ZM130.356 13.3457C130.28 13.3457 130.215 13.3022 130.182 13.2479C130.139 13.1501 130.16 13.0305 130.258 12.9544C130.65 12.737 130.987 12.487 131.313 12.1935C131.584 11.9544 131.823 11.6609 132.019 11.3131C132.063 11.2153 132.215 11.1935 132.313 11.237C132.41 11.2805 132.432 11.4327 132.389 11.5305C132.171 11.9 131.9 12.2153 131.606 12.487C131.269 12.8022 130.9 13.074 130.487 13.2914C130.432 13.3457 130.378 13.3457 130.356 13.3457ZM124.791 11.8783C124.65 11.8566 124.574 11.7587 124.595 11.6609C124.693 10.7587 124.932 9.93266 125.302 9.17179C125.345 9.07396 125.476 9.03048 125.574 9.07396C125.671 9.11744 125.715 9.24788 125.671 9.3457C125.334 10.0522 125.084 10.8348 124.987 11.6935C124.987 11.8022 124.889 11.8783 124.791 11.8783ZM118.4 11.3892C118.378 11.3892 118.356 11.3892 118.302 11.3674C118.03 11.2479 117.769 11.1283 117.497 10.9979C116.965 10.7587 116.476 10.5631 116.008 10.3674C115.91 10.324 115.834 10.1935 115.889 10.0957C115.932 9.99788 116.063 9.92179 116.16 9.97614C116.65 10.1718 117.139 10.3674 117.671 10.6066C117.943 10.7261 118.204 10.8457 118.476 10.9761C118.574 11.0196 118.617 11.15 118.574 11.2479C118.541 11.3457 118.476 11.3892 118.4 11.3892ZM106.367 10.5848C106.291 10.5848 106.226 10.5631 106.193 10.487C106.117 10.3892 106.171 10.2696 106.269 10.1935C106.976 9.72614 107.78 9.38918 108.639 9.17179C108.758 9.15005 108.856 9.21527 108.878 9.31309C108.9 9.43266 108.834 9.53048 108.737 9.55222C107.932 9.76962 107.171 10.0848 106.487 10.5305C106.465 10.5848 106.41 10.5848 106.367 10.5848ZM113.693 9.62831C113.671 9.62831 113.671 9.62831 113.65 9.62831C112.791 9.43266 111.965 9.33483 111.182 9.31309C111.063 9.31309 110.987 9.21527 110.987 9.0957C110.987 8.97614 111.084 8.90005 111.182 8.90005C111.987 8.92179 112.845 9.01962 113.715 9.21527C113.834 9.23701 113.889 9.35657 113.856 9.4544C113.856 9.58483 113.78 9.62831 113.693 9.62831ZM132.823 9.23701C132.704 9.23701 132.628 9.13918 132.628 9.04135C132.606 8.33483 132.334 7.72614 131.921 7.28048C131.823 7.18266 131.726 7.08483 131.628 7.00875C131.53 6.93266 131.53 6.81309 131.584 6.71527C131.66 6.61744 131.78 6.61744 131.878 6.67179C131.997 6.76962 132.117 6.86744 132.215 6.98701C132.726 7.51962 133.019 8.2044 133.041 9.00875C133.041 9.13918 132.943 9.23701 132.823 9.23701C132.845 9.23701 132.823 9.23701 132.823 9.23701ZM127.041 7.50875C126.965 7.50875 126.921 7.48701 126.867 7.43266C126.791 7.33483 126.823 7.21527 126.91 7.13918C127.617 6.60657 128.476 6.23701 129.302 6.11744C129.421 6.0957 129.519 6.19353 129.541 6.29135C129.563 6.41092 129.465 6.50875 129.367 6.53048C128.584 6.62831 127.802 6.96527 127.171 7.48701C127.139 7.50875 127.084 7.50875 127.041 7.50875Z" fill="#110580"/>
<path d="M140.268 27.5415C140.225 27.5415 140.171 27.5198 140.127 27.4981C139.91 27.3024 139.595 27.085 139.149 26.8676C139.051 26.8241 139.008 26.6937 139.051 26.5959C139.095 26.4981 139.225 26.4546 139.323 26.4981C139.79 26.7372 140.127 26.9654 140.399 27.1828C140.475 27.2589 140.497 27.4002 140.421 27.4763C140.388 27.5198 140.312 27.5415 140.268 27.5415Z" fill="#110580"/>
<path d="M138.433 1.31333C139.802 5.95463 139.683 10.2481 139.552 15.009C139.531 16.3242 143.824 15.9112 144.118 14.7698C145.27 10.1829 144.455 5.22637 142.998 0.813325C142.531 -0.643196 138.063 0.0633254 138.433 1.31333Z" fill="#F3E9E1"/>
<path d="M156.759 10.4329C154.683 14.1721 152.074 17.2699 149.411 20.5416C148.237 21.9764 152.335 21.7373 153.096 21.0525C156.368 18.1721 158.9 14.2916 160.857 10.4329C161.444 9.31337 157.368 9.31337 156.759 10.4329Z" fill="#F3E9E1"/>
<path d="M156.03 29.8893C158.954 29.9654 161.889 30.1067 164.791 30.2806C165.845 30.3567 167.475 29.9437 167.791 28.7698C168.106 27.5959 166.715 26.9654 165.791 26.9111C162.867 26.7372 159.954 26.6176 157.03 26.5198C155.975 26.498 154.367 26.835 154.03 28.0306C153.715 29.2046 155.073 29.8676 156.03 29.8893Z" fill="#F3E9E1"/>
<path d="M103.488 100.074C103.488 100.074 104.119 103.683 104.173 105.444C104.195 106.52 104.173 108.227 104.173 108.227C104.173 108.227 104.977 108.227 105.39 108.183C105.803 108.161 106.293 108.063 106.293 108.063C106.293 108.063 105.804 106.455 105.293 104.846C104.804 103.422 103.488 100.074 103.488 100.074Z" fill="#E0E0E0"/>
<path d="M75.4452 99.8785C75.4452 99.8785 74.5647 102.389 74.1734 103.998C73.88 105.215 73.9995 106.292 73.9343 106.585C73.8365 107.096 73.3256 108.509 73.0756 109.172C72.9995 109.368 72.7821 109.487 72.5865 109.444C72.2495 109.368 71.7278 109.248 71.3365 109.129C70.706 108.933 70.2604 108.737 70.3582 108.792C70.3582 108.792 71.7278 106.835 72.706 105.183C73.543 103.759 75.4452 99.8785 75.4452 99.8785Z" fill="#E0E0E0"/>
<path d="M103.998 133.042C109.541 144.02 112.933 155.977 114.759 168.107C116.715 180.944 116.878 193.998 116.27 206.955C115.933 214.444 115.291 221.911 114.585 229.379C114.509 230.237 115.835 230.205 115.9 229.379C117.172 215.977 118.172 202.531 117.824 189.085C117.509 176.52 116.02 163.922 112.628 151.824C110.748 145.14 108.259 138.596 105.139 132.379C104.759 131.629 103.607 132.292 103.998 133.042Z" fill="white"/>
<path d="M73.7928 133.313C68.9558 144.465 66.271 156.378 64.8145 168.411C63.3037 180.781 62.9341 193.324 63.0863 205.77C63.1841 213.161 63.5537 220.531 64.4015 227.878C64.4993 228.704 65.8145 228.737 65.7167 227.878C64.2276 215.041 64.1515 202.085 64.6189 189.172C65.0319 177.139 66.0537 165.063 68.7384 153.27C70.2276 146.683 72.2493 140.161 74.9341 133.965C75.2493 133.215 74.1297 132.531 73.7928 133.313Z" fill="white"/>
<path d="M44.0634 104.368H43.4982H41.6721C41.5525 104.563 41.4003 104.737 41.2373 104.879H44.0417C44.183 104.879 44.3134 104.759 44.3134 104.607C44.3351 104.487 44.2156 104.368 44.0634 104.368Z" fill="#2B31BA"/>
<path d="M44.0633 95.9766C44.2046 95.9766 44.335 95.857 44.335 95.7048C44.335 95.5635 44.2155 95.4331 44.0633 95.4331H42.1611V95.944L44.0633 95.9766Z" fill="#2B31BA"/>
<path d="M40.6191 105.814C39.4995 105.574 38.3691 105.248 37.2712 104.89H13.293V104.966C13.293 105.531 13.4886 106.042 13.8256 106.531H39.2277C39.7495 106.52 40.206 106.27 40.6191 105.814Z" fill="#E3996D"/>
<path d="M134.118 105.781C134.531 106.248 135.02 106.509 135.531 106.509H162.129C162.249 106.194 162.325 105.879 162.303 105.509V104.879H137.357C136.292 105.226 135.216 105.542 134.118 105.781Z" fill="#E3996D"/>
<path d="M89.4555 125.281C83.7924 125.281 75.6946 123.911 75.6946 123.911C75.6946 123.911 75.575 124.542 75.4229 125.401C79.0859 126.553 84.0424 127.129 89.4772 126.933C94.5968 126.737 99.2381 125.835 102.749 124.542C102.792 124.52 102.825 124.498 102.869 124.466C102.869 124.444 102.869 124.422 102.869 124.422C102.869 124.422 95.4337 125.303 89.4555 125.281Z" fill="#F0A173"/>
<path d="M143.934 241.641H134.217V238.228H143.934C144.206 238.228 144.402 238.446 144.402 238.696V241.163C144.423 241.424 144.195 241.641 143.934 241.641Z" fill="#F8D0B3"/>
<path d="M161.424 237.696H142.142H133.685H133.413C133.272 237.696 133.142 237.815 133.142 237.968C133.142 238.109 133.261 238.239 133.413 238.239H134.218H143.446C143.979 238.239 144.402 238.674 144.402 239.196V240.707C144.402 241.239 143.968 241.663 143.446 241.663H141.348H133.489C133.348 241.663 133.218 241.783 133.218 241.935C133.218 242.076 133.337 242.207 133.489 242.207H133.685H142.207H161.435C161.968 242.207 162.392 241.772 162.392 241.25V238.685C162.381 238.109 161.968 237.696 161.424 237.696Z" fill="#FF7A82"/>
<path d="M148.662 237.446H132.967V234.152H148.662C149.13 234.152 149.489 234.522 149.489 234.978V236.609C149.489 237.076 149.13 237.446 148.662 237.446Z" fill="#F8E7D8"/>
<path d="M158.478 233.913H132.293C132.217 233.913 132.174 233.957 132.174 234.033C132.174 234.109 132.217 234.152 132.293 234.152H147.815C148.717 234.152 149.478 234.88 149.478 235.815C149.478 236.717 148.75 237.478 147.815 237.478H132.293C132.217 237.478 132.174 237.522 132.174 237.598C132.174 237.674 132.217 237.717 132.293 237.717H158.456C159.359 237.717 160.119 236.989 160.119 236.054V235.565C160.109 234.641 159.38 233.913 158.478 233.913Z" fill="#4E53BA"/>
<path d="M144.902 236.467H132.945V236.326H144.902C144.945 236.326 144.978 236.348 144.978 236.402C145 236.445 144.956 236.467 144.902 236.467Z" fill="#DEBCA7"/>
<path d="M147.662 235.391H132.967V235.25H147.662C147.706 235.25 147.739 235.272 147.739 235.326C147.739 235.348 147.717 235.391 147.662 235.391Z" fill="#DEBCA7"/>
<path d="M151.84 236.851H144.728V242.206H151.84V236.851Z" fill="#F8D7BC"/>
<path d="M144.009 236.424V236.85H151.814V242.204H144.009V242.603H174.032V236.424H144.009Z" fill="#4E53BA"/>
<path d="M137.828 243.162H159.513C161.831 243.162 163.723 245.054 163.723 247.372V247.665C163.723 249.982 161.858 251.874 159.54 251.874H137.828V243.162Z" fill="#F8ECE2"/>
<path d="M175.658 242.604H136.789C136.629 242.604 136.522 242.71 136.522 242.87C136.522 243.03 136.629 243.136 136.789 243.136H159.38C161.778 243.136 163.723 245.081 163.723 247.479C163.723 249.877 161.805 251.821 159.407 251.848C159.407 251.848 159.407 251.848 159.38 251.848H136.789C136.629 251.848 136.522 251.954 136.522 252.114C136.522 252.274 136.629 252.381 136.789 252.381H175.658C178.056 252.381 180.001 250.436 180.001 248.038V246.973C180.001 244.575 178.056 242.631 175.658 242.604C175.658 242.631 175.658 242.631 175.658 242.604Z" fill="#FF5856"/>
<path d="M160.206 245.028H137.828V244.735H160.206C160.285 244.735 160.366 244.814 160.366 244.895C160.366 244.976 160.285 245.028 160.206 245.028Z" fill="#EBD0BE"/>
<path d="M149.87 240.925H144.728V240.632H149.896C149.975 240.632 150.056 240.711 150.056 240.792C150.03 240.873 149.949 240.925 149.87 240.925Z" fill="#E0C1A6"/>
<path d="M148.645 239.247H144.728V238.953H148.671C148.75 238.953 148.831 239.007 148.831 239.113C148.804 239.167 148.751 239.247 148.645 239.247Z" fill="#E0C1A6"/>
<path d="M161.831 248.412H137.828V248.119H161.832C161.911 248.119 161.992 248.199 161.992 248.279C161.991 248.359 161.911 248.412 161.831 248.412Z" fill="#EBD0BE"/>
<path d="M158.875 250.303H137.828V249.983H158.875C158.954 249.983 159.035 250.037 159.035 250.117C159.033 250.223 158.954 250.277 158.875 250.303Z" fill="#EBD0BE"/>
<path d="M161.112 246.761H137.828V246.468H161.112C161.192 246.468 161.272 246.547 161.272 246.628C161.246 246.68 161.192 246.761 161.112 246.761Z" fill="#EBD0BE"/>
<path d="M158.045 235.941H149.333V232.718H158.045C158.55 232.718 158.951 233.117 158.951 233.624V235.063C158.951 235.542 158.552 235.941 158.045 235.941Z" fill="#F8D0B3"/>
<path d="M175.021 232.239H148.593C148.46 232.239 148.354 232.346 148.354 232.479C148.354 232.612 148.46 232.718 148.593 232.718H158.051C158.557 232.718 158.957 233.117 158.957 233.624V235.037C158.957 235.542 158.558 235.943 158.051 235.943H148.647C148.514 235.97 148.407 236.076 148.434 236.209C148.434 236.315 148.54 236.422 148.647 236.422H175.021C175.527 236.422 175.928 236.022 175.928 235.515V233.117C175.927 232.691 175.5 232.239 175.021 232.239Z" fill="#FF7A82"/>
<path d="M147.926 228.908H162.126C162.952 228.908 163.644 229.574 163.644 230.427V230.533C163.644 231.359 162.978 232.051 162.126 232.051H147.926V228.908Z" fill="#F8E7D8"/>
<path d="M172.197 228.695H147.313C147.26 228.695 147.207 228.749 147.207 228.802C147.207 228.855 147.261 228.908 147.313 228.908H162.073C162.925 228.908 163.645 229.6 163.645 230.48C163.645 231.333 162.952 232.052 162.073 232.052H147.313C147.26 232.052 147.207 232.106 147.207 232.158C147.207 232.212 147.261 232.265 147.313 232.265H172.195C173.048 232.265 173.767 231.572 173.767 230.692V230.266C173.769 229.388 173.049 228.695 172.197 228.695Z" fill="#2B31BA"/>
<path d="M160.5 229.787H147.926V229.654H160.5C160.554 229.654 160.579 229.681 160.579 229.733C160.581 229.76 160.554 229.787 160.5 229.787Z" fill="#DEBCA7"/>
<path d="M159.302 231.333H147.926V231.199H159.302C159.355 231.199 159.381 231.226 159.381 231.279C159.381 231.306 159.354 231.333 159.302 231.333Z" fill="#DEBCA7"/>
<path d="M161.912 230.561H147.926V230.401H161.912C161.939 230.401 161.991 230.428 161.991 230.48C161.993 230.507 161.966 230.561 161.912 230.561Z" fill="#DEBCA7"/>
<path d="M156.317 248.119H152.827C152.827 248.119 152.268 248.306 151.788 249.211C151.202 250.33 151.388 251.395 151.016 252.222C150.777 252.782 150.377 253.235 149.87 253.554C150.27 253.607 150.696 253.633 151.122 253.58C151.469 253.501 151.788 253.368 152.054 253.154C152.134 253.341 152.16 253.527 152.187 253.714C152.214 253.901 152.214 254.113 152.187 254.3C152.187 254.3 153.466 254.007 153.972 253.26C154.691 252.248 154.078 250.996 155.037 249.424C155.384 248.945 155.81 248.492 156.317 248.119Z" fill="#BFA990"/>
<path d="M15.3179 235.981H8.20508V241.336H15.3179V235.981Z" fill="#F8D7BC"/>
<path d="M7.48633 235.554V235.981H15.2917V241.335H7.48633V241.734H37.5097V235.554H7.48633Z" fill="#4E53BA"/>
<path d="M1.30566 242.293H22.991C25.3082 242.293 27.2003 244.185 27.2003 246.502V246.795C27.2003 249.113 25.3351 251.005 23.0179 251.005H1.30566V242.293Z" fill="#F8ECE2"/>
<path d="M39.1358 241.734H0.266282C0.106257 241.734 0 241.841 0 242.001C0 242.161 0.106257 242.267 0.266282 242.267H22.858C25.2558 242.267 27.2005 244.212 27.2005 246.609C27.2005 249.007 25.2827 250.952 22.8849 250.979C22.8849 250.979 22.8849 250.979 22.858 250.979H0.266282C0.106257 250.979 0 251.085 0 251.245C0 251.405 0.106257 251.511 0.266282 251.511H39.1358C41.5336 251.511 43.4783 249.567 43.4783 247.169V246.104C43.4783 243.706 41.5336 241.761 39.1358 241.734C39.1358 241.761 39.1358 241.761 39.1358 241.734Z" fill="#FF5856"/>
<path d="M23.6836 244.159H1.30566V243.866H23.6836C23.763 243.866 23.8436 243.945 23.8436 244.026C23.8436 244.106 23.763 244.159 23.6836 244.159Z" fill="#EBD0BE"/>
<path d="M13.3477 240.056H8.20508V239.762H13.3733C13.4526 239.762 13.5333 239.842 13.5333 239.922C13.5077 240.003 13.427 240.056 13.3477 240.056Z" fill="#E0C1A6"/>
<path d="M12.1225 238.377H8.20508V238.084H12.1481C12.2275 238.084 12.3081 238.138 12.3081 238.244C12.2812 238.298 12.2288 238.377 12.1225 238.377Z" fill="#E0C1A6"/>
<path d="M25.3082 247.543H1.30566V247.25H25.3095C25.3888 247.25 25.4695 247.329 25.4695 247.41C25.4682 247.489 25.3888 247.543 25.3082 247.543Z" fill="#EBD0BE"/>
<path d="M22.3522 249.434H1.30566V249.114H22.3522C22.4316 249.114 22.5122 249.168 22.5122 249.247C22.511 249.354 22.4316 249.407 22.3522 249.434Z" fill="#EBD0BE"/>
<path d="M24.59 245.891H1.30566V245.598H24.59C24.6694 245.598 24.75 245.678 24.75 245.758C24.7231 245.811 24.6694 245.891 24.59 245.891Z" fill="#EBD0BE"/>
<path d="M21.5223 235.072H12.8105V231.848H21.5223C22.028 231.848 22.4287 232.248 22.4287 232.755V234.193C22.4287 234.672 22.0293 235.072 21.5223 235.072Z" fill="#F8D0B3"/>
<path d="M38.499 231.37H12.0705C11.9373 231.37 11.8311 231.476 11.8311 231.61C11.8311 231.743 11.9373 231.849 12.0705 231.849H21.5286C22.0343 231.849 22.435 232.248 22.435 232.755V234.167C22.435 234.673 22.0356 235.074 21.5286 235.074H12.1242C11.9911 235.101 11.8848 235.207 11.9117 235.34C11.9117 235.446 12.018 235.553 12.1242 235.553H38.499C39.0046 235.553 39.4053 235.153 39.4053 234.646V232.248C39.4041 231.822 38.9778 231.37 38.499 231.37Z" fill="#FF7A82"/>
<path d="M11.4033 228.039H25.6033C26.4291 228.039 27.1217 228.705 27.1217 229.557V229.664C27.1217 230.489 26.4559 231.182 25.6033 231.182H11.4033V228.039Z" fill="#F8E7D8"/>
<path d="M35.6741 227.826H10.7908C10.7371 227.826 10.6846 227.88 10.6846 227.932C10.6846 227.986 10.7383 228.038 10.7908 228.038H25.5503C26.4029 228.038 27.1224 228.731 27.1224 229.611C27.1224 230.463 26.4298 231.183 25.5503 231.183H10.7908C10.7371 231.183 10.6846 231.236 10.6846 231.289C10.6846 231.343 10.7383 231.395 10.7908 231.395H35.6729C36.5255 231.395 37.245 230.703 37.245 229.823V229.397C37.2462 228.519 36.5268 227.826 35.6741 227.826Z" fill="#2B31BA"/>
<path d="M23.9775 228.918H11.4033V228.785H23.9775C24.0312 228.785 24.0568 228.812 24.0568 228.864C24.0581 228.891 24.0312 228.918 23.9775 228.918Z" fill="#DEBCA7"/>
<path d="M22.7792 230.463H11.4033V230.33H22.7792C22.833 230.33 22.8586 230.357 22.8586 230.409C22.8586 230.436 22.8317 230.463 22.7792 230.463Z" fill="#DEBCA7"/>
<path d="M25.3895 229.692H11.4033V229.531H25.3895C25.4164 229.531 25.4689 229.558 25.4689 229.611C25.4702 229.638 25.4433 229.692 25.3895 229.692Z" fill="#DEBCA7"/>
<path d="M19.7948 247.25H16.3049C16.3049 247.25 15.7455 247.437 15.2654 248.342C14.6791 249.461 14.866 250.526 14.4934 251.353C14.254 251.912 13.8546 252.365 13.3477 252.684C13.7471 252.738 14.1734 252.764 14.5997 252.711C14.9466 252.632 15.2654 252.499 15.5317 252.285C15.6111 252.472 15.6379 252.657 15.6648 252.844C15.6917 253.031 15.6917 253.244 15.6648 253.431C15.6648 253.431 16.9437 253.137 17.4494 252.391C18.1689 251.378 17.5557 250.126 18.5146 248.554C18.8615 248.075 19.2878 247.622 19.7948 247.25Z" fill="#BFA990"/>
</svg>
