<svg width="300" height="174" viewBox="0 0 300 174" fill="none" xmlns="http://www.w3.org/2000/svg">
<g clip-path="url(#clip0_360_458)">
<path d="M280.319 92.7963C280.129 92.7098 279.999 92.5107 279.999 92.2944C279.999 92.0001 280.241 91.7578 280.544 91.7578H283.175V89.1354C283.141 88.8411 283.357 88.5728 283.651 88.5382C283.946 88.5036 284.214 88.7199 284.249 89.0142C284.257 89.0575 284.257 89.1007 284.249 89.144V92.805H280.544C280.466 92.8136 280.397 92.8136 280.319 92.7963Z" fill="#110580"/>
<path d="M226.4 92.753C226.201 92.6665 226.08 92.4761 226.08 92.2597C226.08 91.9568 226.322 91.7145 226.625 91.7145H233.367C233.662 91.7491 233.878 92.0174 233.843 92.3116C233.817 92.5626 233.618 92.7617 233.367 92.7876H226.625C226.539 92.805 226.47 92.7876 226.4 92.753ZM239.884 92.753C239.616 92.6319 239.486 92.3203 239.607 92.052C239.694 91.8529 239.884 91.7318 240.101 91.7318H246.852C247.146 91.7664 247.362 92.0347 247.328 92.329C247.302 92.5799 247.102 92.779 246.852 92.805H240.109C240.032 92.805 239.945 92.7963 239.876 92.7617L239.884 92.753ZM253.369 92.753C253.169 92.6665 253.048 92.4674 253.048 92.2511C253.048 91.9568 253.291 91.7145 253.594 91.7145H260.336C260.63 91.6798 260.898 91.8962 260.933 92.1905C260.967 92.4847 260.751 92.753 260.457 92.7876C260.414 92.7963 260.37 92.7963 260.327 92.7876H253.585C253.507 92.7963 253.429 92.7877 253.351 92.7617L253.369 92.753ZM266.853 92.753C266.654 92.6665 266.532 92.4674 266.532 92.2511C266.532 91.9568 266.775 91.7145 267.069 91.7145H273.82C274.114 91.7145 274.356 91.9568 274.356 92.2597C274.356 92.554 274.114 92.7963 273.82 92.7963H267.069C266.991 92.805 266.913 92.805 266.844 92.779L266.853 92.753Z" fill="#110580"/>
<path d="M216.144 92.805V89.1007C216.178 88.8065 216.446 88.5901 216.741 88.6247C216.992 88.6507 217.191 88.8498 217.217 89.1007V91.7318H219.848C220.142 91.6972 220.41 91.9135 220.445 92.2078C220.48 92.5021 220.263 92.7704 219.969 92.805C219.926 92.8136 219.882 92.8136 219.839 92.805H216.144Z" fill="#110580"/>
<path d="M216.482 83.328C216.283 83.2415 216.162 83.0424 216.162 82.826V76.5686C216.127 76.2744 216.343 76.0061 216.638 75.9715C216.932 75.9368 217.2 76.1532 217.235 76.4475C217.244 76.4908 217.244 76.534 217.235 76.5773V82.826C217.235 83.129 216.993 83.3713 216.69 83.3713C216.62 83.3713 216.551 83.354 216.482 83.328ZM216.482 70.7959C216.283 70.718 216.153 70.5449 216.136 70.3372V64.0452C216.17 63.7509 216.439 63.5346 216.733 63.5692C216.984 63.5952 217.183 63.7942 217.209 64.0452V70.3372C217.209 70.6315 216.967 70.8738 216.672 70.8738H216.664C216.612 70.8565 216.551 70.8305 216.482 70.7959ZM216.482 58.2811C216.283 58.1946 216.162 58.0042 216.162 57.7878V51.5218C216.196 51.2275 216.465 51.0111 216.759 51.0458C217.01 51.0717 217.209 51.2708 217.235 51.5218V57.7878C217.235 58.0821 216.993 58.3244 216.69 58.3244C216.62 58.3244 216.551 58.3071 216.491 58.2811H216.482Z" fill="#110580"/>
<path d="M216.508 45.7577C216.309 45.6712 216.188 45.4721 216.188 45.2558V41.5515H219.892C220.186 41.5861 220.402 41.8544 220.368 42.1487C220.342 42.3997 220.143 42.5987 219.892 42.6247H217.261V45.2471C217.261 45.55 217.018 45.7923 216.715 45.7923C216.646 45.801 216.577 45.7837 216.508 45.7577Z" fill="#110580"/>
<path d="M226.4 42.5901C226.21 42.5035 226.08 42.3131 226.08 42.0968C226.08 41.8025 226.322 41.5602 226.617 41.5602H226.625H233.367C233.662 41.5255 233.93 41.7419 233.965 42.0362C233.999 42.3304 233.783 42.5987 233.489 42.6334C233.445 42.642 233.402 42.642 233.359 42.6334H226.617C226.539 42.6334 226.47 42.616 226.4 42.5901ZM239.884 42.5901C239.685 42.5035 239.564 42.3131 239.564 42.0968C239.564 41.8025 239.807 41.5602 240.109 41.5602H246.852C247.146 41.5948 247.362 41.8631 247.328 42.1573C247.302 42.4083 247.102 42.6074 246.852 42.6334H240.101C240.032 42.6334 239.962 42.616 239.902 42.5901H239.884ZM253.377 42.5901C253.178 42.5035 253.057 42.3045 253.057 42.0881C253.057 41.7938 253.299 41.5515 253.594 41.5515H260.336C260.639 41.5515 260.881 41.7938 260.881 42.0968C260.881 42.391 260.639 42.6334 260.344 42.6334H260.336H253.585C253.516 42.642 253.455 42.6334 253.386 42.6074L253.377 42.5901ZM266.853 42.5901C266.654 42.5035 266.532 42.3045 266.532 42.0881C266.532 41.7938 266.775 41.5515 267.078 41.5515H273.82C274.114 41.5515 274.356 41.7938 274.356 42.0881C274.356 42.3824 274.114 42.6247 273.82 42.6247H267.078C267.008 42.6334 266.939 42.6334 266.87 42.616L266.853 42.5901Z" fill="#110580"/>
<path d="M283.547 45.7923C283.348 45.7057 283.227 45.5153 283.227 45.299V42.6679H280.596C280.302 42.6333 280.085 42.365 280.12 42.0707C280.146 41.8198 280.345 41.6207 280.596 41.5947H284.283V45.299C284.283 45.5932 284.058 45.8269 283.763 45.8356C283.755 45.8356 283.755 45.8356 283.746 45.8356C283.677 45.8356 283.608 45.8182 283.547 45.7923Z" fill="#110580"/>
<path d="M283.496 83.3626C283.305 83.2761 283.175 83.0857 283.175 82.8693V76.6033C283.21 76.309 283.478 76.0926 283.773 76.1273C284.024 76.1532 284.223 76.3523 284.249 76.6033V82.8693C284.24 83.1722 283.989 83.4059 283.686 83.3973C283.625 83.3973 283.565 83.38 283.513 83.3626H283.496ZM283.496 70.8392C283.297 70.7527 283.167 70.5623 283.167 70.3459V64.0798C283.132 63.7856 283.348 63.5173 283.643 63.4827C283.937 63.448 284.205 63.6644 284.24 63.9587C284.249 64.0019 284.249 64.0452 284.24 64.0885V70.3372C284.24 70.6315 283.998 70.8738 283.703 70.8738C283.651 70.8738 283.591 70.8652 283.539 70.8479H283.496V70.8392ZM283.496 58.3244C283.297 58.2379 283.175 58.0388 283.175 57.8224V51.565C283.141 51.2708 283.357 51.0025 283.651 50.9679C283.946 50.9333 284.214 51.1496 284.249 51.4439C284.257 51.4872 284.257 51.5304 284.249 51.5737V57.8311C284.249 58.1254 284.015 58.3677 283.721 58.3763H283.712C283.651 58.3677 283.599 58.359 283.548 58.3331L283.496 58.3244Z" fill="#110580"/>
<path d="M86.6084 0H265.026C266.974 0 268.549 1.57517 268.549 3.52249V118.259C268.549 120.206 266.974 121.781 265.026 121.781H86.6084C84.6611 121.781 83.0859 120.206 83.0859 118.259V3.52249C83.0859 1.57517 84.6611 0 86.6084 0Z" fill="#D6D7F0"/>
<path d="M91.87 24.3198H126.29C127.58 24.3198 128.627 25.3671 128.627 26.6566V59.1899C128.627 60.4794 127.58 61.5266 126.29 61.5266H91.87C90.5804 61.5266 89.5332 60.4794 89.5332 59.1899V26.6566C89.5332 25.3671 90.5804 24.3198 91.87 24.3198Z" fill="#E8E8F7"/>
<path d="M136.364 24.3198H170.784C172.074 24.3198 173.121 25.3671 173.121 26.6566V86.9803C173.121 88.2699 172.074 89.3171 170.784 89.3171H136.364C135.075 89.3171 134.027 88.2699 134.027 86.9803V26.6566C134.027 25.3671 135.075 24.3198 136.364 24.3198Z" fill="#E8E8F7"/>
<path d="M180.858 24.3198H215.278C216.568 24.3198 217.615 25.3671 217.615 26.6566V103.848C217.615 105.138 216.568 106.185 215.278 106.185H180.858C179.569 106.185 178.522 105.138 178.522 103.848V26.6566C178.513 25.3671 179.56 24.3198 180.858 24.3198Z" fill="#E8E8F7"/>
<path d="M225.352 24.3198H259.772C261.062 24.3198 262.109 25.3671 262.109 26.6566V71.5748C262.109 72.8644 261.062 73.9116 259.772 73.9116H225.352C224.063 73.9116 223.016 72.8644 223.016 71.5748V26.6566C223.016 25.3671 224.063 24.3198 225.352 24.3198Z" fill="#E8E8F7"/>
<path d="M94.2412 27.2106H111.542C112.338 27.2106 112.987 27.8597 112.987 28.6559V28.6646C112.987 29.4608 112.338 30.1099 111.542 30.1099H94.2412C93.445 30.1099 92.7959 29.4608 92.7959 28.6646V28.6559C92.8046 27.8597 93.445 27.2106 94.2412 27.2106Z" fill="#C3C6E6"/>
<path d="M265.035 0H86.6084C84.6611 0 83.0859 1.57517 83.0859 3.52249V15.1805H268.557V3.52249C268.557 1.57517 266.982 0 265.035 0Z" fill="#007AC0"/>
<path d="M172.126 3.03784H179.5C179.976 3.03784 180.357 3.41865 180.357 3.89466V11.2685C180.357 11.7445 179.976 12.1253 179.5 12.1253H172.126C171.65 12.1253 171.27 11.7445 171.27 11.2685V3.89466C171.27 3.42731 171.659 3.03784 172.126 3.03784Z" fill="#D5D6F0"/>
<path d="M172.775 4.1283H174.861C175.094 4.1283 175.276 4.3187 175.276 4.54372V10.6886C175.276 10.9223 175.086 11.104 174.861 11.104H172.775C172.541 11.104 172.359 10.9136 172.359 10.6886V4.54372C172.359 4.31005 172.541 4.1283 172.775 4.1283Z" fill="#007AC0"/>
<path d="M176.783 4.1283H178.868C179.102 4.1283 179.284 4.3187 179.284 4.54372V8.10083C179.284 8.33451 179.093 8.51626 178.868 8.51626H176.783C176.549 8.51626 176.367 8.32586 176.367 8.10083V4.54372C176.367 4.31005 176.549 4.1283 176.783 4.1283Z" fill="#007AC0"/>
<path d="M94.7433 33.0006H123.417C124.49 33.0006 125.355 33.8661 125.355 34.9393V53.7461C125.355 54.8193 124.49 55.6847 123.417 55.6847H94.7433C93.6702 55.6847 92.8047 54.8193 92.8047 53.7461V34.9393C92.8047 33.8661 93.6702 33.0006 94.7433 33.0006Z" fill="white"/>
<path d="M138.735 27.2192H152.367C153.163 27.2192 153.812 27.8683 153.812 28.6646V28.6732C153.812 29.4695 153.163 30.1186 152.367 30.1186H138.735C137.939 30.1186 137.29 29.4695 137.29 28.6732V28.6646C137.299 27.8683 137.939 27.2192 138.735 27.2192Z" fill="#C3C6E6"/>
<path d="M139.237 33.0006H167.911C168.984 33.0006 169.849 33.8661 169.849 34.9393V46.4155C169.849 47.4887 168.984 48.3542 167.911 48.3542H139.237C138.164 48.3542 137.299 47.4887 137.299 46.4155V34.9393C137.299 33.8661 138.164 33.0006 139.237 33.0006Z" fill="white"/>
<path d="M183.238 27.2106H204.944C205.741 27.2106 206.39 27.8597 206.39 28.6559V28.6646C206.39 29.4608 205.741 30.1099 204.944 30.1099H183.238C182.442 30.1099 181.793 29.4608 181.793 28.6646V28.6559C181.793 27.8597 182.442 27.2106 183.238 27.2106Z" fill="#C3C6E6"/>
<path d="M183.732 59.3197H212.405C213.478 59.3197 214.344 60.1852 214.344 61.2584V98.396C214.344 99.4691 213.478 100.335 212.405 100.335H183.732C182.658 100.335 181.793 99.4691 181.793 98.396V61.2584C181.793 60.1852 182.658 59.3197 183.732 59.3197Z" fill="white"/>
<path d="M183.732 33.0006H212.405C213.478 33.0006 214.344 33.8661 214.344 34.9393V54.4817C214.344 55.5549 213.478 56.4204 212.405 56.4204H183.732C182.658 56.4204 181.793 55.5549 181.793 54.4817V34.9393C181.793 33.8661 182.658 33.0006 183.732 33.0006Z" fill="white"/>
<path d="M139.489 51.2708H168.162C169.235 51.2708 170.1 52.1362 170.1 53.2094V81.5364C170.1 82.6096 169.235 83.4751 168.162 83.4751H139.489C138.415 83.4751 137.55 82.6096 137.55 81.5364V53.2181C137.541 52.1449 138.415 51.2708 139.489 51.2708Z" fill="white"/>
<path d="M227.732 27.2106H238.43C239.226 27.2106 239.875 27.8597 239.875 28.6559V28.6646C239.875 29.4608 239.226 30.1099 238.43 30.1099H227.732C226.936 30.1099 226.287 29.4608 226.287 28.6646V28.6559C226.287 27.8597 226.936 27.2106 227.732 27.2106Z" fill="#C3C6E6"/>
<path d="M228.226 33.0006H256.899C257.972 33.0006 258.838 33.8661 258.838 34.9393V47.8781C258.838 48.9513 257.972 49.8168 256.899 49.8168H228.226C227.153 49.8168 226.287 48.9513 226.287 47.8781V34.9393C226.287 33.8661 227.153 33.0006 228.226 33.0006Z" fill="white"/>
<path d="M228.226 52.7162H256.899C257.972 52.7162 258.838 53.5817 258.838 54.6549V66.2176C258.838 67.2908 257.972 68.1563 256.899 68.1563H228.226C227.153 68.1563 226.287 67.2908 226.287 66.2176V54.6549C226.287 53.5817 227.153 52.7162 228.226 52.7162Z" fill="white"/>
<path d="M97.9893 37.1462H110.158C110.954 37.1462 111.603 37.7953 111.603 38.5916V38.6002C111.603 39.3965 110.954 40.0456 110.158 40.0456H97.9893C97.193 40.0456 96.5439 39.3965 96.5439 38.6002V38.5916C96.5439 37.7953 97.193 37.1462 97.9893 37.1462Z" fill="#E8E8F7"/>
<path d="M97.9893 43.5853H115.29C116.086 43.5853 116.736 44.2344 116.736 45.0307V45.0393C116.736 45.8356 116.086 46.4847 115.29 46.4847H97.9893C97.193 46.4847 96.5439 45.8356 96.5439 45.0393V45.0307C96.5439 44.2344 97.193 43.5853 97.9893 43.5853Z" fill="#E8E8F7"/>
<path d="M186.978 79.6671H199.146C199.942 79.6671 200.592 80.3162 200.592 81.1125V81.1211C200.592 81.9174 199.942 82.5665 199.146 82.5665H186.978C186.181 82.5665 185.532 81.9174 185.532 81.1211V81.1125C185.532 80.3076 186.181 79.6671 186.978 79.6671Z" fill="#E8E8F7"/>
<path d="M186.978 86.1062H204.278C205.075 86.1062 205.724 86.7553 205.724 87.5515V87.5602C205.724 88.3564 205.075 89.0055 204.278 89.0055H186.978C186.181 89.0055 185.532 88.3564 185.532 87.5602V87.5515C185.532 86.7466 186.181 86.1062 186.978 86.1062Z" fill="#E8E8F7"/>
<path d="M186.978 92.5454H196.212C197.008 92.5454 197.658 93.1945 197.658 93.9908V93.9994C197.658 94.7956 197.008 95.4448 196.212 95.4448H186.978C186.181 95.4448 185.532 94.7956 185.532 93.9994V93.9908C185.532 93.1945 186.181 92.5454 186.978 92.5454Z" fill="#E8E8F7"/>
<path d="M142.483 55.6934H154.652C155.448 55.6934 156.097 56.3425 156.097 57.1387V57.1474C156.097 57.9436 155.448 58.5927 154.652 58.5927H142.483C141.687 58.5927 141.038 57.9436 141.038 57.1474V57.1387C141.038 56.3338 141.687 55.6934 142.483 55.6934Z" fill="#E8E8F7"/>
<path d="M142.483 68.5717H164.19C164.986 68.5717 165.635 69.2208 165.635 70.017V70.0257C165.635 70.8219 164.986 71.471 164.19 71.471H142.483C141.687 71.471 141.038 70.8219 141.038 70.0257V70.017C141.038 69.2208 141.687 68.5717 142.483 68.5717Z" fill="#E8E8F7"/>
<path d="M142.483 75.0109H154.652C155.448 75.0109 156.097 75.66 156.097 76.4562V76.4649C156.097 77.2611 155.448 77.9102 154.652 77.9102H142.483C141.687 77.9102 141.038 77.2611 141.038 76.4649V76.4562C141.038 75.66 141.687 75.0109 142.483 75.0109Z" fill="#E8E8F7"/>
<path d="M142.483 62.1326H159.784C160.581 62.1326 161.23 62.7817 161.23 63.5779V63.5866C161.23 64.3828 160.581 65.0319 159.784 65.0319H142.483C141.687 65.0319 141.038 64.3828 141.038 63.5866V63.5779C141.038 62.7817 141.687 62.1326 142.483 62.1326Z" fill="#E8E8F7"/>
<path d="M186.978 43.5853H199.146C199.942 43.5853 200.592 44.2344 200.592 45.0307V45.0393C200.592 45.8356 199.942 46.4847 199.146 46.4847H186.978C186.181 46.4847 185.532 45.8356 185.532 45.0393V45.0307C185.532 44.2344 186.181 43.5853 186.978 43.5853Z" fill="#E8E8F7"/>
<path d="M191.21 37.1462H208.511C209.307 37.1462 209.956 37.7953 209.956 38.5916V38.6002C209.956 39.3965 209.307 40.0456 208.511 40.0456H191.21C190.414 40.0456 189.765 39.3965 189.765 38.6002V38.5916C189.765 37.7953 190.414 37.1462 191.21 37.1462Z" fill="#E8E8F7"/>
<path d="M231.472 43.5853H243.64C244.437 43.5853 245.086 44.2344 245.086 45.0307V45.0393C245.086 45.8356 244.437 46.4847 243.64 46.4847H231.472C230.675 46.4847 230.026 45.8356 230.026 45.0393V45.0307C230.035 44.2344 230.675 43.5853 231.472 43.5853Z" fill="#E8E8F7"/>
<path d="M231.472 37.1462H248.773C249.569 37.1462 250.218 37.7953 250.218 38.5916V38.6002C250.218 39.3965 249.569 40.0456 248.773 40.0456H231.472C230.675 40.0456 230.026 39.3965 230.026 38.6002V38.5916C230.035 37.7953 230.675 37.1462 231.472 37.1462Z" fill="#E8E8F7"/>
<path d="M235.704 56.8792H251.534C252.33 56.8792 252.979 57.5283 252.979 58.3245V58.3331C252.979 59.1294 252.33 59.7785 251.534 59.7785H235.704C234.908 59.7785 234.259 59.1294 234.259 58.3331V58.3245C234.259 57.5283 234.908 56.8792 235.704 56.8792Z" fill="#E8E8F7"/>
<path d="M142.483 37.1462H159.784C160.581 37.1462 161.23 37.7953 161.23 38.5916V38.6002C161.23 39.3965 160.581 40.0456 159.784 40.0456H142.483C141.687 40.0456 141.038 39.3965 141.038 38.6002V38.5916C141.038 37.7953 141.687 37.1462 142.483 37.1462Z" fill="#E8E8F7"/>
<path d="M212.396 59.3457H183.732C182.658 59.3457 181.793 60.2198 181.793 61.293V75.5474H214.344V61.2671C214.326 60.2025 213.461 59.3457 212.396 59.3457Z" fill="#ACAFE0"/>
<path d="M188.342 38.8223C188.467 38.0532 187.945 37.3286 187.176 37.2038C186.407 37.0789 185.682 37.6012 185.557 38.3703C185.432 39.1394 185.955 39.864 186.724 39.9888C187.493 40.1136 188.217 39.5914 188.342 38.8223Z" fill="#FF7A82"/>
<path d="M231.437 59.7352C232.216 59.7352 232.848 59.1035 232.848 58.3244C232.848 57.5453 232.216 56.9137 231.437 56.9137C230.658 56.9137 230.026 57.5453 230.026 58.3244C230.026 59.1035 230.658 59.7352 231.437 59.7352Z" fill="#FF7A82"/>
<path d="M213.323 113.862H296.383C298.382 113.862 300 115.481 300 117.48V157.785C300 159.784 298.382 161.403 296.383 161.403H213.323C211.324 161.403 209.705 159.784 209.705 157.785V117.48C209.705 115.489 211.332 113.862 213.323 113.862Z" fill="white"/>
<path d="M232.061 127.926H279.428C280.224 127.926 280.873 128.575 280.873 129.371V129.38C280.873 130.176 280.224 130.825 279.428 130.825H232.061C231.264 130.825 230.615 130.176 230.615 129.38V129.371C230.615 128.575 231.264 127.926 232.061 127.926Z" fill="#E8E8F7"/>
<path d="M232.061 134.365H261.833C262.629 134.365 263.278 135.014 263.278 135.811V135.819C263.278 136.615 262.629 137.265 261.833 137.265H232.061C231.264 137.265 230.615 136.615 230.615 135.819V135.811C230.615 135.014 231.264 134.365 232.061 134.365Z" fill="#E8E8F7"/>
<path d="M218.308 121.487H234.137C234.933 121.487 235.583 122.136 235.583 122.932V122.941C235.583 123.737 234.933 124.386 234.137 124.386H218.308C217.511 124.386 216.862 123.737 216.862 122.941V122.932C216.862 122.127 217.511 121.487 218.308 121.487Z" fill="#AAAAE3"/>
<path d="M218.377 143.219H227.439V153.795H218.377C217.546 153.795 216.871 153.12 216.871 152.289V144.734C216.863 143.894 217.538 143.219 218.377 143.219Z" fill="#E8E8F7"/>
<path d="M223.656 148.239H222.41V146.984C222.41 146.845 222.297 146.724 222.15 146.724C222.012 146.724 221.891 146.837 221.891 146.984V148.239H220.636C220.497 148.239 220.376 148.351 220.376 148.498C220.376 148.637 220.488 148.758 220.636 148.758H221.891V150.013C221.891 150.151 222.003 150.273 222.15 150.273C222.289 150.273 222.41 150.16 222.41 150.013V148.741H223.656C223.795 148.741 223.916 148.628 223.916 148.481C223.916 148.343 223.803 148.221 223.656 148.221V148.239Z" fill="#AAAAE3"/>
<path d="M217.91 127.926H225.162C225.734 127.926 226.201 128.393 226.201 128.965V136.217C226.201 136.789 225.734 137.256 225.162 137.256H217.91C217.339 137.256 216.871 136.789 216.871 136.217V128.965C216.863 128.393 217.33 127.926 217.91 127.926Z" fill="#FF7A82"/>
<path d="M291.605 143.773C291.986 143.773 292.297 144.084 292.297 144.465V152.523C292.297 152.904 291.986 153.215 291.605 153.215H218.109C217.728 153.215 217.416 152.904 217.416 152.523V144.465C217.416 144.084 217.728 143.773 218.109 143.773H291.605ZM291.605 143.228H218.109C217.425 143.228 216.871 143.782 216.862 144.465V152.523C216.862 153.207 217.425 153.761 218.109 153.761H291.605C292.289 153.761 292.842 153.207 292.842 152.523V144.465C292.842 143.782 292.289 143.228 291.605 143.228Z" fill="#E8E8F7"/>
<path opacity="0.3" d="M189.133 53.3652C189.141 51.4179 187.566 49.8341 185.619 49.8254C185.61 49.8254 185.61 49.8254 185.602 49.8254H83.0859V51.2881H181.949C183.888 51.2881 185.463 52.8633 185.463 54.8019V54.8106V121.772H189.124L189.133 53.3652Z" fill="#3B3FAD"/>
<path d="M27.1756 64.1058C27.1324 64.1578 27.0718 64.201 27.0112 64.227C26.7516 64.3309 26.4573 64.2097 26.3534 63.9587C25.9553 63.0153 25.6611 62.0287 25.4706 61.0247C25.4101 60.7478 25.5918 60.4795 25.8688 60.4276C26.1457 60.367 26.414 60.5487 26.4659 60.8257C26.639 61.7604 26.9073 62.6778 27.2795 63.5606C27.366 63.7337 27.3228 63.9587 27.1756 64.1058Z" fill="#110580"/>
<path d="M104.627 27.2452C104.584 27.2885 104.532 27.3231 104.48 27.3577L103.805 27.6779C102.256 28.4136 100.638 29.1925 98.9066 29.9715C98.6556 30.084 98.3527 29.9628 98.2402 29.7118C98.1277 29.4608 98.2316 29.1666 98.4826 29.0541C98.4826 29.0541 98.4912 29.0541 98.4912 29.0454C100.205 28.3097 101.806 27.5049 103.364 26.7692L104.03 26.449C104.281 26.3365 104.584 26.4403 104.697 26.7C104.792 26.8731 104.766 27.0894 104.627 27.2452ZM93.3762 32.1178C93.3243 32.1784 93.2551 32.2217 93.1772 32.2477C91.2212 32.9314 89.222 33.4766 87.1881 33.8921C86.9198 33.9527 86.6601 33.7882 86.5996 33.5199C86.5996 33.5113 86.5996 33.5026 86.5909 33.4939C86.5303 33.2257 86.7034 32.9574 86.9717 32.9054C86.9717 32.9054 86.9717 32.9054 86.9804 32.9054C88.971 32.4987 90.9269 31.9621 92.8396 31.2956C93.0906 31.2004 93.3762 31.3303 93.4714 31.5812C93.4714 31.5899 93.4801 31.5899 93.4801 31.5986C93.5493 31.789 93.5061 31.988 93.3762 32.1178ZM81.3807 34.4373C81.2942 34.5325 81.1644 34.5931 81.0259 34.5931C78.9488 34.6364 76.8716 34.4633 74.8291 34.0825C74.5521 34.0305 74.3704 33.7709 74.4223 33.4939C74.4742 33.2257 74.7339 33.0439 75.0022 33.0958H75.0108C76.9841 33.468 78.992 33.6324 80.9999 33.5892C81.2769 33.5892 81.5106 33.8055 81.5106 34.0911C81.5279 34.2123 81.4759 34.3421 81.3807 34.4373ZM69.4458 32.1438C69.2987 32.2996 69.065 32.3342 68.8746 32.239C66.9619 31.4255 65.1358 30.3955 63.4481 29.1839C63.2057 29.0367 63.1365 28.7252 63.2836 28.4915C63.4308 28.2492 63.7423 28.1799 63.976 28.3271C63.9933 28.3357 64.0193 28.353 64.0366 28.3703C65.6724 29.5387 67.4293 30.5167 69.2727 31.3043C69.5237 31.4082 69.6449 31.7024 69.541 31.9534V31.9621C69.5151 32.0226 69.4891 32.0832 69.4458 32.1438ZM67.0485 25.2546C66.2609 26.0768 65.4214 26.8471 64.5213 27.5481C64.3049 27.7299 63.9933 27.7039 63.8116 27.4962C63.8029 27.4875 63.7943 27.4789 63.7943 27.4702C63.6125 27.2539 63.6471 26.925 63.8722 26.7519C63.8808 26.7519 63.8808 26.7432 63.8895 26.7432C64.7463 26.0682 65.5598 25.3325 66.3041 24.5449C66.9273 23.8872 67.5158 23.1948 68.0438 22.4678C68.1909 22.2254 68.4938 22.1476 68.7361 22.2947C68.9785 22.4418 69.0564 22.7447 68.9092 22.9871C68.8919 23.013 68.8746 23.039 68.8573 23.065C68.2947 23.8352 67.6889 24.5709 67.0225 25.2633L67.0485 25.2546ZM59.3803 30.7764C59.3371 30.8196 59.2938 30.8542 59.2419 30.8802C57.3984 31.7976 55.503 32.6198 53.5816 33.3468C53.3307 33.4507 53.0364 33.3295 52.9325 33.0699V33.0612C52.8287 32.8016 52.9585 32.5073 53.2182 32.4121C55.4944 31.512 57.2167 30.7764 58.7918 29.9542C59.0341 29.8243 59.3371 29.9282 59.4669 30.1705C59.4669 30.1705 59.4669 30.1705 59.4669 30.1792C59.5707 30.3696 59.5361 30.6119 59.3803 30.7764ZM71.523 17.6471C71.3932 17.7769 71.2027 17.8288 71.021 17.7856C70.7527 17.7077 70.5969 17.4307 70.6661 17.1624C70.9431 16.1585 71.0902 15.1112 71.1075 14.0727C71.1248 13.1639 71.0037 12.2465 70.77 11.3724C70.6921 11.1041 70.8479 10.8358 71.1162 10.7579C71.1162 10.7579 71.1162 10.7579 71.1249 10.7579C71.3931 10.6887 71.6701 10.8444 71.748 11.1127C72.0076 12.0907 72.1375 13.0947 72.1201 14.0986C72.0942 15.2237 71.9384 16.3489 71.6441 17.4307C71.6182 17.5086 71.5836 17.5865 71.523 17.6471ZM59.6227 24.9777L59.5794 25.0209C59.3717 25.2027 59.0515 25.1854 58.8697 24.969C58.8611 24.9604 58.8524 24.9517 58.8524 24.943C57.4936 23.3333 56.4204 21.4984 55.6848 19.5252C55.5896 19.2655 55.728 18.9713 55.9877 18.8761C56.2473 18.7809 56.5416 18.9193 56.6368 19.179C57.3292 21.0484 58.3418 22.7794 59.6227 24.3112C59.7871 24.5103 59.7871 24.7873 59.6227 24.9777ZM48.0253 35.3634C47.9734 35.4153 47.9041 35.4586 47.8349 35.4845L45.8356 36.2721C44.5374 36.8001 43.3604 37.3194 42.2266 37.8559C41.9843 37.9771 41.69 37.8819 41.5688 37.6396C41.5688 37.6309 41.5602 37.6309 41.5602 37.6223C41.439 37.3799 41.5342 37.077 41.7852 36.9559C41.7852 36.9559 41.7939 36.9559 41.7939 36.9472C42.9449 36.4019 44.148 35.874 45.4548 35.3461C46.1212 35.0778 46.7963 34.8095 47.4714 34.5585C47.731 34.4546 48.0166 34.5844 48.1205 34.8354C48.1205 34.8441 48.1205 34.8441 48.1292 34.8527C48.1897 35.0172 48.1551 35.2249 48.0253 35.3634ZM26.4317 55.1482C26.3105 55.2693 26.1374 55.3213 25.9643 55.2953C25.696 55.2347 25.5229 54.9751 25.5662 54.6981C25.9903 52.6469 26.7346 50.665 27.7645 48.8388C27.9203 48.6052 28.2405 48.5532 28.4655 48.709C28.6646 48.8475 28.7425 49.1071 28.6386 49.3322C27.652 51.0891 26.9509 52.9845 26.5528 54.9491C26.5269 55.027 26.4836 55.1049 26.4317 55.1655V55.1482ZM37.0337 40.738L36.9472 40.8072C35.2595 41.9064 33.6757 43.17 32.2477 44.5894C32.0486 44.7884 31.7197 44.7884 31.512 44.5894C31.3043 44.3903 31.313 44.0614 31.512 43.8537C32.992 42.391 34.6104 41.0755 36.3587 39.9417C36.5837 39.7773 36.8953 39.8206 37.0684 40.0456C37.077 40.0543 37.0857 40.0716 37.0943 40.0802C37.2155 40.2879 37.1982 40.5562 37.0337 40.738ZM68.4851 6.42186C68.2947 6.62091 67.9745 6.62957 67.7668 6.43917C67.7582 6.43051 67.7581 6.43051 67.7495 6.42186C66.5724 5.34866 65.0406 4.74283 63.4481 4.72552C63.1279 4.72552 62.8076 4.75149 62.4874 4.80342C62.2278 4.82938 61.9941 4.64763 61.9422 4.39664C61.8989 4.11969 62.0893 3.8687 62.3576 3.81677C62.7297 3.75619 63.1019 3.73022 63.474 3.73022C65.3089 3.73888 67.0831 4.43126 68.4419 5.66024C68.6582 5.84199 68.6842 6.17087 68.5025 6.38724L68.4938 6.39589L68.4851 6.42186ZM55.7194 13.6832C55.5203 13.8823 55.2001 13.8823 55.001 13.6919C54.8885 13.588 54.8366 13.4322 54.8539 13.2851C55.0703 11.156 55.8319 9.12214 57.0522 7.36522C57.1993 7.12289 57.5109 7.05365 57.7446 7.20078C57.9869 7.34791 58.0562 7.65949 57.909 7.89316C57.9004 7.91047 57.8831 7.93644 57.8658 7.95375C56.7406 9.56353 56.0396 11.4416 55.8405 13.3976C55.8319 13.5015 55.7886 13.6053 55.7194 13.6832Z" fill="#110580"/>
<path d="M113.153 24.0689C113.066 24.1641 112.945 24.216 112.824 24.2247C111.889 24.3199 110.963 24.5449 110.08 24.8825C109.812 24.969 109.526 24.8132 109.448 24.5536C109.37 24.3026 109.5 24.0343 109.743 23.9304C110.712 23.5583 111.725 23.3073 112.754 23.1948C113.031 23.1775 113.265 23.3765 113.291 23.6535V23.6621C113.317 23.8179 113.265 23.965 113.153 24.0689Z" fill="#110580"/>
<path d="M3.52249 51.3054H181.94C183.888 51.3054 185.463 52.8806 185.463 54.8279V169.564C185.463 171.511 183.888 173.087 181.94 173.087H3.52249C1.57517 173.087 0 171.511 0 169.564V54.8279C0 52.8806 1.57517 51.3054 3.52249 51.3054Z" fill="white"/>
<path d="M82.8264 82.0298H134.469C135.716 82.0298 136.72 83.0337 136.72 84.28V108.946C136.72 110.192 135.716 111.196 134.469 111.196H82.8264C81.5801 111.196 80.5762 110.192 80.5762 108.946V84.28C80.5762 83.0337 81.5888 82.0298 82.8264 82.0298Z" fill="#E8E8F7"/>
<path d="M151.346 100.11H178.201C179.006 100.11 179.655 100.759 179.655 101.564V121.496C179.655 122.3 179.006 122.95 178.201 122.95H151.346C150.541 122.95 149.892 122.3 149.892 121.496V101.564C149.9 100.759 150.549 100.11 151.346 100.11Z" fill="#E8E8F7"/>
<path d="M3.52249 173.095H16.0373V51.2881H3.52249C1.57517 51.2881 0 52.8633 0 54.8106C0 54.8192 0 54.8192 0 54.8279V169.573C0 171.52 1.57517 173.095 3.52249 173.095Z" fill="#453069"/>
<path d="M59.9773 51.3054H16.0371V173.095H59.9773V51.3054Z" fill="#573E82"/>
<path d="M4.39697 60.817H11.6497C12.2209 60.817 12.6882 61.2844 12.6882 61.8556V69.1083C12.6882 69.6795 12.2209 70.1468 11.6497 70.1468H4.39697C3.82576 70.1468 3.3584 69.6795 3.3584 69.1083V61.8556C3.3584 61.2844 3.82576 60.817 4.39697 60.817Z" fill="#FF7A82"/>
<path d="M68.4155 67.1956H75.6682C76.2394 67.1956 76.7068 67.6629 76.7068 68.2341V75.4868C76.7068 76.058 76.2394 76.5254 75.6682 76.5254H68.4155C67.8443 76.5254 67.377 76.058 67.377 75.4868V68.2341C67.377 67.6629 67.8443 67.1956 68.4155 67.1956Z" fill="#868AE0"/>
<path d="M4.39697 74.8983H11.6497C12.2209 74.8983 12.6882 75.3657 12.6882 75.9369V83.1896C12.6882 83.7608 12.2209 84.2281 11.6497 84.2281H4.39697C3.82576 84.2281 3.3584 83.7608 3.3584 83.1896V75.9369C3.3584 75.357 3.82576 74.8983 4.39697 74.8983Z" fill="#868AE0"/>
<path d="M11.6237 89.5075C11.892 89.5075 12.117 89.7239 12.117 90.0009V97.2535C12.117 97.5218 11.9006 97.7469 11.6237 97.7469H4.39697C4.12867 97.7469 3.9123 97.5218 3.90365 97.2535V90.0009C3.90365 89.7326 4.12867 89.5162 4.39697 89.5075H11.6497M11.6497 88.9623H4.39697C3.82576 88.9623 3.3584 89.4296 3.3584 90.0009V97.2535C3.3584 97.8247 3.82576 98.2921 4.39697 98.2921H11.6497C12.2209 98.2921 12.6882 97.8247 12.6882 97.2535V90.0009C12.6882 89.4296 12.2209 88.9623 11.6497 88.9623Z" fill="#745CA1"/>
<path d="M7.99715 91.8702C7.85002 91.8702 7.73751 91.9914 7.73751 92.1299V93.3762H6.49988C6.3614 93.3762 6.24023 93.4887 6.24023 93.6358C6.24023 93.7743 6.35275 93.8868 6.49988 93.8955H7.74616V95.1504C7.74616 95.2889 7.85867 95.41 8.00581 95.41C8.14428 95.41 8.26545 95.2975 8.26545 95.1504V93.8955H9.52904C9.66752 93.8955 9.78869 93.7829 9.78869 93.6358C9.78869 93.4973 9.67617 93.3848 9.52904 93.3762H8.25679V92.1299C8.26545 91.9914 8.15294 91.8789 7.99715 91.8702C8.00581 91.8702 8.00581 91.8702 7.99715 91.8702Z" fill="#E8E8F7"/>
<path d="M22.1905 76.361H46.1122C46.9085 76.361 47.5576 77.0101 47.5576 77.8063V77.815C47.5576 78.6112 46.9085 79.2603 46.1122 79.2603H22.1905C21.3942 79.2603 20.7451 78.6112 20.7451 77.815V77.8063C20.7451 77.0101 21.3942 76.361 22.1905 76.361Z" fill="#C0AFDB"/>
<path d="M22.1905 60.817H38.046C38.8422 60.817 39.4913 61.4661 39.4913 62.2624V62.271C39.4913 63.0673 38.8422 63.7164 38.046 63.7164H22.1905C21.3942 63.7164 20.7451 63.0673 20.7451 62.271V62.2624C20.7451 61.4661 21.3942 60.817 22.1905 60.817Z" fill="white"/>
<path d="M22.1905 83.1117H40.2183C41.0146 83.1117 41.6637 83.7608 41.6637 84.557V84.5657C41.6637 85.3619 41.0146 86.011 40.2183 86.011H22.1905C21.3942 86.011 20.7451 85.3619 20.7451 84.5657V84.557C20.7451 83.7521 21.3942 83.1117 22.1905 83.1117Z" fill="#745CA1"/>
<path d="M82.0215 67.1956H122.058C122.855 67.1956 123.504 67.8447 123.504 68.6409V68.6496C123.504 69.4458 122.855 70.0949 122.058 70.0949H82.0215C81.2253 70.0949 80.5762 69.4458 80.5762 68.6496V68.6409C80.5762 67.836 81.2253 67.1956 82.0215 67.1956Z" fill="#E8E8F7"/>
<path d="M82.0215 73.6348H107.389C108.185 73.6348 108.834 74.2839 108.834 75.0801V75.0888C108.834 75.885 108.185 76.5341 107.389 76.5341H82.0215C81.2253 76.5341 80.5762 75.885 80.5762 75.0888V75.0801C80.5762 74.2839 81.2253 73.6348 82.0215 73.6348Z" fill="#E8E8F7"/>
<path d="M68.4155 119.851H75.6682C76.2394 119.851 76.7068 120.319 76.7068 120.89V128.142C76.7068 128.714 76.2394 129.181 75.6682 129.181H68.4155C67.8443 129.181 67.377 128.714 67.377 128.142V120.89C67.377 120.319 67.8443 119.851 68.4155 119.851Z" fill="#868AE0"/>
<path d="M150.541 127.19H155.007C155.362 127.19 155.647 127.476 155.647 127.831V132.297C155.647 132.652 155.362 132.937 155.007 132.937H150.541C150.186 132.937 149.9 132.652 149.9 132.297V127.831C149.9 127.485 150.186 127.19 150.541 127.19Z" fill="#868AE0"/>
<path d="M150.541 65.0145H155.007C155.362 65.0145 155.647 65.3001 155.647 65.655V70.1208C155.647 70.4757 155.362 70.7613 155.007 70.7613H150.541C150.186 70.7613 149.9 70.4757 149.9 70.1208V65.655C149.9 65.3088 150.186 65.0145 150.541 65.0145Z" fill="#FF7A82"/>
<path d="M82.0215 119.851H129.389C130.185 119.851 130.834 120.5 130.834 121.297V121.305C130.834 122.101 130.185 122.751 129.389 122.751H82.0215C81.2253 122.751 80.5762 122.101 80.5762 121.305V121.297C80.5762 120.5 81.2253 119.851 82.0215 119.851Z" fill="#E8E8F7"/>
<path d="M82.0215 126.29H114.719C115.515 126.29 116.165 126.939 116.165 127.736V127.744C116.165 128.541 115.515 129.19 114.719 129.19H82.0215C81.2253 129.19 80.5762 128.541 80.5762 127.744V127.736C80.5762 126.939 81.2253 126.29 82.0215 126.29Z" fill="#E8E8F7"/>
<path d="M82.0215 132.729H122.058C122.855 132.729 123.504 133.378 123.504 134.175V134.183C123.504 134.98 122.855 135.629 122.058 135.629H82.0215C81.2253 135.629 80.5762 134.98 80.5762 134.183V134.175C80.5762 133.378 81.2253 132.729 82.0215 132.729Z" fill="#E8E8F7"/>
<path d="M82.0215 139.169H129.389C130.185 139.169 130.834 139.818 130.834 140.614V140.623C130.834 141.419 130.185 142.068 129.389 142.068H82.0215C81.2253 142.068 80.5762 141.419 80.5762 140.623V140.614C80.5762 139.818 81.2253 139.169 82.0215 139.169Z" fill="#E8E8F7"/>
<path d="M151.346 73.6866H176.713C177.509 73.6866 178.158 74.3357 178.158 75.132V75.1406C178.158 75.9369 177.509 76.586 176.713 76.586H151.346C150.549 76.586 149.9 75.9369 149.9 75.1406V75.132C149.9 74.3357 150.541 73.6866 151.346 73.6866Z" fill="#E8E8F7"/>
<path d="M151.346 80.1257H169.374C170.17 80.1257 170.819 80.7748 170.819 81.5711V81.5797C170.819 82.376 170.17 83.0251 169.374 83.0251H151.346C150.549 83.0251 149.9 82.376 149.9 81.5797V81.5711C149.9 80.7748 150.541 80.1257 151.346 80.1257Z" fill="#E8E8F7"/>
<path d="M151.346 86.5649H173.779C174.575 86.5649 175.224 87.214 175.224 88.0103V88.0189C175.224 88.8152 174.575 89.4643 173.779 89.4643H151.346C150.549 89.4643 149.9 88.8152 149.9 88.0189V88.0103C149.9 87.214 150.541 86.5649 151.346 86.5649Z" fill="#E8E8F7"/>
<path d="M151.346 93.004H162.043C162.839 93.004 163.488 93.6531 163.488 94.4494V94.458C163.488 95.2543 162.839 95.9034 162.043 95.9034H151.346C150.549 95.9034 149.9 95.2543 149.9 94.458V94.4494C149.9 93.6531 150.541 93.004 151.346 93.004Z" fill="#E8E8F7"/>
<path d="M151.346 136.191H169.374C170.17 136.191 170.819 136.84 170.819 137.637V137.645C170.819 138.442 170.17 139.091 169.374 139.091H151.346C150.549 139.091 149.9 138.442 149.9 137.645V137.637C149.9 136.84 150.541 136.191 151.346 136.191Z" fill="#E8E8F7"/>
<path d="M151.346 142.63H176.713C177.509 142.63 178.158 143.28 178.158 144.076V144.084C178.158 144.881 177.509 145.53 176.713 145.53H151.346C150.549 145.53 149.9 144.881 149.9 144.084V144.076C149.9 143.28 150.541 142.63 151.346 142.63Z" fill="#E8E8F7"/>
<path d="M82.0215 145.616H107.389C108.185 145.616 108.834 146.265 108.834 147.062V147.07C108.834 147.867 108.185 148.516 107.389 148.516H82.0215C81.2253 148.516 80.5762 147.867 80.5762 147.07V147.062C80.5762 146.257 81.2253 145.616 82.0215 145.616Z" fill="#E8E8F7"/>
<path d="M22.1905 89.8624H40.2183C41.0146 89.8624 41.6637 90.5115 41.6637 91.3078V91.3164C41.6637 92.1127 41.0146 92.7618 40.2183 92.7618H22.1905C21.3942 92.7618 20.7451 92.1127 20.7451 91.3164V91.3078C20.7451 90.5115 21.3942 89.8624 22.1905 89.8624Z" fill="#745CA1"/>
<path d="M22.1905 96.6132H40.2183C41.0146 96.6132 41.6637 97.2623 41.6637 98.0585V98.0672C41.6637 98.8634 41.0146 99.5125 40.2183 99.5125H22.1905C21.3942 99.5125 20.7451 98.8634 20.7451 98.0672V98.0585C20.7451 97.2536 21.3942 96.6132 22.1905 96.6132Z" fill="#745CA1"/>
<path d="M22.1905 114.243H49.0462C49.8424 114.243 50.4915 114.892 50.4915 115.688V115.697C50.4915 116.493 49.8424 117.142 49.0462 117.142H22.1905C21.3942 117.142 20.7451 116.493 20.7451 115.697V115.688C20.7451 114.883 21.3942 114.243 22.1905 114.243Z" fill="#C0AFDB"/>
<path d="M22.1905 120.985H40.2183C41.0146 120.985 41.6637 121.634 41.6637 122.43V122.439C41.6637 123.235 41.0146 123.884 40.2183 123.884H22.1905C21.3942 123.884 20.7451 123.235 20.7451 122.439V122.43C20.7451 121.634 21.3942 120.985 22.1905 120.985Z" fill="#745CA1"/>
<path d="M22.1905 145.59H49.0462C49.8424 145.59 50.4915 146.239 50.4915 147.036V147.044C50.4915 147.841 49.8424 148.49 49.0462 148.49H22.1905C21.3942 148.49 20.7451 147.841 20.7451 147.044V147.036C20.7451 146.239 21.3942 145.59 22.1905 145.59Z" fill="#C0AFDB"/>
<path d="M22.1905 152.35H40.2183C41.0146 152.35 41.6637 152.999 41.6637 153.795V153.804C41.6637 154.6 41.0146 155.249 40.2183 155.249H22.1905C21.3942 155.249 20.7451 154.6 20.7451 153.804V153.795C20.7451 152.99 21.3942 152.35 22.1905 152.35Z" fill="#745CA1"/>
<path d="M22.1905 127.744H40.2183C41.0146 127.744 41.6637 128.393 41.6637 129.19V129.198C41.6637 129.995 41.0146 130.644 40.2183 130.644H22.1905C21.3942 130.644 20.7451 129.995 20.7451 129.198V129.19C20.7451 128.385 21.3942 127.744 22.1905 127.744Z" fill="#745CA1"/>
<path d="M55.1739 117.125C55.9721 117.125 56.6192 116.478 56.6192 115.68C56.6192 114.881 55.9721 114.234 55.1739 114.234C54.3756 114.234 53.7285 114.881 53.7285 115.68C53.7285 116.478 54.3756 117.125 55.1739 117.125Z" fill="#FF7A82"/>
<path d="M144.785 54.8885C144.889 54.8885 144.967 54.9664 144.967 55.0703V169.322C144.967 169.426 144.889 169.504 144.785 169.504C144.681 169.504 144.604 169.426 144.604 169.322V55.0703C144.604 54.9664 144.681 54.8885 144.785 54.8885Z" fill="#E8E8F7"/>
<path d="M136.018 156.158C136.399 156.149 136.71 156.461 136.719 156.842C136.719 156.859 136.719 156.876 136.719 156.894V164.951C136.719 165.332 136.407 165.644 136.027 165.644H136.018H68.6146C68.2338 165.644 67.9222 165.332 67.9222 164.951V156.894C67.8962 156.513 68.1818 156.184 68.5627 156.167C68.58 156.167 68.5886 156.167 68.6059 156.167H136.018M136.018 155.604H68.6146C67.9309 155.604 67.377 156.158 67.377 156.842V156.85V164.908C67.377 165.592 67.9222 166.146 68.6059 166.154H68.6146H136.018C136.702 166.154 137.264 165.6 137.264 164.908V156.85C137.264 156.167 136.71 155.604 136.018 155.604Z" fill="#E8E8F7"/>
<path d="M178.418 151.718C178.807 151.735 179.11 152.064 179.11 152.454V160.511C179.093 160.892 178.79 161.186 178.418 161.204H151.138C150.766 161.178 150.471 160.883 150.446 160.511V152.402C150.446 152.012 150.748 151.692 151.138 151.666H178.418M178.418 151.112H151.138C150.454 151.112 149.892 151.666 149.892 152.358V160.416C149.892 161.1 150.446 161.662 151.138 161.662H178.418C179.101 161.662 179.664 161.108 179.664 160.416V152.393C179.664 151.709 179.11 151.147 178.418 151.147V151.112Z" fill="#E8E8F7"/>
</g>
<defs>
<clipPath id="clip0_360_458">
<rect width="300" height="173.095" fill="white"/>
</clipPath>
</defs>
</svg>
