<svg width="256" height="232" viewBox="0 0 256 232" fill="none" xmlns="http://www.w3.org/2000/svg">
<path d="M170.426 146.991C170.261 146.96 170.127 146.846 170.096 146.68C170.044 146.463 170.178 146.235 170.395 146.183L172.344 145.697L171.86 143.741C171.808 143.524 171.942 143.296 172.169 143.244C172.386 143.192 172.612 143.317 172.664 143.544L173.334 146.318L170.57 147.001C170.529 147.011 170.478 147.011 170.426 146.991Z" fill="#110580"/>
<path d="M130.339 156.885C130.184 156.854 130.07 156.74 130.029 156.596C129.978 156.378 130.101 156.151 130.328 156.099L135.341 154.857C135.567 154.826 135.784 154.981 135.815 155.209C135.846 155.405 135.732 155.602 135.536 155.664L130.555 156.896C130.483 156.916 130.411 156.906 130.339 156.885ZM140.363 154.412C140.136 154.36 140.002 154.132 140.054 153.915C140.085 153.76 140.208 153.646 140.363 153.604L145.375 152.373C145.592 152.321 145.819 152.456 145.87 152.673C145.922 152.89 145.788 153.118 145.571 153.17L140.59 154.412C140.518 154.432 140.435 154.432 140.363 154.412ZM150.377 151.938C150.15 151.886 150.016 151.659 150.068 151.441C150.099 151.286 150.223 151.172 150.377 151.131L155.389 149.889C155.606 149.816 155.843 149.92 155.915 150.137C155.988 150.355 155.884 150.593 155.668 150.665C155.637 150.675 155.616 150.686 155.585 150.686L150.573 151.928C150.511 151.948 150.449 151.948 150.377 151.938ZM160.402 149.464C160.247 149.433 160.113 149.32 160.072 149.154C160.02 148.937 160.154 148.709 160.371 148.657C160.371 148.657 160.371 148.657 160.381 148.657L165.393 147.415C165.61 147.363 165.837 147.498 165.888 147.715C165.94 147.933 165.806 148.16 165.589 148.212L160.577 149.454C160.515 149.475 160.453 149.475 160.402 149.464Z" fill="#110580"/>
<path d="M122.748 158.821L122.077 156.047C122.026 155.83 122.16 155.602 122.377 155.55C122.593 155.498 122.82 155.633 122.872 155.85L123.356 157.806L125.305 157.33C125.522 157.279 125.749 157.413 125.801 157.63C125.852 157.848 125.718 158.076 125.501 158.127L122.748 158.821Z" fill="#110580"/>
<path d="M121.252 151.679C121.087 151.648 120.964 151.524 120.922 151.369L119.778 146.701C119.726 146.484 119.85 146.256 120.077 146.204C120.293 146.142 120.51 146.277 120.572 146.494V146.504L121.716 151.172C121.768 151.39 121.644 151.617 121.417 151.669C121.376 151.679 121.314 151.679 121.252 151.679ZM118.963 142.333C118.798 142.313 118.674 142.188 118.633 142.023L117.488 137.355C117.416 137.138 117.519 136.9 117.736 136.827C117.952 136.755 118.189 136.858 118.262 137.076C118.272 137.107 118.282 137.127 118.282 137.158L119.427 141.826C119.479 142.044 119.344 142.271 119.118 142.323C119.076 142.344 119.025 142.344 118.963 142.333ZM116.673 132.998C116.508 132.967 116.385 132.842 116.343 132.687L115.199 128.03C115.147 127.812 115.281 127.585 115.498 127.533C115.714 127.481 115.941 127.616 115.993 127.833L117.137 132.501C117.189 132.718 117.055 132.946 116.828 132.998C116.787 133.008 116.735 133.008 116.673 132.998Z" fill="#110580"/>
<path d="M114.394 123.662C114.229 123.631 114.106 123.517 114.064 123.351L113.384 120.577L116.148 119.905C116.375 119.874 116.581 120.039 116.612 120.267C116.632 120.464 116.519 120.65 116.344 120.712L114.394 121.188L114.879 123.144C114.941 123.362 114.807 123.579 114.59 123.641H114.58C114.518 123.662 114.456 123.672 114.394 123.662Z" fill="#110580"/>
<path d="M121.181 119.48C120.954 119.439 120.81 119.222 120.851 118.994C120.882 118.839 120.995 118.715 121.15 118.673L126.162 117.442C126.379 117.39 126.606 117.524 126.657 117.742C126.709 117.959 126.575 118.187 126.358 118.238L121.377 119.48C121.315 119.491 121.243 119.501 121.181 119.48ZM131.205 117.017C130.978 116.965 130.844 116.738 130.896 116.52C130.927 116.365 131.051 116.251 131.205 116.21L136.187 114.968C136.413 114.937 136.63 115.092 136.661 115.32C136.692 115.516 136.578 115.713 136.383 115.775L131.37 117.007C131.308 117.017 131.257 117.017 131.205 117.017ZM141.219 114.533C141.003 114.492 140.858 114.274 140.9 114.047C140.931 113.881 141.054 113.757 141.219 113.726L146.232 112.484C146.448 112.432 146.675 112.556 146.727 112.784C146.778 113.001 146.644 113.229 146.417 113.281L141.405 114.523C141.353 114.554 141.281 114.554 141.219 114.533ZM151.234 112.07C151.069 112.039 150.945 111.915 150.904 111.759C150.852 111.542 150.986 111.314 151.213 111.263L156.225 110.021C156.442 109.969 156.669 110.103 156.72 110.331C156.772 110.548 156.648 110.776 156.421 110.828L151.409 112.07C151.347 112.07 151.285 112.07 151.234 112.07Z" fill="#110580"/>
<path d="M164.176 111.376C164.011 111.345 163.887 111.221 163.846 111.066L163.362 109.11L161.412 109.596C161.196 109.648 160.969 109.524 160.917 109.296C160.866 109.079 161 108.851 161.216 108.799L163.98 108.116L164.651 110.89C164.702 111.107 164.578 111.335 164.352 111.387C164.3 111.387 164.238 111.387 164.176 111.376Z" fill="#110580"/>
<path d="M171.045 139.383C170.88 139.352 170.756 139.239 170.715 139.073L169.57 134.384C169.518 134.167 169.653 133.939 169.869 133.888C170.086 133.836 170.313 133.97 170.364 134.188L171.509 138.856C171.56 139.073 171.437 139.301 171.21 139.352C171.158 139.373 171.107 139.383 171.045 139.383ZM168.766 130.048C168.601 130.017 168.467 129.903 168.436 129.737L167.291 125.069C167.26 124.842 167.415 124.624 167.641 124.593C167.837 124.562 168.033 124.676 168.095 124.873L169.24 129.541C169.292 129.758 169.158 129.986 168.931 130.037C168.879 130.058 168.817 130.058 168.766 130.048ZM166.476 120.702C166.311 120.671 166.187 120.557 166.146 120.391L165.001 115.723C164.95 115.506 165.084 115.278 165.3 115.227C165.517 115.175 165.744 115.309 165.795 115.527L166.94 120.195C166.992 120.412 166.858 120.64 166.631 120.691C166.59 120.712 166.528 120.722 166.476 120.702Z" fill="#110580"/>
<path d="M63.1374 103.738C62.9517 103.614 62.8898 103.365 63.0136 103.169C63.1064 103.024 63.2714 102.951 63.4364 102.982L65.4166 103.334L65.7672 101.347C65.8085 101.119 66.0148 100.975 66.2416 101.006C66.4685 101.047 66.6129 101.264 66.5717 101.492L66.0766 104.266L63.2817 103.769C63.2405 103.779 63.1786 103.769 63.1374 103.738Z" fill="#110580"/>
<path d="M22.5037 96.493C22.3696 96.3998 22.2975 96.2342 22.3284 96.079C22.3696 95.8616 22.5862 95.7064 22.8028 95.7478L27.8872 96.6482C28.1038 96.7103 28.2379 96.938 28.176 97.1657C28.1244 97.352 27.9388 97.4866 27.7428 97.4659L22.6894 96.5654C22.6172 96.5551 22.5553 96.5344 22.5037 96.493ZM32.6416 98.2835C32.5076 98.1904 32.4354 98.0248 32.4663 97.8695C32.5076 97.6418 32.7138 97.4969 32.9407 97.5383L38.0251 98.4388C38.2417 98.5009 38.3758 98.7286 38.3139 98.9563C38.2623 99.1426 38.0767 99.2771 37.8808 99.2564L32.7963 98.356C32.7448 98.3456 32.6932 98.3249 32.6416 98.2835ZM42.8002 100.105C42.6661 100.012 42.5939 99.8464 42.6248 99.6911C42.6661 99.4634 42.8827 99.3185 43.1096 99.3496L48.194 100.26C48.4209 100.302 48.5653 100.519 48.524 100.736C48.4828 100.964 48.2662 101.109 48.0496 101.068L42.9652 100.167C42.9136 100.157 42.8621 100.147 42.8208 100.126L42.8002 100.105ZM52.9587 101.916C52.8246 101.823 52.7524 101.658 52.7834 101.502C52.8246 101.275 53.0309 101.13 53.2578 101.171H53.2681L58.3422 102.072C58.5691 102.113 58.7135 102.32 58.6826 102.548C58.6826 102.548 58.6826 102.548 58.6826 102.558C58.6413 102.786 58.4247 102.931 58.1978 102.889L53.1237 101.999C53.0722 101.989 53.0206 101.968 52.9793 101.937L52.9587 101.916Z" fill="#110580"/>
<path d="M14.7891 95.1579L15.2841 92.3841C15.3047 92.1564 15.5007 91.9805 15.7276 92.0012C15.9545 92.0219 16.1298 92.2185 16.1092 92.4462C16.1092 92.4773 16.0988 92.498 16.0988 92.529L15.7482 94.5162L17.7283 94.8681C17.9552 94.9095 18.0996 95.1269 18.0584 95.3442C18.0171 95.5616 17.8005 95.7168 17.584 95.6754L14.7891 95.1579Z" fill="#110580"/>
<path d="M16.3055 88.0371C16.1714 87.9439 16.0992 87.7783 16.1302 87.6231L16.9655 82.8932C16.9862 82.6655 17.1821 82.4895 17.409 82.5102C17.6359 82.5309 17.8112 82.7275 17.7906 82.9552C17.7906 82.9863 17.7803 83.007 17.7803 83.038L16.9346 87.768C16.9036 87.9853 16.6871 88.1406 16.4705 88.0992H16.4602C16.3983 88.0889 16.3467 88.0681 16.3055 88.0371ZM17.9659 78.5979C17.8318 78.5048 17.7596 78.3392 17.7906 78.1839L18.626 73.4539C18.6466 73.2262 18.8425 73.0503 19.0694 73.071C19.2963 73.0917 19.4716 73.2883 19.451 73.516C19.451 73.5471 19.4407 73.5678 19.4407 73.5988L18.6156 78.2977C18.5847 78.5151 18.3681 78.6703 18.1515 78.6289H18.1412C18.0897 78.6186 18.0278 78.5979 17.9865 78.5668L17.9659 78.5979ZM19.6263 69.1277C19.4923 69.0345 19.4201 68.8689 19.451 68.7137L20.2864 63.9837C20.3483 63.7663 20.5752 63.6318 20.8021 63.6939C20.9877 63.7457 21.1218 63.9319 21.1011 64.1286L20.2967 68.8585C20.2554 69.0862 20.0492 69.2311 19.8223 69.2001C19.7604 69.1794 19.7088 69.1483 19.6676 69.1069L19.6263 69.1277Z" fill="#110580"/>
<path d="M21.3279 59.6367C21.1939 59.5435 21.1217 59.3779 21.1526 59.2227L21.6476 56.4489L24.4425 56.9457C24.6694 56.9871 24.8138 57.2044 24.7726 57.4217C24.7313 57.6494 24.5147 57.7944 24.2982 57.753L22.318 57.401L21.9674 59.3882C21.9261 59.6159 21.7198 59.7608 21.493 59.7298C21.4311 59.7091 21.3795 59.6781 21.3279 59.6367Z" fill="#110580"/>
<path d="M29.2176 58.5706C29.0835 58.4775 29.0113 58.3119 29.0423 58.1566C29.0835 57.9289 29.2898 57.784 29.5167 57.8254H29.527L34.6011 58.7259C34.828 58.7673 34.9724 58.9846 34.9311 59.202C34.8899 59.4297 34.6733 59.5746 34.4567 59.5332L29.3723 58.6327C29.3207 58.6224 29.2692 58.6017 29.2176 58.5706ZM39.3761 60.3819C39.1905 60.2577 39.1286 60.0093 39.2524 59.8126C39.3452 59.6677 39.5102 59.5953 39.6752 59.6263L44.7596 60.5164C44.9865 60.5578 45.1309 60.7648 45.1 60.9925C45.0587 61.2202 44.8421 61.3651 44.6153 61.3341L39.5308 60.4233C39.4793 60.4336 39.4174 60.4129 39.3761 60.3819ZM49.5347 62.1931C49.349 62.0689 49.2871 61.8205 49.4109 61.6239C49.5037 61.479 49.6687 61.4065 49.8337 61.4376L54.9182 62.338C55.1348 62.4001 55.2688 62.6278 55.2069 62.8555C55.1554 63.0418 54.9697 63.1764 54.7738 63.1557L49.6894 62.2552C49.6378 62.2449 49.5759 62.2242 49.5347 62.1931ZM59.6932 64.0147C59.5591 63.9216 59.4869 63.756 59.5179 63.6007C59.5591 63.373 59.7654 63.2281 59.9923 63.2592L65.0767 64.1596C65.3036 64.201 65.448 64.4184 65.4067 64.6461C65.3655 64.8634 65.1489 65.0187 64.9323 64.9773L59.8479 64.0768C59.7963 64.0561 59.7448 64.0354 59.6932 64.0147Z" fill="#110580"/>
<path d="M71.8114 68.6309C71.6774 68.5377 71.6052 68.3721 71.6361 68.2169L71.9868 66.24L70.0066 65.8881C69.79 65.8571 69.6353 65.6397 69.6766 65.4224V65.412C69.7179 65.1843 69.9241 65.0394 70.151 65.0705C70.151 65.0705 70.151 65.0705 70.1613 65.0705L72.9253 65.5673L72.4302 68.3411C72.389 68.5688 72.1724 68.7137 71.9455 68.6826C71.8939 68.6723 71.8527 68.6619 71.8114 68.6309Z" fill="#110580"/>
<path d="M66.7781 97.0416C66.6441 96.9484 66.5719 96.7828 66.6028 96.6276L67.4485 91.8976C67.4897 91.6699 67.696 91.525 67.9229 91.5561C67.9229 91.5561 67.9229 91.5561 67.9332 91.5561C68.1601 91.5975 68.3045 91.8148 68.2632 92.0425L67.4279 96.7725C67.3866 97.0002 67.1804 97.1451 66.9535 97.1037H66.9431C66.8813 97.0933 66.8297 97.0726 66.7781 97.0416ZM68.4386 87.5713C68.3045 87.4782 68.2323 87.3126 68.2632 87.1573L69.1089 82.4274C69.1399 82.21 69.3564 82.0548 69.573 82.0962H69.5833C69.8102 82.1376 69.9546 82.3446 69.9134 82.5723L69.078 87.3022C69.0367 87.5299 68.8202 87.6748 68.5933 87.6438C68.5417 87.6334 68.5004 87.6127 68.4592 87.5817H68.4386V87.5713ZM70.099 78.1321C69.9649 78.039 69.8927 77.8734 69.9237 77.7181L70.7694 72.9882C70.8003 72.7708 71.0169 72.6156 71.2335 72.657H71.2438C71.4707 72.6984 71.615 72.9054 71.5738 73.1331L70.7384 77.863C70.6972 78.0907 70.4806 78.2356 70.2537 78.2046C70.2021 78.1839 70.1609 78.1528 70.1299 78.1114L70.099 78.1321Z" fill="#110580"/>
<path d="M52.35 3.46729H125.192C130.39 3.46729 134.598 7.69008 134.598 12.9065V193.628C134.598 198.844 130.39 203.067 125.192 203.067H52.35C47.1522 203.067 42.9444 198.844 42.9444 193.628V12.9065C42.934 7.70044 47.1522 3.46729 52.35 3.46729Z" fill="white"/>
<path d="M126.059 0H51.4631C44.5532 0.01035 38.9531 5.6304 38.9531 12.5649V194.425C38.9531 201.359 44.5532 206.99 51.4631 207H126.059C132.979 207 138.589 201.37 138.589 194.425V12.5649C138.579 5.6304 132.979 0 126.059 0ZM134.598 193.866C134.598 199.082 130.39 203.305 125.192 203.305H52.35C47.1521 203.305 42.9443 199.082 42.9443 193.866V13.1342C42.9443 7.91775 47.1521 3.69495 52.35 3.69495H61.5494C62.5601 3.69495 63.3749 4.5126 63.3852 5.5269V6.32385C63.3852 9.01485 65.551 11.1883 68.2324 11.1883H109.32C112.002 11.1883 114.168 9.01485 114.168 6.32385V5.5476C114.168 4.5333 114.993 3.71565 116.003 3.71565H125.203C130.401 3.71565 134.608 7.93845 134.608 13.1549L134.598 193.866Z" fill="#868AE0"/>
<path d="M42.9336 13.1341V36.1215H134.598V13.1341C134.598 7.91775 130.39 3.69495 125.192 3.69495H115.982C114.972 3.69495 114.157 4.5126 114.157 5.5269V6.32385C114.157 9.01485 111.991 11.1883 109.31 11.1883H68.2217C65.5402 11.1883 63.3744 9.01485 63.3744 6.32385V5.5476C63.3744 4.5333 62.5494 3.71565 61.5387 3.71565H52.329C47.1517 3.726 42.9542 7.93845 42.9336 13.1341Z" fill="#E8E8F7"/>
<path d="M31.0738 87.0229L2.89802 106.129L0 71.3219L31.0738 87.0229Z" fill="#EBDBCD"/>
<path d="M171.53 164.969C180.626 164.969 188 157.568 188 148.44C188 139.311 180.626 131.911 171.53 131.911C162.434 131.911 155.06 139.311 155.06 148.44C155.06 157.568 162.434 164.969 171.53 164.969Z" fill="#EBDBCD"/>
<path d="M73.0585 21.5073H102.297C103.648 21.5073 104.741 22.6044 104.741 23.9603V23.9706C104.741 25.3265 103.648 26.4236 102.297 26.4236H73.0585C71.7075 26.4236 70.6143 25.3265 70.6143 23.9706V23.9603C70.6143 22.6148 71.7075 21.5073 73.0585 21.5073Z" fill="#C5C6E3"/>
<path d="M120.84 28.7522C123.471 28.7522 125.605 26.6114 125.605 23.9705C125.605 21.3297 123.471 19.1888 120.84 19.1888C118.208 19.1888 116.075 21.3297 116.075 23.9705C116.075 26.6114 118.208 28.7522 120.84 28.7522Z" fill="white"/>
<path d="M120.242 22.3353L121.861 23.9706L120.242 25.5956" stroke="#868AE0" stroke-width="6.0627" stroke-linecap="round" stroke-linejoin="round"/>
<path d="M54.0206 28.7522C56.6521 28.7522 58.7853 26.6114 58.7853 23.9705C58.7853 21.3297 56.6521 19.1888 54.0206 19.1888C51.3891 19.1888 49.2559 21.3297 49.2559 23.9705C49.2559 26.6114 51.3891 28.7522 54.0206 28.7522Z" fill="white"/>
<path d="M54.5981 22.3353L52.9893 23.9706L54.5981 25.5956" stroke="#868AE0" stroke-width="6.0627" stroke-linecap="round" stroke-linejoin="round"/>
<path d="M63.643 85.9153H124.429C125.357 85.9153 126.11 86.6708 126.11 87.6023V98.2214C126.11 99.1529 125.357 99.9085 124.429 99.9085H63.643C62.7148 99.9085 61.9619 99.1529 61.9619 98.2214V87.6023C61.9722 86.6708 62.7148 85.9153 63.643 85.9153Z" fill="#FFCBCE"/>
<path d="M50.8034 81.765H58.724C59.58 81.765 60.2813 82.4585 60.2813 83.3279C60.2813 84.1869 59.5903 84.8907 58.724 84.8907H50.8034C49.9474 84.8907 49.2461 84.1973 49.2461 83.3279C49.2564 82.4585 49.9474 81.765 50.8034 81.765Z" fill="#E8E8F7"/>
<path d="M63.6325 99.9085H65.6539V85.9153H63.6325C62.7147 85.9153 61.9721 86.6605 61.9721 87.5816V98.1904C61.9515 99.1115 62.6734 99.8774 63.5913 99.8981C63.6016 99.9085 63.6222 99.9085 63.6325 99.9085Z" fill="#FF5856"/>
<path d="M63.643 143.285H124.429C125.357 143.285 126.11 144.041 126.11 144.972V155.592C126.11 156.523 125.357 157.279 124.429 157.279H63.643C62.7148 157.279 61.9619 156.523 61.9619 155.592V144.972C61.9722 144.041 62.7148 143.285 63.643 143.285Z" fill="#FEE3B0"/>
<path d="M50.8034 139.135H58.724C59.58 139.135 60.2813 139.828 60.2813 140.698C60.2813 141.557 59.5903 142.261 58.724 142.261H50.8034C49.9474 142.261 49.2461 141.567 49.2461 140.698C49.2564 139.828 49.9474 139.135 50.8034 139.135Z" fill="#E8E8F7"/>
<path d="M63.6331 157.268H65.6545V143.265H63.6331C62.7152 143.265 61.9726 144.01 61.9726 144.931V155.55C61.9417 156.471 62.6636 157.237 63.5815 157.268C63.5918 157.268 63.6124 157.268 63.6331 157.268Z" fill="#FDB62F"/>
<path d="M50.8034 164.896H58.724C59.58 164.896 60.2813 165.59 60.2813 166.459C60.2813 167.318 59.5903 168.022 58.724 168.022H50.8034C49.9474 168.022 49.2461 167.318 49.2461 166.459C49.2564 165.59 49.9474 164.896 50.8034 164.896Z" fill="#E8E8F7"/>
<path d="M63.643 169.047H124.429C125.357 169.047 126.11 169.802 126.11 170.734V187.201C126.11 188.132 125.357 188.888 124.429 188.888H63.643C62.7148 188.888 61.9619 188.132 61.9619 187.201V170.734C61.9722 169.802 62.7148 169.047 63.643 169.047Z" fill="#E8E8F7"/>
<path d="M63.6325 188.887H65.6539V169.057H63.6325C62.7147 169.057 61.9721 169.802 61.9721 170.723V187.19C61.9515 188.111 62.6837 188.867 63.6016 188.887C63.6119 188.887 63.6222 188.887 63.6325 188.887Z" fill="#ACAFE0"/>
<path d="M63.643 51.3774H124.429C125.357 51.3774 126.11 52.133 126.11 53.0645V75.3894C126.11 76.3209 125.357 77.0765 124.429 77.0765H63.643C62.7148 77.0765 61.9619 76.3209 61.9619 75.3894V53.0645C61.9722 52.133 62.7148 51.3774 63.643 51.3774Z" fill="#E8E8F7"/>
<path d="M50.8034 47.2271H58.724C59.58 47.2271 60.2813 47.9205 60.2813 48.7899C60.2813 49.649 59.5903 50.3528 58.724 50.3528H50.8034C49.9474 50.3528 49.2461 49.6593 49.2461 48.7899C49.2564 47.9205 49.9474 47.2271 50.8034 47.2271Z" fill="#E8E8F7"/>
<path d="M63.6325 77.0661H65.6539V51.3774H63.6325C62.7147 51.3774 61.9721 52.1226 61.9721 53.0438V75.3584C61.9515 76.2795 62.6734 77.0454 63.5913 77.0661C63.6016 77.0661 63.6222 77.0661 63.6325 77.0661Z" fill="#ACAFE0"/>
<path d="M50.8034 106.222H58.724C59.58 106.222 60.2813 106.915 60.2813 107.785C60.2813 108.644 59.5903 109.348 58.724 109.348H50.8034C49.9474 109.348 49.2461 108.654 49.2461 107.785C49.2564 106.915 49.9474 106.222 50.8034 106.222Z" fill="#E8E8F7"/>
<path d="M63.643 110.372H124.429C125.357 110.372 126.11 111.128 126.11 112.059V131.124C126.11 132.056 125.357 132.811 124.429 132.811H63.643C62.7148 132.811 61.9619 132.056 61.9619 131.124V112.059C61.9722 111.128 62.7148 110.372 63.643 110.372Z" fill="#E8E8F7"/>
<path d="M63.6325 132.822H65.6539V110.383H63.6325C62.7147 110.383 61.9721 111.128 61.9721 112.049V131.114C61.9515 132.035 62.6734 132.801 63.5913 132.822C63.6016 132.822 63.6222 132.822 63.6325 132.822Z" fill="#ACAFE0"/>
<path d="M67.9537 59.4193C67.9227 59.4297 67.8918 59.4297 67.8506 59.4193C67.7268 59.3676 67.6649 59.233 67.7165 59.0985C67.8918 58.6327 68.1187 58.1877 68.3972 57.7737C68.4693 57.6598 68.624 57.6288 68.7375 57.7012C68.8509 57.7737 68.8819 57.9289 68.8097 58.0428C68.5519 58.4257 68.3353 58.8397 68.1703 59.2744C68.129 59.3572 68.0465 59.4193 67.9537 59.4193Z" fill="#110580"/>
<path d="M107.35 72.6673C107.319 72.6777 107.299 72.6777 107.268 72.6673L106.927 72.5535C106.133 72.2844 105.308 71.9946 104.452 71.6944C104.328 71.653 104.256 71.5081 104.308 71.3839C104.359 71.2597 104.493 71.1873 104.628 71.239C105.484 71.5599 106.288 71.8186 107.092 72.0877L107.433 72.2016C107.556 72.243 107.629 72.3775 107.587 72.5121C107.536 72.6156 107.443 72.6777 107.35 72.6673ZM101.812 70.587C101.771 70.5973 101.74 70.5973 101.699 70.587C100.791 70.1626 99.9041 69.6865 99.0584 69.1483C98.9449 69.0759 98.914 68.931 98.9759 68.8171C98.9759 68.8171 98.9759 68.8068 98.9862 68.8068C99.0584 68.6929 99.2131 68.6619 99.3265 68.7343C100.152 69.2622 101.018 69.7383 101.905 70.1419C102.029 70.1937 102.08 70.3386 102.029 70.4628C101.987 70.5352 101.905 70.587 101.812 70.587ZM96.8307 67.3474C96.7688 67.3474 96.6966 67.3267 96.6554 67.2853C95.9128 66.6022 95.2425 65.8363 94.6649 65.0187C94.5721 64.9152 94.5721 64.7599 94.6752 64.6668C94.7784 64.5736 94.9331 64.5736 95.0259 64.6771C95.0465 64.6978 95.0568 64.7185 95.0672 64.7392C95.6241 65.5465 96.2738 66.2917 96.9854 66.9645C97.0782 67.0576 97.0885 67.2129 96.9957 67.306C96.9545 67.3474 96.8926 67.3785 96.8307 67.3785V67.3474ZM93.4377 62.514C93.3345 62.514 93.2417 62.4519 93.2005 62.3691C92.8086 61.4376 92.5198 60.4647 92.3341 59.4607C92.3135 59.3262 92.396 59.202 92.5301 59.1709C92.6642 59.1502 92.7879 59.233 92.8086 59.3676C92.9839 60.3198 93.2623 61.2513 93.6439 62.1414C93.6955 62.2656 93.6439 62.4105 93.5202 62.4622L93.4377 62.514ZM94.9228 59.2848C94.3659 59.3055 93.8193 59.2951 93.2623 59.233C93.1283 59.2227 93.0251 59.0985 93.0458 58.9639C93.0561 58.8294 93.1798 58.7259 93.3139 58.7466C93.8399 58.7983 94.3659 58.819 94.8918 58.7983C95.3353 58.7776 95.7685 58.7362 96.2016 58.6638C96.3357 58.6431 96.4594 58.7259 96.4801 58.8604C96.5007 58.995 96.4182 59.1192 96.2841 59.1399C95.8406 59.2227 95.3766 59.2744 94.9228 59.2848ZM90.4056 58.6224C90.3746 58.6327 90.354 58.6327 90.3231 58.6224C89.3742 58.3222 88.4357 57.9703 87.5179 57.577C87.3941 57.5253 87.3322 57.3804 87.3838 57.2562C87.4354 57.132 87.5797 57.0699 87.7035 57.1216C88.807 57.5874 89.6424 57.8979 90.4674 58.1566C90.5912 58.1877 90.6634 58.3119 90.6325 58.4361C90.6325 58.4464 90.6325 58.4464 90.6221 58.4568C90.5912 58.5603 90.5087 58.6224 90.4056 58.6224ZM99.0481 58.1359C98.9552 58.1359 98.8727 58.0945 98.8315 58.0221C98.7696 57.9082 98.8005 57.753 98.914 57.6805C99.3471 57.4218 99.7494 57.1113 100.11 56.749C100.42 56.4385 100.688 56.0763 100.904 55.6933C100.966 55.5691 101.121 55.5277 101.234 55.5898C101.358 55.6519 101.399 55.8072 101.338 55.921C101.1 56.3557 100.812 56.749 100.461 57.0906C100.069 57.4735 99.6359 57.8151 99.1718 58.1049C99.1306 58.1256 99.0893 58.1359 99.0481 58.1359ZM92.4063 56.6869C92.2723 56.6766 92.1691 56.5627 92.1794 56.4282C92.2516 55.4035 92.4992 54.3996 92.9014 53.4577C92.9529 53.3335 93.0973 53.2818 93.2211 53.3335C93.3448 53.3853 93.3964 53.5302 93.3448 53.6544C92.9632 54.5341 92.726 55.476 92.6539 56.4282C92.6539 56.5627 92.5507 56.6766 92.4166 56.6766H92.4063V56.6869ZM84.8674 56.3971H84.7642L83.8051 55.9935C83.176 55.7347 82.5881 55.5174 82.0106 55.3311C81.8868 55.2897 81.8146 55.1551 81.8559 55.0309C81.8559 55.0309 81.8559 55.0309 81.8559 55.0206C81.8972 54.8964 82.0312 54.8239 82.1653 54.8653C82.7531 55.062 83.341 55.2793 83.9907 55.5381L84.9602 55.9417C85.0839 55.9935 85.1458 56.1384 85.0839 56.2626C85.053 56.335 84.9808 56.3868 84.8983 56.3971H84.8674ZM70.666 56.0452C70.532 56.0556 70.4185 55.9417 70.4082 55.8072C70.4082 55.7244 70.4391 55.6416 70.5113 55.6002C71.357 55.0206 72.2955 54.5755 73.2753 54.2857C73.399 54.2443 73.5434 54.3064 73.5847 54.4306C73.6259 54.5548 73.564 54.6997 73.4403 54.7411C73.43 54.7411 73.43 54.7411 73.4197 54.7515C72.4915 55.0309 71.6149 55.4553 70.8207 56.0038C70.7795 56.0349 70.7382 56.0452 70.6867 56.0452H70.666ZM79.226 54.5652H79.1745C78.2153 54.3789 77.2356 54.2961 76.2661 54.3064C76.132 54.3064 76.0186 54.2029 76.0186 54.0684C76.0186 53.9338 76.1217 53.82 76.2558 53.82C77.2665 53.8096 78.2669 53.8924 79.257 54.0787C79.391 54.0994 79.4735 54.234 79.4529 54.3685C79.4323 54.472 79.3601 54.5445 79.257 54.5652H79.226ZM101.75 53.1783C101.616 53.1886 101.503 53.0851 101.492 52.9506C101.441 52.1743 101.111 51.4498 100.554 50.9116C100.44 50.8081 100.327 50.7046 100.193 50.6218C100.09 50.5287 100.09 50.3734 100.183 50.2699C100.255 50.1871 100.378 50.1664 100.471 50.2182C100.616 50.3217 100.76 50.4355 100.884 50.5597C101.534 51.1807 101.925 52.0191 101.987 52.9195C101.998 53.0541 101.895 53.1679 101.771 53.1886H101.75V53.1783ZM94.8506 51.4188C94.7784 51.4188 94.7062 51.3877 94.6546 51.3256C94.5721 51.2221 94.5824 51.0669 94.6856 50.9841C95.4797 50.3113 96.4285 49.8559 97.4495 49.6593C97.5836 49.6386 97.7073 49.7214 97.7383 49.8559C97.7589 49.9905 97.6764 50.1147 97.5423 50.1457C96.6038 50.332 95.7272 50.746 94.995 51.3567C94.964 51.3877 94.9228 51.4084 94.8815 51.4188H94.8506Z" fill="#110580"/>
<path d="M111.414 74.4476C111.352 74.4476 111.29 74.4269 111.249 74.3958C110.888 74.1164 110.496 73.8783 110.073 73.692C109.95 73.6403 109.898 73.4954 109.95 73.3712C110.011 73.247 110.156 73.1952 110.28 73.247C110.744 73.4436 111.177 73.7024 111.569 74.0129C111.662 74.106 111.662 74.2509 111.579 74.3544C111.579 74.3544 111.579 74.3544 111.569 74.3648C111.527 74.4062 111.476 74.4372 111.414 74.4476Z" fill="#110580"/>
<path d="M109.846 68.517C109.526 68.4032 109.186 68.5481 109.031 68.8482L103.276 79.8089C103.503 79.9331 103.782 79.9434 104.019 79.8503L121.118 72.8019C121.355 72.6984 121.541 72.5018 121.624 72.243L109.846 68.517Z" fill="#D5D5ED"/>
<path d="M110.042 71.3115C110.352 71.3839 110.671 71.2494 110.847 70.9803L116.756 60.5268H116.694H116.663C116.601 60.5164 116.55 60.5164 116.488 60.5268H116.571C116.416 60.5061 116.261 60.5164 116.117 60.5785L99.0071 67.6269C98.8008 67.7097 98.6358 67.8753 98.543 68.0823L110.042 71.3115Z" fill="white"/>
<path d="M108.073 70.7526L98.5328 68.0513C98.5122 68.0823 98.5019 68.1134 98.4916 68.1444C98.4091 68.3514 98.4091 68.5895 98.4916 68.7965L102.792 79.3017C102.885 79.5191 103.04 79.695 103.256 79.8089L108.073 70.7526Z" fill="#E8E8F7"/>
<path d="M121.531 72.4293C121.5 72.4811 121.469 72.5225 121.428 72.5639C121.469 72.5225 121.5 72.4811 121.531 72.4293Z" fill="#E8E8F7"/>
<path d="M116.757 60.5269L111.868 69.1795L121.635 72.2224C121.614 72.2741 121.594 72.3362 121.563 72.388C121.697 72.1292 121.717 71.8187 121.604 71.5496L117.314 61.0858C117.21 60.827 117.014 60.62 116.757 60.5269Z" fill="#E8E8F7"/>
<path d="M116.838 60.5683L116.756 60.5269L116.838 60.5683Z" fill="#E8E8F7"/>
<path d="M92.9639 143.265C93.4073 147.953 97.5636 151.389 102.225 150.934C106.278 150.541 109.486 147.322 109.867 143.265H92.9639Z" fill="#FDB62F"/>
<path d="M73.3688 116.893H102.669C103.525 116.893 104.226 117.586 104.226 118.456C104.226 119.315 103.535 120.019 102.669 120.019H73.3688C72.5128 120.019 71.8115 119.325 71.8115 118.456C71.8115 117.597 72.5128 116.893 73.3688 116.893Z" fill="#C5C6E3"/>
<path d="M73.3688 123.175H90.365C91.221 123.175 91.9223 123.869 91.9223 124.738C91.9223 125.597 91.2313 126.301 90.365 126.301H73.3688C72.5128 126.301 71.8115 125.608 71.8115 124.738C71.8115 123.879 72.5128 123.175 73.3688 123.175Z" fill="#C5C6E3"/>
<path d="M73.3688 174.273H107.207C108.063 174.273 108.764 174.967 108.764 175.836C108.764 176.695 108.073 177.399 107.207 177.399H73.3688C72.5128 177.399 71.8115 176.705 71.8115 175.836C71.8115 174.967 72.5128 174.273 73.3688 174.273Z" fill="#C5C6E3"/>
<path d="M73.3688 180.556H96.8418C97.6977 180.556 98.399 181.249 98.399 182.119C98.399 182.978 97.7081 183.681 96.8418 183.681H73.3688C72.5128 183.681 71.8115 182.978 71.8115 182.119C71.8115 181.249 72.5128 180.556 73.3688 180.556Z" fill="#C5C6E3"/>
<path d="M83.9907 96.2654H80.9895C78.9475 96.2654 77.2665 94.6611 77.1633 92.6222L76.6786 83.7419C76.6477 83.4417 76.8746 83.1623 77.1736 83.1312C77.1943 83.1312 77.2149 83.1312 77.2355 83.1312H87.7138C88.0232 83.1312 88.2707 83.3796 88.2707 83.6798C88.2707 83.7005 88.2707 83.7212 88.2707 83.7419L87.786 92.6222C87.6622 94.6404 86.0121 96.2343 83.9907 96.2654Z" fill="#FF5856"/>
<path d="M88.1986 85.1392L88.1161 86.495C89.5806 86.8159 90.5191 88.2649 90.1994 89.7346C89.9518 90.9041 88.9721 91.7632 87.7964 91.877L87.7139 93.2329C89.9518 93.1501 91.7051 91.2664 91.6226 89.0204C91.5607 87.0643 90.1169 85.4393 88.1986 85.1392Z" fill="#FF5856"/>
<path d="M83.2688 81.0715C83.2688 81.0715 80.7008 78.6911 80.7833 76.9419C80.907 74.2613 83.31 73.247 82.3922 70.7319C81.959 69.5313 80.1748 65.6604 80.1748 65.6604C80.1748 65.6604 83.145 68.5998 84.197 70.4214C85.1458 72.0878 85.0323 74.6752 84.001 75.9276C81.7218 78.6393 83.2688 81.0715 83.2688 81.0715Z" fill="#DCDCED"/>
<path d="M90.8593 145.386C88.8379 145.418 86.9815 146.515 85.9708 148.284C85.5995 149.03 85.5067 149.878 85.7027 150.686C85.7646 150.965 86.1461 152.259 86.6618 151.793C87.9613 150.561 89.4773 149.578 91.1377 148.895C91.9422 148.564 91.8494 145.438 90.8593 145.407V145.386Z" fill="#FDB62F"/>
<path d="M95.4382 151.038C94.3863 152.673 93.5921 154.463 93.0868 156.347C92.8805 157.217 92.9527 158.127 93.2931 158.955C93.5096 159.421 94.0047 159.835 94.3966 159.266C94.8607 158.438 95.2216 157.548 95.4692 156.637C95.7992 155.747 96.1601 154.867 96.4489 153.967C96.7171 153.17 96.7171 152.3 96.4489 151.503C96.3045 151.1 95.8404 150.386 95.4382 151.038Z" fill="#FDB62F"/>
<path d="M110.465 150.644C111.858 151.979 113.188 153.366 114.622 154.639C115.271 155.198 115.581 154.37 115.663 153.78C115.766 152.994 115.704 151.555 115.065 151.007C113.714 149.723 112.27 148.554 110.868 147.332C110.269 146.815 109.991 147.57 109.919 148.119C109.826 148.833 109.888 150.116 110.476 150.675L110.465 150.644Z" fill="#FDB62F"/>
<path d="M102.813 153.377C102.751 155.333 103.329 157.506 103.917 159.4C104.102 160.001 104.7 161.129 105.34 160.249C105.979 159.359 105.866 157.869 105.618 156.875C105.422 156.057 105.144 155.25 104.886 154.453C104.628 153.656 104.463 152.58 103.783 151.979C103.102 151.379 102.834 153.18 102.823 153.377H102.813Z" fill="#FDB62F"/>
<path d="M203.22 162.461C203.332 161.189 212.375 160.133 223.53 160.133C234.684 160.133 243.727 161.189 243.839 162.461C243.839 162.461 243.839 162.461 243.839 162.517C243.783 163.79 234.684 164.846 223.53 164.846C212.375 164.846 203.276 163.79 203.22 162.461C203.22 162.517 203.22 162.461 203.22 162.461ZM223.53 164.462C232.964 164.462 240.622 163.574 240.678 162.461C240.678 162.461 240.678 162.461 240.678 162.405C240.622 161.293 232.964 160.405 223.586 160.405C214.207 160.405 206.549 161.293 206.493 162.405V162.461C206.445 163.574 214.095 164.462 223.53 164.462Z" fill="#E8D4C1"/>
<path d="M223.531 164.462C214.096 164.462 206.438 163.574 206.438 162.461V162.405C206.494 161.293 214.152 160.405 223.531 160.405C232.909 160.405 240.567 161.293 240.623 162.405C240.623 162.405 240.623 162.405 240.623 162.461C240.623 163.574 232.965 164.462 223.531 164.462Z" fill="#BA9C7E"/>
<path d="M222.585 164.678C223.305 154.524 224.641 144.425 226.634 134.438C228.634 124.508 231.299 114.681 234.516 105.031C236.348 99.5891 238.397 94.2117 240.677 88.9383C240.902 88.5462 241.342 88.4422 241.734 88.6582C242.07 88.8823 242.23 89.3224 242.014 89.7145C238.077 99.037 234.748 108.583 232.083 118.29C229.419 127.949 227.37 137.767 225.922 147.698C225.145 153.355 224.537 158.965 224.145 164.678C224.033 165.679 222.481 165.679 222.585 164.678Z" fill="#4C7378"/>
<path d="M217.321 166.623C217.873 150.754 217.209 134.822 215.321 119.01C214.769 114.569 214.152 110.184 213.432 105.807C213.264 104.862 214.761 104.422 214.929 105.414C217.537 121.171 218.922 137.103 219.034 153.083C219.09 157.58 219.034 162.125 218.866 166.623C218.818 167.623 217.321 167.623 217.321 166.623Z" fill="#4C7378"/>
<path d="M226.249 168.063C228.578 155.3 233.627 143.2 241.069 132.606C243.181 129.661 245.454 126.78 247.895 124.115C248.559 123.395 249.615 124.451 248.951 125.228C240.405 134.718 234.027 145.929 230.25 158.076C229.194 161.461 228.362 164.958 227.753 168.455C227.585 169.455 226.081 169.007 226.249 168.063Z" fill="#4C7378"/>
<path d="M239.958 154.251L243.679 152.475L246.896 150.979C248.785 150.09 250.169 149.314 250.225 148.706C250.281 148.098 248.897 147.154 246.448 146.705C246.168 146.649 245.84 146.593 245.448 146.593C245.056 146.593 244.783 146.537 244.391 146.537C243.615 146.537 242.839 146.537 242.063 146.649C240.286 146.873 238.566 147.426 236.957 148.202C235.349 148.978 233.909 150.034 232.628 151.307C232.076 151.859 231.572 152.475 231.132 153.083C230.908 153.363 230.74 153.691 230.58 153.971C230.412 154.251 230.244 154.579 230.14 154.86C229.027 157.076 228.971 158.741 229.307 159.021C229.748 159.357 231.196 158.685 233.084 157.748L236.245 156.14L239.958 154.251Z" fill="#4C7378"/>
<path d="M250.889 125.78C252.777 122.619 254.106 119.178 254.882 115.625C255.434 112.849 255.322 110.912 254.77 110.688C254.218 110.464 252.769 111.688 250.993 113.737C248.776 116.458 246.776 119.282 245.055 122.339C243.279 125.332 241.838 128.557 240.614 131.83C239.67 134.438 239.342 136.271 239.67 136.543C239.998 136.815 241.83 136.047 243.999 134.214C246.728 131.774 249.056 128.941 250.889 125.78Z" fill="#689399"/>
<path d="M238.181 134.822C239.621 126.276 238.405 119.01 237.18 118.842C235.956 118.674 232.851 125.276 231.411 133.71C229.97 142.144 231.131 149.466 232.019 149.634C233.131 149.81 236.74 143.368 238.181 134.822Z" fill="#57848A"/>
<path d="M244.784 88.6021C246.12 84.6651 246.896 80.608 247.224 76.4469C247.392 73.2301 247.056 71.1175 246.448 71.0055C245.84 70.8935 244.56 72.5019 243.063 75.2786C241.175 78.8315 239.566 82.6005 238.35 86.4335C237.078 90.2586 236.134 94.2036 235.573 98.2527C235.133 101.413 235.181 103.526 235.629 103.694C236.126 103.918 237.686 102.47 239.454 99.7571C241.679 96.2601 243.511 92.5392 244.784 88.6021Z" fill="#57848A"/>
<path d="M234.965 100.861C235.301 92.707 233.525 85.9372 232.301 85.8812C231.076 85.8252 228.476 92.3149 228.139 100.589C227.803 108.863 230.252 115.569 231.084 115.569C232.245 115.569 234.629 109.023 234.965 100.861Z" fill="#4C7378"/>
<path d="M241.398 112.904C243.175 111.408 244.671 109.631 245.951 107.687C246.951 106.079 247.336 104.742 247.008 104.246C246.671 103.75 245.287 103.694 243.399 104.246C241.07 104.966 238.845 106.135 237.021 107.743C235.132 109.351 233.692 111.352 232.636 113.568C231.86 115.345 231.691 116.785 232.028 117.065C232.42 117.458 233.804 117.233 235.581 116.569C237.685 115.681 239.622 114.409 241.398 112.904Z" fill="#689399"/>
<path d="M223.586 146.033C224.586 143.368 225.362 140.592 225.914 137.823C226.307 135.55 226.355 133.942 225.802 133.606C225.25 133.27 223.858 134.046 222.081 135.766C219.921 138.039 218.256 140.704 217.144 143.648C216.032 146.593 215.592 149.698 215.816 152.803C216.04 155.243 216.648 156.74 217.04 156.852C217.592 156.964 218.648 155.74 219.817 153.747C221.369 151.306 222.586 148.698 223.586 146.033Z" fill="#4C7378"/>
<path d="M219.04 143.256C218.151 140.096 216.767 137.039 214.935 134.326C213.494 132.213 212.158 131.053 211.55 131.277C210.942 131.501 210.717 133.166 210.83 135.718C210.998 138.935 211.55 142.096 212.438 145.153C213.326 148.258 214.55 151.202 216.103 154.035C217.375 156.252 218.488 157.588 218.936 157.476C219.488 157.364 220.048 155.7 220.16 153.091C220.312 149.754 219.928 146.481 219.04 143.256Z" fill="#57848A"/>
<path d="M215.094 117.898C213.87 114.953 212.205 112.24 210.101 109.904C208.436 108.071 206.996 107.183 206.436 107.463C205.876 107.743 205.884 109.408 206.268 111.792C206.764 114.785 207.652 117.674 208.82 120.507C209.429 122.003 210.149 123.499 210.981 124.948C211.645 126.116 212.365 127.276 213.198 128.389C213.862 129.277 214.366 129.997 214.75 130.549C215.142 131.101 215.414 131.493 215.638 131.493C215.862 131.493 216.302 131.213 216.639 130.437C217.031 129.381 217.191 128.277 217.135 127.164C217.079 125.724 216.911 124.276 216.583 122.835C216.262 121.123 215.766 119.458 215.094 117.898Z" fill="#689399"/>
<path d="M224.09 111.184C226.091 104.19 225.755 97.8686 224.586 97.4765C223.418 97.0844 219.537 102.19 217.536 109.296C215.536 116.401 216.536 122.835 217.368 123.059C218.481 123.339 222.146 118.178 224.09 111.184Z" fill="#4C7378"/>
<path d="M217.207 97.1485C216.711 93.2114 215.71 89.3784 214.262 85.7135C213.038 82.8807 211.877 81.2163 211.269 81.3283C210.101 81.5524 209.325 89.1544 210.437 98.0287C210.933 101.806 211.821 105.631 213.046 109.296C214.046 112.184 214.99 113.961 215.43 113.905C215.983 113.849 216.703 111.96 217.151 108.912C217.703 105.031 217.703 101.029 217.207 97.1485Z" fill="#4C7378"/>
<path d="M223.529 164.846C212.486 164.846 203.556 163.846 203.22 162.574L204.828 181.771C204.828 190.869 213.207 198.359 223.473 198.359C233.74 198.359 242.118 190.925 242.118 181.771L243.727 162.518C243.623 163.79 234.572 164.846 223.529 164.846Z" fill="#DEC7B2"/>
<path d="M203.941 170.784C205.325 170.84 206.662 171.392 207.662 172.392C209.718 174.449 211.047 177.553 212.711 179.882C213.319 178.61 213.879 177.273 214.376 175.945C214.984 174.337 217.096 172.84 218.761 174.169C220.481 175.497 221.978 177.161 223.034 179.05C224.034 180.714 224.866 182.715 226.419 183.987C227.971 185.259 229.636 185.54 230.244 183.379C230.796 181.491 230.58 179.442 231.188 177.553C231.684 175.945 232.516 174.337 234.133 173.616C236.077 172.784 237.91 173.84 239.63 174.673C240.631 175.169 241.631 175.729 242.623 176.337L242.287 180.386C240.567 179.274 238.406 177.946 236.629 177.722C235.517 177.553 235.573 178.33 235.517 179.386C235.461 180.33 235.461 181.274 235.405 182.219C235.293 184.163 235.013 186.1 233.853 187.716C231.412 191.157 226.803 190.989 223.586 188.828C221.922 187.66 220.537 186.164 219.481 184.387C219.089 183.835 218.761 183.219 218.425 182.611C217.04 185.828 214.928 188.716 211.431 187.492C209.27 186.716 207.878 184.387 206.55 182.611C206.157 182.059 205.437 180.722 204.661 179.562L203.941 170.784Z" fill="#EBDBCD"/>
<path d="M227.915 121.843C227.139 117.738 225.858 113.793 224.09 110.024C222.706 107.135 221.369 105.47 220.761 105.582C219.593 105.919 219.433 113.849 221.201 123.115C221.641 125.444 222.201 127.612 222.81 129.605C223.418 131.597 224.034 133.214 224.418 134.598C224.81 135.982 225.082 137.151 225.306 138.039C225.53 138.927 225.642 139.479 225.858 139.535C226.082 139.591 226.635 139.311 227.187 138.423C227.907 137.199 228.411 135.87 228.627 134.486C228.907 132.542 228.963 130.549 228.795 128.605C228.635 126.332 228.307 124.059 227.915 121.843Z" fill="#57848A"/>
<path d="M203.277 162.293H206.437C206.381 162.349 206.381 162.405 206.381 162.461V162.518C206.437 163.63 214.039 164.518 223.474 164.518C232.908 164.518 240.566 163.63 240.622 162.518C240.622 162.518 240.622 162.518 240.622 162.461C240.622 162.405 240.622 162.349 240.566 162.293H243.727C243.783 162.349 243.783 162.405 243.783 162.461C243.783 162.461 243.783 162.461 243.783 162.518C243.727 163.79 234.629 164.846 223.474 164.846C212.319 164.846 203.221 163.79 203.165 162.518C203.165 162.518 203.165 162.518 203.165 162.461C203.221 162.405 203.277 162.349 203.277 162.293Z" fill="#E8D4C1"/>
<path d="M71.0979 147.202C71.378 147.09 71.49 146.762 71.378 146.482C71.2659 146.257 71.0979 146.145 70.8818 146.145H68.1611V143.425C68.1611 143.089 67.9371 142.873 67.609 142.873C67.2729 142.873 67.0568 143.097 67.0568 143.425V147.25H70.8818C70.9299 147.258 71.0419 147.258 71.0979 147.202Z" fill="#110580"/>
<path d="M126.809 147.145C127.089 147.033 127.201 146.705 127.089 146.425C126.977 146.201 126.809 146.089 126.593 146.089H119.599C119.263 146.089 119.047 146.313 119.047 146.641C119.047 146.977 119.271 147.193 119.599 147.193H126.593C126.705 147.201 126.753 147.201 126.809 147.145ZM112.885 147.145C113.165 147.033 113.325 146.705 113.221 146.425C113.109 146.201 112.941 146.033 112.669 146.089H105.731C105.395 146.089 105.179 146.313 105.179 146.641C105.179 146.977 105.403 147.193 105.731 147.193H112.725C112.773 147.201 112.829 147.201 112.885 147.145ZM98.9535 147.145C99.2336 147.033 99.3456 146.705 99.2336 146.425C99.1216 146.201 98.9535 146.089 98.7374 146.089H91.7436C91.4075 146.089 91.1915 146.313 91.1915 146.641C91.1915 146.977 91.4155 147.193 91.7436 147.193H98.7374C98.7855 147.201 98.8975 147.201 98.9535 147.145ZM85.0298 147.145C85.3099 147.033 85.47 146.705 85.3659 146.425C85.2539 146.201 85.0859 146.089 84.8138 146.089H77.8199C77.4839 146.089 77.2678 146.313 77.2678 146.641C77.2678 146.977 77.4919 147.193 77.8199 147.193H84.8058C84.8618 147.201 84.9738 147.201 85.0298 147.145Z" fill="#110580"/>
<path d="M137.41 147.201V143.376C137.41 143.04 137.186 142.824 136.858 142.824C136.53 142.824 136.306 143.048 136.306 143.376V146.097H133.585C133.249 146.097 133.033 146.321 133.033 146.649C133.033 146.977 133.257 147.201 133.585 147.201H137.41Z" fill="#110580"/>
<path d="M137.074 137.431C137.298 137.319 137.41 137.151 137.41 136.935V130.445C137.41 130.109 137.186 129.893 136.858 129.893C136.53 129.893 136.306 130.117 136.306 130.445V136.935C136.306 137.271 136.53 137.487 136.858 137.487C136.906 137.431 137.018 137.431 137.074 137.431ZM137.074 124.452C137.298 124.34 137.41 124.172 137.41 123.956V117.522C137.41 117.186 137.186 116.97 136.858 116.97C136.53 116.97 136.306 117.194 136.306 117.522V124.012C136.306 124.348 136.53 124.564 136.858 124.564C136.906 124.508 137.018 124.508 137.074 124.452ZM137.074 111.52C137.298 111.408 137.41 111.24 137.41 111.024V104.534C137.41 104.198 137.186 103.982 136.858 103.982C136.53 103.982 136.306 104.206 136.306 104.534V111.024C136.306 111.36 136.53 111.576 136.858 111.576C136.906 111.576 137.018 111.576 137.074 111.52Z" fill="#110580"/>
<path d="M137.074 98.5886C137.298 98.4766 137.41 98.3085 137.41 98.0925V94.2675H133.585C133.249 94.2675 133.033 94.4915 133.033 94.8196C133.033 95.1477 133.257 95.3717 133.585 95.3717H136.306V98.0925C136.306 98.4285 136.53 98.6446 136.858 98.6446C136.906 98.6446 136.962 98.5886 137.074 98.5886Z" fill="#110580"/>
<path d="M126.808 95.3159C127.033 95.2039 127.145 95.0358 127.145 94.8198C127.145 94.4837 126.92 94.2676 126.592 94.2676H119.599C119.262 94.2676 119.046 94.4917 119.046 94.8198C119.046 95.1479 119.27 95.3719 119.599 95.3719H126.536C126.648 95.3719 126.752 95.3719 126.808 95.3159ZM112.885 95.3159C113.109 95.2039 113.221 95.0358 113.221 94.8198C113.221 94.4837 112.997 94.2676 112.669 94.2676H105.675C105.339 94.2676 105.123 94.4917 105.123 94.8198C105.123 95.1479 105.347 95.3719 105.675 95.3719H112.669C112.717 95.3719 112.829 95.3719 112.885 95.3159ZM98.9531 95.3159C99.2332 95.2039 99.3932 94.8758 99.2892 94.5957C99.1772 94.3717 99.0091 94.2596 98.7371 94.2596H91.7432C91.4071 94.2596 91.1911 94.4837 91.1911 94.8118C91.1911 95.1399 91.4151 95.3639 91.7432 95.3639H98.7371C98.7851 95.3719 98.8411 95.3719 98.9531 95.3159ZM84.9735 95.3159C85.2535 95.2039 85.3656 94.8758 85.2535 94.5957C85.1415 94.3717 84.9734 94.2596 84.7574 94.2596H77.8196C77.4835 94.2596 77.2674 94.4837 77.2674 94.8118C77.2674 95.1399 77.4915 95.3639 77.8196 95.3639H84.8054C84.8614 95.3719 84.9174 95.3719 84.9735 95.3159Z" fill="#110580"/>
<path d="M67.768 98.6446C67.9921 98.5326 68.1041 98.3646 68.1041 98.1485V95.4278H70.8248C71.1609 95.4278 71.377 95.2037 71.377 94.8756C71.377 94.5475 71.1529 94.3235 70.8248 94.3235H66.9998V98.1485C66.9998 98.4846 67.2239 98.7006 67.5519 98.7006C67.656 98.7006 67.712 98.6446 67.768 98.6446Z" fill="#110580"/>
<path d="M67.825 137.431C68.0491 137.319 68.1611 137.151 68.1611 136.935V130.445C68.1611 130.109 67.9371 129.893 67.609 129.893C67.2809 129.893 67.0568 130.117 67.0568 130.445V136.935C67.0568 137.271 67.2809 137.487 67.609 137.487C67.657 137.487 67.769 137.487 67.825 137.431ZM67.825 124.508C68.0491 124.396 68.1611 124.228 68.1611 124.012V117.522C68.1611 117.186 67.9371 116.97 67.609 116.97C67.2809 116.97 67.0568 117.194 67.0568 117.522V124.012C67.0568 124.348 67.2809 124.564 67.609 124.564C67.657 124.564 67.713 124.564 67.825 124.508ZM67.825 111.576C68.0491 111.464 68.1611 111.296 68.1611 111.08V104.59C68.1611 104.254 67.9371 104.038 67.609 104.038C67.2809 104.038 67.0568 104.262 67.0568 104.59V111.08C67.0568 111.416 67.2809 111.632 67.609 111.632C67.657 111.632 67.713 111.576 67.825 111.576Z" fill="#110580"/>
<path d="M214.046 102.198H96.6792C92.5182 102.198 89.1333 105.583 89.1333 109.744V183.939C89.1333 188.1 92.5182 191.485 96.6792 191.485H214.046C218.207 191.485 221.592 188.1 221.592 183.939V109.744C221.648 105.583 218.263 102.198 214.046 102.198Z" fill="#B3B6DE"/>
<path d="M214.599 106.967H96.1279C95.0156 106.967 94.1274 107.855 94.1274 108.968V183.051C94.1274 184.163 95.0156 185.052 96.1279 185.052H214.599C215.711 185.052 216.6 184.163 216.6 183.051V108.968C216.6 107.855 215.711 106.967 214.599 106.967Z" fill="#E8EAF7"/>
<path d="M74.6503 227.27H236.077C238.573 227.27 240.63 225.214 240.63 222.717C240.63 221.997 240.462 221.277 240.134 220.605L223.761 195.414C222.489 192.973 219.936 191.477 217.216 191.477H93.6392C90.9185 191.477 88.3659 192.973 87.0935 195.414L70.7212 220.605C69.5529 222.821 70.3851 225.542 72.6097 226.766C73.2099 227.11 73.9301 227.27 74.6503 227.27Z" fill="#C5C6E3"/>
<path d="M70.153 222.613C70.097 225.11 72.0415 227.223 74.5382 227.279C74.5942 227.279 74.6502 227.279 74.7063 227.279H236.077C238.573 227.279 240.63 225.222 240.63 222.725C240.63 222.669 240.63 222.613 240.63 222.557V226.55C240.63 229.047 238.573 231.048 236.077 231.048H74.7063C72.2096 231.048 70.2091 229.047 70.153 226.55V222.613Z" fill="#999BC9"/>
<path d="M123.983 223.998H186.8C187.576 223.998 188.24 223.334 188.24 222.557C188.24 222.333 188.184 222.117 188.072 221.893L185.632 213.795C185.239 213.019 184.407 212.523 183.519 212.523H127.248C126.36 212.523 125.584 213.019 125.136 213.795L122.695 221.893C122.303 222.613 122.583 223.502 123.303 223.838C123.479 223.942 123.703 223.998 123.983 223.998Z" fill="#D8DBF2"/>
<path d="M100.897 209.738H209.829C210.774 209.738 211.55 208.962 211.55 208.018C211.55 207.738 211.494 207.466 211.326 207.185L206.717 197.639C206.22 196.751 205.276 196.143 204.22 196.143H106.386C105.33 196.143 104.386 196.695 103.889 197.639L99.2803 207.185C98.8402 208.018 99.1683 209.074 100 209.514C100.345 209.682 100.617 209.738 100.897 209.738Z" fill="#A7A9D6"/>
<path d="M216.6 113.905H94.1274V183.043C94.1274 184.155 95.0156 185.044 96.1279 185.044H214.599C215.711 185.044 216.6 184.155 216.6 183.043V113.905Z" fill="white"/>
<path d="M195.561 124.06H156.159C155.495 124.06 154.991 124.556 154.991 125.228V141.816C154.991 142.48 155.487 142.985 156.159 142.985H195.561C196.225 142.985 196.729 142.488 196.729 141.816V125.228C196.729 124.612 196.233 124.06 195.561 124.06Z" fill="#E8E8F7"/>
<path d="M146.79 147.481H115.213C114.549 147.481 114.045 147.978 114.045 148.65V173.728C114.045 174.393 114.541 174.897 115.213 174.897H146.79C147.454 174.897 147.958 174.401 147.958 173.728V148.642C147.95 147.978 147.398 147.481 146.79 147.481Z" fill="#E8E8F7"/>
<path d="M195.675 147.53H156.112C155.504 147.53 155 148.026 155 148.642C155 149.25 155.496 149.754 156.112 149.754H195.675C196.283 149.754 196.787 149.258 196.787 148.642C196.731 148.034 196.235 147.53 195.675 147.53Z" fill="#E8E8F7"/>
<path d="M195.675 152.419H167.211C166.603 152.419 166.099 152.915 166.099 153.531C166.099 154.139 166.595 154.644 167.211 154.644H195.675C196.283 154.644 196.787 154.147 196.787 153.531C196.731 152.915 196.235 152.419 195.675 152.419Z" fill="#E8E8F7"/>
<path d="M195.675 157.3H161.658C161.05 157.3 160.546 157.796 160.546 158.413C160.546 159.021 161.042 159.525 161.658 159.525H195.675C196.283 159.525 196.787 159.029 196.787 158.413C196.731 157.796 196.235 157.3 195.675 157.3Z" fill="#E8E8F7"/>
<path d="M195.675 167.791H156.112C155.504 167.791 155 168.287 155 168.903C155 169.511 155.496 170.015 156.112 170.015H195.675C196.283 170.015 196.787 169.519 196.787 168.903C196.731 168.287 196.235 167.791 195.675 167.791Z" fill="#E8E8F7"/>
<path d="M195.675 172.672H172.757C172.149 172.672 171.644 173.168 171.644 173.785C171.644 174.393 172.141 174.897 172.757 174.897H195.675C196.283 174.897 196.787 174.401 196.787 173.785C196.731 173.168 196.235 172.672 195.675 172.672Z" fill="#E8E8F7"/>
<path d="M146.957 124.06H115.717C115.109 124.06 114.605 124.556 114.605 125.172C114.605 125.78 115.101 126.284 115.717 126.284H146.957C147.565 126.284 148.069 125.788 148.069 125.172C148.005 124.564 147.565 124.06 146.957 124.06Z" fill="#E8E8F7"/>
<path d="M146.957 128.941H125.151C124.543 128.941 124.039 129.437 124.039 130.053C124.039 130.661 124.535 131.165 125.151 131.165H146.957C147.565 131.165 148.069 130.669 148.069 130.053C148.005 129.445 147.565 128.941 146.957 128.941Z" fill="#E8E8F7"/>
<path d="M146.957 133.83H120.71C120.102 133.83 119.598 134.326 119.598 134.942C119.598 135.551 120.094 136.055 120.71 136.055H146.957C147.565 136.055 148.069 135.559 148.069 134.942C148.005 134.326 147.565 133.83 146.957 133.83Z" fill="#E8E8F7"/>
<path d="M146.957 138.711H116.829C116.221 138.711 115.717 139.207 115.717 139.823C115.717 140.432 116.213 140.936 116.829 140.936H146.957C147.565 140.936 148.069 140.44 148.069 139.823C148.005 139.207 147.565 138.711 146.957 138.711Z" fill="#E8E8F7"/>
<path d="M212.103 111.68C211.4 111.68 210.83 111.111 210.83 110.408C210.83 109.705 211.4 109.135 212.103 109.135C212.805 109.135 213.375 109.705 213.375 110.408C213.375 111.111 212.805 111.68 212.103 111.68Z" fill="#FF7A82"/>
<path d="M207.276 111.68C206.574 111.68 206.004 111.111 206.004 110.408C206.004 109.705 206.574 109.135 207.276 109.135C207.979 109.135 208.549 109.705 208.549 110.408C208.549 111.111 207.979 111.68 207.276 111.68Z" fill="#FDB62F"/>
<path d="M202.443 111.68C201.741 111.68 201.171 111.111 201.171 110.408C201.171 109.705 201.741 109.135 202.443 109.135C203.146 109.135 203.716 109.705 203.716 110.408C203.716 111.111 203.146 111.68 202.443 111.68Z" fill="#64A7B0"/>
<path d="M128.529 174.888H143.573V160.573L136.027 155.299L128.529 160.573V174.888Z" fill="#4E53BA"/>
<path d="M133.41 166.959H138.739V174.897H133.41V166.959Z" fill="#8589DB"/>
<path d="M128.528 160.573H118.374L125.872 155.299H136.026L128.528 160.573Z" fill="#FF5856"/>
<path d="M118.375 160.573H128.529V174.833H118.375V160.573Z" fill="#8589DB"/>
<path d="M186.408 142.984H194.178V135.654L190.297 132.942L186.408 135.654V142.984Z" fill="#676BC4"/>
<path d="M188.905 138.936H191.682V143.041H188.905V138.936Z" fill="#8589DB"/>
<path d="M186.408 135.654H181.19L185.08 132.942H190.297L186.408 135.654Z" fill="#FF5856"/>
<path d="M181.19 135.655H186.407V142.977H181.19V135.655Z" fill="#8589DB"/>
<path d="M173.421 142.985H181.135V131.221L177.31 128.501L173.421 131.221V142.985Z" fill="#4E53BA"/>
<path d="M175.861 140.264H178.638V143.04H175.861V140.264Z" fill="#8589DB"/>
<path d="M173.422 131.221H168.156L172.037 128.501H177.311L173.422 131.221Z" fill="#FF7A82"/>
<path d="M168.203 131.221H173.42V142.984H168.203V131.221Z" fill="#8589DB"/>
<path d="M161.826 142.984H168.155V136.991L164.986 134.774L161.826 136.991V142.984Z" fill="#4E53BA"/>
<path d="M163.825 140.543H166.098V142.984H163.825V140.543Z" fill="#8589DB"/>
<path d="M161.825 136.991H157.551L160.712 134.774H164.985L161.825 136.991Z" fill="#FCB58A"/>
<path d="M157.552 136.991H161.825V142.984H157.552V136.991Z" fill="#8589DB"/>
<path d="M250.505 192.59C250.561 192.59 250.617 192.59 250.673 192.59C250.897 192.534 251.065 192.31 251.065 192.094C250.953 191.205 250.729 190.373 250.401 189.541C250.289 189.317 250.065 189.205 249.849 189.261C249.625 189.317 249.513 189.597 249.569 189.813C249.849 190.589 250.065 191.365 250.177 192.198C250.225 192.43 250.337 192.534 250.505 192.59Z" fill="#110580"/>
<path d="M176.918 199.695C176.974 199.695 177.03 199.695 177.086 199.695L177.694 199.639C179.191 199.527 180.687 199.359 182.36 199.143C182.584 199.087 182.752 198.919 182.752 198.647C182.696 198.423 182.528 198.255 182.256 198.255C180.647 198.479 179.151 198.591 177.646 198.751L177.038 198.807C176.814 198.807 176.646 199.031 176.646 199.247C176.646 199.471 176.758 199.639 176.918 199.695ZM187.409 198.311C187.465 198.311 187.521 198.311 187.633 198.311C189.353 197.919 191.074 197.479 192.794 196.871C193.018 196.815 193.13 196.535 193.074 196.319C193.018 196.095 192.738 195.982 192.522 196.039C190.858 196.591 189.193 197.095 187.473 197.423C187.249 197.479 187.081 197.703 187.137 197.919C187.129 198.143 187.241 198.311 187.409 198.311ZM197.283 194.758C197.395 194.814 197.508 194.758 197.62 194.702C199.172 193.814 200.612 192.758 201.949 191.597C202.117 191.429 202.117 191.157 202.005 190.989C201.837 190.821 201.565 190.821 201.397 190.933C200.124 192.101 198.676 193.094 197.179 193.926C196.955 194.038 196.899 194.318 197.011 194.534C197.123 194.646 197.171 194.702 197.283 194.758ZM205.11 187.708C205.278 187.764 205.502 187.708 205.55 187.54C206.606 186.1 207.494 184.547 208.214 182.875C208.326 182.651 208.214 182.379 207.99 182.323C207.766 182.267 207.494 182.323 207.438 182.547C206.774 184.155 205.886 185.652 204.885 187.044C204.717 187.212 204.773 187.484 204.997 187.652C204.997 187.708 205.054 187.708 205.11 187.708ZM203.837 181.547C204.781 181.827 205.726 181.987 206.726 182.099C206.95 182.155 207.166 181.987 207.222 181.763C207.278 181.539 207.11 181.323 206.886 181.267H206.83C205.886 181.155 204.941 180.987 204.053 180.714C203.277 180.49 202.557 180.274 201.837 179.938C201.613 179.826 201.341 179.882 201.229 180.106C201.116 180.33 201.172 180.602 201.397 180.714C201.397 180.714 201.453 180.714 201.453 180.77C202.221 181.051 203.005 181.331 203.837 181.547ZM211.935 182.219C211.991 182.219 212.047 182.219 212.103 182.219C213.656 182.107 215.264 181.883 217.377 181.555C217.601 181.499 217.769 181.275 217.713 181.059C217.657 180.843 217.433 180.666 217.217 180.722C215.16 181.059 213.552 181.275 211.999 181.387C211.775 181.387 211.607 181.611 211.607 181.883C211.655 182.051 211.767 182.163 211.935 182.219ZM197.171 177.946C197.339 178.002 197.508 177.946 197.612 177.834C197.78 177.666 197.78 177.394 197.612 177.226C196.947 176.617 196.387 175.897 195.891 175.113C195.499 174.449 195.171 173.729 194.947 172.952C194.891 172.728 194.611 172.56 194.395 172.672C194.171 172.784 194.003 173.008 194.115 173.225C194.339 174.057 194.723 174.833 195.171 175.609C195.667 176.441 196.283 177.218 197.003 177.882C197.011 177.89 197.067 177.946 197.171 177.946ZM209.159 178.106C209.439 178.162 209.655 177.994 209.711 177.714C209.991 175.937 209.991 174.105 209.655 172.328C209.599 172.104 209.375 171.936 209.159 171.992C208.935 172.048 208.766 172.272 208.822 172.488C209.159 174.153 209.159 175.929 208.879 177.594C208.831 177.834 208.943 178.05 209.159 178.106ZM222.37 180.658C222.426 180.658 222.482 180.658 222.538 180.658C223.146 180.546 223.762 180.434 224.371 180.322C225.595 180.154 226.643 179.986 227.755 179.882C227.98 179.882 228.196 179.658 228.196 179.442C228.196 179.218 227.972 179.002 227.755 179.002H227.699C226.587 179.114 225.483 179.226 224.259 179.442C223.65 179.554 223.034 179.666 222.426 179.778C222.202 179.834 222.034 180.058 222.09 180.274C222.09 180.442 222.202 180.554 222.37 180.658ZM247.065 185.708C247.289 185.764 247.561 185.652 247.617 185.372C247.673 185.204 247.617 185.092 247.505 184.98C246.28 183.651 244.84 182.539 243.288 181.595C243.063 181.483 242.791 181.539 242.679 181.763C242.567 181.987 242.623 182.203 242.847 182.371C244.344 183.203 245.68 184.315 246.84 185.532C246.953 185.604 247.009 185.66 247.065 185.708ZM232.853 179.722H232.965C234.685 179.778 236.406 180.058 238.126 180.442C238.35 180.498 238.566 180.33 238.622 180.05C238.678 179.826 238.51 179.658 238.342 179.554C236.622 179.114 234.845 178.89 233.069 178.778C232.845 178.778 232.629 179.002 232.629 179.218C232.581 179.498 232.693 179.666 232.853 179.722ZM194.403 168.343C194.627 168.399 194.843 168.287 194.899 168.063C195.291 166.735 196.171 165.623 197.339 164.902C197.564 164.734 197.836 164.622 198.06 164.51C198.284 164.454 198.452 164.174 198.34 163.958C198.228 163.734 198.004 163.566 197.788 163.678C197.732 163.678 197.732 163.678 197.676 163.734C197.395 163.846 197.067 164.014 196.787 164.174C195.459 165.006 194.459 166.287 193.955 167.839C194.011 168.007 194.123 168.231 194.403 168.343C194.347 168.343 194.347 168.343 194.403 168.343ZM207.054 168.007C207.166 168.063 207.334 168.007 207.446 167.951C207.614 167.783 207.67 167.511 207.558 167.343C206.446 165.847 205.005 164.678 203.285 163.958C203.061 163.846 202.789 163.958 202.733 164.182C202.621 164.406 202.733 164.678 202.957 164.734C202.957 164.734 202.957 164.734 203.013 164.734C204.565 165.398 205.902 166.511 206.95 167.839C206.886 167.951 206.942 168.007 207.054 168.007Z" fill="#110580"/>
<path d="M169.202 201.136C169.314 201.136 169.426 201.136 169.538 201.08C170.259 200.744 171.035 200.472 171.867 200.36C172.091 200.304 172.259 200.08 172.203 199.864C172.147 199.639 171.923 199.471 171.707 199.527C170.819 199.696 169.986 199.968 169.154 200.36C168.93 200.472 168.874 200.696 168.986 200.912C168.986 201.024 169.098 201.136 169.202 201.136Z" fill="#110580"/>
</svg>
