<svg width="236" height="31" viewBox="0 0 236 31" fill="none" xmlns="http://www.w3.org/2000/svg">
<path d="M16.2254 0L21.1831 10.3783L32 11.732L23.8873 19.8542L25.6901 30.6838L16.2254 25.7202L6.30986 30.6838L8.11268 19.8542L0 11.732L11.2676 10.3783L16.2254 0Z" fill="#E9B556"/>
<path d="M67.2254 0L72.1831 10.3783L83 11.732L74.8873 19.8542L76.6901 30.6838L67.2254 25.7202L57.3099 30.6838L59.1127 19.8542L51 11.732L62.2676 10.3783L67.2254 0Z" fill="#E9B556"/>
<path d="M118.225 0L123.183 10.3783L134 11.732L125.887 19.8542L127.69 30.6838L118.225 25.7202L108.31 30.6838L110.113 19.8542L102 11.732L113.268 10.3783L118.225 0Z" fill="#E9B556"/>
<path d="M169.225 0L174.183 10.3783L185 11.732L176.887 19.8542L178.69 30.6838L169.225 25.7202L159.31 30.6838L161.113 19.8542L153 11.732L164.268 10.3783L169.225 0Z" fill="#E9B556"/>
<path d="M220.225 0L225.183 10.3783L236 11.732L227.887 19.8542L229.69 30.6838L220.225 25.7202L210.31 30.6838L212.113 19.8542L204 11.732L215.268 10.3783L220.225 0Z" fill="#E9B556"/>
</svg>
