<svg width="20" height="18" viewBox="0 0 20 18" fill="none" xmlns="http://www.w3.org/2000/svg">
<path d="M3.13035 13.2174C2.54561 13.2174 1.97399 13.044 1.4878 12.7191C1.0016 12.3942 0.622653 11.9325 0.398881 11.3923C0.175109 10.852 0.11656 10.2576 0.230638 9.68406C0.344716 9.11055 0.626298 8.58374 1.03977 8.17027C1.45325 7.75679 1.98005 7.47521 2.55356 7.36113C3.12707 7.24705 3.72153 7.3056 4.26176 7.52937C4.802 7.75315 5.26374 8.13209 5.58861 8.61829C5.91348 9.10449 6.08687 9.6761 6.08687 10.2608C6.08595 11.0447 5.77417 11.7961 5.21991 12.3504C4.66566 12.9047 3.91419 13.2164 3.13035 13.2174ZM3.13035 8.3478C2.75199 8.3478 2.38212 8.46 2.06752 8.67021C1.75292 8.88042 1.50772 9.17919 1.36293 9.52875C1.21814 9.87832 1.18025 10.263 1.25407 10.6341C1.32788 11.0052 1.51008 11.346 1.77763 11.6136C2.04517 11.8811 2.38604 12.0633 2.75713 12.1371C3.12823 12.2109 3.51288 12.1731 3.86244 12.0283C4.212 11.8835 4.51078 11.6383 4.72099 11.3237C4.9312 11.0091 5.04339 10.6392 5.04339 10.2608C5.04248 9.75376 4.84063 9.2677 4.48206 8.90913C4.1235 8.55057 3.63744 8.34872 3.13035 8.3478Z" fill="#7D8EB5"/>
<path d="M5.73913 17.3913H0.521739C0.383365 17.3913 0.250659 17.3364 0.152814 17.2385C0.0549688 17.1407 0 17.008 0 16.8696V14.4348C0.000919936 13.8355 0.239413 13.261 0.663209 12.8372C1.08701 12.4134 1.66153 12.1749 2.26087 12.174H4C4.59934 12.1749 5.17386 12.4134 5.59766 12.8372C6.02146 13.261 6.25995 13.8355 6.26087 14.4348V16.8696C6.26087 17.008 6.2059 17.1407 6.10806 17.2385C6.01021 17.3364 5.8775 17.3913 5.73913 17.3913ZM1.04348 16.3479H5.21739V14.4348C5.21739 14.1119 5.08913 13.8023 4.86083 13.574C4.63252 13.3457 4.32287 13.2174 4 13.2174H2.26087C1.938 13.2174 1.62835 13.3457 1.40004 13.574C1.17174 13.8023 1.04348 14.1119 1.04348 14.4348V16.3479Z" fill="#7D8EB5"/>
<path d="M5.91211 15.3043C5.8117 15.3046 5.71336 15.2758 5.62889 15.2215C5.54442 15.1672 5.47742 15.0897 5.43593 14.9982C5.39443 14.9068 5.3802 14.8053 5.39495 14.706C5.4097 14.6067 5.45279 14.5137 5.51907 14.4383L10.3886 8.87304C10.4809 8.7688 10.6108 8.70548 10.7497 8.697C10.8886 8.68852 11.0253 8.73558 11.1295 8.82783C11.2337 8.92008 11.2971 9.04996 11.3055 9.1889C11.314 9.32784 11.267 9.46445 11.1747 9.56869L6.30515 15.1339C6.25557 15.1887 6.19486 15.2322 6.12707 15.2616C6.05928 15.291 5.98599 15.3056 5.91211 15.3043ZM19.4773 1.04348H2.43385C2.29547 1.04348 2.16277 0.988509 2.06492 0.890664C1.96708 0.792819 1.91211 0.660113 1.91211 0.521739C1.91211 0.383365 1.96708 0.250659 2.06492 0.152814C2.16277 0.0549687 2.29547 0 2.43385 0H19.4773C19.6157 0 19.7484 0.0549687 19.8463 0.152814C19.9441 0.250659 19.9991 0.383365 19.9991 0.521739C19.9991 0.660113 19.9441 0.792819 19.8463 0.890664C19.7484 0.988509 19.6157 1.04348 19.4773 1.04348ZM19.4773 11.8261H12.173C12.0346 11.8261 11.9019 11.7711 11.8041 11.6733C11.7062 11.5754 11.6512 11.4427 11.6512 11.3043C11.6512 11.166 11.7062 11.0333 11.8041 10.9354C11.9019 10.8376 12.0346 10.7826 12.173 10.7826H19.4773C19.6157 10.7826 19.7484 10.8376 19.8463 10.9354C19.9441 11.0333 19.9991 11.166 19.9991 11.3043C19.9991 11.4427 19.9441 11.5754 19.8463 11.6733C19.7484 11.7711 19.6157 11.8261 19.4773 11.8261Z" fill="#7D8EB5"/>
<path d="M18.0863 11.8261C17.9479 11.8261 17.8152 11.7711 17.7174 11.6733C17.6195 11.5754 17.5646 11.4427 17.5646 11.3043V0.521739C17.5646 0.383365 17.6195 0.250659 17.7174 0.152814C17.8152 0.0549687 17.9479 0 18.0863 0C18.2247 0 18.3574 0.0549687 18.4552 0.152814C18.5531 0.250659 18.6081 0.383365 18.6081 0.521739V11.3043C18.6081 11.4427 18.5531 11.5754 18.4552 11.6733C18.3574 11.7711 18.2247 11.8261 18.0863 11.8261ZM3.82545 5.91304C3.68708 5.91304 3.55437 5.85807 3.45652 5.76023C3.35868 5.66238 3.30371 5.52968 3.30371 5.3913V0.521739C3.30371 0.383365 3.35868 0.250659 3.45652 0.152814C3.55437 0.0549687 3.68708 0 3.82545 0C3.96382 0 4.09653 0.0549687 4.19438 0.152814C4.29222 0.250659 4.34719 0.383365 4.34719 0.521739V5.3913C4.34719 5.52968 4.29222 5.66238 4.19438 5.76023C4.09653 5.85807 3.96382 5.91304 3.82545 5.91304ZM11.4776 4.17391H7.65154C7.51316 4.17391 7.38046 4.11894 7.28261 4.0211C7.18477 3.92325 7.1298 3.79055 7.1298 3.65217C7.1298 3.5138 7.18477 3.38109 7.28261 3.28325C7.38046 3.1854 7.51316 3.13043 7.65154 3.13043H11.4776C11.616 3.13043 11.7487 3.1854 11.8465 3.28325C11.9444 3.38109 11.9994 3.5138 11.9994 3.65217C11.9994 3.79055 11.9444 3.92325 11.8465 4.0211C11.7487 4.11894 11.616 4.17391 11.4776 4.17391ZM13.9124 6.95652H7.65154C7.51316 6.95652 7.38046 6.90155 7.28261 6.80371C7.18477 6.70586 7.1298 6.57316 7.1298 6.43478C7.1298 6.29641 7.18477 6.1637 7.28261 6.06586C7.38046 5.96801 7.51316 5.91304 7.65154 5.91304H13.9124C14.0508 5.91304 14.1835 5.96801 14.2813 6.06586C14.3792 6.1637 14.4341 6.29641 14.4341 6.43478C14.4341 6.57316 14.3792 6.70586 14.2813 6.80371C14.1835 6.90155 14.0508 6.95652 13.9124 6.95652Z" fill="#7D8EB5"/>
</svg>
