<svg width="20" height="19" viewBox="0 0 20 19" fill="none" xmlns="http://www.w3.org/2000/svg">
<path d="M19.375 17.5H18.125V15.625C18.125 15.4592 18.0592 15.3003 17.9419 15.1831C17.8247 15.0658 17.6658 15 17.5 15C17.3342 15 17.1753 15.0658 17.0581 15.1831C16.9408 15.3003 16.875 15.4592 16.875 15.625V17.5H13.125V3.75H16.875V13.125C16.875 13.2908 16.9408 13.4497 17.0581 13.5669C17.1753 13.6842 17.3342 13.75 17.5 13.75C17.6658 13.75 17.8247 13.6842 17.9419 13.5669C18.0592 13.4497 18.125 13.2908 18.125 13.125V3.125C18.125 2.95924 18.0592 2.80027 17.9419 2.68306C17.8247 2.56585 17.6658 2.5 17.5 2.5H12.5C12.3342 2.5 12.1753 2.56585 12.0581 2.68306C11.9408 2.80027 11.875 2.95924 11.875 3.125V6.25H7.5C7.33424 6.25 7.17527 6.31585 7.05806 6.43306C6.94085 6.55027 6.875 6.70924 6.875 6.875V10H2.5C2.33424 10 2.17527 10.0658 2.05806 10.1831C1.94085 10.3003 1.875 10.4592 1.875 10.625V17.5H0.625C0.45924 17.5 0.300269 17.5658 0.183058 17.6831C0.065848 17.8003 0 17.9592 0 18.125C0 18.2908 0.065848 18.4497 0.183058 18.5669C0.300269 18.6842 0.45924 18.75 0.625 18.75H19.375C19.5408 18.75 19.6997 18.6842 19.8169 18.5669C19.9342 18.4497 20 18.2908 20 18.125C20 17.9592 19.9342 17.8003 19.8169 17.6831C19.6997 17.5658 19.5408 17.5 19.375 17.5ZM3.125 11.25H6.875V17.5H3.125V11.25ZM8.125 7.5H11.875V17.5H8.125V7.5Z" fill="#566C9F" fill-opacity="0.77"/>
<path d="M5 8.75H0.625C0.45924 8.75 0.300269 8.68415 0.183058 8.56694C0.065848 8.44973 0 8.29076 0 8.125C0 7.95924 0.065848 7.80027 0.183058 7.68306C0.300269 7.56585 0.45924 7.5 0.625 7.5H4.375V4.375C4.375 4.20924 4.44085 4.05027 4.55806 3.93306C4.67527 3.81585 4.83424 3.75 5 3.75H9.375V0.625C9.375 0.45924 9.44085 0.300268 9.55806 0.183058C9.67527 0.065848 9.83424 0 10 0H17.5C17.6658 0 17.8247 0.065848 17.9419 0.183058C18.0592 0.300268 18.125 0.45924 18.125 0.625C18.125 0.79076 18.0592 0.949732 17.9419 1.06694C17.8247 1.18415 17.6658 1.25 17.5 1.25H10.625V4.375C10.625 4.54076 10.5592 4.69973 10.4419 4.81694C10.3247 4.93415 10.1658 5 10 5H5.625V8.125C5.625 8.29076 5.55915 8.44973 5.44194 8.56694C5.32473 8.68415 5.16576 8.75 5 8.75Z" fill="#566C9F" fill-opacity="0.77"/>
</svg>
