<svg width="96" height="96" viewBox="0 0 96 96" fill="none" xmlns="http://www.w3.org/2000/svg">
<path d="M95.2498 47.9999C95.2498 63.5999 82.6498 76.3499 66.8998 76.3499C51.2998 76.3499 38.5498 63.5999 38.5498 47.9999C38.5498 32.3999 51.1498 19.6499 66.7498 19.6499C82.6498 19.6499 95.2498 32.3999 95.2498 47.9999Z" fill="#FFB600"/>
<path d="M66.8998 19.6499C82.4998 19.6499 95.2498 32.3999 95.2498 47.9999C95.2498 63.5999 82.6498 76.3499 66.8998 76.3499C51.2998 76.3499 38.5498 63.5999 38.5498 47.9999" fill="#F7981D"/>
<path d="M66.9004 19.6499C82.5004 19.6499 95.2504 32.3999 95.2504 47.9999C95.2504 63.5999 82.6504 76.3499 66.9004 76.3499" fill="#FF8500"/>
<path d="M28.8 19.6499C13.35 19.7999 0.75 32.3999 0.75 47.9999C0.75 63.5999 13.35 76.3499 29.1 76.3499C36.45 76.3499 43.05 73.4999 48.15 68.9999C49.2 68.0999 50.1 67.0499 51 65.9999H45.15C44.4 65.0999 43.65 64.0499 43.05 63.1499H53.1C53.7 62.2499 54.3 61.1999 54.75 60.1499H41.4C40.95 59.2499 40.5 58.1999 40.2 57.1499H55.8C56.7 54.2999 57.3 51.2999 57.3 48.1499C57.3 46.0499 57 44.0999 56.7 42.1499H39.3C39.45 41.0999 39.75 40.1999 40.05 39.1499H55.65C55.35 38.0999 54.9 37.0499 54.45 36.1499H41.25C41.7 35.0999 42.3 34.1999 42.9 33.1499H52.95C52.35 32.0999 51.6 31.0499 50.7 30.1499H45.15C46.05 29.0999 46.95 28.1999 48 27.2999C43.05 22.6499 36.3 19.9499 28.95 19.9499C28.95 19.6499 28.95 19.6499 28.8 19.6499Z" fill="#FF5050"/>
<path d="M0.75 47.9997C0.75 63.5997 13.35 76.3497 29.1 76.3497C36.45 76.3497 43.05 73.4997 48.15 68.9997C49.2 68.0997 50.1 67.0497 51 65.9997H45.15C44.4 65.0997 43.65 64.0497 43.05 63.1497H53.1C53.7 62.2497 54.3 61.1997 54.75 60.1497H41.4C40.95 59.2497 40.5 58.1997 40.2 57.1497H55.8C56.7 54.2997 57.3 51.2997 57.3 48.1497C57.3 46.0497 57 44.0997 56.7 42.1497H39.3C39.45 41.0997 39.75 40.1997 40.05 39.1497H55.65C55.35 38.0997 54.9 37.0497 54.45 36.1497H41.25C41.7 35.0997 42.3 34.1997 42.9 33.1497H52.95C52.35 32.0997 51.6 31.0497 50.7 30.1497H45.15C46.05 29.0997 46.95 28.1997 48 27.2997C43.05 22.6497 36.3 19.9497 28.95 19.9497H28.8" fill="#E52836"/>
<path d="M29.0998 76.3497C36.4498 76.3497 43.0498 73.4997 48.1498 68.9997C49.1998 68.0997 50.0998 67.0497 50.9998 65.9997H45.1498C44.3998 65.0997 43.6498 64.0497 43.0498 63.1497H53.0998C53.6998 62.2497 54.2998 61.1997 54.7498 60.1497H41.3998C40.9498 59.2497 40.4998 58.1997 40.1998 57.1497H55.7998C56.6998 54.2997 57.2998 51.2997 57.2998 48.1497C57.2998 46.0497 56.9998 44.0997 56.6998 42.1497H39.2998C39.4498 41.0997 39.7498 40.1997 40.0498 39.1497H55.6498C55.3498 38.0997 54.8998 37.0497 54.4498 36.1497H41.2498C41.6998 35.0997 42.2998 34.1997 42.8998 33.1497H52.9498C52.3498 32.0997 51.5998 31.0497 50.6998 30.1497H45.1498C46.0498 29.0997 46.9498 28.1997 47.9998 27.2997C43.0498 22.6497 36.2998 19.9497 28.9498 19.9497H28.7998" fill="#CB2026"/>
<path d="M39.1498 55.2L39.5998 52.65C39.4498 52.65 39.1498 52.8 38.8498 52.8C37.7998 52.8 37.6498 52.2 37.7998 51.9L38.6998 46.65H40.3498L40.7998 43.8H39.2998L39.5998 42H36.5998C36.5998 42 34.7998 51.9 34.7998 53.1C34.7998 54.9 35.8498 55.65 37.1998 55.65C38.0998 55.65 38.8498 55.35 39.1498 55.2Z" fill="white"/>
<path d="M40.2002 50.3998C40.2002 54.5998 43.0502 55.6498 45.4502 55.6498C47.7002 55.6498 48.6002 55.1998 48.6002 55.1998L49.2002 52.3498C49.2002 52.3498 47.5502 53.0998 46.0502 53.0998C42.7502 53.0998 43.3502 50.6998 43.3502 50.6998H49.5002C49.5002 50.6998 49.9502 48.7498 49.9502 47.9998C49.9502 46.0498 48.9002 43.6498 45.6002 43.6498C42.4502 43.3498 40.2002 46.6498 40.2002 50.3998ZM45.4502 46.0498C47.1002 46.0498 46.8002 47.9998 46.8002 48.1498H43.5002C43.5002 47.9998 43.8002 46.0498 45.4502 46.0498Z" fill="white"/>
<path d="M64.5 55.1999L65.1 51.8999C65.1 51.8999 63.6 52.6499 62.55 52.6499C60.45 52.6499 59.55 50.9999 59.55 49.1999C59.55 45.5999 61.35 43.6499 63.45 43.6499C64.95 43.6499 66.15 44.5499 66.15 44.5499L66.6 41.3999C66.6 41.3999 64.8 40.6499 63.15 40.6499C59.7 40.6499 56.25 43.6499 56.25 49.3499C56.25 53.0999 58.05 55.6499 61.65 55.6499C62.85 55.6499 64.5 55.1999 64.5 55.1999Z" fill="white"/>
<path d="M22.6502 43.3501C20.5502 43.3501 19.0502 43.9501 19.0502 43.9501L18.6002 46.5001C18.6002 46.5001 19.9502 45.9001 21.9002 45.9001C22.9502 45.9001 23.8502 46.0501 23.8502 46.9501C23.8502 47.5501 23.7002 47.7001 23.7002 47.7001C23.7002 47.7001 22.8002 47.7001 22.3502 47.7001C19.8002 47.7001 16.9502 48.7501 16.9502 52.2001C16.9502 54.9001 18.7502 55.5001 19.8002 55.5001C21.9002 55.5001 22.8002 54.1501 22.9502 54.1501L22.8002 55.3501H25.5002L26.7002 47.1001C26.7002 43.5001 23.7002 43.3501 22.6502 43.3501ZM23.2502 50.1001C23.2502 50.5501 22.9502 52.9501 21.1502 52.9501C20.2502 52.9501 19.9502 52.2001 19.9502 51.7501C19.9502 51.0001 20.4002 49.9501 22.6502 49.9501C23.1002 50.1001 23.2502 50.1001 23.2502 50.1001Z" fill="white"/>
<path d="M29.5506 55.4997C30.3006 55.4997 34.0506 55.6497 34.0506 51.5997C34.0506 47.8497 30.4506 48.5997 30.4506 47.0997C30.4506 46.3497 31.0506 46.0497 32.1006 46.0497C32.5506 46.0497 34.2006 46.1997 34.2006 46.1997L34.6506 43.4997C34.6506 43.4997 33.6006 43.1997 31.8006 43.1997C29.5506 43.1997 27.3006 44.0997 27.3006 47.0997C27.3006 50.5497 31.0506 50.2497 31.0506 51.5997C31.0506 52.4997 30.0006 52.6497 29.2506 52.6497C27.9006 52.6497 26.5506 52.1997 26.5506 52.1997L26.1006 54.8997C26.2506 55.1997 27.0006 55.4997 29.5506 55.4997Z" fill="white"/>
<path d="M89.4006 40.9497L88.8006 44.9997C88.8006 44.9997 87.6006 43.4997 85.9506 43.4997C83.2506 43.4997 80.8506 46.7997 80.8506 50.6997C80.8506 53.0997 82.0506 55.6497 84.6006 55.6497C86.4006 55.6497 87.4506 54.4497 87.4506 54.4497L87.3006 55.4997H90.3006L92.5506 41.0997L89.4006 40.9497ZM88.0506 48.8997C88.0506 50.5497 87.3006 52.6497 85.6506 52.6497C84.6006 52.6497 84.0006 51.7497 84.0006 50.2497C84.0006 47.8497 85.0506 46.3497 86.4006 46.3497C87.4506 46.3497 88.0506 47.0997 88.0506 48.8997Z" fill="white"/>
<path d="M6.3002 55.3497L8.1002 44.5497L8.4002 55.3497H10.5002L14.4002 44.5497L12.7502 55.3497H15.9002L18.3002 40.9497H13.3502L10.3502 49.7997L10.2002 40.9497H5.8502L3.4502 55.3497H6.3002Z" fill="white"/>
<path d="M52.8 55.3499C53.7 50.3999 53.85 46.3499 55.95 47.0999C56.25 45.1499 56.7 44.3999 57 43.6499C57 43.6499 56.85 43.6499 56.4 43.6499C55.05 43.6499 54 45.4499 54 45.4499L54.3 43.7999H51.45L49.5 55.4999H52.8V55.3499Z" fill="white"/>
<path d="M71.4002 43.3501C69.3002 43.3501 67.8002 43.9501 67.8002 43.9501L67.3502 46.5001C67.3502 46.5001 68.7002 45.9001 70.6502 45.9001C71.7002 45.9001 72.6002 46.0501 72.6002 46.9501C72.6002 47.5501 72.4502 47.7001 72.4502 47.7001C72.4502 47.7001 71.5502 47.7001 71.1002 47.7001C68.5502 47.7001 65.7002 48.7501 65.7002 52.2001C65.7002 54.9001 67.5002 55.5001 68.5502 55.5001C70.6502 55.5001 71.5502 54.1501 71.7002 54.1501L71.5502 55.3501H74.2502L75.4502 47.1001C75.6002 43.5001 72.4502 43.3501 71.4002 43.3501ZM72.1502 50.1001C72.1502 50.5501 71.8502 52.9501 70.0502 52.9501C69.1502 52.9501 68.8502 52.2001 68.8502 51.7501C68.8502 51.0001 69.3002 49.9501 71.5502 49.9501C72.0002 50.1001 72.0002 50.1001 72.1502 50.1001Z" fill="white"/>
<path d="M78.0002 55.3499C78.9002 50.3999 79.0502 46.3499 81.1502 47.0999C81.4502 45.1499 81.9002 44.3999 82.2002 43.6499C82.2002 43.6499 82.0502 43.6499 81.6002 43.6499C80.2502 43.6499 79.2002 45.4499 79.2002 45.4499L79.5002 43.7999H76.6502L74.7002 55.4999H78.0002V55.3499Z" fill="white"/>
<path d="M34.5 53.1C34.5 54.9 35.55 55.65 36.9 55.65C37.95 55.65 38.85 55.35 39.15 55.2L39.6 52.65C39.45 52.65 39.15 52.8 38.85 52.8C37.8 52.8 37.65 52.2 37.8 51.9L38.7 46.65H40.35L40.8 43.8H39.3L39.6 42" fill="#DCE5E5"/>
<path d="M41.7002 50.3998C41.7002 54.5998 43.0502 55.6498 45.4502 55.6498C47.7002 55.6498 48.6002 55.1998 48.6002 55.1998L49.2002 52.3498C49.2002 52.3498 47.5502 53.0998 46.0502 53.0998C42.7502 53.0998 43.3502 50.6998 43.3502 50.6998H49.5002C49.5002 50.6998 49.9502 48.7498 49.9502 47.9998C49.9502 46.0498 48.9002 43.6498 45.6002 43.6498C42.4502 43.3498 41.7002 46.6498 41.7002 50.3998ZM45.4502 46.0498C47.1002 46.0498 47.4002 47.9998 47.4002 48.1498H43.5002C43.5002 47.9998 43.8002 46.0498 45.4502 46.0498Z" fill="#DCE5E5"/>
<path d="M64.5 55.1999L65.1 51.8999C65.1 51.8999 63.6 52.6499 62.55 52.6499C60.45 52.6499 59.55 50.9999 59.55 49.1999C59.55 45.5999 61.35 43.6499 63.45 43.6499C64.95 43.6499 66.15 44.5499 66.15 44.5499L66.6 41.3999C66.6 41.3999 64.8 40.6499 63.15 40.6499C59.7 40.6499 57.75 43.6499 57.75 49.3499C57.75 53.0999 58.05 55.6499 61.65 55.6499C62.85 55.6499 64.5 55.1999 64.5 55.1999Z" fill="#DCE5E5"/>
<path d="M18.6002 46.6499C18.6002 46.6499 19.9502 46.0499 21.9002 46.0499C22.9502 46.0499 23.8502 46.1999 23.8502 47.0999C23.8502 47.6999 23.7002 47.8499 23.7002 47.8499C23.7002 47.8499 22.8002 47.8499 22.3502 47.8499C19.8002 47.8499 16.9502 48.8999 16.9502 52.3499C16.9502 55.0499 18.7502 55.6499 19.8002 55.6499C21.9002 55.6499 22.8002 54.2999 22.9502 54.2999L22.8002 55.4999H25.5002L26.7002 47.2499C26.7002 43.7999 23.7002 43.6499 22.5002 43.6499M24.7502 50.0999C24.7502 50.5499 22.9502 52.9499 21.1502 52.9499C20.2502 52.9499 19.9502 52.1999 19.9502 51.7499C19.9502 50.9999 20.4002 49.9499 22.6502 49.9499C23.1002 50.0999 24.7502 50.0999 24.7502 50.0999Z" fill="#DCE5E5"/>
<path d="M26.25 55.1997C26.25 55.1997 27.15 55.4997 29.7 55.4997C30.45 55.4997 34.2 55.6497 34.2 51.5997C34.2 47.8497 30.6 48.5997 30.6 47.0997C30.6 46.3497 31.2 46.0497 32.25 46.0497C32.7 46.0497 34.35 46.1997 34.35 46.1997L34.8 43.4997C34.8 43.4997 33.75 43.1997 31.95 43.1997C29.7 43.1997 28.95 44.0997 28.95 47.0997C28.95 50.5497 31.2 50.2497 31.2 51.5997C31.2 52.4997 30.15 52.6497 29.4 52.6497" fill="#DCE5E5"/>
<path d="M88.7998 45.0001C88.7998 45.0001 87.5997 43.5001 85.9497 43.5001C83.2497 43.5001 82.3498 46.8001 82.3498 50.7001C82.3498 53.1001 82.0498 55.6501 84.5998 55.6501C86.3998 55.6501 87.4497 54.4501 87.4497 54.4501L87.2998 55.5001H90.2998L92.5498 41.1001M88.6497 48.9001C88.6497 50.5501 87.2997 52.6501 85.6497 52.6501C84.5997 52.6501 83.9997 51.7501 83.9997 50.2501C83.9997 47.8501 85.0497 46.3501 86.3997 46.3501C87.4497 46.3501 88.6497 47.1001 88.6497 48.9001Z" fill="#DCE5E5"/>
<path d="M6.3002 55.3497L8.1002 44.5497L8.4002 55.3497H10.5002L14.4002 44.5497L12.7502 55.3497H15.9002L18.3002 40.9497H14.5502L10.3502 49.7997L10.2002 40.9497H8.5502L3.4502 55.3497H6.3002Z" fill="#DCE5E5"/>
<path d="M49.6504 55.3499H52.8004C53.7004 50.3999 53.8504 46.3499 55.9504 47.0999C56.2504 45.1499 56.7004 44.3999 57.0004 43.6499C57.0004 43.6499 56.8504 43.6499 56.4004 43.6499C55.0504 43.6499 54.0004 45.4499 54.0004 45.4499L54.3004 43.7999" fill="#DCE5E5"/>
<path d="M67.3502 46.6499C67.3502 46.6499 68.7002 46.0499 70.6502 46.0499C71.7002 46.0499 72.6002 46.1999 72.6002 47.0999C72.6002 47.6999 72.4502 47.8499 72.4502 47.8499C72.4502 47.8499 71.5502 47.8499 71.1002 47.8499C68.5502 47.8499 65.7002 48.8999 65.7002 52.3499C65.7002 55.0499 67.5002 55.6499 68.5502 55.6499C70.6502 55.6499 71.5502 54.2999 71.7002 54.2999L71.5502 55.4999H74.2502L75.4502 47.2499C75.4502 43.7999 72.4502 43.6499 71.2502 43.6499M73.5002 50.0999C73.5002 50.5499 71.7002 52.9499 69.9002 52.9499C69.0002 52.9499 68.7002 52.1999 68.7002 51.7499C68.7002 50.9999 69.1502 49.9499 71.4002 49.9499C72.0002 50.0999 73.5002 50.0999 73.5002 50.0999Z" fill="#DCE5E5"/>
<path d="M74.8506 55.3499H78.0006C78.9006 50.3999 79.0506 46.3499 81.1506 47.0999C81.4506 45.1499 81.9006 44.3999 82.2006 43.6499C82.2006 43.6499 82.0506 43.6499 81.6006 43.6499C80.2506 43.6499 79.2006 45.4499 79.2006 45.4499L79.5006 43.7999" fill="#DCE5E5"/>
</svg>
