<svg width="40" height="32" viewBox="0 0 40 32" fill="none" xmlns="http://www.w3.org/2000/svg">
<path d="M0 2.5C0 1.83696 0.263392 1.20107 0.732233 0.732233C1.20107 0.263392 1.83696 0 2.5 0H37.5C38.163 0 38.7989 0.263392 39.2678 0.732233C39.7366 1.20107 40 1.83696 40 2.5C40 3.16304 39.7366 3.79893 39.2678 4.26777C38.7989 4.73661 38.163 5 37.5 5H2.5C1.83696 5 1.20107 4.73661 0.732233 4.26777C0.263392 3.79893 0 3.16304 0 2.5ZM0 15.8333C0 15.1703 0.263392 14.5344 0.732233 14.0656C1.20107 13.5967 1.83696 13.3333 2.5 13.3333H37.5C38.163 13.3333 38.7989 13.5967 39.2678 14.0656C39.7366 14.5344 40 15.1703 40 15.8333C40 16.4964 39.7366 17.1323 39.2678 17.6011C38.7989 18.0699 38.163 18.3333 37.5 18.3333H2.5C1.83696 18.3333 1.20107 18.0699 0.732233 17.6011C0.263392 17.1323 0 16.4964 0 15.8333ZM0 29.1667C0 28.5036 0.263392 27.8677 0.732233 27.3989C1.20107 26.9301 1.83696 26.6667 2.5 26.6667H37.5C38.163 26.6667 38.7989 26.9301 39.2678 27.3989C39.7366 27.8677 40 28.5036 40 29.1667C40 29.8297 39.7366 30.4656 39.2678 30.9344C38.7989 31.4033 38.163 31.6667 37.5 31.6667H2.5C1.83696 31.6667 1.20107 31.4033 0.732233 30.9344C0.263392 30.4656 0 29.8297 0 29.1667Z" fill="#01226F"/>
</svg>
