<svg width="34" height="38" viewBox="0 0 34 38" fill="none" xmlns="http://www.w3.org/2000/svg">
<path d="M32.5856 22.6734C32.052 22.1424 31.6289 21.511 31.3408 20.8155C31.0527 20.12 30.9054 19.3743 30.9074 18.6215V13.9082C30.9074 10.2195 29.4421 6.68189 26.8338 4.0736C24.2255 1.46532 20.6879 0 16.9992 0C13.3106 0 9.77296 1.46532 7.16468 4.0736C4.55639 6.68189 3.09107 10.2195 3.09107 13.9082V18.6215C3.09304 19.3743 2.94573 20.12 2.65766 20.8155C2.3696 21.511 1.94649 22.1424 1.41282 22.6734C0.738234 23.3479 0.278824 24.2073 0.0926958 25.1429C-0.0934329 26.0786 0.00207996 27.0484 0.367155 27.9297C0.73223 28.8111 1.35047 29.5643 2.14368 30.0943C2.93689 30.6243 3.86945 30.9071 4.82341 30.907H9.42701C9.78169 32.6537 10.7293 34.2241 12.1093 35.352C13.4894 36.48 15.2169 37.0962 16.9992 37.0962C18.7816 37.0962 20.5091 36.48 21.8891 35.352C23.2691 34.2241 24.2168 32.6537 24.5714 30.907H29.1766C30.1305 30.9071 31.0631 30.6243 31.8563 30.0943C32.6495 29.5643 33.2678 28.8111 33.6328 27.9297C33.9979 27.0484 34.0934 26.0786 33.9073 25.1429C33.7212 24.2073 33.2618 23.3479 32.5872 22.6734H32.5856ZM16.9992 33.9977C16.0438 33.9937 15.1129 33.6947 14.334 33.1414C13.555 32.5882 12.966 31.8078 12.6475 30.907H21.3509C21.0325 31.8078 20.4435 32.5882 19.6645 33.1414C18.8855 33.6947 17.9547 33.9937 16.9992 33.9977ZM29.175 27.8163H4.82341C4.48064 27.8165 4.14551 27.715 3.86044 27.5247C3.57536 27.3343 3.35317 27.0637 3.22197 26.747C3.09076 26.4304 3.05646 26.0819 3.12339 25.7457C3.19031 25.4095 3.35547 25.1008 3.59795 24.8585C4.41953 24.0413 5.07092 23.0693 5.51442 21.9987C5.95793 20.9282 6.18475 19.7803 6.18177 18.6215V13.9082C6.18177 11.0392 7.32147 8.28773 9.35013 6.25906C11.3788 4.23039 14.1303 3.0907 16.9992 3.0907C19.8682 3.0907 22.6197 4.23039 24.6483 6.25906C26.677 8.28773 27.8167 11.0392 27.8167 13.9082V18.6215C27.8137 19.7803 28.0405 20.9282 28.484 21.9987C28.9275 23.0693 29.5789 24.0413 30.4005 24.8585C30.643 25.1008 30.8081 25.4095 30.8751 25.7457C30.942 26.0819 30.9077 26.4304 30.7765 26.747C30.6453 27.0637 30.4231 27.3343 30.138 27.5247C29.8529 27.715 29.5178 27.8165 29.175 27.8163Z" fill="#01226F"/>
</svg>
