<svg width="96" height="96" viewBox="0 0 96 96" fill="none" xmlns="http://www.w3.org/2000/svg">
<path fill-rule="evenodd" clip-rule="evenodd" d="M74.3995 40.4999C72.1495 40.4999 70.3495 41.0999 68.8495 41.3999L68.3995 44.8499C69.1495 44.5499 71.2495 43.9499 73.0495 43.7999C74.8495 43.7999 75.8995 44.0999 75.5995 45.7499C70.1995 45.7499 66.5995 46.7999 65.8495 50.3999C64.7995 56.3999 71.3995 56.5499 73.9495 53.8499L73.6495 55.4999H78.4495L80.5495 45.7499C81.2995 41.6999 77.6995 40.3499 74.3995 40.4999ZM74.6995 50.5499C74.3995 51.7499 73.3495 52.1999 72.1495 52.3499C71.0995 52.3499 70.1995 51.7499 70.7995 50.5499C71.3995 49.6499 72.7495 49.6499 73.7995 49.6499C74.0995 49.6499 74.5495 49.6499 74.9995 49.6499C74.8495 49.4999 74.6995 50.0999 74.6995 50.5499Z" fill="#32A6CE"/>
<path fill-rule="evenodd" clip-rule="evenodd" d="M68.3995 44.8499C69.1495 44.5499 71.2495 43.9499 73.0495 43.7999C74.8495 43.7999 75.8995 44.0999 75.5995 45.7499C70.1995 45.7499 66.5995 46.7999 65.8495 50.3999C64.7995 56.3999 71.3995 56.5499 73.9495 53.8499L73.6495 55.4999H78.4495L80.5495 45.7499C81.4495 41.6999 77.6995 40.6499 74.3995 40.6499M74.6995 50.5499C74.3995 51.7499 73.3495 52.1999 72.1495 52.3499C71.0995 52.3499 70.1995 51.7499 70.7995 50.5499C71.3995 49.6499 72.7495 49.6499 73.7995 49.6499C74.0995 49.6499 74.5495 49.6499 74.9995 49.6499C74.8495 49.4999 74.6995 50.0999 74.6995 50.5499Z" fill="#1A80AD"/>
<path fill-rule="evenodd" clip-rule="evenodd" d="M84.5992 36L80.6992 55.5H85.4992L89.5492 36H84.5992Z" fill="#32A6CE"/>
<path fill-rule="evenodd" clip-rule="evenodd" d="M88.0492 36L80.6992 55.5H85.4992L89.5492 36H84.5992H88.0492Z" fill="#1A80AD"/>
<path fill-rule="evenodd" clip-rule="evenodd" d="M62.25 36H53.4L49.5 55.5H54.75L56.1 49.5H59.85C63.45 49.5 66.45 47.4 67.2 43.65C67.95 39.3 64.8 36 62.25 36ZM62.1 42.75C61.8 44.1 60.45 45 59.1 45H56.7L57.75 40.5H60.3C61.65 40.5 62.4 41.4 62.1 42.75Z" fill="#32A6CE"/>
<path fill-rule="evenodd" clip-rule="evenodd" d="M62.2496 36H56.2496L49.3496 55.5H54.5996L55.9496 49.5H59.6996C63.2996 49.5 66.2996 47.4 67.0496 43.65C67.9496 39.3 64.7996 36 62.2496 36ZM62.0996 42.75C61.7996 44.1 60.4496 45 59.0996 45H56.6996L57.7496 40.5H60.2996C61.6496 40.5 62.3996 41.4 62.0996 42.75Z" fill="#1A80AD"/>
<path fill-rule="evenodd" clip-rule="evenodd" d="M27.5999 40.4999C25.3499 40.4999 23.5499 41.0999 22.1999 41.3999L21.7499 44.8499C22.3499 44.5499 24.5999 43.9499 26.3999 43.7999C28.1999 43.7999 29.2499 44.0999 28.9499 45.7499C23.6999 45.7499 20.0999 46.7999 19.3499 50.3999C18.2999 56.3999 24.7499 56.5499 27.2999 53.8499L26.9999 55.4999H31.7999L33.8999 45.7499C34.6499 41.6999 30.8999 40.3499 27.5999 40.4999ZM28.0499 50.5499C27.7499 51.7499 26.6999 52.1999 25.4999 52.3499C24.4499 52.3499 23.5499 51.7499 24.2999 50.5499C24.8999 49.6499 26.2499 49.6499 27.1499 49.6499C27.5999 49.6499 27.8999 49.6499 28.3499 49.6499C28.1999 49.4999 28.0499 50.0999 28.0499 50.5499Z" fill="#21789E"/>
<path fill-rule="evenodd" clip-rule="evenodd" d="M21.8993 44.8499C22.4993 44.5499 24.7493 43.9499 26.5493 43.7999C28.3493 43.7999 29.3993 44.0999 29.0993 45.7499C23.8493 45.7499 20.2493 46.7999 19.4993 50.3999C18.4493 56.3999 24.8993 56.5499 27.4493 53.8499L26.9993 55.4999H31.7993L33.8993 45.7499C34.7993 41.6999 31.0493 40.6499 27.7493 40.6499M28.0493 50.5499C27.7493 51.7499 26.6993 52.1999 25.4993 52.3499C24.4493 52.3499 23.5493 51.7499 24.2993 50.5499C24.8993 49.6499 26.2493 49.6499 27.1493 49.6499C27.5993 49.6499 27.8993 49.6499 28.3493 49.6499C28.1993 49.4999 28.0493 50.0999 28.0493 50.5499Z" fill="#1A5B80"/>
<path fill-rule="evenodd" clip-rule="evenodd" d="M35.8496 40.5H40.6496L41.3996 48.9L46.1996 40.5H51.1496L39.7496 61.5H34.3496L37.7996 55.2L35.8496 40.5Z" fill="#21789E"/>
<path fill-rule="evenodd" clip-rule="evenodd" d="M40.6496 40.8L41.3996 49.05L46.1996 40.5H51.1496L39.7496 61.5H34.3496L37.7996 55.35" fill="#1A5B80"/>
<path fill-rule="evenodd" clip-rule="evenodd" d="M15.7496 36H6.74961L2.84961 55.5H8.09961L9.44961 49.5H13.1996C16.7996 49.5 19.7996 47.4 20.5496 43.65C21.4496 39.3 18.2996 36 15.7496 36ZM15.5996 42.75C15.2996 44.1 13.9496 45 12.5996 45H10.1996L11.2496 40.5H13.7996C15.1496 40.5 15.8996 41.4 15.5996 42.75Z" fill="#21789E"/>
<path fill-rule="evenodd" clip-rule="evenodd" d="M15.7496 36H11.6996L2.84961 55.5H8.09961L9.44961 49.5H13.1996C16.7996 49.5 19.7996 47.4 20.5496 43.65C21.4496 39.3 18.2996 36 15.7496 36ZM15.5996 42.75C15.2996 44.1 13.9496 45 12.5996 45H10.1996L11.2496 40.5H13.7996C15.1496 40.5 15.8996 41.4 15.5996 42.75Z" fill="#1A5B80"/>
<path fill-rule="evenodd" clip-rule="evenodd" d="M26.6999 45.75C22.6499 46.05 19.9499 47.25 19.3499 50.25C18.2999 56.25 24.7499 56.4 27.2999 53.7L26.9999 55.5H31.7999L32.5499 51.9L26.6999 45.75ZM28.0499 50.55C27.7499 51.75 26.6999 52.2 25.4999 52.35C24.4499 52.35 23.5499 51.75 24.2999 50.55C24.8999 49.65 26.2499 49.65 27.1499 49.65C27.5999 49.65 27.8999 49.65 28.3499 49.65C28.1999 49.5 28.0499 50.1 28.0499 50.55Z" fill="#06435E"/>
<path fill-rule="evenodd" clip-rule="evenodd" d="M41.6994 48.75L41.3994 49.2L44.5494 52.2L51.1494 40.5H46.1994L41.6994 48.75Z" fill="#06435E"/>
<path fill-rule="evenodd" clip-rule="evenodd" d="M8.0998 55.5L9.44981 49.5L3.2998 55.5H8.0998Z" fill="#06435E"/>
<path fill-rule="evenodd" clip-rule="evenodd" d="M54.5998 55.5002L55.9498 49.2002V49.3502L49.7998 55.5002H54.5998Z" fill="#2273AA"/>
<path fill-rule="evenodd" clip-rule="evenodd" d="M73.3499 45.75C69.2999 46.05 66.5999 47.25 65.9999 50.25C64.9499 56.25 71.5499 56.4 74.0999 53.7L73.6499 55.5H78.4499L79.1999 51.9L73.3499 45.75ZM74.6999 50.55C74.3999 51.75 73.3499 52.2 72.1499 52.35C71.0999 52.35 70.1999 51.75 70.7999 50.55C71.3999 49.65 72.7499 49.65 73.7999 49.65C74.0999 49.65 74.5499 49.65 74.9999 49.65C74.8499 49.5 74.6999 50.1 74.6999 50.55Z" fill="#2273AA"/>
<path fill-rule="evenodd" clip-rule="evenodd" d="M84.1492 46.6499L80.6992 55.4999H85.4992L86.8492 49.4999L84.1492 46.6499Z" fill="#2273AA"/>
<path d="M90.5996 39.15V37.05H89.8496V36.75H91.7996V37.05H91.0496V39.15H90.5996Z" fill="#32A6CE"/>
<path d="M92.0996 39.1501V36.7501H92.5496L93.1496 38.4001C93.1496 38.5501 93.2996 38.7001 93.2996 38.7001C93.2996 38.5501 93.2996 38.5501 93.4496 38.2501L94.0496 36.6001H94.4996V39.0001H94.1996V36.9001L93.4496 39.0001H92.9996L92.2496 36.9001V39.0001H92.0996V39.1501Z" fill="#32A6CE"/>
</svg>
