<svg width="34" height="34" viewBox="0 0 34 34" fill="none" xmlns="http://www.w3.org/2000/svg">
<path fill-rule="evenodd" clip-rule="evenodd" d="M23.941 10.1998C23.941 6.44966 20.8283 3.39991 17 3.39991C13.1717 3.39991 10.059 6.44966 10.059 10.1998C10.059 13.9499 13.1717 16.9997 17 16.9997C20.8283 16.9997 23.941 13.9499 23.941 10.1998ZM30.508 33.9993H27.4123C27.1867 34.0018 26.9628 33.9598 26.7534 33.8757C26.5441 33.7915 26.3533 33.6671 26.1921 33.5092C26.0309 33.3513 25.9024 33.1631 25.814 32.9555C25.7255 32.748 25.6789 32.525 25.6766 32.2994C25.6766 31.361 26.4535 30.5994 27.4106 30.5994H28.1569C29.357 30.5994 30.2445 29.4145 29.7889 28.3248C27.6877 23.2861 22.751 20.3996 17 20.3996C11.2473 20.3996 6.31228 23.2861 4.21112 28.3248C3.75553 29.4145 4.64295 30.5994 5.84313 30.5994H6.58769C7.54647 30.5994 8.32335 31.361 8.32335 32.2994C8.32335 33.2378 7.54649 33.9993 6.5894 33.9993H3.49202C1.32286 33.9993 -0.383869 32.0563 0.0751222 29.9806C1.3382 24.2704 5.28382 20.0562 10.4789 18.1437C8.10917 16.2754 6.58769 13.4127 6.58769 10.1998C6.58769 4.1632 11.9392 -0.647727 18.2478 0.0713593C22.819 0.59155 26.6048 4.15971 27.2916 8.61872C27.8798 12.4624 26.275 15.9728 23.5211 18.1437C28.7162 20.0562 32.6618 24.2704 33.9249 29.9806C34.3839 32.0563 32.6771 33.9993 30.508 33.9993ZM22.2053 32.2994C22.2053 33.2378 21.4284 33.9993 20.4713 33.9993H13.5287C13.3032 34.0016 13.0795 33.9595 12.8703 33.8753C12.6611 33.791 12.4706 33.6664 12.3096 33.5086C12.1486 33.3507 12.0202 33.1626 11.9319 32.9551C11.8436 32.7477 11.7969 32.5249 11.7947 32.2994C11.7947 31.361 12.5716 30.5994 13.5287 30.5994H20.4713C21.4284 30.5994 22.2053 31.361 22.2053 32.2994Z" fill="#01226F"/>
</svg>
