<svg width="86" height="18" viewBox="0 0 86 18" fill="none" xmlns="http://www.w3.org/2000/svg">
<path d="M70 8.15782C70 12.5761 73.5817 16.1578 78 16.1578C82.4183 16.1578 86 12.5761 86 8.15782C86 3.73954 82.4183 0.15782 78 0.15782C73.5817 0.15782 70 3.73954 70 8.15782ZM1.34193 17.4605C12.4778 14.8534 29.6774 11.3351 45.0737 9.25217C52.7766 8.21007 59.9851 7.53335 65.7406 7.5012C68.6202 7.48511 71.0935 7.63092 73.0629 7.95874C75.0757 8.2938 76.3757 8.79053 77.0747 9.33841L78.9253 6.97723C77.6232 5.95667 75.714 5.35877 73.5555 4.99946C71.3535 4.63293 68.6935 4.48465 65.7238 4.50124C59.7807 4.53444 52.4266 5.2301 44.6715 6.27925C29.1518 8.37885 11.8536 11.9185 0.658073 14.5395L1.34193 17.4605Z" fill="#F3B33E"/>
</svg>
