<svg width="22" height="16" viewBox="0 0 22 16" fill="none" xmlns="http://www.w3.org/2000/svg">
<path d="M15.7316 11.544C15.7316 9.07584 13.7308 7.07507 11.2627 7.07507H11.2613H11.2598H11.2584H11.257H11.2556H11.2542H11.2528H11.2513H11.2499H11.2485H11.2471H11.2457H11.2442H11.2428H11.2414H11.24H11.2386H11.2372H11.2357H11.2343H11.2329H11.2315H11.2301H11.2287H11.2272H11.2258H11.2244H11.223H11.2216H11.2201H11.2187H11.2173H11.2159H11.2145H11.213H11.2116H11.2102H11.2088H11.2074H11.206H11.2045H11.2031H11.2017H11.2003H11.1989H11.1974H11.196H11.1946H11.1932H11.1918H11.1903H11.1889H11.1875H11.1861H11.1847H11.1832H11.1818H11.1804H11.179H11.1776H11.1762H11.1747H11.1733H11.1719H11.1705H11.1691H11.1676H11.1662H11.1648H11.1634H11.162H11.1605H11.1591H11.1577H11.1563H11.1549H11.1534H11.152H11.1506H11.1492H11.1478H11.1463H11.1449H11.1435H11.1421H11.1407H11.1392H11.1378H11.1364H11.135H11.1336H11.1321H11.1307H11.1293H11.1279H11.1265H11.125H11.1236H11.1222H11.1208H11.1194H11.1179H11.1165H11.1151H11.1137H11.1123H11.1108H11.1094H11.108H11.1066H11.1052H11.1037H11.1023H11.1009H11.0995H11.098H11.0966H11.0952H11.0938H11.0924H11.0909H11.0895H11.0881H11.0867H11.0853H11.0838H11.0824H11.081H11.0796H11.0782H11.0767H11.0753H11.0739H11.0725H11.0711H11.0696H11.0682H11.0668H11.0654H11.0639H11.0625H11.0611H11.0597H11.0583H11.0568H11.0554H11.054H11.0526H11.0512H11.0497H11.0483H11.0469H11.0455H11.044H11.0426H11.0412H11.0398H11.0384H11.0369H11.0355H11.0341H11.0327H11.0313H11.0298H11.0284H11.027H11.0256H11.0241H11.0227H11.0213H11.0199H11.0185H11.017H11.0156H11.0142H11.0128H11.0114H11.0099H11.0085H11.0071H11.0057H11.0042H11.0028H11.0014H11H10.9986H10.9971H10.9957H10.9943H10.9929H10.9914H10.99H10.9886H10.9872H10.9858H10.9843H10.9829H10.9815H10.9801H10.9787H10.9772H10.9758H10.9744H10.973H10.9715H10.9701H10.9687H10.9673H10.9659H10.9644H10.963H10.9616H10.9602H10.9587H10.9573H10.9559H10.9545H10.9531H10.9516H10.9502H10.9488H10.9474H10.9459H10.9445H10.9431H10.9417H10.9403H10.9388H10.9374H10.936H10.9346H10.9331H10.9317H10.9303H10.9289H10.9275H10.926H10.9246H10.9232H10.9218H10.9204H10.9189H10.9175H10.9161H10.9147H10.9132H10.9118H10.9104H10.909H10.9076H10.9061H10.9047H10.9033H10.9019H10.9004H10.899H10.8976H10.8962H10.8948H10.8933H10.8919H10.8905H10.8891H10.8876H10.8862H10.8848H10.8834H10.882H10.8805H10.8791H10.8777H10.8763H10.8748H10.8734H10.872H10.8706H10.8692H10.8677H10.8663H10.8649H10.8635H10.8621H10.8606H10.8592H10.8578H10.8564H10.8549H10.8535H10.8521H10.8507H10.8493H10.8478H10.8464H10.845H10.8436H10.8421H10.8407H10.8393H10.8379H10.8365H10.835H10.8336H10.8322H10.8308H10.8293H10.8279H10.8265H10.8251H10.8237H10.8222H10.8208H10.8194H10.818H10.8166H10.8151H10.8137H10.8123H10.8109H10.8094H10.808H10.8066H10.8052H10.8038H10.8023H10.8009H10.7995H10.7981H10.7967H10.7952H10.7938H10.7924H10.791H10.7895H10.7881H10.7867H10.7853H10.7839H10.7824H10.781H10.7796H10.7782H10.7768H10.7753H10.7739H10.7725H10.7711H10.7696H10.7682H10.7668H10.7654H10.764H10.7625H10.7611H10.7597H10.7583H10.7569H10.7554H10.754H10.7526H10.7512H10.7498H10.7483H10.7469H10.7455H10.7441H10.7426H10.7412H10.7398H10.7384H10.737H10.7355H10.7341H10.7327H10.7313H10.7299H10.7284H10.727H10.7256H10.7242H10.7228H10.7213H10.7199H10.7185H10.7171H10.7157H10.7142H10.7128H10.7114H10.71H10.7086H10.7071H10.7057H10.7043H10.7029H10.7015H10.7H10.6986H10.6972H10.6958H10.6944H10.6929H10.6915H10.6901H10.6887H10.6873H10.6858H10.6844H10.683H10.6816H10.6802H10.6787H10.6773H10.6759H10.6745H10.6731H10.6716H10.6702H10.6688H10.6674H10.666H10.6645H10.6631H10.6617H10.6603H10.6589H10.6574H10.656H10.6546H10.6532H10.6518H10.6503H10.6489H10.6475H10.6461H10.6447H10.6432H10.6418H10.6404H10.639H10.6376H10.6362H10.6347H10.6333H10.6319H10.6305H10.6291H10.6276H10.6262H10.6248H10.6234H10.622H10.6205H10.6191H10.6177H10.6163H10.6149H10.6135H10.612H10.6106H10.6092H10.6078H10.6064H10.6049H10.6035H10.6021H10.6007H10.5993H10.5978H10.5964H10.595H10.5936H10.5922H10.5908H10.5893H10.5879H10.5865H10.5851H10.5837H10.5823H10.5808H10.5794H10.578H10.5766H10.5752H10.5737H10.5723H10.5709H10.5695H10.5681H10.5667H10.5652H10.5638H10.5624H10.561H10.5596H10.5582H10.5567H10.5553H10.5539H10.5525H10.5511H10.5497H10.5482H10.5468H10.5454H10.544H10.5426H10.5412H10.5397H10.5383H10.5369H10.5355C8.06718 7.07507 6.06641 9.07583 6.06641 11.544V11.5543V11.5646V11.5748V11.5851V11.5954V11.6057V11.6159V11.6262V11.6365V11.6467V11.657V11.6673V11.6775V11.6878V11.698V11.7083V11.7185V11.7288V11.739V11.7492V11.7595V11.7697V11.7799V11.7902V11.8004V11.8106V11.8208V11.831V11.8412V11.8515V11.8617V11.8719V11.882V11.8922V11.9024V11.9126V11.9228V11.933V11.9431V11.9533V11.9635V11.9736V11.9838V11.9939V12.0041V12.0142V12.0243V12.0345V12.0446V12.0547V12.0648V12.0749V12.085V12.0951V12.1052V12.1153V12.1254V12.1354V12.1455V12.1556V12.1656V12.1757V12.1857V12.1958V12.2058V12.2158V12.2258V12.2359V12.2459V12.2559V12.2659V12.2758V12.2858V12.2958V12.3058V12.3157V12.3257V12.3356V12.3456V12.3555V12.3654V12.3753V12.3853V12.3952V12.405V12.4149V12.4248V12.4347V12.4445V12.4544V12.4642V12.4741V12.4839V12.4937V12.5036V12.5134V12.5232V12.5329V12.5427V12.5525V12.5623V12.572V12.5818V12.5915V12.6012V12.6109V12.6206V12.6303V12.64V12.6497V12.6594V12.669V12.6787V12.6883V12.698V12.7076V12.7172V12.7268V12.7364V12.746V12.7556V12.7651V12.7747V12.7842V12.7937V12.8033V12.8128V12.8223V12.8317V12.8412V12.8507V12.8601V12.8696V12.879V12.8884V12.8978V12.9072V12.9166V12.926V12.9354V12.9447V12.9541V12.9634V12.9727V12.982V12.9913V13.0006V13.0099V13.0191V13.0284V13.0376V13.0468V13.056V13.0652V13.0744V13.0835V13.0927V13.1018V13.111V13.1201V13.1292V13.1383V13.1474V13.1564V13.1655V13.1745V13.1835V13.1925V13.2015V13.2105V13.2195V13.2284V13.2374V13.2463V13.2552V13.2641V13.273V13.2819V13.2907V13.2996V13.3084V13.3172V13.326V13.3348V13.3435V13.3523V13.361V13.3697V13.3785V13.3871V13.3958V13.4045V13.4131V13.4218V13.4304V13.439V13.4475V13.4561V13.4647V13.4732V13.4817V13.4902V13.4987V13.5072V13.5156V13.5241V13.5325V13.5409V13.5493V13.5577V13.566V13.5743V13.5827V13.591V13.5993V13.6075V13.6158V13.624V13.6322V13.6404V13.6486V13.6568V13.6649V13.6731V13.6812V13.6893V13.6973V13.7054V13.7134V13.7215V13.7295V13.7374V13.7454V13.7534V13.7613V13.7692V13.7771V13.785V13.7928V13.8007V13.8085V13.8163V13.8241V13.8318V13.8396V13.8473V13.855V13.8627V13.8703V13.878V13.8856V13.8932V13.9008V13.9084V13.9159V13.9234V13.9309V13.9384V13.9459V13.9533V13.9608V13.9682V13.9755V13.9829V13.9903V13.9976V14.0049V14.0122V14.0194V14.0266V14.0339V14.0411V14.0482V14.0554V14.0625V14.0696V14.0767V14.0838V14.0908V14.0979V14.1049V14.1118V14.1188V14.1257V14.1326V14.1395V14.1464V14.1533V14.1601V14.1669V14.1737V14.1804V14.1871V14.1939V14.2005V14.2072V14.2139V14.2205V14.2271V14.2336V14.2402V14.2467V14.2532V14.2597V14.2662V14.2726V14.279V14.2854V14.2917V14.2981V14.3044V14.3107V14.317V14.3232V14.3294V14.3356V14.3418V14.3479V14.354V14.3601V14.3662V14.3722V14.3783V14.3843V14.3902V14.3962V14.4021V14.408V14.4139V14.4197V14.4255V14.4313V14.4371V14.4428V14.4485V14.4542V14.4599V14.4655V14.4711V14.4767V14.4823V14.4878V14.4933V14.4988V14.5043V14.5097V14.5151V14.5205V14.5258V14.5311V14.5364V14.5417V14.5469V14.5521V14.5573V14.5625V14.5676V14.5727V14.5778V14.5828V14.5879V14.5929V14.5978V14.6028V14.6077V14.6126V14.6174V14.6222V14.627V14.6318V14.6365V14.6413V14.6459V14.6506V14.6552V14.6598V14.6644V14.6689V14.6734V14.6779V14.6824V14.6868V14.6912V14.6956V14.6999V14.7042V14.7085V14.7127V14.717V14.7211V14.7253V14.7294V14.7335V14.7376V14.7416V14.7456V14.7496V14.7536V14.7575V14.7614V14.7652V14.7691V14.7729V14.7766V14.7804V14.7841V14.7877V14.7914V14.795V14.7986V14.8021V14.8056V14.8091V14.8126V14.816V14.8194V14.8227V14.8261V14.8294V14.8326V14.8359V14.8391V14.8422V14.8454V14.8485V14.8515V14.8546V14.8576V14.8606V14.8635V14.8664V14.8693V14.8721V14.8749V14.8777V14.8804V14.8832V14.8858V14.8885V14.8911V14.8937V14.8962V14.8987V14.9012V14.9036V14.906V14.9084V14.9108V14.9131V14.9153V14.9176V14.9198V14.922V14.9241V14.9262V14.9283V14.9303V14.9323V14.9343V14.9362V14.9381V14.9399V14.9418V14.9435V14.9453V14.947V14.9487V14.9503V14.952V14.9535V14.9551V14.9566V14.958V14.9595V14.9609V14.9622V14.9636V14.9649V14.9661V14.9673V14.9685V14.9697V14.9708V14.9718V14.9729V14.9739V14.9748V14.9758V14.9766V14.9775V14.9783V14.9791V14.9798V14.9805V14.9812V14.9818V14.9824V14.983V14.9835V14.984V14.9844V14.9848V14.9852V14.9855V14.9858V14.986V14.9862V14.9864V14.9865V14.9866V14.9867L6.31641 14.9867H6.06641C6.06641 15.3135 6.33132 15.5785 6.65814 15.5785H15.14C15.4668 15.5785 15.7316 15.3135 15.7316 14.9867V11.544ZM11.2627 8.25839C13.0772 8.25839 14.5483 9.72948 14.5483 11.544V14.395H7.24972V11.544C7.24972 9.72949 8.72081 8.25839 10.5355 8.25839H10.5369H10.5383H10.5397H10.5412H10.5426H10.544H10.5454H10.5468H10.5482H10.5497H10.5511H10.5525H10.5539H10.5553H10.5567H10.5582H10.5596H10.561H10.5624H10.5638H10.5652H10.5667H10.5681H10.5695H10.5709H10.5723H10.5737H10.5752H10.5766H10.578H10.5794H10.5808H10.5823H10.5837H10.5851H10.5865H10.5879H10.5893H10.5908H10.5922H10.5936H10.595H10.5964H10.5978H10.5993H10.6007H10.6021H10.6035H10.6049H10.6064H10.6078H10.6092H10.6106H10.612H10.6135H10.6149H10.6163H10.6177H10.6191H10.6205H10.622H10.6234H10.6248H10.6262H10.6276H10.6291H10.6305H10.6319H10.6333H10.6347H10.6362H10.6376H10.639H10.6404H10.6418H10.6432H10.6447H10.6461H10.6475H10.6489H10.6503H10.6518H10.6532H10.6546H10.656H10.6574H10.6589H10.6603H10.6617H10.6631H10.6645H10.666H10.6674H10.6688H10.6702H10.6716H10.6731H10.6745H10.6759H10.6773H10.6787H10.6802H10.6816H10.683H10.6844H10.6858H10.6873H10.6887H10.6901H10.6915H10.6929H10.6944H10.6958H10.6972H10.6986H10.7H10.7015H10.7029H10.7043H10.7057H10.7071H10.7086H10.71H10.7114H10.7128H10.7142H10.7157H10.7171H10.7185H10.7199H10.7213H10.7228H10.7242H10.7256H10.727H10.7284H10.7299H10.7313H10.7327H10.7341H10.7355H10.737H10.7384H10.7398H10.7412H10.7426H10.7441H10.7455H10.7469H10.7483H10.7498H10.7512H10.7526H10.754H10.7554H10.7569H10.7583H10.7597H10.7611H10.7625H10.764H10.7654H10.7668H10.7682H10.7696H10.7711H10.7725H10.7739H10.7753H10.7768H10.7782H10.7796H10.781H10.7824H10.7839H10.7853H10.7867H10.7881H10.7895H10.791H10.7924H10.7938H10.7952H10.7967H10.7981H10.7995H10.8009H10.8023H10.8038H10.8052H10.8066H10.808H10.8094H10.8109H10.8123H10.8137H10.8151H10.8166H10.818H10.8194H10.8208H10.8222H10.8237H10.8251H10.8265H10.8279H10.8293H10.8308H10.8322H10.8336H10.835H10.8365H10.8379H10.8393H10.8407H10.8421H10.8436H10.845H10.8464H10.8478H10.8493H10.8507H10.8521H10.8535H10.8549H10.8564H10.8578H10.8592H10.8606H10.8621H10.8635H10.8649H10.8663H10.8677H10.8692H10.8706H10.872H10.8734H10.8748H10.8763H10.8777H10.8791H10.8805H10.882H10.8834H10.8848H10.8862H10.8876H10.8891H10.8905H10.8919H10.8933H10.8948H10.8962H10.8976H10.899H10.9004H10.9019H10.9033H10.9047H10.9061H10.9076H10.909H10.9104H10.9118H10.9132H10.9147H10.9161H10.9175H10.9189H10.9204H10.9218H10.9232H10.9246H10.926H10.9275H10.9289H10.9303H10.9317H10.9331H10.9346H10.936H10.9374H10.9388H10.9403H10.9417H10.9431H10.9445H10.9459H10.9474H10.9488H10.9502H10.9516H10.9531H10.9545H10.9559H10.9573H10.9587H10.9602H10.9616H10.963H10.9644H10.9659H10.9673H10.9687H10.9701H10.9715H10.973H10.9744H10.9758H10.9772H10.9787H10.9801H10.9815H10.9829H10.9843H10.9858H10.9872H10.9886H10.99H10.9914H10.9929H10.9943H10.9957H10.9971H10.9986H11H11.0014H11.0028H11.0042H11.0057H11.0071H11.0085H11.0099H11.0114H11.0128H11.0142H11.0156H11.017H11.0185H11.0199H11.0213H11.0227H11.0241H11.0256H11.027H11.0284H11.0298H11.0313H11.0327H11.0341H11.0355H11.0369H11.0384H11.0398H11.0412H11.0426H11.044H11.0455H11.0469H11.0483H11.0497H11.0512H11.0526H11.054H11.0554H11.0568H11.0583H11.0597H11.0611H11.0625H11.0639H11.0654H11.0668H11.0682H11.0696H11.0711H11.0725H11.0739H11.0753H11.0767H11.0782H11.0796H11.081H11.0824H11.0838H11.0853H11.0867H11.0881H11.0895H11.0909H11.0924H11.0938H11.0952H11.0966H11.098H11.0995H11.1009H11.1023H11.1037H11.1052H11.1066H11.108H11.1094H11.1108H11.1123H11.1137H11.1151H11.1165H11.1179H11.1194H11.1208H11.1222H11.1236H11.125H11.1265H11.1279H11.1293H11.1307H11.1321H11.1336H11.135H11.1364H11.1378H11.1392H11.1407H11.1421H11.1435H11.1449H11.1463H11.1478H11.1492H11.1506H11.152H11.1534H11.1549H11.1563H11.1577H11.1591H11.1605H11.162H11.1634H11.1648H11.1662H11.1676H11.1691H11.1705H11.1719H11.1733H11.1747H11.1762H11.1776H11.179H11.1804H11.1818H11.1832H11.1847H11.1861H11.1875H11.1889H11.1903H11.1918H11.1932H11.1946H11.196H11.1974H11.1989H11.2003H11.2017H11.2031H11.2045H11.206H11.2074H11.2088H11.2102H11.2116H11.213H11.2145H11.2159H11.2173H11.2187H11.2201H11.2216H11.223H11.2244H11.2258H11.2272H11.2287H11.2301H11.2315H11.2329H11.2343H11.2357H11.2372H11.2386H11.24H11.2414H11.2428H11.2442H11.2457H11.2471H11.2485H11.2499H11.2513H11.2528H11.2542H11.2556H11.257H11.2584H11.2598H11.2613H11.2627Z" fill="#7D8EB5" stroke="#7D8EB5" stroke-width="0.5"/>
<path d="M13.6088 9.24476L13.6089 9.24478C14.1897 9.83736 14.5475 10.6488 14.5475 11.5441V14.395H12.9316H12.6816V14.645V15.3285V15.5785H12.9316H20.6583C20.9851 15.5785 21.25 15.3136 21.25 14.9868V11.5302C21.25 9.06962 19.2554 7.07515 16.795 7.07515C15.5461 7.07515 14.4168 7.58922 13.6081 8.41707L13.608 8.41712C13.3832 8.64733 13.3836 9.0149 13.6088 9.24476ZM9.06828 15.5785H9.31828L7.24897 11.5441C7.24897 10.6052 7.64256 9.75863 8.27418 9.1598L8.27448 9.15952C8.39173 9.04799 8.45864 8.89304 8.45864 8.73068H8.20864L8.45863 8.73112C8.45892 8.56864 8.39231 8.41345 8.27481 8.30168C7.47601 7.54182 6.39473 7.07515 5.20501 7.07515C2.74447 7.07515 0.75 9.06962 0.75 11.5302V11.5405V11.5508V11.5611V11.5714V11.5817V11.592V11.6023V11.6126V11.6229V11.6332V11.6435V11.6538V11.6641V11.6743V11.6846V11.6949V11.7052V11.7154V11.7257V11.736V11.7463V11.7565V11.7668V11.777V11.7873V11.7975V11.8078V11.818V11.8283V11.8385V11.8487V11.859V11.8692V11.8794V11.8896V11.8998V11.9101V11.9203V11.9305V11.9407V11.9509V11.961V11.9712V11.9814V11.9916V12.0017V12.0119V12.0221V12.0322V12.0424V12.0525V12.0627V12.0728V12.0829V12.0931V12.1032V12.1133V12.1234V12.1335V12.1436V12.1537V12.1638V12.1738V12.1839V12.194V12.204V12.2141V12.2241V12.2342V12.2442V12.2542V12.2643V12.2743V12.2843V12.2943V12.3043V12.3143V12.3242V12.3342V12.3442V12.3541V12.3641V12.374V12.384V12.3939V12.4038V12.4137V12.4236V12.4335V12.4434V12.4533V12.4632V12.473V12.4829V12.4928V12.5026V12.5124V12.5223V12.5321V12.5419V12.5517V12.5615V12.5712V12.581V12.5908V12.6005V12.6103V12.62V12.6297V12.6394V12.6491V12.6588V12.6685V12.6782V12.6879V12.6975V12.7072V12.7168V12.7264V12.7361V12.7457V12.7553V12.7649V12.7744V12.784V12.7935V12.8031V12.8126V12.8222V12.8317V12.8412V12.8507V12.8601V12.8696V12.8791V12.8885V12.8979V12.9074V12.9168V12.9262V12.9356V12.9449V12.9543V12.9637V12.973V12.9823V12.9916V13.0009V13.0102V13.0195V13.0288V13.038V13.0473V13.0565V13.0657V13.0749V13.0841V13.0933V13.1025V13.1116V13.1208V13.1299V13.139V13.1481V13.1572V13.1662V13.1753V13.1844V13.1934V13.2024V13.2114V13.2204V13.2294V13.2383V13.2473V13.2562V13.2651V13.274V13.2829V13.2918V13.3007V13.3095V13.3183V13.3272V13.336V13.3448V13.3535V13.3623V13.371V13.3798V13.3885V13.3972V13.4058V13.4145V13.4232V13.4318V13.4404V13.449V13.4576V13.4662V13.4747V13.4833V13.4918V13.5003V13.5088V13.5172V13.5257V13.5341V13.5426V13.551V13.5594V13.5677V13.5761V13.5844V13.5928V13.6011V13.6093V13.6176V13.6259V13.6341V13.6423V13.6505V13.6587V13.6669V13.675V13.6831V13.6913V13.6994V13.7074V13.7155V13.7235V13.7315V13.7395V13.7475V13.7555V13.7634V13.7714V13.7793V13.7872V13.795V13.8029V13.8107V13.8185V13.8263V13.8341V13.8419V13.8496V13.8573V13.865V13.8727V13.8804V13.888V13.8956V13.9032V13.9108V13.9184V13.9259V13.9334V13.9409V13.9484V13.9559V13.9633V13.9707V13.9781V13.9855V13.9928V14.0002V14.0075V14.0148V14.022V14.0293V14.0365V14.0437V14.0509V14.0581V14.0652V14.0723V14.0794V14.0865V14.0936V14.1006V14.1076V14.1146V14.1216V14.1285V14.1354V14.1423V14.1492V14.1561V14.1629V14.1697V14.1765V14.1833V14.19V14.1967V14.2034V14.2101V14.2168V14.2234V14.23V14.2366V14.2431V14.2497V14.2562V14.2627V14.2691V14.2756V14.282V14.2884V14.2947V14.3011V14.3074V14.3137V14.32V14.3262V14.3324V14.3386V14.3448V14.3509V14.3571V14.3632V14.3692V14.3753V14.3813V14.3873V14.3933V14.3992V14.4052V14.4111V14.4169V14.4228V14.4286V14.4344V14.4402V14.4459V14.4516V14.4573V14.463V14.4686V14.4742V14.4798V14.4854V14.4909V14.4964V14.5019V14.5073V14.5128V14.5182V14.5236V14.5289V14.5342V14.5395V14.5448V14.55V14.5552V14.5604V14.5656V14.5707V14.5758V14.5809V14.5859V14.5909V14.5959V14.6009V14.6058V14.6107V14.6156V14.6205V14.6253V14.6301V14.6348V14.6396V14.6443V14.649V14.6536V14.6582V14.6628V14.6674V14.6719V14.6764V14.6809V14.6853V14.6898V14.6941V14.6985V14.7028V14.7071V14.7114V14.7156V14.7199V14.724V14.7282V14.7323V14.7364V14.7404V14.7445V14.7485V14.7524V14.7564V14.7603V14.7642V14.768V14.7718V14.7756V14.7794V14.7831V14.7868V14.7904V14.7941V14.7977V14.8012V14.8048V14.8083V14.8117V14.8152V14.8186V14.822V14.8253V14.8286V14.8319V14.8351V14.8384V14.8415V14.8447V14.8478V14.8509V14.854V14.857V14.86V14.8629V14.8658V14.8687V14.8716V14.8744V14.8772V14.88V14.8827V14.8854V14.888V14.8907V14.8933V14.8958V14.8983V14.9008V14.9033V14.9057V14.9081V14.9104V14.9128V14.915V14.9173V14.9195V14.9217V14.9238V14.9259V14.928V14.9301V14.9321V14.9341V14.936V14.9379V14.9398V14.9416V14.9434V14.9452V14.9469V14.9486V14.9502V14.9518V14.9534V14.955V14.9565V14.958V14.9594V14.9608V14.9622V14.9635V14.9648V14.9661V14.9673V14.9685V14.9696V14.9708V14.9718V14.9729V14.9739V14.9748V14.9758V14.9767V14.9775V14.9783V14.9791V14.9799V14.9806V14.9812V14.9819V14.9825V14.983V14.9835V14.984V14.9845V14.9849V14.9852V14.9856V14.9858V14.9861V14.9863V14.9865V14.9866V14.9867V14.9868L1 14.9868H0.75C0.75 15.3135 1.01484 15.5785 1.34157 15.5785H9.06828ZM20.0665 11.5302V14.395H15.7309V11.5441C15.7309 10.5515 15.407 9.63404 14.8593 8.89231C15.4015 8.49369 16.0705 8.25846 16.795 8.25846C18.6019 8.25846 20.0665 9.72325 20.0665 11.5302ZM5.20501 8.25846C5.87136 8.25846 6.4908 8.45748 7.00753 8.79954C6.41749 9.55677 6.06566 10.5097 6.06566 11.5441V14.395H1.93331V11.5302C1.93331 9.72327 3.39812 8.25846 5.20501 8.25846ZM11 0.75C9.38272 0.75 8.0699 2.06282 8.0699 3.6801C8.0699 5.29723 9.38272 6.61004 11 6.61004C12.6171 6.61004 13.9299 5.29722 13.9299 3.6801C13.9299 2.06283 12.6171 0.75 11 0.75ZM11 1.93331C11.9638 1.93331 12.7466 2.71612 12.7466 3.6801C12.7466 4.6439 11.9638 5.42672 11 5.42672C10.036 5.42672 9.25338 4.64392 9.25338 3.6801C9.25338 2.7161 10.0361 1.93331 11 1.93331ZM17.2089 0.75C15.5916 0.75 14.2788 2.06282 14.2788 3.6801C14.2788 5.29723 15.5916 6.61004 17.2089 6.61004C18.826 6.61004 20.1389 5.29722 20.1389 3.6801C20.1389 2.06283 18.826 0.75 17.2089 0.75ZM17.2089 1.93331C18.1727 1.93331 18.9555 2.71612 18.9555 3.6801C18.9555 4.64391 18.1727 5.42672 17.2089 5.42672C16.245 5.42672 15.4623 4.64392 15.4623 3.6801C15.4623 2.7161 16.245 1.93331 17.2089 1.93331ZM4.79108 0.75C3.1738 0.75 1.86098 2.06282 1.86098 3.6801C1.86098 5.29723 3.17381 6.61004 4.79108 6.61004C6.4082 6.61004 7.72102 5.29722 7.72102 3.6801C7.72102 2.06283 6.40821 0.75 4.79108 0.75ZM4.79108 1.93331C5.75487 1.93331 6.5377 2.71612 6.5377 3.6801C6.5377 4.6439 5.75489 5.42672 4.79108 5.42672C3.82713 5.42672 3.04446 4.64392 3.04446 3.6801C3.04446 2.7161 3.82714 1.93331 4.79108 1.93331Z" fill="#7D8EB5" stroke="#7D8EB5" stroke-width="0.5"/>
</svg>
