<svg width="96" height="96" viewBox="0 0 96 96" fill="none" xmlns="http://www.w3.org/2000/svg">
<path d="M35.4004 61.5L40.2004 34.5H47.7004L43.0504 61.5H35.4004Z" fill="#3C58BF"/>
<path d="M35.4004 61.5L41.5504 34.5H47.7004L43.0504 61.5H35.4004Z" fill="#293688"/>
<path d="M70.2 34.8001C68.7 34.2001 66.3 33.6001 63.3 33.6001C55.8 33.6001 50.4 37.3501 50.4 42.7501C50.4 46.8001 54.15 48.9001 57.15 50.2501C60.15 51.6001 61.05 52.5001 61.05 53.7001C61.05 55.5001 58.65 56.4001 56.55 56.4001C53.55 56.4001 51.9 55.9501 49.35 54.9001L48.3 54.4501L47.25 60.6001C49.05 61.3501 52.35 62.1001 55.8 62.1001C63.75 62.1001 69 58.3501 69 52.6501C69 49.5001 67.05 47.1001 62.55 45.1501C59.85 43.8001 58.2 43.0501 58.2 41.7001C58.2 40.5001 59.55 39.3001 62.55 39.3001C65.1 39.3001 66.9 39.7501 68.25 40.3501L69 40.6501L70.2 34.8001Z" fill="#3C58BF"/>
<path d="M70.2 34.8001C68.7 34.2001 66.3 33.6001 63.3 33.6001C55.8 33.6001 51.75 37.3501 51.75 42.7501C51.75 46.8001 54.15 48.9001 57.15 50.2501C60.15 51.6001 61.05 52.5001 61.05 53.7001C61.05 55.5001 58.65 56.4001 56.55 56.4001C53.55 56.4001 51.9 55.9501 49.35 54.9001L48.3 54.4501L47.25 60.6001C49.05 61.3501 52.35 62.1001 55.8 62.1001C63.75 62.1001 69 58.3501 69 52.6501C69 49.5001 67.05 47.1001 62.55 45.1501C59.85 43.8001 58.2 43.0501 58.2 41.7001C58.2 40.5001 59.55 39.3001 62.55 39.3001C65.1 39.3001 66.9 39.7501 68.25 40.3501L69 40.6501L70.2 34.8001Z" fill="#293688"/>
<path d="M83.1002 34.5C81.3002 34.5 79.9502 34.65 79.2002 36.45L67.9502 61.5H76.0502L77.5502 57H87.1502L88.0502 61.5H95.2502L88.9502 34.5H83.1002ZM79.6502 52.5C80.1002 51.15 82.6502 44.55 82.6502 44.55C82.6502 44.55 83.2502 42.9 83.7002 41.85L84.1502 44.4C84.1502 44.4 85.6502 51.15 85.9502 52.65H79.6502V52.5Z" fill="#3C58BF"/>
<path d="M84.9002 34.5C83.1002 34.5 81.7502 34.65 81.0002 36.45L67.9502 61.5H76.0502L77.5502 57H87.1502L88.0502 61.5H95.2502L88.9502 34.5H84.9002ZM79.6502 52.5C80.2502 51 82.6502 44.55 82.6502 44.55C82.6502 44.55 83.2502 42.9 83.7002 41.85L84.1502 44.4C84.1502 44.4 85.6502 51.15 85.9502 52.65H79.6502V52.5Z" fill="#293688"/>
<path d="M21.5996 53.3999L20.8496 49.4999C19.4996 44.9999 15.1496 40.0499 10.3496 37.6499L17.0996 61.6499H25.1996L37.3496 34.6499H29.2496L21.5996 53.3999Z" fill="#3C58BF"/>
<path d="M21.5996 53.3999L20.8496 49.4999C19.4996 44.9999 15.1496 40.0499 10.3496 37.6499L17.0996 61.6499H25.1996L37.3496 34.6499H30.7496L21.5996 53.3999Z" fill="#293688"/>
<path d="M0.75 34.5L2.1 34.8C11.7 37.05 18.3 42.75 20.85 49.5L18.15 36.75C17.7 34.95 16.35 34.5 14.7 34.5H0.75Z" fill="#FFBC00"/>
<path d="M0.75 34.5C10.35 36.75 18.3 42.6 20.85 49.35L18.3 38.7C17.85 36.9 16.35 35.85 14.7 35.85L0.75 34.5Z" fill="#F7981D"/>
<path d="M0.75 34.5C10.35 36.75 18.3 42.6 20.85 49.35L19.05 43.5C18.6 41.7 18 39.9 15.9 39.15L0.75 34.5Z" fill="#ED7C00"/>
<path d="M29.1 52.5L24 47.4L21.6 53.1L21 49.35C19.65 44.85 15.3 39.9 10.5 37.5L17.25 61.5H25.35L29.1 52.5Z" fill="#051244"/>
<path d="M43.0504 61.4999L36.6004 54.8999L35.4004 61.4999H43.0504Z" fill="#051244"/>
<path d="M60.3 52.2002C60.9 52.8002 61.2 53.2502 61.05 53.8502C61.05 55.6502 58.65 56.5502 56.55 56.5502C53.55 56.5502 51.9 56.1002 49.35 55.0502L48.3 54.6002L47.25 60.7502C49.05 61.5002 52.35 62.2502 55.8 62.2502C60.6 62.2502 64.5 60.9002 66.75 58.5002L60.3 52.2002Z" fill="#051244"/>
<path d="M69 61.5001H76.05L77.55 57.0001H87.15L88.05 61.5001H95.25L92.7 50.5501L83.7 41.8501L84.15 44.2501C84.15 44.2501 85.65 51.0001 85.95 52.5001H79.65C80.25 51.0001 82.65 44.5501 82.65 44.5501C82.65 44.5501 83.25 42.9001 83.7 41.8501" fill="#051244"/>
</svg>
