<svg width="24" height="21" viewBox="0 0 24 21" fill="none" xmlns="http://www.w3.org/2000/svg">
<path d="M22.1538 0H1.84615C1.35652 0 0.886947 0.194505 0.540726 0.540726C0.194505 0.886947 0 1.35652 0 1.84615V18.4615C0 18.9512 0.194505 19.4207 0.540726 19.767C0.886947 20.1132 1.35652 20.3077 1.84615 20.3077H3.39231C3.5671 20.3082 3.73834 20.2584 3.88564 20.1643C4.03293 20.0702 4.15006 19.9357 4.22308 19.7769C4.67473 18.8317 5.38467 18.0336 6.27083 17.4749C7.157 16.9162 8.18319 16.6197 9.23077 16.6197C10.2784 16.6197 11.3045 16.9162 12.1907 17.4749C13.0769 18.0336 13.7868 18.8317 14.2385 19.7769C14.3115 19.9357 14.4286 20.0702 14.5759 20.1643C14.7232 20.2584 14.8944 20.3082 15.0692 20.3077H22.1538C22.6435 20.3077 23.1131 20.1132 23.4593 19.767C23.8055 19.4207 24 18.9512 24 18.4615V1.84615C24 1.35652 23.8055 0.886947 23.4593 0.540726C23.1131 0.194505 22.6435 0 22.1538 0ZM6.46154 12C6.46154 11.4523 6.62395 10.9169 6.92824 10.4615C7.23253 10.0061 7.66502 9.65116 8.17103 9.44156C8.67704 9.23197 9.23384 9.17713 9.77102 9.28398C10.3082 9.39083 10.8016 9.65457 11.1889 10.0419C11.5762 10.4291 11.8399 10.9226 11.9468 11.4598C12.0536 11.9969 11.9988 12.5537 11.7892 13.0597C11.5796 13.5658 11.2247 13.9982 10.7693 14.3025C10.3139 14.6068 9.77847 14.7692 9.23077 14.7692C8.49726 14.7662 7.79466 14.4735 7.27598 13.9548C6.75731 13.4361 6.46458 12.7335 6.46154 12ZM22.1538 18.4615H15.6231C14.8526 17.1361 13.6922 16.0804 12.3 15.4385C12.9988 14.8163 13.4919 13.9964 13.7141 13.0876C13.9363 12.1787 13.877 11.2238 13.5442 10.3494C13.2113 9.47505 12.6205 8.72246 11.8502 8.19146C11.0799 7.66046 10.1664 7.37611 9.23077 7.37611C8.29516 7.37611 7.38164 7.66046 6.61132 8.19146C5.84099 8.72246 5.25024 9.47505 4.91737 10.3494C4.5845 11.2238 4.52523 12.1787 4.74743 13.0876C4.96962 13.9964 5.46278 14.8163 6.16154 15.4385C4.76931 16.0804 3.6089 17.1361 2.83846 18.4615H1.84615V1.84615H22.1538V18.4615ZM3.69231 6.46154V4.61539C3.69231 4.37057 3.78956 4.13578 3.96267 3.96267C4.13578 3.78956 4.37057 3.69231 4.61538 3.69231H19.3846C19.6294 3.69231 19.8642 3.78956 20.0373 3.96267C20.2104 4.13578 20.3077 4.37057 20.3077 4.61539V15.6923C20.3077 15.9371 20.2104 16.1719 20.0373 16.345C19.8642 16.5181 19.6294 16.6154 19.3846 16.6154H17.5385C17.2936 16.6154 17.0589 16.5181 16.8857 16.345C16.7126 16.1719 16.6154 15.9371 16.6154 15.6923C16.6154 15.4475 16.7126 15.2127 16.8857 15.0396C17.0589 14.8665 17.2936 14.7692 17.5385 14.7692H18.4615V5.53846H5.53846V6.46154C5.53846 6.70635 5.44121 6.94114 5.2681 7.11425C5.09499 7.28736 4.8602 7.38462 4.61538 7.38462C4.37057 7.38462 4.13578 7.28736 3.96267 7.11425C3.78956 6.94114 3.69231 6.70635 3.69231 6.46154Z" fill="#01226F"/>
</svg>
